<svg xmlns="http://www.w3.org/2000/svg" width="174.585" height="68.824" viewBox="0 0 174.585 68.824"><defs><style>.a,.c{fill:#866d4b;}.a{font-size:14px;font-family:SegoeUI, Segoe UI;}.b{font-size:10.76px;}</style></defs><g transform="translate(-895.404 -743.486)"><text class="a" transform="translate(906.626 749.311)"><tspan x="35.216" y="15">Best Serviced </tspan><tspan x="11.598" y="33.651">Apartment Company</tspan><tspan class="b"><tspan x="27.534" y="52.302">by Business Traveller</tspan></tspan></text><g transform="translate(895.404 743.486)"><g transform="translate(0 2.473)"><path class="c" d="M35.269,298.273a11.558,11.558,0,0,1-.89,2.991c-.177.415-.353.766-.473,1.019s-.206.4-.206.4a3.454,3.454,0,0,1-.728-.808,3.969,3.969,0,0,1-.663-2.495,7.418,7.418,0,0,1,1.1-3.2c.133-.219.264-.423.385-.6s.24-.334.336-.46c.2-.255.324-.4.324-.4a3.793,3.793,0,0,1,.522.976,5.045,5.045,0,0,1,.284,1.121A5.462,5.462,0,0,1,35.269,298.273Z" transform="translate(-24.74 -294.718)"/><path class="c" d="M31.88,304.24a12.215,12.215,0,0,1-.073,3.434c-.03.248-.067.48-.107.686s-.063.389-.094.538c-.059.3-.105.483-.105.483a3.817,3.817,0,0,1-1.013-.647,4.387,4.387,0,0,1-.827-.955,4.535,4.535,0,0,1-.609-1.51,8.209,8.209,0,0,1,.222-3.7,11.359,11.359,0,0,1,.435-1.32c.125-.324.219-.51.219-.51a2.578,2.578,0,0,1,.26.214,4.991,4.991,0,0,1,.595.654,5.436,5.436,0,0,1,.646,1.095A5.967,5.967,0,0,1,31.88,304.24Z" transform="translate(-25.815 -292.799)"/><path class="c" d="M30.219,310.83a16.464,16.464,0,0,1,.992,3.653c.047.27.078.527.113.752s.069.427.09.6c.045.334.058.535.058.535a2.851,2.851,0,0,1-.364-.047,4.529,4.529,0,0,1-.91-.269A4.853,4.853,0,0,1,29,315.331a5.172,5.172,0,0,1-1.141-1.428,8.971,8.971,0,0,1-.877-4.1c0-.313.013-.6.03-.868s.041-.5.065-.691c.054-.384.1-.611.1-.611a4.525,4.525,0,0,1,1.139.692,6.343,6.343,0,0,1,.989.994A6.8,6.8,0,0,1,30.219,310.83Z" transform="translate(-26.434 -290.603)"/><path class="c" d="M30.817,317.563a18.814,18.814,0,0,1,2.327,3.392c.069.134.137.258.2.38l.191.347c.117.216.218.413.3.576.162.328.261.522.261.522a3.018,3.018,0,0,1-.39.084,4.874,4.874,0,0,1-1.043.061,5.041,5.041,0,0,1-3.157-1.352,9.572,9.572,0,0,1-2.386-3.932c-.119-.331-.2-.653-.273-.938s-.135-.543-.177-.757c-.075-.43-.107-.694-.107-.694a3.128,3.128,0,0,1,.4.054,6.178,6.178,0,0,1,1.011.3,7.268,7.268,0,0,1,1.366.707,6.829,6.829,0,0,1,.728.551A7.052,7.052,0,0,1,30.817,317.563Z" transform="translate(-26.567 -288.174)"/><path class="c" d="M33.59,323.735c.17.092.33.2.5.3s.331.208.492.32c.318.222.621.455.927.687.149.116.3.236.435.353.07.059.14.121.208.181s.141.117.212.171c.274.232.529.46.764.679.491.415.872.814,1.167,1.08s.448.443.448.443a3.731,3.731,0,0,1-.368.227,5.276,5.276,0,0,1-1.038.419,5.037,5.037,0,0,1-1.622.2,5.564,5.564,0,0,1-2.09-.492,10.226,10.226,0,0,1-3.8-3.249c-.232-.3-.421-.6-.595-.87s-.327-.51-.434-.72c-.224-.418-.344-.677-.344-.677a3.635,3.635,0,0,1,.43-.079,6.3,6.3,0,0,1,1.139-.033c.236.013.489.041.765.083a7.933,7.933,0,0,1,.87.183,7.221,7.221,0,0,1,.932.324A8.694,8.694,0,0,1,33.59,323.735Z" transform="translate(-25.966 -285.812)"/><path class="c" d="M38.161,328.888a17.68,17.68,0,0,1,2.412.665c.38.138.764.27,1.122.407.179.073.352.142.522.21s.342.127.5.189c.634.269,1.191.477,1.576.657.19.09.351.144.458.194s.164.067.164.067a3.366,3.366,0,0,1-.28.371,5.491,5.491,0,0,1-.882.833,5.591,5.591,0,0,1-1.561.806,5.1,5.1,0,0,1-1.067.237,6.419,6.419,0,0,1-1.263.025,9.226,9.226,0,0,1-1.374-.243,12.493,12.493,0,0,1-1.35-.467c-.435-.194-.856-.409-1.261-.63s-.765-.475-1.113-.713c-.086-.057-.169-.117-.251-.174s-.16-.124-.236-.185c-.153-.116-.3-.233-.431-.343-.27-.226-.51-.427-.694-.609-.373-.359-.584-.584-.584-.584a3.686,3.686,0,0,1,.415-.222,6.8,6.8,0,0,1,1.16-.4,7.276,7.276,0,0,1,.814-.162,8.619,8.619,0,0,1,.953-.094,9.149,9.149,0,0,1,1.068.02A8.928,8.928,0,0,1,38.161,328.888Z" transform="translate(-24.655 -283.885)"/><path class="c" d="M44.189,332.539a12.016,12.016,0,0,1,1.341-.179c.452-.054.9-.087,1.333-.1.442-.037.869-.05,1.279-.055.414-.024.808-.037,1.176-.037.737-.034,1.369-.025,1.821-.053.451-.009.721,0,.721,0a3.658,3.658,0,0,1-.109.483,5.7,5.7,0,0,1-.5,1.182,5.812,5.812,0,0,1-.487.733c-.1.127-.206.255-.32.381s-.244.244-.381.363a6.03,6.03,0,0,1-2.226,1.234,7.71,7.71,0,0,1-1.5.32,9.18,9.18,0,0,1-1.582.065,10.431,10.431,0,0,1-1.559-.149,11.39,11.39,0,0,1-1.439-.3c-.224-.055-.443-.115-.649-.179s-.4-.135-.583-.2c-.367-.135-.695-.253-.956-.371-.524-.241-.831-.4-.831-.4a3.505,3.505,0,0,1,.345-.367,7.208,7.208,0,0,1,1.039-.814,10.069,10.069,0,0,1,1.714-.89A11.889,11.889,0,0,1,44.189,332.539Z" transform="translate(-22.686 -282.802)"/></g><path class="c" d="M36.648,298.459a6.1,6.1,0,0,0-2.391,1.822,9.033,9.033,0,0,0-.665.9c-.149.237-.231.381-.231.381a4.15,4.15,0,0,0,1.068.2,5.1,5.1,0,0,0,2.405-.411,9.033,9.033,0,0,0,2.263-1.564c.146-.132.277-.256.393-.371s.219-.212.3-.3c.166-.171.258-.278.258-.278a3.757,3.757,0,0,0-.975-.45,3.844,3.844,0,0,0-1.084-.174A3.642,3.642,0,0,0,36.648,298.459Z" transform="translate(-24.401 -291.129)"/><path class="c" d="M33.469,304.25a6.891,6.891,0,0,0-2.01,2.64c-.105.227-.193.44-.269.634s-.128.371-.174.517c-.094.294-.137.476-.137.476a4.783,4.783,0,0,0,1.2-.095,5.736,5.736,0,0,0,1.167-.368,5.536,5.536,0,0,0,1.274-.769,9.817,9.817,0,0,0,1.957-2.343c.229-.373.419-.7.545-.938s.2-.384.2-.384a3.211,3.211,0,0,0-.326-.082,4.408,4.408,0,0,0-.852-.092,4.58,4.58,0,0,0-1.2.146A4.3,4.3,0,0,0,33.469,304.25Z" transform="translate(-25.193 -289.463)"/><path class="c" d="M31.729,310.677a6.751,6.751,0,0,0-1.288,3.365c-.03.269-.061.525-.067.752s-.005.43,0,.6c.008.339.022.541.022.541a2.724,2.724,0,0,0,.351-.115,5.748,5.748,0,0,0,.862-.4,6.459,6.459,0,0,0,1.084-.768,6.028,6.028,0,0,0,1.071-1.183,10.7,10.7,0,0,0,1.341-2.91c.065-.219.129-.425.181-.612s.088-.353.124-.489c.071-.277.1-.448.1-.448a4.648,4.648,0,0,0-1.3.129,4.506,4.506,0,0,0-1.229.48A4.289,4.289,0,0,0,31.729,310.677Z" transform="translate(-25.355 -287.694)"/><path class="c" d="M31.962,317.246a7.164,7.164,0,0,0-.119,3.9c.033.144.059.284.095.415l.112.373c.074.236.146.443.206.615s.125.309.165.4.065.141.065.141a3.344,3.344,0,0,0,.316-.241,6.76,6.76,0,0,0,.727-.721,7.215,7.215,0,0,0,1.513-2.778,11.917,11.917,0,0,0,.342-3.406c-.012-.241-.005-.467-.018-.666s-.028-.376-.041-.522c-.012-.294-.037-.471-.037-.471a3.93,3.93,0,0,0-.378.12,5.65,5.65,0,0,0-.92.433,4.676,4.676,0,0,0-1.106.9,4.367,4.367,0,0,0-.518.67A4.741,4.741,0,0,0,31.962,317.246Z" transform="translate(-24.953 -286.01)"/><path class="c" d="M34.334,323.282a4.364,4.364,0,0,0,.008.542c.015.179.036.361.067.542a6.217,6.217,0,0,0,.258,1.063c.058.174.12.343.182.51.034.084.067.169.1.251s.074.157.112.236c.149.311.31.612.468.889a10.97,10.97,0,0,0,.916,1.283c.255.3.419.471.419.471a3.816,3.816,0,0,0,.239-.361,7.147,7.147,0,0,0,.492-1,8.7,8.7,0,0,0,.448-1.49,7.861,7.861,0,0,0,.146-1.849,13.09,13.09,0,0,0-.782-3.572c-.088-.241-.162-.472-.241-.669s-.157-.373-.21-.522c-.115-.294-.2-.463-.2-.463a4.1,4.1,0,0,0-.351.245,5.979,5.979,0,0,0-.8.752,5.766,5.766,0,0,0-.447.572,5.218,5.218,0,0,0-.7,1.569A5.624,5.624,0,0,0,34.334,323.282Z" transform="translate(-24.093 -284.46)"/><path class="c" d="M38.474,328.16a6.444,6.444,0,0,0,1.069,2.049,7.5,7.5,0,0,0,.754.864c.132.135.261.261.4.382s.272.227.4.334a10.081,10.081,0,0,0,1.4.951,4.105,4.105,0,0,0,.442.229c.1.049.161.074.161.074a4.218,4.218,0,0,0,.1-.45,7.881,7.881,0,0,0,.108-1.182,9.118,9.118,0,0,0-.1-1.663c-.05-.3-.107-.612-.189-.932a8.107,8.107,0,0,0-.311-.96,14.437,14.437,0,0,0-1.924-3.262l-.121-.156c-.038-.053-.076-.1-.112-.152-.075-.1-.148-.19-.216-.28-.14-.171-.272-.315-.371-.447-.207-.255-.344-.4-.344-.4s-.113.132-.278.365a6.372,6.372,0,0,0-.578,1.023,6.255,6.255,0,0,0-.272.728,5.424,5.424,0,0,0-.175.849,5.209,5.209,0,0,0-.029.969A5.468,5.468,0,0,0,38.474,328.16Z" transform="translate(-22.837 -283.179)"/><path class="c" d="M37.827,294.622a7.514,7.514,0,0,0-2.08,3.115c-.08.236-.149.447-.2.64s-.084.363-.112.5c-.053.278-.069.44-.069.44s.156-.058.414-.177c.128-.062.281-.134.455-.224s.373-.187.58-.3a15.8,15.8,0,0,0,2.863-1.937,18,18,0,0,0,2.3-2.535c.145-.182.274-.361.389-.518s.219-.286.3-.4c.164-.231.253-.375.253-.375s-.164-.013-.455-.011c-.145,0-.323.008-.527.02s-.43.055-.682.1a6.021,6.021,0,0,0-.8.2c-.142.042-.286.09-.435.14s-.289.121-.438.189-.3.14-.454.216-.294.175-.443.266-.3.193-.442.3S37.966,294.5,37.827,294.622Z" transform="translate(-23.762 -292.843)"/><path class="c" d="M44,331.229a6.954,6.954,0,0,0,.836.89,9.675,9.675,0,0,0,1,.717,12.174,12.174,0,0,0,1.091.545c.369.138.733.264,1.079.368a10.392,10.392,0,0,0,1.774.314c.451.04.721.045.721.045s-.026-.182-.105-.488a9.37,9.37,0,0,0-.409-1.207c-.1-.244-.216-.5-.351-.761-.067-.131-.138-.261-.214-.4s-.154-.28-.24-.415a8.878,8.878,0,0,0-.562-.827,9.96,9.96,0,0,0-.671-.814,16.116,16.116,0,0,0-2.978-2.408c-.112-.071-.222-.137-.326-.2s-.2-.133-.294-.19c-.187-.121-.359-.208-.5-.3-.278-.171-.452-.257-.452-.257s-.069.167-.156.463a7.014,7.014,0,0,0-.233,1.226,5.673,5.673,0,0,0,.095,1.734A5,5,0,0,0,44,331.229Z" transform="translate(-21.332 -282.325)"/><g transform="translate(26.499 52.732)"><path class="c" d="M51.119,339.01a8.349,8.349,0,0,0,1.408-3.988,11.7,11.7,0,0,0,.074-1.567c-.011-.393-.033-.625-.033-.625a6.293,6.293,0,0,0-1.473.607,7.454,7.454,0,0,0-2.6,2.368,11.985,11.985,0,0,0-1.468,3.568c-.07.261-.125.51-.167.731s-.091.413-.121.58c-.059.323-.079.52-.079.52a6.051,6.051,0,0,0,3.017-.865A5.286,5.286,0,0,0,51.119,339.01Z" transform="translate(-46.662 -332.831)"/></g></g><g transform="translate(10.451 -7.293)"><path class="c" d="M52.6,339.01a8.4,8.4,0,0,1-1.412-3.988,11.384,11.384,0,0,1-.07-1.567c.009-.393.03-.625.03-.625a6.288,6.288,0,0,1,1.474.607,7.468,7.468,0,0,1,2.6,2.368,12.008,12.008,0,0,1,1.465,3.568c.07.261.125.51.17.731s.091.413.119.58c.061.323.08.52.08.52a6.051,6.051,0,0,1-3.016-.865A5.249,5.249,0,0,1,52.6,339.01Z" transform="translate(975.804 470.68)"/><g transform="translate(1030.648 751.367)"><g transform="translate(0 6.862)"><path class="c" d="M67.252,298.712a6,6,0,0,1,2.359,1.779,8.286,8.286,0,0,1,.654.884c.149.233.225.374.225.374a4.07,4.07,0,0,1-1.063.21,5.027,5.027,0,0,1-2.389-.385,8.736,8.736,0,0,1-2.231-1.518c-.142-.127-.272-.249-.384-.361s-.216-.206-.3-.289c-.16-.169-.249-.273-.249-.273a3.843,3.843,0,0,1,.969-.452,3.733,3.733,0,0,1,1.076-.187A3.628,3.628,0,0,1,67.252,298.712Z" transform="translate(-50.777 -298.492)"/><path class="c" d="M70.36,304.379a6.714,6.714,0,0,1,1.994,2.6c.1.222.19.433.265.624s.127.367.173.51c.091.291.135.465.135.465a4.657,4.657,0,0,1-1.2-.087,5.743,5.743,0,0,1-1.163-.359,5.311,5.311,0,0,1-1.27-.754,9.518,9.518,0,0,1-1.942-2.3c-.225-.367-.414-.69-.538-.923s-.189-.378-.189-.378.116-.037.323-.082a4.544,4.544,0,0,1,.849-.095,4.38,4.38,0,0,1,1.2.14A4.126,4.126,0,0,1,70.36,304.379Z" transform="translate(-49.901 -296.866)"/><path class="c" d="M71.862,310.7a6.693,6.693,0,0,1,1.286,3.315c.03.266.059.516.069.74s0,.425,0,.592c-.005.332-.022.531-.022.531a3.35,3.35,0,0,1-.351-.113,5.966,5.966,0,0,1-.862-.4,6.384,6.384,0,0,1-1.084-.754,5.849,5.849,0,0,1-1.072-1.167,10.342,10.342,0,0,1-1.338-2.86c-.065-.214-.128-.418-.178-.6s-.088-.348-.123-.484c-.073-.272-.1-.438-.1-.438a4.609,4.609,0,0,1,1.294.124,4.552,4.552,0,0,1,1.229.469A4.312,4.312,0,0,1,71.862,310.7Z" transform="translate(-49.436 -295.127)"/><path class="c" d="M71.371,317.189a7.1,7.1,0,0,1,.128,3.864c-.03.144-.058.281-.095.41s-.075.256-.111.371c-.071.236-.142.438-.2.612a4.071,4.071,0,0,1-.161.39c-.041.092-.065.14-.065.14a3.358,3.358,0,0,1-.318-.241,6.56,6.56,0,0,1-.728-.719,7.145,7.145,0,0,1-1.519-2.755,11.66,11.66,0,0,1-.353-3.368c.012-.239,0-.463.018-.657s.025-.373.038-.517c.013-.291.036-.46.036-.46a3.653,3.653,0,0,1,.38.113,5.924,5.924,0,0,1,.92.429,4.758,4.758,0,0,1,1.109.887,4.642,4.642,0,0,1,.517.665A4.879,4.879,0,0,1,71.371,317.189Z" transform="translate(-49.481 -293.468)"/><path class="c" d="M69.107,323.206a4.577,4.577,0,0,1-.005.538c-.014.179-.037.357-.066.537a5.863,5.863,0,0,1-.256,1.058c-.055.171-.116.34-.181.508-.032.084-.066.166-.1.247l-.112.239c-.15.31-.309.607-.465.88a11.287,11.287,0,0,1-.909,1.276c-.253.3-.414.468-.414.468a3.259,3.259,0,0,1-.24-.361,6.971,6.971,0,0,1-.5-.994,8.8,8.8,0,0,1-.452-1.485,8.1,8.1,0,0,1-.153-1.844,12.9,12.9,0,0,1,.766-3.549c.09-.239.16-.467.239-.663s.157-.368.206-.518c.115-.29.2-.458.2-.458s.137.083.349.244a5.983,5.983,0,0,1,.8.746,4.9,4.9,0,0,1,.845,1.282,5.215,5.215,0,0,1,.307.856A5.323,5.323,0,0,1,69.107,323.206Z" transform="translate(-50.337 -291.93)"/><path class="c" d="M65.325,328.1a6.343,6.343,0,0,1-1.064,2.043,6.933,6.933,0,0,1-.752.864c-.128.129-.26.264-.392.382s-.269.227-.4.334a10.458,10.458,0,0,1-1.394.945,4.442,4.442,0,0,1-.439.228c-.1.05-.161.075-.161.075a4.493,4.493,0,0,1-.1-.45,8.26,8.26,0,0,1-.109-1.183,9.329,9.329,0,0,1,.1-1.662c.047-.293.1-.612.183-.93a9.479,9.479,0,0,1,.307-.959,14.485,14.485,0,0,1,1.912-3.253c.042-.053.083-.1.123-.154s.074-.1.111-.152c.074-.1.146-.19.216-.277.137-.174.269-.315.368-.447.206-.252.343-.39.343-.39a4.06,4.06,0,0,1,.277.363,6.4,6.4,0,0,1,.578,1.021,5.532,5.532,0,0,1,.274.728,5.42,5.42,0,0,1,.177.849,5.2,5.2,0,0,1,.032.969A5.44,5.44,0,0,1,65.325,328.1Z" transform="translate(-51.85 -290.644)"/><path class="c" d="M60.447,331.229a6.942,6.942,0,0,1-.835.89,9.692,9.692,0,0,1-1.006.717c-.357.2-.725.385-1.089.545-.369.138-.735.264-1.08.368a10.36,10.36,0,0,1-1.775.314c-.45.04-.719.045-.719.045a4.939,4.939,0,0,1,.1-.488,9.622,9.622,0,0,1,.41-1.207c.1-.244.216-.5.351-.761.067-.131.138-.261.214-.4s.157-.28.24-.415a9.143,9.143,0,0,1,.562-.827,10.241,10.241,0,0,1,.671-.814,16.12,16.12,0,0,1,2.979-2.408c.111-.071.219-.137.324-.2s.2-.133.293-.19c.189-.121.359-.208.5-.3.278-.171.454-.257.454-.257a4.629,4.629,0,0,1,.154.463,6.758,6.758,0,0,1,.235,1.226,5.591,5.591,0,0,1-.095,1.734A5.02,5.02,0,0,1,60.447,331.229Z" transform="translate(-53.943 -289.775)"/></g><path class="c" d="M67.746,298.525a11.018,11.018,0,0,0,.861,2.943c.171.413.345.756.462,1s.2.388.2.388a3.445,3.445,0,0,0,.735-.8,3.956,3.956,0,0,0,.678-2.467,7.231,7.231,0,0,0-1.067-3.152c-.129-.218-.257-.417-.373-.592s-.237-.326-.332-.451c-.2-.249-.318-.393-.318-.393a3.9,3.9,0,0,0-.527.973,5.186,5.186,0,0,0-.291,1.109A5.4,5.4,0,0,0,67.746,298.525Z" transform="translate(-49.556 -292.743)"/><path class="c" d="M71.157,304.365a11.916,11.916,0,0,0,.058,3.394c.032.243.067.469.1.671s.063.388.092.534c.057.3.1.473.1.473a3.76,3.76,0,0,0,1.015-.637,4.44,4.44,0,0,0,.829-.948,4.491,4.491,0,0,0,.615-1.5,8.091,8.091,0,0,0-.207-3.657,11.391,11.391,0,0,0-.43-1.3c-.121-.319-.215-.505-.215-.505a2.614,2.614,0,0,0-.262.214,5.07,5.07,0,0,0-.593.649,5.35,5.35,0,0,0-.651,1.088A5.769,5.769,0,0,0,71.157,304.365Z" transform="translate(-48.489 -290.865)"/><path class="c" d="M73.213,310.853a16.074,16.074,0,0,0-.992,3.605c-.047.269-.08.517-.115.741s-.067.421-.09.586c-.044.33-.057.529-.057.529a3.268,3.268,0,0,0,.363-.046,4.49,4.49,0,0,0,.911-.266,4.608,4.608,0,0,0,1.193-.709,4.96,4.96,0,0,0,1.141-1.406,8.777,8.777,0,0,0,.881-4.052c.005-.311-.013-.6-.032-.861s-.037-.492-.062-.68c-.053-.381-.1-.608-.1-.608a4.628,4.628,0,0,0-1.141.69,6.254,6.254,0,0,0-.992.985A6.879,6.879,0,0,0,73.213,310.853Z" transform="translate(-48.201 -288.701)"/><path class="c" d="M73.421,317.507a18.436,18.436,0,0,0-2.313,3.356c-.07.129-.138.256-.2.373s-.131.232-.189.342c-.119.216-.218.41-.3.572-.161.323-.26.517-.26.517a2.829,2.829,0,0,0,.392.09,4.935,4.935,0,0,0,4.188-1.269,9.444,9.444,0,0,0,2.376-3.9c.117-.328.193-.643.27-.927s.133-.538.175-.752c.076-.427.1-.684.1-.684a3.125,3.125,0,0,0-.4.05,6.191,6.191,0,0,0-1.01.294,7.434,7.434,0,0,0-1.365.7,6.858,6.858,0,0,0-.727.545A7.684,7.684,0,0,0,73.421,317.507Z" transform="translate(-48.775 -286.297)"/><path class="c" d="M71.4,323.659c-.171.091-.331.194-.5.3s-.331.207-.488.316c-.319.219-.621.452-.924.679-.149.113-.294.233-.434.351-.071.062-.14.121-.208.178l-.208.173c-.274.225-.527.455-.76.671-.488.415-.868.808-1.16,1.072s-.443.44-.443.44a3.265,3.265,0,0,0,.365.227,5.369,5.369,0,0,0,1.036.422,5.069,5.069,0,0,0,1.617.207,5.53,5.53,0,0,0,2.084-.485,10.127,10.127,0,0,0,3.783-3.224c.231-.3.418-.6.592-.868s.323-.508.431-.717c.222-.413.342-.669.342-.669a3.054,3.054,0,0,0-.43-.079,6.273,6.273,0,0,0-1.137-.041,7.53,7.53,0,0,0-.764.086,7.31,7.31,0,0,0-.869.181,7.44,7.44,0,0,0-.932.319A7.8,7.8,0,0,0,71.4,323.659Z" transform="translate(-50.012 -283.948)"/><path class="c" d="M67.4,328.834a17.382,17.382,0,0,0-2.405.657c-.377.14-.76.269-1.117.406-.178.073-.353.138-.522.208s-.338.128-.5.187c-.632.269-1.188.477-1.571.654-.191.09-.349.141-.456.189l-.164.073a3.862,3.862,0,0,0,.28.371,5.388,5.388,0,0,0,2.44,1.642,5.144,5.144,0,0,0,1.063.236,6.4,6.4,0,0,0,1.262.028,9.013,9.013,0,0,0,1.367-.239,12.582,12.582,0,0,0,1.349-.468c.433-.191.853-.408,1.255-.626s.766-.472,1.11-.709c.086-.059.171-.116.253-.174l.235-.182c.152-.119.293-.233.429-.343a9.183,9.183,0,0,0,.69-.609c.373-.356.586-.583.586-.583a3.634,3.634,0,0,0-.415-.218,6.587,6.587,0,0,0-1.159-.409c-.247-.062-.518-.117-.812-.162a8.338,8.338,0,0,0-.955-.094,8.572,8.572,0,0,0-1.066.017A8.484,8.484,0,0,0,67.4,328.834Z" transform="translate(-51.799 -282.017)"/><path class="c" d="M64.524,297.008a14.823,14.823,0,0,0,2.83,1.818c.206.1.4.191.575.27s.326.152.454.2c.255.107.41.16.41.16s-.02-.16-.08-.435c-.026-.142-.066-.309-.116-.5s-.127-.4-.214-.634a7.4,7.4,0,0,0-2.106-3.028c-.136-.112-.276-.223-.417-.326s-.29-.194-.438-.281-.289-.169-.436-.244-.3-.137-.443-.2-.287-.121-.43-.169-.285-.087-.422-.123-.268-.074-.4-.1-.258-.045-.377-.065c-.241-.033-.46-.058-.654-.067s-.368,0-.508,0c-.278.009-.434.03-.434.03s.088.138.249.363c.083.112.182.241.3.39s.239.323.38.5A16.35,16.35,0,0,0,64.524,297.008Z" transform="translate(-51.592 -293.289)"/><path class="c" d="M61.615,332.539a12.039,12.039,0,0,0-1.342-.179c-.452-.054-.9-.087-1.335-.1-.439-.037-.869-.05-1.278-.055-.414-.024-.808-.037-1.175-.037-.738-.034-1.369-.025-1.82-.053-.454-.009-.723,0-.723,0a3.562,3.562,0,0,0,.111.483,5.507,5.507,0,0,0,.492,1.182,5.83,5.83,0,0,0,.488.733c.1.127.2.255.32.381s.244.244.382.363a6.009,6.009,0,0,0,2.225,1.234,7.669,7.669,0,0,0,1.5.32,9.186,9.186,0,0,0,1.582.065,10.38,10.38,0,0,0,1.557-.149,11.314,11.314,0,0,0,1.44-.3c.224-.055.443-.115.65-.179s.4-.135.582-.2c.367-.135.7-.253.957-.371.522-.241.828-.4.828-.4a3.38,3.38,0,0,0-.344-.367,7.133,7.133,0,0,0-1.039-.814,10.053,10.053,0,0,0-1.713-.89A11.941,11.941,0,0,0,61.615,332.539Z" transform="translate(-53.943 -280.917)"/></g></g></g></svg>