<svg xmlns="http://www.w3.org/2000/svg" xmlns:xlink="http://www.w3.org/1999/xlink" width="120" height="84.849" viewBox="0 0 120 84.849">
  <defs>
    <clipPath id="clip-path">
      <path id="path16" d="M0-793.7H120v84.849H0Z" transform="translate(0 793.705)"/>
    </clipPath>
  </defs>
  <g id="g10" transform="translate(0 793.705)">
    <g id="g12" transform="translate(0 -793.705)">
      <g id="g14" clip-path="url(#clip-path)">
        <g id="g20" transform="translate(1.715 62.479)">
          <path id="path22" d="M-421.987-29.245c.084-.687.634-1.093,1.5-1.093.892,0,1.412.387,1.478,1.093Zm1.49-1.865a2.221,2.221,0,0,0-2.437,2.219c0,1.682.752,2.432,2.437,2.432a5.268,5.268,0,0,0,2.1-.391l.067-.034v-.873l-.188.117a4.235,4.235,0,0,1-1.776.409c-1.129,0-1.629-.373-1.7-1.282h3.923v-.378A2.141,2.141,0,0,0-420.5-31.11m22.879,3.586a3.81,3.81,0,0,1-1.492.268c-1.155,0-1.648-.489-1.648-1.635,0-.911.585-1.414,1.648-1.414a4.739,4.739,0,0,1,1.492.312Zm0-3.275a4.85,4.85,0,0,0-1.64-.31,2.2,2.2,0,0,0-2.461,2.219c0,1.682.8,2.432,2.608,2.432a5.533,5.533,0,0,0,2.372-.483l.065-.035v-5.769h-.945Zm-8.9-.8h.992v-.92h-.992Zm-5.9,2.317a4.825,4.825,0,0,1-.98-.266c-.181-.092-.181-.193-.181-.227,0-.472.8-.542,1.275-.542a3.864,3.864,0,0,1,1.682.4l.2.145V-30.7l-.124-.046a4.91,4.91,0,0,0-1.871-.368c-1.282,0-2.111.548-2.111,1.4,0,.935,1.343,1.172,2.233,1.33a4.621,4.621,0,0,1,.653.142c.312.113.439.22.439.369,0,.31-.354.641-1.345.641a4.121,4.121,0,0,1-1.781-.41l-.2-.152v.9l.057.037a5.165,5.165,0,0,0,2.063.4c1.891,0,2.173-.952,2.173-1.52,0-.852-1.208-1.1-2.178-1.307m20.531.042c.084-.687.634-1.093,1.5-1.093.892,0,1.412.387,1.478,1.093Zm1.49-1.865a2.222,2.222,0,0,0-2.438,2.219c0,1.682.752,2.432,2.438,2.432a5.262,5.262,0,0,0,2.1-.391l.068-.034v-.873l-.188.117a4.236,4.236,0,0,1-1.776.409c-1.129,0-1.629-.373-1.7-1.282h3.923v-.378a2.141,2.141,0,0,0-2.43-2.219m33.229,1.824a4.825,4.825,0,0,1-.98-.266c-.18-.092-.18-.193-.18-.227,0-.472.8-.542,1.275-.542a3.864,3.864,0,0,1,1.682.4l.2.145V-30.7l-.125-.046a4.916,4.916,0,0,0-1.87-.367c-1.283,0-2.111.548-2.111,1.4,0,.935,1.343,1.172,2.232,1.33a4.615,4.615,0,0,1,.653.142c.312.113.439.22.439.369,0,.31-.353.641-1.345.641a4.122,4.122,0,0,1-1.781-.41l-.2-.152v.9l.057.037a5.163,5.163,0,0,0,2.063.4c1.891,0,2.173-.952,2.173-1.52,0-.852-1.208-1.1-2.178-1.307m-9.564.042c.084-.687.634-1.093,1.5-1.093.892,0,1.412.387,1.478,1.093Zm1.49-1.865a2.221,2.221,0,0,0-2.437,2.219c0,1.682.752,2.432,2.437,2.432a5.265,5.265,0,0,0,2.1-.391l.067-.034v-.873l-.188.117a4.233,4.233,0,0,1-1.775.409c-1.129,0-1.629-.373-1.7-1.282h3.923v-.378a2.141,2.141,0,0,0-2.43-2.219m-6.2,3.461a3.835,3.835,0,0,1-1.547.392c-1.17,0-1.647-.471-1.647-1.627,0-.957.539-1.422,1.647-1.422a3.353,3.353,0,0,1,1.492.393l.2.159v-.923l-.058-.036a3.913,3.913,0,0,0-1.82-.4,2.117,2.117,0,0,0-2.422,2.219c0,1.7.724,2.432,2.422,2.432a4.12,4.12,0,0,0,1.89-.408l.042-.037,0-.892Zm-10.271-3.461a7.217,7.217,0,0,0-2.383.436l-.077.031v4.086h.945v-3.478a4.738,4.738,0,0,1,1.5-.269c.96,0,1.352.31,1.352,1.068v2.679h.945V-29.59c0-.694-.4-1.52-2.282-1.52m-24.78,4.552h.946v-4.454h-.946Zm-41.345-2.687c.084-.687.634-1.093,1.5-1.093.892,0,1.412.387,1.478,1.093Zm1.49-1.865a2.221,2.221,0,0,0-2.437,2.219c0,1.682.752,2.432,2.437,2.432a5.267,5.267,0,0,0,2.1-.391l.067-.034v-.873l-.188.117a4.235,4.235,0,0,1-1.776.409c-1.129,0-1.629-.373-1.7-1.282h3.923v-.378a2.141,2.141,0,0,0-2.429-2.219m-23.469,0a6.533,6.533,0,0,0-1.733.319v-1.954h-.945v6.188h.945v-3.476a5.535,5.535,0,0,1,1.5-.271c.96,0,1.352.31,1.352,1.068v2.679h.945V-29.59c0-1.009-.694-1.52-2.065-1.52m16.656,3.813c-.409,0-.653-.184-.653-.493v-2.416h1.39v-.805h-1.39V-32h-.946v4.33c0,1.042.867,1.175,1.622,1.175h.007l.226-.023c.178-.018.368-.037.516-.06l.1-.016v-.837l-.152.036a4.982,4.982,0,0,1-.724.1m13.037.739h.945v-6.187h-.945Zm12.956-4.552a7.343,7.343,0,0,0-2.011.379l-.077.031v4.142h.945V-30.1a5.283,5.283,0,0,1,1.4-.218c.064.01.138.017.211.023a1.244,1.244,0,0,1,.219.029l.164.058v-.812l-.082-.029a5.285,5.285,0,0,0-.771-.064m-34.088,3.854c-1.193,0-1.7-.489-1.7-1.635,0-.964.541-1.414,1.7-1.414s1.7.449,1.7,1.414c0,1.116-.541,1.635-1.7,1.635m0-3.854c-1.742,0-2.663.767-2.663,2.219,0,1.682.821,2.432,2.663,2.432,1.8,0,2.67-.8,2.67-2.432,0-1.493-.874-2.219-2.67-2.219" transform="translate(472.499 32.745)" fill="#414042"/>
        </g>
        <g id="g24" transform="translate(0 16.084)">
          <path id="path26" d="M-616.626-232.747a23.433,23.433,0,0,1-8.508-1.782v-13.995a19.079,19.079,0,0,1,8.508-1.651c5.918,0,9.37,2.564,9.37,8.127,0,6.519-3.165,9.3-9.37,9.3m.041-20.384a38.1,38.1,0,0,0-12.248,2.26V-221.1h3.7v-10.866c.781.7,4.562,2.129,9.33,2.129,7.234,0,12.412-3.129,12.412-12.213,0-7.736-4.768-11.083-13.193-11.083m21.369,1.956v20.818h3.7v-18.558a29.468,29.468,0,0,1,8.179-1.3,24.029,24.029,0,0,1,2.384.3v-2.912a30.121,30.121,0,0,0-3.863-.3,38.573,38.573,0,0,0-10.4,1.956m20.959,20.818h3.7v-22.252h-3.7Zm-.123-26.686h3.945v-3.564h-3.945ZM-686.654-242c0-5.607,3.288-8.171,9.37-8.171a18.272,18.272,0,0,1,8.3,2.216v-3.173a20.34,20.34,0,0,0-9.289-2c-7.069,0-12.165,3.39-12.165,11.083,0,8.519,3.494,12.213,12.165,12.213,5.014,0,9.124-1.608,9.576-2v-3.129a20.414,20.414,0,0,1-8.59,2.217c-6.288,0-9.37-2.608-9.37-9.258m45.248,8.345a33.5,33.5,0,0,1-9.329,1.043c-4.48,0-8.1-1.391-8.1-4.129,0-3.3,3.781-4.651,11.1-4.651h6.329ZM-650-253.131a29.911,29.911,0,0,0-10.686,2v3.042a28.442,28.442,0,0,1,9.823-2.216c7.151,0,9.453,1.869,9.453,5.129v1.26h-7.644c-7.439,0-13.48,2-13.48,7.345,0,4.781,4.274,6.736,11.672,6.736,6.741,0,11.549-.956,13.069-1.565v-13.473c0-5.215-2.794-8.258-12.206-8.258" transform="translate(690.436 260.606)" fill="#5f277b"/>
        </g>
        <g id="g28" transform="translate(72.571 51.892)">
          <path id="path30" d="M-20.473-23.754a.96.96,0,0,0-.575-.177c-.127-.007-.194-.007-.3-.007-.029,0-.04.015-.04.052v1.741c0,.485.021.607.242.7a1.17,1.17,0,0,0,.505.088.831.831,0,0,0,.841-.939,1.784,1.784,0,0,0-.675-1.462m-.913-.589c0,.058.021.073.046.081a1.7,1.7,0,0,0,.327.021.674.674,0,0,0,.5-.14.984.984,0,0,0,.285-.777c0-.493-.269-1.139-.87-1.139a1,1,0,0,0-.227.015c-.049.015-.061.044-.061.125Zm-.837-.125c0-1.118,0-1.321-.012-1.556-.014-.25-.068-.37-.3-.419a1.428,1.428,0,0,0-.272-.023c-.075,0-.119-.016-.119-.067s.05-.065.153-.065c.37,0,.8.023.945.023.339,0,.611-.023.847-.023,1.256,0,1.479.712,1.479,1.1a1.623,1.623,0,0,1-.709,1.287,1.763,1.763,0,0,1,1.264,1.586,1.652,1.652,0,0,1-1.856,1.6c-.164,0-.8-.044-1.006-.044-.16,0-.594.021-.873.021-.091,0-.139-.021-.139-.073,0-.036.03-.058.111-.058a1.037,1.037,0,0,0,.249-.031c.138-.027.173-.189.2-.4.031-.308.031-.889.031-1.564Z" transform="translate(22.924 26.597)" fill="#5f277b"/>
        </g>
        <g id="g32" transform="translate(77.194 51.892)">
          <path id="path34" d="M-18.834-30.5a1.623,1.623,0,0,0-.159-.771c-.049-.118-.978-1.734-1.222-2.119a1.776,1.776,0,0,0-.479-.534.7.7,0,0,0-.291-.1c-.057,0-.1-.016-.1-.067s.046-.065.129-.065c.127,0,.647.023.876.023.144,0,.429-.023.743-.023.07,0,.1.023.1.065s-.047.05-.152.081a.132.132,0,0,0-.1.133.658.658,0,0,0,.084.248c.1.221,1.067,1.993,1.18,2.2.067-.176.944-1.793,1.042-2.019a1,1,0,0,0,.1-.381.171.171,0,0,0-.144-.183c-.062-.017-.125-.031-.125-.075s.034-.065.117-.065c.229,0,.45.023.654.023.152,0,.608-.023.743-.023.075,0,.127.014.127.058s-.059.074-.136.074a.727.727,0,0,0-.3.088,1.031,1.031,0,0,0-.375.361,23.834,23.834,0,0,0-1.326,2.336,1.864,1.864,0,0,0-.1.735v.6c0,.117,0,.424.019.732.016.215.077.377.285.4a2.646,2.646,0,0,0,.348.031c.077,0,.111.022.111.058,0,.052-.058.073-.146.073-.437,0-.876-.021-1.062-.021s-.611.021-.867.021c-.1,0-.152-.013-.152-.073,0-.036.033-.058.109-.058a1.007,1.007,0,0,0,.242-.031c.141-.027.2-.189.216-.4.021-.308.021-.615.021-.732Z" transform="translate(21.088 34.155)" fill="#5f277b"/>
        </g>
        <g id="g36" transform="translate(86.168 50.899)">
          <path id="path38" d="M-15.353-33.946c0,.822,0,1.466.042,1.826.025.247.073.436.315.471a3.087,3.087,0,0,0,.4.037c.106,0,.139.025.139.067,0,.06-.055.085-.179.085-.51,0-1.019-.025-1.229-.025s-.723.025-1.029.025c-.112,0-.17-.017-.17-.085,0-.042.031-.067.12-.067a1.215,1.215,0,0,0,.293-.037c.161-.034.2-.224.236-.471.039-.36.039-1,.039-1.826v-1.508c0-1.3,0-1.543-.018-1.818-.016-.292-.081-.429-.346-.488a1.587,1.587,0,0,0-.315-.025c-.08,0-.138-.019-.138-.07,0-.069.065-.085.188-.085.418,0,.93.023,1.164.023.307,0,1.953,0,2.139-.008a1.337,1.337,0,0,0,.329-.035c.05-.016.092-.05.131-.05s.058.034.058.077c0,.062-.04.162-.063.385-.009.087-.026.592-.043.695-.01.07-.025.121-.083.121s-.073-.042-.079-.139a.886.886,0,0,0-.048-.323.585.585,0,0,0-.537-.26l-1.247-.024c-.046,0-.072.024-.072.119v2.142c0,.052.007.077.055.077l1.039-.007c.139,0,.25,0,.364-.007a.42.42,0,0,0,.35-.155c.04-.051.055-.087.1-.087s.049.026.049.077-.042.266-.065.531c-.013.171-.031.568-.031.627,0,.075,0,.161-.08.161-.05,0-.066-.059-.066-.121a.96.96,0,0,0-.048-.264.475.475,0,0,0-.413-.307c-.2-.029-1.06-.029-1.2-.029-.039,0-.055.019-.055.08Z" transform="translate(17.191 38.009)" fill="#5f277b"/>
        </g>
        <g id="g40" transform="translate(91.701 51.892)">
          <path id="path42" d="M-12.7-22.649c0,.08.015.108.063.132a1.807,1.807,0,0,0,.529.073.673.673,0,0,0,.493-.125,1.333,1.333,0,0,0,.408-1.1c0-1.042-.652-1.342-1.06-1.342a1.527,1.527,0,0,0-.369.027c-.049.015-.063.046-.063.1Zm-.817-.582c0-1.118,0-1.321-.014-1.556-.015-.25-.069-.37-.3-.419a1.433,1.433,0,0,0-.271-.023c-.077,0-.12-.016-.12-.066s.05-.065.154-.065c.366,0,.8.023.948.023.238,0,.766-.023.979-.023a2.13,2.13,0,0,1,1.282.315,1.3,1.3,0,0,1,.469,1.009,2.082,2.082,0,0,1-.915,1.642c.619.824,1.1,1.478,1.506,1.934a1.37,1.37,0,0,0,.779.5,1.039,1.039,0,0,0,.193.023c.055,0,.083.022.083.058,0,.06-.048.073-.133.073h-.66a1.341,1.341,0,0,1-.739-.139,3.44,3.44,0,0,1-.952-1.079c-.279-.406-.6-.9-.688-1.013a.135.135,0,0,0-.127-.05l-.6-.018a.052.052,0,0,0-.057.06v.1c0,.684,0,1.265.036,1.573.021.215.06.377.269.4a2.914,2.914,0,0,0,.341.031c.056,0,.083.022.083.058,0,.052-.048.073-.136.073-.4,0-.918-.021-1.021-.021-.133,0-.571.021-.848.021-.089,0-.141-.021-.141-.073,0-.036.031-.058.113-.058a1.027,1.027,0,0,0,.25-.031c.14-.027.176-.189.2-.4.037-.308.037-.889.037-1.564Z" transform="translate(14.221 25.36)" fill="#5f277b"/>
        </g>
        <g id="g44" transform="translate(97.453 51.731)">
          <path id="path46" d="M-27.354-28.667c.034,0,.044-.023.034-.046l-.623-1.815c-.008-.028-.014-.067-.037-.067s-.032.039-.038.067l-.64,1.807c0,.031,0,.054.029.054Zm-1.414.366c-.035,0-.052.015-.064.058l-.373,1.05a1.518,1.518,0,0,0-.106.448c0,.133.064.229.279.229h.1c.085,0,.106.014.106.058,0,.06-.042.073-.117.073-.223,0-.521-.021-.736-.021-.077,0-.458.021-.82.021-.089,0-.13-.013-.13-.073,0-.044.027-.058.083-.058a1.878,1.878,0,0,0,.213-.015c.323-.042.451-.294.591-.662L-28-31.806c.082-.212.125-.293.194-.293s.105.065.172.235c.17.4,1.277,3.4,1.722,4.517.265.662.467.764.611.8a1.428,1.428,0,0,0,.292.031c.054,0,.091.008.091.058s-.064.073-.32.073-.758,0-1.314-.013c-.123-.008-.206-.008-.206-.06s.027-.058.1-.066a.123.123,0,0,0,.064-.169l-.56-1.558a.064.064,0,0,0-.066-.05Z" transform="translate(30.628 32.099)" fill="#5f277b"/>
        </g>
        <g id="g48" transform="translate(104.009 51.789)">
          <path id="path50" d="M-1.113-46.51c-.112-.05-.133-.088-.133-.249,0-.4.027-.844.035-.961s.027-.193.085-.193.067.067.067.125A1.655,1.655,0,0,0-1-47.413a.962.962,0,0,0,.992.74.862.862,0,0,0,.931-.836,1.412,1.412,0,0,0-.684-1.176l-.319-.263A2.206,2.206,0,0,1-1.1-50.689,1.436,1.436,0,0,1,.5-52.077a3.088,3.088,0,0,1,.923.127c.063.011.1.034.1.087,0,.094-.027.309-.027.881,0,.162-.022.221-.077.221s-.069-.044-.069-.133a.947.947,0,0,0-.18-.486.868.868,0,0,0-.758-.358.748.748,0,0,0-.826.756c0,.338.16.595.737,1.058l.195.156c.832.68,1.136,1.173,1.136,1.87A1.5,1.5,0,0,1,1-46.62a1.9,1.9,0,0,1-1.1.3,2.275,2.275,0,0,1-1.013-.192" transform="translate(1.247 52.077)" fill="#5f277b"/>
        </g>
        <g id="g52" transform="translate(108.487 51.834)">
          <path id="path54" d="M-5.865-18.272c0-1.118,0-1.321-.013-1.556-.015-.25-.069-.37-.3-.419a1.4,1.4,0,0,0-.27-.023c-.075,0-.119-.016-.119-.066s.048-.065.154-.065c.369,0,.8.023,1,.023.222,0,1.6,0,1.737-.01a2.4,2.4,0,0,0,.3-.044.517.517,0,0,1,.112-.027c.032,0,.038.027.038.063,0,.052-.032.14-.052.479-.008.073-.023.4-.034.485-.008.034-.022.081-.071.081s-.064-.039-.064-.1a.889.889,0,0,0-.038-.266c-.051-.131-.121-.219-.467-.262-.117-.015-.847-.031-.985-.031-.035,0-.05.022-.05.074v1.857c0,.053.009.081.05.081.152,0,.952,0,1.11-.013a.492.492,0,0,0,.335-.109c.046-.063.077-.1.109-.1s.05.015.05.058a5.062,5.062,0,0,0-.058.537c-.013.148-.025.441-.025.494s0,.139-.064.139-.063-.031-.063-.069a2,2,0,0,0-.029-.262c-.035-.145-.13-.259-.389-.286-.13-.015-.816-.021-.983-.021-.035,0-.044.029-.044.073v.579c0,.248-.006.925,0,1.139.015.506.127.617.832.617A1.692,1.692,0,0,0-3.5-15.31c.181-.089.264-.243.314-.545.013-.08.025-.11.077-.11s.052.06.052.131a5.49,5.49,0,0,1-.091.816c-.046.193-.11.193-.375.193-1.047,0-1.513-.044-1.922-.044-.159,0-.594.021-.873.021-.091,0-.139-.021-.139-.073,0-.036.027-.058.11-.058A1.047,1.047,0,0,0-6.1-15.01c.138-.027.171-.189.2-.4.032-.308.032-.889.032-1.564Z" transform="translate(6.567 20.459)" fill="#5f277b"/>
        </g>
        <g id="g56" transform="translate(113.572 51.892)">
          <path id="path58" d="M-12.708-22.649c0,.08.014.108.06.132a1.806,1.806,0,0,0,.529.073.672.672,0,0,0,.493-.125,1.334,1.334,0,0,0,.407-1.1c0-1.042-.65-1.342-1.06-1.342a1.542,1.542,0,0,0-.369.027c-.046.015-.06.046-.06.1Zm-.819-.582c0-1.118,0-1.321-.015-1.556-.014-.25-.067-.37-.3-.419a1.408,1.408,0,0,0-.269-.023c-.075,0-.12-.016-.12-.066s.048-.065.152-.065c.369,0,.806.023.952.023.235,0,.764-.023.979-.023a2.118,2.118,0,0,1,1.278.315,1.3,1.3,0,0,1,.471,1.009,2.085,2.085,0,0,1-.917,1.642c.619.824,1.1,1.478,1.508,1.934a1.373,1.373,0,0,0,.777.5,1.057,1.057,0,0,0,.192.023c.058,0,.084.022.084.058,0,.06-.048.073-.13.073h-.658a1.363,1.363,0,0,1-.745-.139,3.5,3.5,0,0,1-.953-1.079c-.277-.406-.594-.9-.684-1.013a.138.138,0,0,0-.127-.05l-.6-.018c-.033,0-.055.018-.055.06v.1c0,.684,0,1.265.035,1.573.019.215.062.377.268.4a2.975,2.975,0,0,0,.342.031c.054,0,.083.022.083.058,0,.052-.048.073-.138.073-.4,0-.916-.021-1.022-.021-.13,0-.567.021-.845.021-.092,0-.138-.021-.138-.073,0-.036.025-.058.11-.058a1.051,1.051,0,0,0,.25-.031c.138-.027.173-.189.2-.4.034-.308.034-.889.034-1.564Z" transform="translate(14.229 25.36)" fill="#5f277b"/>
        </g>
      </g>
    </g>
  </g>
</svg>
