<?xml version="1.0" encoding="UTF-8" standalone="no"?>
<svg
   xmlns:dc="http://purl.org/dc/elements/1.1/"
   xmlns:cc="http://creativecommons.org/ns#"
   xmlns:rdf="http://www.w3.org/1999/02/22-rdf-syntax-ns#"
   xmlns:svg="http://www.w3.org/2000/svg"
   xmlns="http://www.w3.org/2000/svg"
   viewBox="0 0 1122.52 793.70667"
   height="793.70667"
   width="1122.52"
   xml:space="preserve"
   id="svg2"
   version="1.1"><metadata
     id="metadata8"><rdf:RDF><cc:Work
         rdf:about=""><dc:format>image/svg+xml</dc:format><dc:type
           rdf:resource="http://purl.org/dc/dcmitype/StillImage" /></cc:Work></rdf:RDF></metadata><defs
     id="defs6"><clipPath
       id="clipPath18"
       clipPathUnits="userSpaceOnUse"><path
         id="path16"
         d="M 0,595.28 H 841.89 V 0 H 0 Z" /></clipPath></defs><g
     transform="matrix(1.3333333,0,0,-1.3333333,0,793.70667)"
     id="g10"><g
       id="g12"><g
         clip-path="url(#clipPath18)"
         id="g14"><g
           transform="translate(366.4092,132.3838)"
           id="g20"><path
             id="path22"
             style="fill:#414042;fill-opacity:1;fill-rule:nonzero;stroke:none"
             d="M 0,0 C 0.588,4.821 4.449,7.67 10.506,7.67 16.762,7.67 20.41,4.957 20.872,0 Z m 10.453,13.087 c -8.514,0 -17.1,-4.813 -17.1,-15.566 0,-11.8 5.273,-17.064 17.1,-17.064 7.615,0 13.207,1.981 14.719,2.744 l 0.473,0.239 v 6.122 l -1.32,-0.819 c -0.605,-0.377 -6.085,-2.868 -12.457,-2.868 -7.919,0 -11.426,2.62 -11.893,8.995 h 27.522 v 2.651 c 0,9.747 -6.372,15.566 -17.044,15.566 M 170.968,-12.07 c -1.472,-0.636 -5.043,-1.88 -10.47,-1.88 -8.102,0 -11.559,3.43 -11.559,11.471 0,6.394 4.107,9.917 11.559,9.917 3.896,0 8.598,-1.452 10.47,-2.189 z m 0,22.979 c -2.088,0.785 -6.507,2.178 -11.505,2.178 -10.487,0 -17.264,-6.109 -17.264,-15.566 0,-11.8 5.643,-17.064 18.299,-17.064 8.08,0 14.264,2.128 16.642,3.386 l 0.459,0.245 v 40.471 h -6.631 z m -62.451,5.637 h 6.96 v 6.456 h -6.96 z M 67.104,0.293 c -2.798,0.583 -5.441,1.138 -6.879,1.863 -1.267,0.642 -1.267,1.357 -1.267,1.593 0,3.31 5.604,3.806 8.944,3.806 5.221,0 10.709,-1.968 11.801,-2.773 l 1.376,-1.016 v 6.42 l -0.872,0.321 c -4.183,1.714 -8.599,2.58 -13.124,2.58 -8.997,0 -14.812,-3.847 -14.812,-9.8 0,-6.557 9.425,-8.225 15.663,-9.329 1.938,-0.343 3.616,-0.639 4.579,-0.996 2.186,-0.791 3.079,-1.54 3.079,-2.589 0,-2.173 -2.481,-4.498 -9.435,-4.498 -5.133,0 -11.176,1.869 -12.495,2.879 l -1.391,1.064 v -6.315 l 0.397,-0.257 c 1.191,-0.767 7.444,-2.789 14.472,-2.789 13.264,0 15.245,6.682 15.245,10.667 0,5.975 -8.474,7.745 -15.281,9.169 M 211.143,0 c 0.586,4.821 4.447,7.67 10.505,7.67 6.257,0 9.905,-2.713 10.37,-7.67 z m 10.453,13.087 c -8.511,0 -17.101,-4.813 -17.101,-15.566 0,-11.8 5.275,-17.064 17.101,-17.064 7.621,0 13.208,1.981 14.718,2.744 l 0.474,0.239 v 6.122 l -1.32,-0.819 c -0.606,-0.377 -6.085,-2.868 -12.457,-2.868 -7.919,0 -11.429,2.62 -11.894,8.995 h 27.525 v 2.651 c 0,9.747 -6.371,15.566 -17.046,15.566 M 454.725,0.293 c -2.798,0.583 -5.441,1.138 -6.879,1.863 -1.266,0.642 -1.266,1.357 -1.266,1.593 0,3.31 5.603,3.806 8.943,3.806 5.221,0 10.709,-1.968 11.801,-2.773 L 468.7,3.766 v 6.42 l -0.878,0.324 c -4.184,1.711 -8.597,2.577 -13.117,2.577 -8.998,0 -14.812,-3.847 -14.812,-9.8 0,-6.557 9.425,-8.225 15.662,-9.329 1.939,-0.343 3.616,-0.639 4.579,-0.996 2.186,-0.791 3.079,-1.54 3.079,-2.589 0,-2.173 -2.48,-4.498 -9.435,-4.498 -5.132,0 -11.175,1.869 -12.495,2.879 l -1.39,1.064 v -6.315 l 0.397,-0.257 c 1.189,-0.767 7.443,-2.789 14.471,-2.789 13.264,0 15.246,6.682 15.246,10.667 0,5.975 -8.475,7.745 -15.282,9.169 M 387.624,0 c 0.586,4.821 4.446,7.67 10.506,7.67 6.257,0 9.904,-2.713 10.368,-7.67 z m 10.452,13.087 c -8.51,0 -17.099,-4.813 -17.099,-15.566 0,-11.8 5.274,-17.064 17.099,-17.064 7.622,0 13.208,1.981 14.72,2.744 l 0.473,0.239 v 6.122 l -1.321,-0.819 c -0.604,-0.377 -6.084,-2.868 -12.456,-2.868 -7.92,0 -11.429,2.62 -11.893,8.995 h 27.524 v 2.651 c 0,9.747 -6.371,15.566 -17.047,15.566 m -43.487,-24.285 c -0.625,-0.464 -6.099,-2.752 -10.853,-2.752 -8.209,0 -11.558,3.306 -11.558,11.415 0,6.712 3.783,9.973 11.558,9.973 4.515,0 9.604,-2.068 10.467,-2.754 l 1.401,-1.112 v 6.479 l -0.405,0.253 c -1.153,0.723 -5.974,2.783 -12.771,2.783 -10.799,0 -16.991,-5.674 -16.991,-15.566 0,-11.961 5.081,-17.064 16.991,-17.064 6.847,0 12.49,2.195 13.261,2.862 l 0.298,0.257 -0.016,6.256 z m -72.06,24.285 c -8.977,0 -16.646,-3.028 -16.722,-3.059 l -0.543,-0.216 v -28.663 h 6.632 V 5.553 c 4.602,1.551 8.247,1.885 10.524,1.885 6.737,0 9.487,-2.172 9.487,-7.494 v -18.795 h 6.633 V 2.421 c 0,4.866 -2.777,10.666 -16.011,10.666 M 108.68,-18.851 h 6.634 V 12.395 H 108.68 Z M -181.384,0 c 0.589,4.821 4.45,7.67 10.506,7.67 6.256,0 9.904,-2.713 10.366,-7.67 z m 10.453,13.087 c -8.513,0 -17.1,-4.813 -17.1,-15.566 0,-11.8 5.274,-17.064 17.1,-17.064 7.616,0 13.208,1.981 14.719,2.744 l 0.473,0.239 v 6.122 l -1.32,-0.819 c -0.605,-0.377 -6.085,-2.868 -12.457,-2.868 -7.919,0 -11.426,2.62 -11.893,8.995 h 27.522 v 2.651 c 0,9.747 -6.372,15.566 -17.044,15.566 m -164.655,0 c -4.219,0 -9.617,-1.424 -12.156,-2.24 v 13.712 h -6.633 v -43.41 h 6.633 V 5.536 c 1.65,0.589 6.699,1.902 10.523,1.902 6.738,0 9.488,-2.172 9.488,-7.494 v -18.795 h 6.63 V 2.421 c 0,7.078 -4.871,10.666 -14.485,10.666 m 116.856,-26.75 c -2.869,0 -4.582,1.294 -4.582,3.459 v 16.95 h 9.751 v 5.65 h -9.751 v 6.916 h -6.634 v -30.38 c 0,-7.307 6.082,-8.244 11.382,-8.244 h 0.047 l 1.588,0.164 c 1.252,0.127 2.583,0.261 3.619,0.424 l 0.729,0.113 v 5.874 l -1.067,-0.256 c -1.137,-0.277 -4.128,-0.67 -5.082,-0.67 m 91.467,-5.188 h 6.633 v 43.409 h -6.633 z m 90.898,31.938 c -5.561,0 -12.946,-2.187 -14.108,-2.656 l -0.541,-0.22 v -29.062 h 6.631 V 5.981 c 3.529,1.004 6.879,1.514 9.837,1.526 0.447,-0.073 0.97,-0.118 1.477,-0.161 0.589,-0.051 1.255,-0.104 1.537,-0.205 l 1.151,-0.406 v 5.694 l -0.574,0.206 c -0.532,0.185 -3.955,0.452 -5.41,0.452 M -275.521,-13.95 c -8.371,0 -11.942,3.43 -11.942,11.471 0,6.766 3.794,9.917 11.942,9.917 8.144,0 11.938,-3.151 11.938,-9.917 0,-7.827 -3.794,-11.471 -11.938,-11.471 m 0,27.037 c -12.224,0 -18.683,-5.381 -18.683,-15.566 0,-11.8 5.762,-17.064 18.683,-17.064 12.605,0 18.734,5.581 18.734,17.064 0,10.475 -6.129,15.566 -18.734,15.566" /></g><g
           transform="translate(517.8281,286.9834)"
           id="g24"><path
             id="path26"
             style="fill:#5f277b;fill-opacity:1;fill-rule:nonzero;stroke:none"
             d="m 0,0 c -24.797,0 -50.459,8.233 -59.688,12.503 v 98.184 c 6.634,3.355 26.24,11.586 59.688,11.586 41.521,0 65.741,-17.989 65.741,-57.019 C 65.741,19.517 43.538,0 0,0 m 0.287,143.009 c -38.058,0 -74.967,-11.587 -85.926,-15.855 V -81.718 h 25.951 v 76.23 c 5.48,-4.88 32.005,-14.939 65.455,-14.939 50.749,0 87.08,21.952 87.08,85.681 0,54.275 -33.45,77.755 -92.56,77.755 M 150.206,129.287 V -16.768 h 25.951 v 130.2 c 4.323,1.219 29.121,9.147 57.38,9.147 5.477,-0.915 13.264,-0.915 16.723,-2.135 v 20.43 c -1.731,0.61 -18.74,2.135 -27.103,2.135 -28.259,0 -66.897,-11.282 -72.951,-13.722 m 147.04,-146.055 h 25.951 v 156.117 h -25.951 z m -0.864,187.219 h 27.68 v 25.004 h -27.68 z M -491.3,64.949 c 0,39.335 23.067,57.324 65.741,57.324 24.221,0 52.48,-10.976 58.247,-15.55 v 22.26 c -6.344,3.964 -31.429,14.026 -65.167,14.026 -49.592,0 -85.349,-23.783 -85.349,-77.755 0,-59.766 24.51,-85.681 85.349,-85.681 35.179,0 64.013,11.281 67.184,14.025 V 15.552 C -368.753,12.808 -398.741,0 -425.559,0 -469.674,0 -491.3,18.296 -491.3,64.949 M -173.853,6.406 c -5.476,-2.44 -31.714,-7.318 -65.45,-7.318 -31.431,0 -56.806,9.757 -56.806,28.966 0,23.174 26.528,32.627 77.854,32.627 h 44.402 z m -60.261,136.603 c -33.159,0 -66.895,-9.758 -74.969,-14.026 v -21.344 c 3.172,1.524 37.484,15.55 68.913,15.55 50.171,0 66.317,-13.112 66.317,-35.981 v -8.842 h -53.63 c -52.19,0 -94.575,-14.026 -94.575,-51.533 0,-33.539 29.988,-47.26 81.888,-47.26 47.29,0 81.025,6.707 91.692,10.977 v 94.524 c 0,36.59 -19.605,57.935 -85.636,57.935" /></g><g
           transform="translate(526.3359,211.2686)"
           id="g28"><path
             id="path30"
             style="fill:#5f277b;fill-opacity:1;fill-rule:nonzero;stroke:none"
             d="m 0,0 c -1.024,0.782 -2.145,1.131 -4.035,1.244 -0.89,0.051 -1.36,0.051 -2.092,0.051 -0.2,0 -0.281,-0.108 -0.281,-0.366 v -12.215 c 0,-3.4 0.146,-4.261 1.7,-4.937 1.297,-0.568 2.415,-0.619 3.546,-0.619 2.201,0 5.898,1.238 5.898,6.586 C 4.736,-7.042 3.712,-2.73 0,0 m -6.408,4.131 c 0,-0.405 0.146,-0.512 0.326,-0.568 0.439,-0.096 1.157,-0.147 2.291,-0.147 1.604,0 2.674,0.203 3.507,0.985 1.256,1.076 1.998,2.916 1.998,5.449 0,3.456 -1.886,7.993 -6.102,7.993 -0.673,0 -1.12,0 -1.592,-0.107 -0.347,-0.107 -0.428,-0.312 -0.428,-0.878 z m -5.871,0.879 c 0,7.841 0,9.27 -0.084,10.914 -0.096,1.756 -0.479,2.595 -2.089,2.943 -0.379,0.096 -1.227,0.158 -1.907,0.158 -0.524,0 -0.834,0.113 -0.834,0.467 0,0.361 0.352,0.456 1.075,0.456 2.596,0 5.643,-0.163 6.631,-0.163 2.376,0 4.289,0.163 5.941,0.163 8.812,0 10.377,-4.993 10.377,-7.722 0,-4.233 -2.297,-6.749 -4.971,-9.029 3.989,-1.441 8.869,-5.089 8.869,-11.128 0,-5.51 -4.062,-11.235 -13.022,-11.235 -1.148,0 -5.587,0.31 -7.06,0.31 -1.122,0 -4.169,-0.147 -6.124,-0.147 -0.641,0 -0.978,0.147 -0.978,0.512 0,0.254 0.208,0.406 0.776,0.406 0.727,0 1.303,0.106 1.75,0.214 0.969,0.191 1.216,1.328 1.433,2.837 0.217,2.161 0.217,6.236 0.217,10.97 z" /></g><g
           transform="translate(557.3926,205.6006)"
           id="g32"><path
             id="path34"
             style="fill:#5f277b;fill-opacity:1;fill-rule:nonzero;stroke:none"
             d="m 0,0 c 0,2.797 -0.486,3.929 -1.117,5.409 -0.341,0.827 -6.859,12.163 -8.572,14.865 -1.219,1.886 -2.43,3.183 -3.358,3.749 -0.625,0.349 -1.464,0.67 -2.044,0.67 -0.402,0 -0.725,0.113 -0.725,0.467 0,0.293 0.323,0.456 0.903,0.456 0.89,0 4.536,-0.163 6.149,-0.163 1.013,0 3.011,0.163 5.212,0.163 0.488,0 0.715,-0.163 0.715,-0.456 0,-0.315 -0.332,-0.354 -1.063,-0.568 -0.446,-0.113 -0.679,-0.518 -0.679,-0.932 0,-0.408 0.233,-1.038 0.586,-1.742 0.673,-1.551 7.488,-13.981 8.282,-15.411 0.473,1.238 6.62,12.58 7.307,14.167 0.483,1.132 0.673,2.004 0.673,2.674 0,0.511 -0.19,1.091 -1.011,1.283 -0.434,0.118 -0.878,0.214 -0.878,0.529 0,0.361 0.242,0.456 0.821,0.456 1.605,0 3.158,-0.163 4.588,-0.163 1.069,0 4.267,0.163 5.212,0.163 0.523,0 0.89,-0.095 0.89,-0.405 0,-0.366 -0.417,-0.518 -0.957,-0.518 -0.473,0 -1.419,-0.214 -2.133,-0.619 C 17.775,23.567 17.238,22.942 16.169,21.541 14.562,19.489 7.751,7.368 6.867,5.155 6.142,3.304 6.142,1.699 6.142,0 v -4.228 c 0,-0.822 0,-2.977 0.131,-5.138 0.113,-1.509 0.543,-2.646 2.001,-2.837 0.687,-0.108 1.75,-0.214 2.444,-0.214 0.54,0 0.782,-0.152 0.782,-0.406 0,-0.365 -0.405,-0.512 -1.024,-0.512 -3.069,0 -6.145,0.147 -7.454,0.147 -1.226,0 -4.289,-0.147 -6.086,-0.147 -0.702,0 -1.065,0.09 -1.065,0.512 0,0.254 0.229,0.406 0.766,0.406 0.675,0 1.269,0.106 1.7,0.214 0.987,0.191 1.421,1.328 1.515,2.837 C 0,-7.205 0,-5.05 0,-4.228 Z" /></g><g
           transform="translate(617.4287,209.6758)"
           id="g36"><path
             id="path38"
             style="fill:#5f277b;fill-opacity:1;fill-rule:nonzero;stroke:none"
             d="m 0,0 c 0,-5.77 0,-10.284 0.293,-12.812 0.177,-1.733 0.512,-3.061 2.212,-3.303 0.782,-0.124 2.038,-0.259 2.834,-0.259 0.746,0 0.972,-0.175 0.972,-0.468 0,-0.422 -0.389,-0.596 -1.256,-0.596 -3.575,0 -7.152,0.174 -8.623,0.174 -1.481,0 -5.072,-0.174 -7.216,-0.174 -0.788,0 -1.194,0.118 -1.194,0.596 0,0.293 0.217,0.468 0.839,0.468 0.861,0 1.536,0.135 2.054,0.259 1.132,0.242 1.402,1.57 1.655,3.303 0.273,2.528 0.273,7.042 0.273,12.812 v 10.582 c 0,9.152 0,10.826 -0.123,12.755 -0.111,2.051 -0.566,3.011 -2.429,3.425 -0.459,0.121 -1.43,0.176 -2.213,0.176 -0.562,0 -0.971,0.13 -0.971,0.488 0,0.484 0.459,0.594 1.321,0.594 2.932,0 6.523,-0.164 8.167,-0.164 2.156,0 13.7,0 15.006,0.054 1.081,0.056 1.756,0.056 2.308,0.244 0.349,0.111 0.647,0.353 0.917,0.353 0.232,0 0.408,-0.242 0.408,-0.541 0,-0.434 -0.284,-1.134 -0.444,-2.698 -0.065,-0.609 -0.181,-4.155 -0.302,-4.875 -0.067,-0.488 -0.174,-0.85 -0.579,-0.85 -0.377,0 -0.51,0.295 -0.552,0.974 0,0.483 0,1.429 -0.335,2.268 -0.408,0.833 -1.595,1.756 -3.768,1.823 L 0.507,24.777 C 0.186,24.777 0,24.608 0,23.941 V 8.91 C 0,8.544 0.048,8.369 0.389,8.369 L 7.675,8.42 c 0.976,0 1.757,0 2.553,0.051 1.091,0.073 1.875,0.299 2.454,1.087 0.284,0.359 0.388,0.607 0.717,0.607 0.24,0 0.347,-0.18 0.347,-0.54 0,-0.36 -0.293,-1.869 -0.459,-3.727 C 13.194,4.7 13.07,1.913 13.07,1.497 c 0,-0.529 0,-1.132 -0.562,-1.132 -0.353,0 -0.462,0.417 -0.462,0.851 0,0.405 -0.105,1.131 -0.338,1.851 C 11.427,3.911 10.577,4.992 8.81,5.223 7.405,5.426 1.371,5.426 0.389,5.426 0.118,5.426 0,5.291 0,4.868 Z" /></g><g
           transform="translate(654.0156,212.1973)"
           id="g40"><path
             id="path42"
             style="fill:#5f277b;fill-opacity:1;fill-rule:nonzero;stroke:none"
             d="m 0,0 c 0,-0.563 0.104,-0.755 0.445,-0.929 1.025,-0.348 2.496,-0.512 3.709,-0.512 1.945,0 2.578,0.219 3.456,0.878 1.458,1.148 2.86,3.496 2.86,7.734 0,7.311 -4.574,9.417 -7.436,9.417 -1.23,0 -2.094,-0.037 -2.589,-0.186 C 0.104,16.295 0,16.081 0,15.673 Z m -5.735,4.081 c 0,7.841 0,9.271 -0.096,10.914 -0.107,1.756 -0.484,2.595 -2.094,2.943 -0.388,0.096 -1.227,0.159 -1.902,0.159 -0.541,0 -0.839,0.112 -0.839,0.466 0,0.361 0.352,0.457 1.08,0.457 2.565,0 5.644,-0.164 6.653,-0.164 1.672,0 5.373,0.164 6.871,0.164 3.079,0 6.346,-0.299 8.992,-2.212 1.347,-0.974 3.287,-3.606 3.287,-7.076 0,-3.805 -1.497,-7.3 -6.42,-11.522 4.343,-5.78 7.691,-10.368 10.568,-13.565 2.725,-2.984 4.723,-3.338 5.463,-3.501 0.543,-0.102 0.956,-0.158 1.354,-0.158 0.388,0 0.58,-0.152 0.58,-0.406 0,-0.422 -0.338,-0.512 -0.935,-0.512 H 22.2 c -2.713,0 -3.929,0.259 -5.184,0.974 -2.105,1.187 -3.957,3.603 -6.681,7.57 -1.959,2.849 -4.196,6.344 -4.83,7.11 -0.244,0.327 -0.529,0.354 -0.889,0.354 L 0.402,-3.8 C 0.16,-3.8 0,-3.924 0,-4.222 v -0.704 c 0,-4.801 0,-8.876 0.254,-11.037 0.148,-1.509 0.419,-2.645 1.885,-2.837 0.735,-0.107 1.799,-0.214 2.392,-0.214 0.394,0 0.58,-0.152 0.58,-0.406 0,-0.365 -0.338,-0.512 -0.957,-0.512 -2.831,0 -6.439,0.147 -7.166,0.147 -0.93,0 -4.009,-0.147 -5.949,-0.147 -0.625,0 -0.987,0.147 -0.987,0.512 0,0.254 0.214,0.406 0.796,0.406 0.726,0 1.323,0.107 1.751,0.214 0.979,0.192 1.232,1.328 1.407,2.837 0.259,2.161 0.259,6.236 0.259,10.97 z" /></g><g
           transform="translate(706.6787,208.2735)"
           id="g44"><path
             id="path46"
             style="fill:#5f277b;fill-opacity:1;fill-rule:nonzero;stroke:none"
             d="m 0,0 c 0.242,0 0.31,0.158 0.242,0.321 l -4.374,12.733 c -0.054,0.196 -0.096,0.472 -0.259,0.472 -0.13,0 -0.225,-0.276 -0.27,-0.472 L -9.152,0.377 C -9.178,0.158 -9.152,0 -8.95,0 Z m -9.921,-2.566 c -0.245,0 -0.363,-0.107 -0.447,-0.406 l -2.618,-7.368 c -0.487,-1.3 -0.743,-2.521 -0.743,-3.14 0,-0.935 0.448,-1.61 1.957,-1.61 h 0.714 c 0.594,0 0.745,-0.096 0.745,-0.406 0,-0.422 -0.297,-0.512 -0.824,-0.512 -1.564,0 -3.656,0.147 -5.167,0.147 -0.543,0 -3.214,-0.147 -5.753,-0.147 -0.622,0 -0.914,0.09 -0.914,0.512 0,0.31 0.186,0.406 0.579,0.406 0.446,0 1.132,0.056 1.495,0.107 2.268,0.298 3.161,2.066 4.146,4.643 l 12.23,32.361 c 0.578,1.488 0.874,2.053 1.363,2.053 0.428,0 0.74,-0.453 1.21,-1.646 1.193,-2.831 8.962,-23.858 12.083,-31.687 1.859,-4.643 3.278,-5.358 4.289,-5.617 0.731,-0.158 1.472,-0.214 2.052,-0.214 0.377,0 0.638,-0.056 0.638,-0.406 0,-0.422 -0.447,-0.512 -2.243,-0.512 -1.756,0 -5.319,0 -9.22,0.09 -0.861,0.057 -1.444,0.057 -1.444,0.422 0,0.31 0.189,0.406 0.676,0.462 0.326,0.101 0.692,0.563 0.447,1.187 L 1.401,-2.915 c -0.085,0.242 -0.23,0.349 -0.462,0.349 z" /></g><g
           transform="translate(730.6348,192.8848)"
           id="g48"><path
             id="path50"
             style="fill:#5f277b;fill-opacity:1;fill-rule:nonzero;stroke:none"
             d="m 0,0 c -0.785,0.354 -0.935,0.619 -0.935,1.745 0,2.831 0.192,5.921 0.243,6.743 0.055,0.788 0.191,1.351 0.596,1.351 0.445,0 0.473,-0.473 0.473,-0.878 0,-0.67 0.202,-1.75 0.444,-2.629 1.081,-3.805 3.941,-5.195 6.963,-5.195 4.385,0 6.535,3.124 6.535,5.865 0,2.527 -0.732,4.959 -4.796,8.252 l -2.237,1.847 c -5.348,4.44 -7.193,8.032 -7.193,12.219 0,5.665 4.48,9.738 11.243,9.738 3.175,0 5.207,-0.512 6.478,-0.889 0.445,-0.079 0.687,-0.242 0.687,-0.608 0,-0.659 -0.186,-2.167 -0.186,-6.181 0,-1.137 -0.151,-1.548 -0.543,-1.548 -0.351,0 -0.487,0.31 -0.487,0.93 0,0.472 -0.259,2.059 -1.265,3.41 -0.73,0.974 -2.151,2.514 -5.32,2.514 -3.592,0 -5.792,-2.215 -5.792,-5.306 0,-2.369 1.123,-4.171 5.173,-7.424 l 1.365,-1.092 c 5.839,-4.773 7.973,-8.229 7.973,-13.121 0,-2.994 -1.065,-6.557 -4.576,-8.972 C 12.428,-0.89 9.687,-1.346 7.108,-1.346 4.289,-1.346 2.088,-0.985 0,0" /></g><g
           transform="translate(766.0449,216.2784)"
           id="g52"><path
             id="path54"
             style="fill:#5f277b;fill-opacity:1;fill-rule:nonzero;stroke:none"
             d="m 0,0 c 0,7.841 0,9.271 -0.093,10.914 -0.107,1.756 -0.484,2.595 -2.105,2.943 -0.377,0.096 -1.213,0.159 -1.891,0.159 -0.526,0 -0.836,0.112 -0.836,0.466 0,0.361 0.337,0.456 1.08,0.456 2.592,0 5.643,-0.163 7.005,-0.163 1.554,0 11.258,0 12.184,0.068 0.921,0.095 1.703,0.205 2.096,0.309 0.24,0.057 0.524,0.192 0.783,0.192 0.225,0 0.267,-0.192 0.267,-0.445 0,-0.366 -0.227,-0.985 -0.363,-3.363 C 18.071,11.023 17.964,8.758 17.886,8.133 17.829,7.891 17.733,7.567 17.385,7.567 c -0.338,0 -0.446,0.274 -0.446,0.729 0,0.355 -0.039,1.227 -0.269,1.863 -0.36,0.918 -0.851,1.537 -3.279,1.841 -0.822,0.104 -5.941,0.214 -6.91,0.214 -0.248,0 -0.351,-0.151 -0.351,-0.518 V -1.335 c 0,-0.371 0.064,-0.567 0.351,-0.567 1.065,0 6.682,0 7.785,0.09 1.171,0.106 1.905,0.269 2.353,0.764 0.32,0.44 0.537,0.682 0.766,0.682 0.216,0 0.348,-0.107 0.348,-0.405 0,-0.327 -0.264,-1.131 -0.405,-3.766 -0.093,-1.041 -0.172,-3.091 -0.172,-3.468 0,-0.404 0,-0.974 -0.447,-0.974 -0.349,0 -0.444,0.22 -0.444,0.485 -0.051,0.489 -0.051,1.177 -0.203,1.841 -0.243,1.018 -0.915,1.817 -2.727,2.008 C 12.42,-4.537 7.613,-4.498 6.442,-4.498 6.194,-4.498 6.13,-4.7 6.13,-5.01 v -4.064 c 0,-1.739 -0.042,-6.49 0,-7.988 0.103,-3.551 0.891,-4.328 5.84,-4.328 1.271,0 3.321,0 4.592,0.614 1.267,0.625 1.853,1.706 2.202,3.822 0.09,0.562 0.173,0.771 0.54,0.771 0.366,0 0.366,-0.422 0.366,-0.918 0,-1.187 -0.366,-4.7 -0.637,-5.724 -0.32,-1.351 -0.77,-1.351 -2.631,-1.351 -7.348,0 -10.613,0.31 -13.486,0.31 -1.118,0 -4.169,-0.147 -6.124,-0.147 -0.637,0 -0.975,0.147 -0.975,0.512 0,0.254 0.187,0.406 0.772,0.406 0.743,0 1.323,0.107 1.767,0.214 0.968,0.192 1.203,1.328 1.416,2.837 C 0,-17.883 0,-13.808 0,-9.074 Z" /></g><g
           transform="translate(807.4639,212.1973)"
           id="g56"><path
             id="path58"
             style="fill:#5f277b;fill-opacity:1;fill-rule:nonzero;stroke:none"
             d="m 0,0 c 0,-0.563 0.099,-0.755 0.423,-0.929 1.023,-0.348 2.496,-0.512 3.712,-0.512 1.941,0 2.589,0.219 3.456,0.878 1.455,1.148 2.856,3.496 2.856,7.734 0,7.311 -4.559,9.417 -7.435,9.417 -1.213,0 -2.091,-0.037 -2.589,-0.186 C 0.099,16.295 0,16.081 0,15.673 Z m -5.747,4.081 c 0,7.841 0,9.271 -0.107,10.914 -0.095,1.756 -0.472,2.595 -2.093,2.943 -0.389,0.096 -1.211,0.159 -1.886,0.159 -0.523,0 -0.839,0.112 -0.839,0.466 0,0.361 0.338,0.457 1.067,0.457 2.592,0 5.657,-0.164 6.678,-0.164 1.65,0 5.362,0.164 6.87,0.164 3.065,0 6.329,-0.299 8.964,-2.212 1.351,-0.974 3.304,-3.606 3.304,-7.076 0,-3.805 -1.509,-7.3 -6.434,-11.522 4.346,-5.78 7.695,-10.368 10.582,-13.565 2.725,-2.984 4.72,-3.338 5.45,-3.501 0.54,-0.102 0.972,-0.158 1.35,-0.158 0.405,0 0.591,-0.152 0.591,-0.406 0,-0.422 -0.335,-0.512 -0.915,-0.512 H 22.22 c -2.728,0 -3.957,0.259 -5.224,0.974 -2.091,1.187 -3.942,3.603 -6.683,7.57 -1.943,2.849 -4.169,6.344 -4.802,7.11 -0.256,0.327 -0.54,0.354 -0.89,0.354 L 0.383,-3.8 C 0.152,-3.8 0,-3.924 0,-4.222 v -0.704 c 0,-4.801 0,-8.876 0.248,-11.037 0.135,-1.509 0.434,-2.645 1.877,-2.837 0.74,-0.107 1.818,-0.214 2.4,-0.214 0.377,0 0.58,-0.152 0.58,-0.406 0,-0.365 -0.337,-0.512 -0.97,-0.512 -2.818,0 -6.428,0.147 -7.169,0.147 -0.914,0 -3.979,-0.147 -5.927,-0.147 -0.644,0 -0.968,0.147 -0.968,0.512 0,0.254 0.177,0.406 0.771,0.406 0.726,0 1.306,0.107 1.754,0.214 0.97,0.192 1.213,1.328 1.416,2.837 0.241,2.161 0.241,6.236 0.241,10.97 z" /></g></g></g></g></svg>