<?xml version="1.0" encoding="UTF-8" standalone="no"?>
<svg
   xmlns:dc="http://purl.org/dc/elements/1.1/"
   xmlns:cc="http://creativecommons.org/ns#"
   xmlns:rdf="http://www.w3.org/1999/02/22-rdf-syntax-ns#"
   xmlns:svg="http://www.w3.org/2000/svg"
   xmlns="http://www.w3.org/2000/svg"
   viewBox="0 0 1122.52 756.04132"
   height="756.04132"
   width="1122.52"
   xml:space="preserve"
   id="svg2"
   version="1.1"><metadata
     id="metadata8"><rdf:RDF><cc:Work
         rdf:about=""><dc:format>image/svg+xml</dc:format><dc:type
           rdf:resource="http://purl.org/dc/dcmitype/StillImage" /></cc:Work></rdf:RDF></metadata><defs
     id="defs6"><clipPath
       id="clipPath18"
       clipPathUnits="userSpaceOnUse"><path
         id="path16"
         d="M 0,567.031 H 841.89 V 0 H 0 Z" /></clipPath></defs><g
     transform="matrix(1.3333333,0,0,-1.3333333,0,756.04133)"
     id="g10"><g
       id="g12"><g
         clip-path="url(#clipPath18)"
         id="g14"><g
           transform="translate(491.1416,369.8083)"
           id="g20"><path
             id="path22"
             style="fill:#866d4b;fill-opacity:1;fill-rule:nonzero;stroke:none"
             d="m 0,0 -0.072,-0.049 c 0.062,0.013 0.134,0.015 0.192,0.028 z m 266.598,153.111 c -0.827,-10.857 -16.296,-16.006 -33.35,-16.006 -15.883,0 -45.252,4.524 -73.058,12.035 l -2.392,0.645 2.09,1.33 c 16.676,10.616 41.64,18.934 65.862,18.934 h 0.748 c 23.531,0 40.956,-5.822 40.1,-16.938 M 131.794,142.91 C 86.997,110.189 48.894,60.495 23.501,23.885 L 17.927,16.129 13.883,10.583 C -2.445,7.939 -16.865,2.317 -29.702,-8.477 c -1.28,-1.256 -4.693,-5.021 -2.56,-5.855 0.851,-0.838 3.411,1.257 5.115,2.929 10.313,7.725 20.13,11.398 34.049,12.827 -9.054,-11.578 -18.981,-23.185 -29.797,-35.105 -2.664,-2.631 -6.264,-6.502 -6.264,-6.502 -50.476,-52.197 -113.753,-93.99 -201.526,-94.393 -20.883,0.1 -40.345,2.466 -57.54,7.19 -10.235,2.466 -19.55,6.087 -27.544,10.6 -31.56,16.171 -49.405,39.469 -49.405,77.123 0,60.252 65.988,109.212 143.008,117.877 3.151,-31.171 22.535,-59.11 58.188,-71.797 3.263,-1.45 6.544,-2.18 9.016,-2.269 1.24,-0.044 2.225,0.071 2.745,1.422 -1.612,0.472 -4.287,1.048 -8.085,2.565 -39.426,16.905 -52.083,45.777 -51.889,71.198 4.111,0.232 8.236,0.353 12.351,0.353 l 5.64,-0.014 7.1,-0.326 c 51.712,-2.197 104.09,-20.967 104.09,-60.414 0,-6.774 -1.243,-12.89 -3.746,-19.005 -0.847,-2.174 -1.886,-4.289 -3.093,-6.34 -17.603,-31.069 -65.364,-52.995 -113.575,-57.106 -2.937,-0.329 -6.04,-0.507 -9.241,-0.507 l -3.803,0.086 h -3.002 c -25.117,0 -51.366,5.047 -64.634,22.856 -3.162,3.665 -5.275,7.627 -6.143,11.787 -0.53,1.533 -1.016,3.145 -1.496,4.927 -0.938,4.981 -0.627,7.471 -1.562,8.095 -2.184,0 -1.868,-5.295 -1.246,-9.033 0.94,-4.363 1.87,-8.464 3.738,-11.889 l 2.797,-4.585 c 13.396,-19.321 43.914,-28.744 71.64,-29.052 h 3.498 c 56.079,0 115.124,27.142 131.753,67.31 l 1.129,2.827 c 2.179,6.129 3.427,12.55 3.427,19.318 0,40.384 -47.878,65.113 -98.971,70.72 l -6.853,0.621 c -5.297,0.314 -10.593,0.625 -15.58,0.625 -4.456,0 -8.913,-0.142 -13.36,-0.418 0.241,1.614 0.536,3.2 0.874,4.757 13.702,57.072 76.001,81.124 147.37,81.124 39.881,0 96.251,-10.535 126.277,-17.281 26.25,-6.008 47.252,-11.251 64.51,-15.005 l 2.753,-0.598 z m 140.138,9.681 c 2.047,14.342 -18.72,22.02 -45.434,22.02 -29.802,0 -62.64,-10.439 -82.812,-20.972 -25.507,6.755 -51.772,14.266 -76.527,21.008 -46.495,12.759 -95.905,22.48 -127.259,22.48 -93.546,0.742 -154.325,-42.629 -161.723,-97.345 -0.465,-3.545 -0.74,-7.087 -0.808,-10.603 C -302.684,80.095 -376.799,28 -376.799,-39.326 c 0,-43.191 23.984,-73.007 62.615,-89.074 l 4.052,-1.311 c 21.497,-8.099 46.738,-12.117 74.463,-12.117 0.512,0 1.011,0.032 1.523,0.037 0.321,-0.005 0.627,-0.037 0.948,-0.037 90.349,-0.308 159.472,37.671 215.241,90.652 l 5.685,5.024 c 15.329,15.083 29.66,31.298 43.328,48.258 L 35.539,2.017 64.484,1.145 c 26.844,-0.424 60.941,0.833 75,12.338 1.255,1.235 9.62,11.22 3.418,6.003 -18.334,-14.099 -42.65,-9.457 -70.774,-7.748 l -28.945,0.875 -6.338,-0.073 2.273,2.936 5.57,7.861 c 5.606,7.513 11.253,15.303 16.541,23.135 18.538,26.489 46.929,66.388 81.417,94.356 l 4.499,-0.86 c 29.201,-4.49 52.404,-7.432 83.109,-7.432 24.797,0 40.299,8.286 41.678,20.055" /></g><g
           transform="translate(598.9648,161.9299)"
           id="g24"><path
             id="path26"
             style="fill:#271100;fill-opacity:1;fill-rule:nonzero;stroke:none"
             d="M 0,0 V -23.25 H -93.585 V 103.633 H -1.307 V 80.372 H -61.955 V 53.768 H -4.097 V 30.507 H -61.955 L -61.955,0 Z M 59.51,80.372 V 51.541 h 16.739 c 8.736,0 17.305,3.721 17.305,14.51 0,9.493 -6.145,14.321 -18.046,14.321 z M 27.868,103.633 H 84.62 c 26.05,0 41.494,-17.488 41.494,-36.464 0,-13.96 -7.262,-24.373 -21.776,-31.066 13.03,-6.521 16.928,-22.148 34.797,-59.353 H 104.338 C 90.764,3.913 85.737,28.287 68.621,28.287 H 59.51 V -23.25 H 27.868 Z m -539.38,0 V 80.372 h -55.821 V 52.101 h 55.821 v -23.26 h -55.821 V -23.25 h -31.625 v 126.883 z m 32.295,0 h 56.74 c 26.045,0 41.484,-17.488 41.484,-36.464 0,-13.96 -7.251,-24.373 -21.76,-31.066 13.014,-6.521 16.927,-22.148 34.786,-59.353 h -34.786 c -13.58,27.163 -18.601,51.537 -35.727,51.537 h -9.112 V -23.25 h -31.625 z m 31.625,-23.261 V 51.541 h 16.751 c 8.735,0 17.293,3.721 17.293,14.51 0,9.493 -6.134,14.321 -18.041,14.321 z m 170.357,23.261 56.364,-126.883 h -34.044 l -10.418,25.12 h -56.75 l -9.484,-25.12 h -33.48 l 51.161,126.883 z m 2.602,-79.631 -20.471,49.301 -18.594,-49.301 z M -122.906,95.45 V 70.701 c -18.412,8.182 -29.395,11.348 -40.189,11.348 -11.342,0 -18.6,-4.091 -18.6,-10.418 0,-19.159 64.556,-13.768 64.556,-58.036 0,-24.379 -20.47,-38.523 -48.747,-38.523 -22.131,0 -33.109,5.769 -45.762,12.289 v 27.346 c 18.239,-12.1 29.399,-16.374 43.349,-16.374 12.09,0 18.6,4.274 18.6,11.725 0,20.825 -64.551,13.202 -64.551,58.783 0,21.949 18.971,36.469 48.364,36.469 14.139,0 26.982,-2.984 42.98,-9.86 m 360.067,0 V 70.701 c -18.412,8.182 -29.405,11.348 -40.199,11.348 -11.338,0 -18.59,-4.091 -18.59,-10.418 0,-19.159 64.546,-13.768 64.546,-58.036 0,-24.379 -20.46,-38.523 -48.735,-38.523 -22.143,0 -33.116,5.769 -45.769,12.289 v 27.346 c 18.233,-12.1 29.394,-16.374 43.344,-16.374 12.1,0 18.61,4.274 18.61,11.725 0,20.825 -64.567,13.202 -64.567,58.783 0,21.949 18.976,36.469 48.382,36.469 14.137,0 26.969,-2.984 42.978,-9.86" /></g><g
           transform="translate(54.6016,78.5998)"
           id="g28"><path
             id="path30"
             style="fill:#271100;fill-opacity:1;fill-rule:nonzero;stroke:none"
             d="M 0,0 H 11.035 V -77.079 H 0 v 33.547 H -43.313 V -77.079 H -54.348 V 0 h 11.035 V -33.326 H 0 Z" /></g><g
           transform="translate(139.313,69.2209)"
           id="g32"><path
             id="path34"
             style="fill:#271100;fill-opacity:1;fill-rule:nonzero;stroke:none"
             d="m 0,0 c -8.821,0 -16.069,-2.76 -21.747,-8.277 -5.678,-5.518 -8.517,-12.562 -8.517,-21.132 0,-8.313 2.847,-15.228 8.545,-20.745 5.696,-5.518 12.824,-8.277 21.388,-8.277 8.599,0 15.773,2.815 21.525,8.442 5.752,5.629 8.628,12.635 8.628,21.021 0,8.166 -2.876,15.035 -8.628,20.609 C 15.442,-2.787 8.378,0 0,0 m -0.441,10.482 c 11.909,0 21.824,-3.77 29.746,-11.31 7.921,-7.541 11.883,-16.994 11.883,-28.36 0,-11.366 -3.998,-20.773 -11.993,-28.222 -7.995,-7.448 -18.076,-11.173 -30.243,-11.173 -11.616,0 -21.293,3.725 -29.031,11.173 -7.738,7.449 -11.606,16.782 -11.606,28.001 0,11.513 3.895,21.04 11.689,28.581 7.793,7.54 17.643,11.31 29.555,11.31" /></g><g
           transform="translate(231.583,33.8166)"
           id="g36"><path
             id="path38"
             style="fill:#271100;fill-opacity:1;fill-rule:nonzero;stroke:none"
             d="m 0,0 -8.387,5.094 c -5.26,3.213 -9.003,6.372 -11.228,9.481 -2.225,3.108 -3.338,6.685 -3.338,10.732 0,6.069 2.106,10.998 6.317,14.787 4.212,3.788 9.684,5.683 16.415,5.683 6.437,0 12.34,-1.807 17.711,-5.422 V 27.831 c -5.555,5.343 -11.531,8.015 -17.931,8.015 -3.606,0 -6.567,-0.834 -8.884,-2.502 -2.318,-1.667 -3.476,-3.801 -3.476,-6.402 0,-2.308 0.854,-4.471 2.561,-6.486 1.707,-2.016 4.452,-4.131 8.234,-6.348 L 6.423,9.121 c 9.401,-5.615 14.102,-12.763 14.102,-21.443 0,-6.18 -2.069,-11.2 -6.207,-15.064 -4.138,-3.861 -9.518,-5.793 -16.139,-5.793 -7.615,0 -14.548,2.34 -20.801,7.022 v 14.014 c 5.959,-7.55 12.855,-11.325 20.69,-11.325 3.457,0 6.336,0.962 8.636,2.887 2.298,1.924 3.448,4.334 3.448,7.229 C 10.152,-8.66 6.768,-4.21 0,0" /></g><g
           transform="translate(304.5688,68.8889)"
           id="g40"><path
             id="path42"
             style="fill:#271100;fill-opacity:1;fill-rule:nonzero;stroke:none"
             d="M 0,0 H -11.42 V -24.111 H 0.662 c 4.487,0 7.945,1.056 10.373,3.173 2.428,2.114 3.642,5.139 3.642,9.076 C 14.677,-3.954 9.784,0 0,0 M -22.511,-67.368 V 9.822 H 1.932 c 7.356,0 13.222,-1.986 17.6,-5.959 4.377,-3.972 6.567,-9.306 6.567,-16.002 0,-4.487 -1.123,-8.46 -3.367,-11.918 -2.244,-3.457 -5.315,-5.967 -9.213,-7.53 -3.9,-1.563 -9.491,-2.345 -16.773,-2.345 h -8.166 v -33.436 z" /></g><path
           id="path44"
           style="fill:#271100;fill-opacity:1;fill-rule:nonzero;stroke:none"
           d="m 358.797,78.6 h 11.035 V 1.521 h -11.035 z" /><g
           transform="translate(398.7891,78.7111)"
           id="g46"><path
             id="path48"
             style="fill:#271100;fill-opacity:1;fill-rule:nonzero;stroke:none"
             d="M 0,0 H 64.389 V -9.822 H 37.519 V -77.19 H 26.429 V -9.822 L 0,-9.822 Z" /></g><g
           transform="translate(521.5371,34.1848)"
           id="g50"><path
             id="path52"
             style="fill:#271100;fill-opacity:1;fill-rule:nonzero;stroke:none"
             d="M 0,0 -12.437,27.918 -23.969,0 Z m -16.213,44.856 h 7.755 l 34.562,-77.52 H 14.81 L 4.536,-9.821 h -32.885 l -9.63,-22.843 H -49.32 Z" /></g><g
           transform="translate(574.501,78.5998)"
           id="g54"><path
             id="path56"
             style="fill:#271100;fill-opacity:1;fill-rule:nonzero;stroke:none"
             d="M 0,0 H 11.035 V -67.037 H 45.74 V -77.079 H 0 Z" /></g><path
           id="path58"
           style="fill:#271100;fill-opacity:1;fill-rule:nonzero;stroke:none"
           d="m 648.426,78.6 h 11.035 V 1.521 h -11.035 z" /><g
           transform="translate(688.4189,78.7111)"
           id="g60"><path
             id="path62"
             style="fill:#271100;fill-opacity:1;fill-rule:nonzero;stroke:none"
             d="M 0,0 H 64.389 V -9.822 H 37.52 V -77.19 H 26.429 V -9.822 L 0,-9.822 Z" /></g><g
           transform="translate(828.0127,78.5998)"
           id="g64"><path
             id="path66"
             style="fill:#271100;fill-opacity:1;fill-rule:nonzero;stroke:none"
             d="m 0,0 h 13.396 l -28.471,-36.305 v -40.774 h -11.311 v 40.774 L -54.855,0 h 13.321 l 20.627,-26.573 z" /></g></g></g></g></svg>