<svg xmlns="http://www.w3.org/2000/svg" width="120" height="41.68" viewBox="0 0 120 41.68">
  <g id="g10" transform="translate(-43.384 758.835)">
    <g id="g12" transform="translate(43.384 -758.835)">
      <g id="g20" transform="translate(37.653 0)">
        <path id="path22" d="M-57.484-30.074l0,0a.028.028,0,0,0,.013,0Zm25.766-14.8c-.075,1.05-1.577,1.548-3.224,1.548A31.7,31.7,0,0,1-42-44.49l-.23-.062.2-.126a12.481,12.481,0,0,1,6.368-1.831h.071c2.272,0,3.959.562,3.875,1.636m-13.029.985c-4.327,3.162-8.012,7.967-10.465,11.506l-.54.748-.39.536a8.4,8.4,0,0,0-4.212,1.842c-.128.122-.456.485-.248.567.084.08.328-.122.492-.283a6.1,6.1,0,0,1,3.295-1.24c-.877,1.12-1.838,2.241-2.879,3.392-.261.255-.607.629-.607.629-4.88,5.044-11,9.085-19.482,9.123a21.6,21.6,0,0,1-5.558-.693A10.41,10.41,0,0,1-88-18.786c-3.051-1.563-4.774-3.815-4.774-7.456,0-5.822,6.377-10.556,13.818-11.393a8.113,8.113,0,0,0,5.629,6.94,2.455,2.455,0,0,0,.868.221c.12,0,.217-.009.266-.139a6.787,6.787,0,0,1-.784-.248c-3.809-1.632-5.031-4.422-5.013-6.88.4-.022.8-.035,1.2-.035h.545l.686.033c5,.213,10.058,2.026,10.058,5.839a4.689,4.689,0,0,1-.363,1.836,3.72,3.72,0,0,1-.3.613c-1.7,3-6.315,5.124-10.974,5.52a8.325,8.325,0,0,1-.895.049l-.368-.009h-.288c-2.431,0-4.969-.489-6.249-2.208a2.622,2.622,0,0,1-.6-1.14c-.049-.148-.093-.3-.142-.476-.093-.483-.062-.722-.151-.784-.213,0-.182.514-.12.875a4.187,4.187,0,0,0,.359,1.149l.27.443c1.3,1.867,4.247,2.779,6.926,2.808h.341c5.416,0,11.12-2.622,12.728-6.506l.111-.275a5.474,5.474,0,0,0,.332-1.867c0-3.9-4.628-6.291-9.566-6.833l-.66-.06c-.518-.031-1.027-.062-1.51-.062-.425,0-.859.013-1.293.04.027-.155.053-.308.089-.458,1.324-5.516,7.343-7.841,14.243-7.841a65.27,65.27,0,0,1,12.205,1.67c2.538.582,4.57,1.089,6.236,1.45l.266.058Zm13.547-.934c.195-1.386-1.811-2.128-4.393-2.128a18.85,18.85,0,0,0-8,2.026c-2.467-.653-5-1.38-7.4-2.031a53.744,53.744,0,0,0-12.3-2.172c-9.039-.071-14.916,4.121-15.629,9.409A10.025,10.025,0,0,0-79-38.693c-7.737.877-14.9,5.912-14.9,12.42,0,4.174,2.321,7.057,6.05,8.609l.394.126a20.526,20.526,0,0,0,7.2,1.171c.049,0,.1,0,.146,0,.031,0,.062,0,.093,0,8.729.029,15.412-3.64,20.806-8.762l.545-.485a55.01,55.01,0,0,0,4.19-4.666l.43.009,2.8.084c2.6.042,5.89-.08,7.25-1.191.12-.12.93-1.085.332-.58-1.771,1.362-4.123.912-6.842.748l-2.8-.084-.611.007.217-.286.54-.757c.54-.726,1.089-1.479,1.6-2.236A44.9,44.9,0,0,1-43.7-43.686l.434.084a48.776,48.776,0,0,0,8.034.72c2.4,0,3.9-.8,4.03-1.94" transform="translate(93.901 49.128)" fill="#866d4b"/>
      </g>
      <g id="g24" transform="translate(0 26.454)">
        <path id="path26" d="M-180.383-16.341c0,1.538,0,2.8-.08,3.478-.071.465-.142.818-.461.882a2.54,2.54,0,0,1-.478.064c-.1,0-.142.048-.142.1,0,.1.089.128.257.128.487,0,1.5-.049,1.585-.049.461,0,1.523.1,3.95.1.629,0,.744,0,.868-.416.08-.338.213-1.427.213-1.556,0-.112,0-.24-.106-.24-.08,0-.106.064-.142.24-.106.658-.31.979-.726,1.155a4.567,4.567,0,0,1-1.541.176c-1.559,0-1.807-.208-1.86-1.315-.009-.335,0-2.2,0-2.74v-1.412a.111.111,0,0,1,.124-.112c.266,0,1.86.032,2.285.081.62.064.771.337.833.56a1.49,1.49,0,0,1,.071.529c0,.081.027.144.106.144.124,0,.124-.175.124-.3,0-.112.018-.705.062-1.026.044-.528.115-.8.115-.9s-.018-.128-.071-.128c-.071,0-.124.08-.248.208-.142.161-.372.193-.753.225-.363.031-2.338.031-2.542.031-.071,0-.106-.048-.106-.159v-4.425c0-.112.044-.159.106-.159.177,0,1.913.017,2.2.048.868.1,1.028.289,1.134.546a1.566,1.566,0,0,1,.106.576c0,.13.018.21.115.21.062,0,.106-.1.115-.177.035-.193.071-.9.089-1.058.053-.448.124-.641.124-.753,0-.08-.018-.144-.062-.144-.08,0-.151.064-.221.08a4.513,4.513,0,0,1-.691.08c-.372.015-3.561.015-3.667.015-.089,0-1.1-.047-1.825-.047-.177,0-.248.031-.248.127,0,.064.062.1.124.1a2.931,2.931,0,0,1,.549.049c.531.112.655.369.691.913.027.513.027.962.027,3.462Zm-7.91,4.873a9.3,9.3,0,0,0,2.888-.368c.292-.13.319-.161.425-.465a16.451,16.451,0,0,0,.345-2.053c0-.128-.027-.24-.106-.24-.1,0-.133.063-.159.24a3.222,3.222,0,0,1-.593,1.346,3.691,3.691,0,0,1-2.8.8,5.8,5.8,0,0,1-5.793-5.868,5.373,5.373,0,0,1,1.453-4.183,4.9,4.9,0,0,1,3.694-1.17,5.288,5.288,0,0,1,3.2.913,2.231,2.231,0,0,1,.682,1.636c0,.224.009.335.115.335s.142-.1.15-.335.009-1.123.053-1.652c.027-.578.08-.769.08-.9,0-.1-.035-.161-.213-.176a13.756,13.756,0,0,1-1.63-.241,13.887,13.887,0,0,0-2.33-.193,6.468,6.468,0,0,0-4.889,1.716,6.406,6.406,0,0,0-1.8,4.376,6.14,6.14,0,0,0,1.949,4.746,7.366,7.366,0,0,0,5.279,1.731M-204.4-17c-.053,0-.089-.032-.053-.112l1.417-4.329c.071-.24.159-.24.23,0l1.532,4.329c.009.064.009.112-.062.112Zm-2.241,3.543c-.292.8-.611,1.411-1.355,1.507-.124.016-.345.032-.461.032-.089,0-.15.032-.15.1,0,.1.106.128.31.128.753,0,1.63-.049,1.816-.049.168,0,.859.049,1.249.049.142,0,.239-.032.239-.128q0-.1-.159-.1h-.159c-.275,0-.611-.145-.611-.465a3.238,3.238,0,0,1,.23-1.074l.957-2.838c.035-.08.071-.128.159-.128h3.454a.148.148,0,0,1,.142.1l1.488,3.944c.089.256,0,.4-.106.433-.053.016-.106.049-.106.113,0,.1.177.1.478.112,1.116.032,2.285.032,2.524.032.168,0,.319-.032.319-.128,0-.08-.062-.1-.159-.1a2.149,2.149,0,0,1-.647-.1c-.337-.1-.8-.353-1.373-1.779-.983-2.437-3.5-9.058-3.729-9.667-.2-.5-.266-.578-.363-.578s-.159.1-.363.626Zm-7.768-5.707c0-2.5,0-2.95.018-3.462.044-.561.159-.834.629-.913a3.851,3.851,0,0,1,.531-.049c.062,0,.133-.032.133-.1,0-.1-.08-.127-.266-.127-.478,0-1.647.047-1.727.047s-1.089-.047-1.807-.047c-.186,0-.266.031-.266.127,0,.064.062.1.133.1a3.069,3.069,0,0,1,.549.049c.531.112.655.369.691.913.018.513.018.962.018,3.462v2.822c0,1.538,0,2.8-.071,3.478-.071.465-.151.818-.469.882a2.446,2.446,0,0,1-.478.064c-.1,0-.133.048-.133.1,0,.1.089.128.266.128.478,0,1.417-.049,1.568-.049.93,0,1.993.1,4.3.1.85,0,.9-.064,1.01-.433a10.97,10.97,0,0,0,.248-1.6c0-.176-.027-.24-.106-.24s-.124.081-.142.208a2.145,2.145,0,0,1-.416.962c-.381.465-1.089.482-1.94.482-1.249,0-1.665-.113-1.931-.369-.275-.289-.337-1.315-.337-3.671Zm-12.843,1.783c0,1.887,0,3.439-.089,4.265-.08.569-.177,1-.567,1.081a3.033,3.033,0,0,1-.585.079c-.124,0-.16.059-.16.117,0,.118.089.158.3.158.6,0,1.833-.06,1.887-.06.106,0,1.337.06,2.418.06.23,0,.319-.06.319-.158,0-.059-.035-.117-.159-.117a8.084,8.084,0,0,1-.877-.079c-.593-.079-.717-.512-.771-1.081-.089-.826-.089-2.378-.089-4.265v-8.076c0-.2.035-.334.142-.374a2.5,2.5,0,0,1,.85-.117,3.422,3.422,0,0,1,2.693.982,4.15,4.15,0,0,1,1.1,3.027,3.258,3.258,0,0,1-3.392,3.2c-.416,0-.532.019-.532.177,0,.1.115.137.213.137a3.083,3.083,0,0,0,.416.019,4.568,4.568,0,0,0,4.836-4.677,3.452,3.452,0,0,0-.992-2.338c-.319-.295-1.187-1.119-3.649-1.119-.9,0-2.046.059-2.48.059-.151,0-1.329-.059-2.223-.059-.213,0-.31.04-.31.157,0,.077.071.117.151.117a3.722,3.722,0,0,1,.682.06c.647.137.8.452.833,1.119.035.629.035,1.179.035,4.245Zm-11.072-5.39c0-.127.035-.193.142-.224a3.5,3.5,0,0,1,.85-.064c.939,0,2.462.657,2.462,2.934a2.835,2.835,0,0,1-.948,2.4,1.635,1.635,0,0,1-1.143.272,4.32,4.32,0,0,1-1.222-.161c-.106-.048-.142-.112-.142-.289Zm-1.9,6.429c0,1.475,0,2.74-.071,3.415-.071.465-.151.818-.469.881a2.588,2.588,0,0,1-.576.064c-.195,0-.266.048-.266.127,0,.113.124.162.319.162.656,0,1.665-.049,1.966-.049.248,0,1.426.049,2.356.049.213,0,.319-.049.319-.162,0-.08-.071-.127-.186-.127a7.672,7.672,0,0,1-.8-.064c-.478-.063-.576-.416-.629-.881-.071-.674-.071-1.94-.071-3.431v-.225a.111.111,0,0,1,.124-.127l1.4.032a.347.347,0,0,1,.292.112c.2.24.948,1.331,1.585,2.212A7.909,7.909,0,0,0-232.73-12a3.293,3.293,0,0,0,1.71.3h1.532c.2,0,.31-.032.31-.162,0-.08-.071-.127-.195-.127a2.421,2.421,0,0,1-.443-.048,3.168,3.168,0,0,1-1.8-1.091c-.957-.994-2.064-2.421-3.481-4.216,1.621-1.314,2.108-2.4,2.108-3.591a2.794,2.794,0,0,0-1.081-2.2,5.155,5.155,0,0,0-2.958-.689c-.487,0-1.709.047-2.25.047-.337,0-1.346-.047-2.2-.047-.239,0-.354.031-.354.144s.089.144.275.144a3.453,3.453,0,0,1,.629.049c.514.112.647.368.691.913.018.513.018.962.018,3.4Zm-9.318,0c0,1.475,0,2.74-.089,3.415-.062.465-.142.818-.461.881a2.679,2.679,0,0,1-.585.064c-.186,0-.248.048-.248.127,0,.113.106.162.319.162.638,0,1.647-.049,2.019-.049.939,0,2.02.1,4.429.1.62,0,.762,0,.886-.416a14.131,14.131,0,0,0,.195-1.779c0-.161,0-.289-.124-.289s-.142.063-.177.24c-.106.658-.31.994-.726,1.186a3.986,3.986,0,0,1-1.5.193c-1.647,0-1.9-.24-1.922-1.346-.018-.465,0-1.94,0-2.485v-1.267c0-.1.009-.161.089-.161.39,0,1.966.016,2.267.049.6.064.833.3.9.624a3.868,3.868,0,0,1,.071.578c0,.08.027.144.142.144.142,0,.142-.177.142-.3s.035-.754.062-1.075c.053-.817.133-1.074.133-1.169s-.053-.128-.124-.128-.124.08-.248.208a1.13,1.13,0,0,1-.771.24c-.363.032-2.206.032-2.56.032-.1,0-.106-.064-.106-.176V-22.8c0-.113.018-.162.106-.162.319,0,2,.033,2.285.065.8.1.957.289,1.063.577a2.063,2.063,0,0,1,.106.577c0,.145.018.225.124.225.124,0,.151-.1.177-.176.027-.193.053-.9.08-1.058.044-.737.115-.93.115-1.042,0-.08-.009-.144-.089-.144a1.2,1.2,0,0,0-.248.064c-.142.031-.39.064-.691.1-.31.015-3.5.015-4.021.015-.443,0-1.453-.047-2.3-.047-.248,0-.354.031-.354.144s.1.144.266.144a3.192,3.192,0,0,1,.629.049c.531.112.664.368.691.913.044.513.044.962.044,3.4Zm-7.068,4.873a4.661,4.661,0,0,0,2.551-.658,3.266,3.266,0,0,0,1.5-2.789c0-1.522-.7-2.6-2.631-4.088l-.452-.337c-1.329-1.01-1.7-1.571-1.7-2.308a1.7,1.7,0,0,1,1.913-1.651,2.048,2.048,0,0,1,1.745.785,1.975,1.975,0,0,1,.425,1.058c0,.193.035.288.159.288s.168-.127.168-.481c0-1.25.062-1.715.062-1.924,0-.112-.071-.159-.221-.193a7.8,7.8,0,0,0-2.126-.272c-2.232,0-3.711,1.267-3.711,3.03,0,1.3.62,2.421,2.374,3.8l.744.577c1.329,1.026,1.559,1.779,1.559,2.564a1.939,1.939,0,0,1-2.135,1.828,2.207,2.207,0,0,1-2.294-1.619,3.048,3.048,0,0,1-.151-.817c0-.13-.009-.272-.159-.272-.133,0-.168.176-.186.415-.027.257-.08,1.22-.08,2.1,0,.353.044.434.31.546a5.471,5.471,0,0,0,2.338.416m-11.577-5.209c-.053,0-.08-.048-.053-.113l1.479-3.944c.009-.063.035-.143.089-.143.036,0,.071.08.08.143l1.435,3.96c.027.049,0,.1-.08.1Zm3.251.8c.089,0,.142.031.159.112l1.293,3.4a.26.26,0,0,1-.142.37c-.159.016-.23.048-.23.143,0,.113.195.113.478.13,1.293.032,2.462.032,3.029.032.6,0,.744-.032.744-.162,0-.112-.08-.127-.213-.127a3.415,3.415,0,0,1-.664-.064c-.346-.081-.806-.3-1.426-1.747-1.019-2.437-3.578-8.978-3.968-9.859-.159-.369-.248-.513-.4-.513s-.257.176-.452.641l-4.021,10.068c-.319.8-.629,1.347-1.364,1.443a4.647,4.647,0,0,1-.5.032c-.124,0-.195.032-.195.127,0,.13.1.162.31.162.841,0,1.709-.049,1.887-.049.5,0,1.2.049,1.7.049.177,0,.283-.032.283-.162,0-.1-.053-.127-.248-.127h-.248c-.5,0-.638-.208-.638-.5a3.116,3.116,0,0,1,.239-.978l.859-2.293c.044-.1.071-.127.151-.127Zm-15.217-6.894c0-.127.035-.193.142-.224a3.5,3.5,0,0,1,.85-.064c.939,0,2.462.657,2.462,2.934a2.812,2.812,0,0,1-.957,2.4,1.6,1.6,0,0,1-1.134.272A4.278,4.278,0,0,1-280-17.608c-.106-.048-.142-.112-.142-.289Zm-1.9,6.429c0,1.475,0,2.74-.071,3.415-.071.465-.15.818-.469.881a2.748,2.748,0,0,1-.585.064c-.186,0-.257.048-.257.127,0,.113.106.162.319.162.638,0,1.648-.049,1.958-.049.239,0,1.435.049,2.365.049.195,0,.319-.049.319-.162,0-.08-.071-.127-.195-.127a7.332,7.332,0,0,1-.788-.064c-.478-.063-.576-.416-.629-.881-.071-.674-.071-1.94-.071-3.431v-.225a.111.111,0,0,1,.124-.127l1.4.032a.339.339,0,0,1,.283.112c.213.24.957,1.331,1.594,2.212A7.581,7.581,0,0,0-274.555-12a3.292,3.292,0,0,0,1.709.3h1.532c.186,0,.31-.032.31-.162,0-.08-.071-.127-.2-.127a2.415,2.415,0,0,1-.434-.048,3.205,3.205,0,0,1-1.807-1.091c-.948-.994-2.055-2.421-3.472-4.216,1.621-1.314,2.108-2.4,2.108-3.591a2.794,2.794,0,0,0-1.081-2.2,5.155,5.155,0,0,0-2.958-.689c-.5,0-1.709.047-2.25.047-.354,0-1.364-.047-2.214-.047-.23,0-.337.031-.337.144s.089.144.266.144a3.217,3.217,0,0,1,.62.049c.531.112.664.368.691.913.036.513.036.962.036,3.4Zm-8.167-2.631c0-.138.035-.178.133-.178.328,0,2.418,0,2.914.06a1.192,1.192,0,0,1,1.01.707,2.845,2.845,0,0,1,.106.609c0,.138.035.276.159.276.195,0,.195-.2.195-.374,0-.137.035-1.042.08-1.434.053-.609.159-1.1.159-1.218s-.044-.178-.115-.178c-.124,0-.159.08-.257.2a1.055,1.055,0,0,1-.85.354c-.275.02-.54.02-.895.02l-2.507.02c-.115,0-.133-.06-.133-.177V-25.2c0-.216.053-.275.177-.275l3.029.059a1.422,1.422,0,0,1,1.293.59,2.118,2.118,0,0,1,.106.746c.036.217.071.314.2.314.151,0,.168-.117.2-.276.035-.236.071-1.4.089-1.591.071-.51.159-.746.159-.884,0-.1-.053-.177-.133-.177a1.158,1.158,0,0,0-.319.117,3.716,3.716,0,0,1-.8.08c-.469.019-4.455.019-5.2.019-.567,0-1.807-.059-2.825-.059-.292,0-.452.04-.452.2,0,.118.133.157.337.157a4.058,4.058,0,0,1,.762.059c.655.138.815.452.841,1.12.044.629.044,1.178.044,4.166v3.458c0,1.887,0,3.361-.1,4.185-.08.571-.168,1-.576,1.082a3.117,3.117,0,0,1-.7.079c-.212,0-.292.06-.292.157,0,.157.133.2.407.2.744,0,1.984-.06,2.5-.06s1.745.06,2.976.06c.31,0,.443-.06.443-.2,0-.1-.08-.157-.337-.157a8.252,8.252,0,0,1-.974-.079c-.585-.079-.709-.51-.779-1.082-.089-.824-.089-2.3-.089-4.185Z" transform="translate(294.67 26.695)" fill="#005b7f"/>
      </g>
    </g>
  </g>
</svg>
