<svg xmlns="http://www.w3.org/2000/svg" width="120" height="32.543" viewBox="0 0 120 32.543">
  <g id="g10" transform="translate(-362.689 467.999)">
    <g id="g12" transform="translate(362.689 -467.999)">
      <g id="g20" transform="translate(29.288 0)">
        <path id="path22" d="M-65.517-34.278l-.006,0,.015,0Zm20.082-11.533c-.062.818-1.228,1.206-2.512,1.206a24.794,24.794,0,0,1-5.5-.907l-.18-.049.158-.1a9.744,9.744,0,0,1,4.961-1.426h.056c1.773,0,3.085.438,3.021,1.276m-10.154.769a38.456,38.456,0,0,0-8.157,8.966l-.42.584-.3.418a6.534,6.534,0,0,0-3.283,1.436c-.1.095-.353.378-.193.441.064.063.257-.095.385-.22A4.738,4.738,0,0,1-65-34.385c-.682.872-1.43,1.746-2.244,2.644-.2.2-.472.49-.472.49-3.8,3.932-8.568,7.08-15.18,7.11a16.782,16.782,0,0,1-4.334-.541,8.077,8.077,0,0,1-2.075-.8,6.057,6.057,0,0,1-3.722-5.809c0-4.538,4.971-8.227,10.773-8.88a6.322,6.322,0,0,0,4.383,5.409,1.93,1.93,0,0,0,.679.171c.093,0,.168-.006.207-.107a5.125,5.125,0,0,1-.609-.193c-2.97-1.273-3.923-3.448-3.909-5.363.31-.017.62-.027.93-.027h.425l.534.025c3.9.166,7.841,1.579,7.841,4.551a3.683,3.683,0,0,1-.282,1.432,3.281,3.281,0,0,1-.233.477c-1.326,2.34-4.924,3.992-8.555,4.3a6.312,6.312,0,0,1-.7.038l-.286-.006h-.227c-1.892,0-3.869-.38-4.869-1.721a1.99,1.99,0,0,1-.463-.888c-.04-.116-.077-.237-.113-.371-.071-.375-.047-.563-.118-.61-.164,0-.141.4-.094.68a3.362,3.362,0,0,0,.282.9l.211.345c1.009,1.455,3.308,2.165,5.4,2.188h.263c4.225,0,8.672-2.045,9.925-5.07l.085-.213a4.3,4.3,0,0,0,.258-1.455c0-3.042-3.607-4.9-7.455-5.327l-.516-.047c-.4-.024-.8-.047-1.173-.047q-.5,0-1.007.031c.018-.122.041-.241.066-.358,1.032-4.3,5.725-6.111,11.1-6.111a50.838,50.838,0,0,1,9.513,1.3c1.977.453,3.559.848,4.859,1.13l.208.045Zm10.556-.729c.154-1.08-1.41-1.658-3.423-1.658a14.7,14.7,0,0,0-6.238,1.579c-1.921-.509-3.9-1.074-5.765-1.582a41.946,41.946,0,0,0-9.586-1.694c-7.047-.056-11.625,3.211-12.182,7.333a7.151,7.151,0,0,0-.061.8c-6.031.684-11.613,4.609-11.613,9.68a6.973,6.973,0,0,0,4.717,6.71l.305.1a15.979,15.979,0,0,0,5.609.913l.114,0,.072,0c6.806.023,12.013-2.838,16.213-6.829l.428-.378a42.4,42.4,0,0,0,3.264-3.635l.338.007,2.181.066c2.022.032,4.59-.063,5.649-.929.095-.093.725-.845.258-.452-1.381,1.062-3.213.712-5.332.584l-2.18-.066-.478.005.172-.221.42-.592c.422-.566.848-1.153,1.246-1.743a35.076,35.076,0,0,1,6.133-7.107l.339.064a37.979,37.979,0,0,0,6.26.56c1.868,0,3.036-.624,3.14-1.511" transform="translate(93.9 49.128)" fill="#866d4b"/>
      </g>
      <g id="g24" transform="translate(0 20.676)">
        <path id="path26" d="M-266.728-18.626c0,1.2,0,2.186-.062,2.711-.05.362-.113.637-.363.687a1.948,1.948,0,0,1-.374.05c-.075,0-.1.037-.1.075,0,.075.063.1.2.1.374,0,1.162-.037,1.225-.037.362,0,1.2.075,3.086.075.487,0,.587,0,.675-.325.062-.262.162-1.112.162-1.212s0-.187-.075-.187-.087.05-.113.187c-.087.512-.237.762-.562.9a3.586,3.586,0,0,1-1.2.137c-1.224,0-1.411-.163-1.449-1.024-.013-.263,0-1.712,0-2.136v-1.1a.079.079,0,0,1,.087-.087c.213,0,1.45.025,1.787.062.487.05.6.262.649.437a1.263,1.263,0,0,1,.05.412c0,.063.025.113.087.113.087,0,.087-.137.087-.237s.025-.55.05-.8c.037-.412.1-.624.1-.7s-.025-.1-.063-.1-.1.062-.187.162c-.113.125-.287.15-.587.175s-1.824.025-1.986.025c-.063,0-.075-.037-.075-.125v-3.449c0-.087.025-.125.075-.125.137,0,1.5.012,1.711.037.675.075.8.225.887.425a1.339,1.339,0,0,1,.075.449c0,.1.025.163.1.163.05,0,.075-.075.087-.137.025-.15.05-.7.063-.825.037-.35.1-.5.1-.587,0-.062-.013-.112-.05-.112-.062,0-.112.05-.175.062a3.343,3.343,0,0,1-.538.062c-.287.012-2.773.012-2.86.012-.063,0-.85-.037-1.412-.037-.137,0-.2.025-.2.1,0,.05.05.075.1.075a2.336,2.336,0,0,1,.425.038c.413.087.513.287.537.712.025.4.025.75.025,2.7Zm-4.6,3.8a7.253,7.253,0,0,0,2.249-.287c.224-.1.249-.125.324-.362a12.94,12.94,0,0,0,.274-1.6c0-.1-.024-.187-.087-.187s-.1.05-.124.187a2.374,2.374,0,0,1-.463,1.049,2.872,2.872,0,0,1-2.173.625,4.512,4.512,0,0,1-4.511-4.573,4.182,4.182,0,0,1,1.124-3.26,3.814,3.814,0,0,1,2.874-.912,4.159,4.159,0,0,1,2.5.712,1.73,1.73,0,0,1,.525,1.275c0,.175.013.262.1.262s.1-.075.113-.262.013-.875.037-1.287c.025-.45.063-.6.063-.7,0-.075-.025-.125-.163-.137a10.8,10.8,0,0,1-1.274-.188,10.736,10.736,0,0,0-1.811-.15,5.049,5.049,0,0,0-3.811,1.337,4.985,4.985,0,0,0-1.4,3.41,4.784,4.784,0,0,0,1.512,3.7,5.767,5.767,0,0,0,4.123,1.35m-14.619-7.859c.4.45,1.812,2.024,3.261,3.585,1.324,1.424,3.123,3.261,3.261,3.386.662.662.812.8.912.8s.112-.062.112-.887l.025-7.321c0-.75.05-1.024.462-1.112a1.093,1.093,0,0,1,.3-.038c.087,0,.138-.037.138-.087,0-.075-.087-.087-.225-.087-.512,0-.925.037-1.062.037s-.738-.037-1.3-.037c-.15,0-.25.012-.25.087,0,.05.013.087.1.087a3.325,3.325,0,0,1,.611.063c.387.1.476.374.487,1.187l.138,6.347c-.4-.412-1.762-1.937-3-3.261-1.925-2.061-3.786-4.073-3.974-4.286-.124-.125-.337-.4-.437-.4s-.138.137-.138.625l-.013,7.159c0,1.137-.062,1.5-.374,1.586a1.8,1.8,0,0,1-.513.075c-.062,0-.1.025-.1.075,0,.088.075.1.2.1.563,0,1.087-.037,1.2-.037s.612.037,1.325.037c.15,0,.224-.025.224-.1,0-.05-.037-.075-.1-.075a2.739,2.739,0,0,1-.624-.075c-.338-.1-.463-.425-.487-1.449Zm-6.546,4.061c0,1.2,0,2.186-.062,2.711-.05.362-.112.637-.363.687a1.956,1.956,0,0,1-.374.05c-.075,0-.1.037-.1.075,0,.075.062.1.2.1.374,0,1.162-.037,1.224-.037.362,0,1.2.075,3.085.075.487,0,.587,0,.675-.325.062-.262.162-1.112.162-1.212s0-.187-.075-.187-.087.05-.113.187c-.087.512-.237.762-.562.9a3.586,3.586,0,0,1-1.2.137c-1.224,0-1.412-.163-1.449-1.024-.012-.263,0-1.712,0-2.136v-1.1a.078.078,0,0,1,.087-.087c.213,0,1.449.025,1.787.062.487.05.6.262.649.437a1.283,1.283,0,0,1,.05.412c0,.063.025.113.087.113.088,0,.088-.137.088-.237s.024-.55.05-.8c.038-.412.1-.624.1-.7s-.025-.1-.062-.1-.1.062-.187.162c-.112.125-.287.15-.587.175s-1.825.025-1.987.025c-.062,0-.075-.037-.075-.125v-3.449c0-.087.025-.125.075-.125.138,0,1.5.012,1.711.037.675.075.8.225.887.425a1.323,1.323,0,0,1,.076.449c0,.1.024.163.1.163.05,0,.075-.075.087-.137.024-.15.05-.7.062-.825.038-.35.1-.5.1-.587,0-.062-.013-.112-.05-.112-.062,0-.112.05-.175.062a3.343,3.343,0,0,1-.537.062c-.287.012-2.773.012-2.861.012-.062,0-.85-.037-1.411-.037-.138,0-.2.025-.2.1,0,.05.05.075.1.075a2.33,2.33,0,0,1,.424.038c.413.087.513.287.538.712.024.4.024.75.024,2.7Zm-9.036-2.4c0-.962,0-2.236.012-2.662a.227.227,0,0,1,.15-.25,3.358,3.358,0,0,1,.812-.087,5.139,5.139,0,0,1,4.086,1.412,4.473,4.473,0,0,1,1.2,3.149,4.374,4.374,0,0,1-1,2.986,4.2,4.2,0,0,1-2.974,1.162c-1.474,0-1.962-.263-2.124-.5a2.727,2.727,0,0,1-.137-.95c-.013-.237-.025-1.386-.025-2.711Zm-1.049,2.4c0,1.2,0,2.186-.062,2.711-.05.362-.112.637-.362.687a1.964,1.964,0,0,1-.376.05c-.075,0-.1.037-.1.075,0,.075.063.1.2.1.376,0,1.162-.037,1.225-.037.125,0,1.7.15,2.773.15a4.963,4.963,0,0,0,3.786-1.437,5.109,5.109,0,0,0,1.349-3.523,4.463,4.463,0,0,0-1.212-3.173c-1.487-1.537-3.773-1.424-5.01-1.424-.75,0-1.538.037-1.687.037-.063,0-.849-.037-1.412-.037-.137,0-.2.025-.2.1,0,.05.05.075.1.075a2.337,2.337,0,0,1,.425.038c.413.087.513.287.537.712.025.4.025.75.025,2.7Zm-3.2-2.2c0-1.949,0-2.3.025-2.7.025-.437.125-.65.462-.712a1.876,1.876,0,0,1,.312-.038c.05,0,.1-.025.1-.075,0-.075-.062-.1-.2-.1-.374,0-1.162.037-1.224.037s-.849-.037-1.262-.037c-.137,0-.2.025-.2.1,0,.05.05.075.1.075a1.661,1.661,0,0,1,.387.05c.275.063.4.275.424.7.025.4.025.75.025,2.7v2.2c0,1.2,0,2.186-.062,2.711-.05.362-.112.637-.362.687a1.965,1.965,0,0,1-.376.05c-.075,0-.1.037-.1.075,0,.075.063.1.2.1.376,0,1.162-.037,1.225-.037s.85.037,1.537.037c.138,0,.2-.037.2-.1,0-.037-.025-.075-.1-.075a5.564,5.564,0,0,1-.562-.05c-.374-.05-.45-.325-.487-.687-.063-.525-.063-1.512-.063-2.711Zm-6.047,6a3.282,3.282,0,0,0,1.887-.525,2.588,2.588,0,0,0,1.062-2.074c0-1-.35-1.775-1.824-2.936l-.35-.274c-1.174-.962-1.524-1.387-1.524-2.1a1.42,1.42,0,0,1,1.536-1.449c1.15,0,1.487.525,1.562.662a2.177,2.177,0,0,1,.163.624c.012.1.024.163.1.163s.087-.087.087-.287c0-.85.05-1.262.05-1.324s-.025-.087-.125-.087a2.05,2.05,0,0,1-.438-.062,4.845,4.845,0,0,0-1.162-.125,2.288,2.288,0,0,0-2.587,2.249c0,.85.3,1.624,1.625,2.711l.562.462c1.074.887,1.436,1.387,1.436,2.249a1.667,1.667,0,0,1-1.786,1.662,1.7,1.7,0,0,1-1.849-1.274,2.173,2.173,0,0,1-.038-.462c0-.1-.013-.137-.087-.137s-.087.062-.1.2c-.012.2-.063.7-.063,1.324,0,.337.012.387.188.475a3.791,3.791,0,0,0,1.673.337m-7.246-3.8c0,1.2,0,2.186-.063,2.711-.05.362-.112.637-.362.687a1.957,1.957,0,0,1-.375.05c-.075,0-.1.037-.1.075,0,.075.063.1.2.1.375,0,1.162-.037,1.224-.037.363,0,1.2.075,3.087.075.487,0,.587,0,.675-.325.062-.262.162-1.112.162-1.212s0-.187-.075-.187-.087.05-.112.187c-.087.512-.238.762-.562.9a3.582,3.582,0,0,1-1.2.137c-1.224,0-1.411-.163-1.449-1.024-.013-.263,0-1.712,0-2.136v-1.1a.079.079,0,0,1,.087-.087c.212,0,1.449.025,1.787.062.487.05.6.262.649.437a1.263,1.263,0,0,1,.05.412c0,.063.024.113.087.113.087,0,.087-.137.087-.237s.024-.55.05-.8c.038-.412.1-.624.1-.7s-.025-.1-.062-.1-.1.062-.187.162c-.112.125-.287.15-.587.175s-1.825.025-1.987.025c-.062,0-.075-.037-.075-.125v-3.449c0-.087.025-.125.075-.125.138,0,1.5.012,1.712.037.675.075.8.225.887.425a1.348,1.348,0,0,1,.075.449c0,.1.024.163.1.163.05,0,.075-.075.087-.137.025-.15.05-.7.063-.825.037-.35.1-.5.1-.587,0-.062-.013-.112-.05-.112-.063,0-.113.05-.176.062a3.331,3.331,0,0,1-.537.062c-.287.012-2.774.012-2.861.012-.062,0-.849-.037-1.411-.037-.138,0-.2.025-.2.1,0,.05.05.075.1.075a2.328,2.328,0,0,1,.424.038c.413.087.513.287.538.712.025.4.025.75.025,2.7Zm-9.437-7.181a.184.184,0,0,1,.122-.184,4.63,4.63,0,0,1,1.026-.092c1.639,0,2.65,1.149,2.65,3.063a2.8,2.8,0,0,1-.934,2.359,1.983,1.983,0,0,1-1.149.291,4.223,4.223,0,0,1-1.608-.245.2.2,0,0,1-.107-.184Zm-1.225,6.371c0,1.471,0,2.681-.077,3.323-.062.445-.138.781-.444.842a2.369,2.369,0,0,1-.459.062c-.092,0-.123.046-.123.091,0,.092.077.123.245.123.459,0,1.424-.046,1.439-.046.077,0,1.041.046,1.884.046.168,0,.245-.046.245-.123,0-.046-.031-.091-.123-.091a6.692,6.692,0,0,1-.689-.062c-.46-.061-.552-.4-.6-.842-.077-.643-.077-1.853-.077-3.323V-19.8c0-.077.03-.123.107-.123l1.884.031a.248.248,0,0,1,.2.092c.306.4,1.026,1.424,1.669,2.266a7.98,7.98,0,0,0,2.068,2.251,3.113,3.113,0,0,0,1.638.291h1.087c.276,0,.368-.031.368-.123,0-.046-.062-.091-.138-.091a3.645,3.645,0,0,1-.6-.046,3.161,3.161,0,0,1-1.868-1.1c-.889-.95-1.93-2.313-3.186-3.921a4.725,4.725,0,0,0,1.853-3.537,2.681,2.681,0,0,0-1.057-2.083,4.717,4.717,0,0,0-2.8-.673c-.475,0-1.639.046-1.808.046-.077,0-1.041-.046-1.73-.046-.168,0-.245.031-.245.122,0,.062.061.092.123.092a2.864,2.864,0,0,1,.521.046c.505.107.628.352.658.873.031.49.031.919.031,3.308Zm-8.635-4.2c0-.1.025-.15.112-.175a2.742,2.742,0,0,1,.662-.05,2,2,0,0,1,1.912,2.286,2.2,2.2,0,0,1-.737,1.874,1.252,1.252,0,0,1-.887.212,3.294,3.294,0,0,1-.95-.125c-.087-.037-.112-.087-.112-.225Zm-1.474,5.01c0,1.149,0,2.136-.062,2.661-.05.362-.112.637-.362.687a2.064,2.064,0,0,1-.45.05c-.15,0-.2.037-.2.1,0,.087.087.125.25.125.5,0,1.287-.037,1.524-.037.187,0,1.112.037,1.837.037.162,0,.25-.037.25-.125,0-.063-.05-.1-.15-.1a5.853,5.853,0,0,1-.612-.05c-.375-.05-.45-.325-.487-.687-.062-.525-.062-1.512-.062-2.674v-.175c0-.075.037-.1.1-.1l1.087.025a.262.262,0,0,1,.225.087c.162.187.737,1.037,1.237,1.725A6.028,6.028,0,0,0-334-15.24a2.542,2.542,0,0,0,1.337.237h1.187c.15,0,.237-.025.237-.125,0-.063-.05-.1-.15-.1a2,2,0,0,1-.35-.037,2.493,2.493,0,0,1-1.4-.85c-.737-.774-1.6-1.886-2.711-3.285a3.5,3.5,0,0,0,1.649-2.8,2.165,2.165,0,0,0-.85-1.712,3.991,3.991,0,0,0-2.3-.537c-.387,0-1.337.037-1.762.037-.262,0-1.049-.037-1.712-.037-.187,0-.275.025-.275.112s.075.112.212.112a2.565,2.565,0,0,1,.487.038c.412.087.512.287.537.712.025.4.025.75.025,2.649Zm-7.271,0c0,1.149,0,2.136-.062,2.661-.05.362-.112.637-.362.687a2.06,2.06,0,0,1-.449.05c-.15,0-.2.037-.2.1,0,.087.087.125.25.125.5,0,1.287-.037,1.575-.037.737,0,1.574.075,3.46.075.475,0,.587,0,.675-.325a9.782,9.782,0,0,0,.162-1.386c0-.125,0-.225-.1-.225s-.112.05-.137.187c-.087.513-.237.775-.562.925a3.169,3.169,0,0,1-1.174.15c-1.274,0-1.474-.187-1.5-1.049-.013-.363,0-1.512,0-1.937v-.987c0-.075.012-.125.075-.125.3,0,1.537.012,1.774.038.462.05.637.237.7.487a3.282,3.282,0,0,1,.05.449.1.1,0,0,0,.112.113c.112,0,.112-.137.112-.237s.025-.587.05-.837c.037-.637.1-.837.1-.912s-.038-.1-.087-.1-.112.062-.2.162a.874.874,0,0,1-.6.187c-.287.025-1.724.025-2,.025-.075,0-.087-.05-.087-.137v-3.161c0-.087.025-.125.087-.125.25,0,1.562.025,1.774.05.625.075.75.225.837.45a1.341,1.341,0,0,1,.075.45c0,.112.025.175.112.175s.112-.075.125-.137c.025-.15.05-.7.062-.825a8,8,0,0,1,.1-.812c0-.062-.012-.112-.075-.112a1.134,1.134,0,0,0-.2.05,5.01,5.01,0,0,1-.537.075c-.237.012-2.724.012-3.123.012-.349,0-1.137-.037-1.8-.037-.187,0-.274.025-.274.112s.075.112.212.112a2.56,2.56,0,0,1,.487.038c.413.087.513.287.537.712.025.4.025.75.025,2.649Zm-5.509,3.8a3.608,3.608,0,0,0,1.987-.513,2.517,2.517,0,0,0,1.174-2.174c0-1.187-.549-2.024-2.049-3.186l-.35-.262c-1.037-.787-1.324-1.224-1.324-1.8a1.315,1.315,0,0,1,1.487-1.286,1.584,1.584,0,0,1,1.362.612,1.518,1.518,0,0,1,.325.825c0,.15.037.225.125.225s.137-.1.137-.375c0-.975.05-1.336.05-1.5,0-.087-.063-.125-.175-.15a6.071,6.071,0,0,0-1.662-.212c-1.737,0-2.886.987-2.886,2.361,0,1.012.475,1.887,1.849,2.961l.575.449c1.037.8,1.225,1.387,1.225,2a1.519,1.519,0,0,1-1.675,1.425,1.722,1.722,0,0,1-1.787-1.262,2.642,2.642,0,0,1-.112-.637c0-.1-.012-.213-.125-.213s-.137.137-.15.325-.062.949-.062,1.636c0,.275.037.337.237.425a4.328,4.328,0,0,0,1.824.325m-9.011-4.061c-.05,0-.062-.037-.05-.087l1.149-3.073c.013-.05.037-.112.075-.112s.05.062.062.112l1.124,3.086c.012.038,0,.075-.062.075Zm2.536.624a.121.121,0,0,1,.125.087l1,2.649a.2.2,0,0,1-.112.287c-.125.013-.175.037-.175.113s.15.087.375.1c1,.025,1.912.025,2.361.025s.575-.025.575-.125-.062-.1-.162-.1a2.774,2.774,0,0,1-.525-.05c-.262-.063-.625-.237-1.1-1.362-.8-1.9-2.8-7-3.1-7.684-.125-.287-.2-.4-.312-.4s-.2.137-.35.5l-3.136,7.846c-.25.625-.487,1.05-1.062,1.124a3.79,3.79,0,0,1-.388.025c-.1,0-.15.025-.15.1,0,.1.075.125.237.125.65,0,1.337-.037,1.474-.037.388,0,.925.037,1.324.037.138,0,.212-.025.212-.125,0-.075-.038-.1-.187-.1h-.187c-.387,0-.5-.163-.5-.387a2.429,2.429,0,0,1,.188-.763l.674-1.787c.025-.075.05-.1.112-.1Zm-11.869-5.372c0-.1.025-.15.112-.175a2.742,2.742,0,0,1,.662-.05,2,2,0,0,1,1.912,2.286,2.2,2.2,0,0,1-.737,1.874,1.252,1.252,0,0,1-.887.212,3.294,3.294,0,0,1-.95-.125c-.087-.037-.112-.087-.112-.225Zm-1.474,5.01c0,1.149,0,2.136-.062,2.661-.05.362-.112.637-.362.687a2.064,2.064,0,0,1-.45.05c-.15,0-.2.037-.2.1,0,.087.087.125.25.125.5,0,1.287-.037,1.524-.037.187,0,1.112.037,1.837.037.162,0,.25-.037.25-.125,0-.063-.05-.1-.15-.1a5.852,5.852,0,0,1-.612-.05c-.375-.05-.45-.325-.487-.687-.062-.525-.062-1.512-.062-2.674v-.175c0-.075.037-.1.1-.1l1.087.025a.261.261,0,0,1,.225.087c.162.187.737,1.037,1.237,1.725A6.028,6.028,0,0,0-366.6-15.24a2.542,2.542,0,0,0,1.337.237h1.187c.15,0,.237-.025.237-.125,0-.063-.05-.1-.15-.1a2.007,2.007,0,0,1-.349-.037,2.493,2.493,0,0,1-1.4-.85c-.737-.774-1.6-1.886-2.711-3.285a3.5,3.5,0,0,0,1.649-2.8,2.165,2.165,0,0,0-.85-1.712,3.991,3.991,0,0,0-2.3-.537c-.387,0-1.337.037-1.762.037-.262,0-1.049-.037-1.712-.037-.187,0-.275.025-.275.112s.075.112.212.112a2.565,2.565,0,0,1,.487.038c.412.087.512.287.537.712.025.4.025.75.025,2.649Zm-6.367-2.05c0-.108.03-.138.107-.138.26,0,1.883,0,2.266.046a.9.9,0,0,1,.781.551,1.688,1.688,0,0,1,.092.474c0,.108.031.215.123.215.153,0,.153-.153.153-.291,0-.108.031-.812.061-1.118.046-.475.122-.858.122-.95s-.031-.138-.092-.138c-.092,0-.123.062-.2.153a.8.8,0,0,1-.659.276c-.214.015-.429.015-.689.015l-1.96.015c-.092,0-.107-.046-.107-.138v-3.829c0-.168.046-.215.137-.215l2.359.046a1.107,1.107,0,0,1,1.011.459,1.5,1.5,0,0,1,.092.582c.015.169.046.245.153.245s.138-.092.153-.215c.031-.184.061-1.087.077-1.24.046-.4.123-.582.123-.689,0-.077-.046-.138-.107-.138a.963.963,0,0,0-.245.092,2.954,2.954,0,0,1-.628.061c-.352.015-3.461.015-4.043.015-.444,0-1.409-.046-2.205-.046-.23,0-.352.031-.352.153,0,.092.107.123.26.123a3.123,3.123,0,0,1,.6.046c.5.107.628.352.658.873.031.49.031.919.031,3.247v2.7c0,1.471,0,2.619-.077,3.262-.061.445-.137.781-.444.843a2.521,2.521,0,0,1-.551.061c-.168,0-.23.046-.23.123,0,.123.108.153.322.153.582,0,1.547-.046,1.945-.046s1.363.046,2.328.046c.23,0,.337-.046.337-.153,0-.077-.061-.123-.26-.123a6.533,6.533,0,0,1-.766-.061c-.459-.062-.551-.4-.6-.843-.076-.643-.076-1.791-.076-3.262Z" transform="translate(382.28 26.695)" fill="#00502f"/>
      </g>
    </g>
  </g>
</svg>
