<?xml version="1.0" encoding="UTF-8" standalone="no"?>
<svg
   xmlns:dc="http://purl.org/dc/elements/1.1/"
   xmlns:cc="http://creativecommons.org/ns#"
   xmlns:rdf="http://www.w3.org/1999/02/22-rdf-syntax-ns#"
   xmlns:svg="http://www.w3.org/2000/svg"
   xmlns="http://www.w3.org/2000/svg"
   viewBox="0 0 1122.52 793.70135"
   height="793.70135"
   width="1122.52"
   xml:space="preserve"
   id="svg2"
   version="1.1"><metadata
     id="metadata8"><rdf:RDF><cc:Work
         rdf:about=""><dc:format>image/svg+xml</dc:format><dc:type
           rdf:resource="http://purl.org/dc/dcmitype/StillImage" /></cc:Work></rdf:RDF></metadata><defs
     id="defs6"><clipPath
       id="clipPath18"
       clipPathUnits="userSpaceOnUse"><path
         id="path16"
         d="M 0,595.276 H 841.89 V 0 H 0 Z" /></clipPath></defs><g
     transform="matrix(1.3333333,0,0,-1.3333333,0,793.70133)"
     id="g10"><g
       id="g12"><g
         clip-path="url(#clipPath18)"
         id="g14"><g
           transform="translate(447.6445,314.1535)"
           id="g20"><path
             id="path22"
             style="fill:#866d4b;fill-opacity:1;fill-rule:nonzero;stroke:none"
             d="m 0,0 -0.014,-0.009 c 0.012,0.002 0.026,0.003 0.036,0.005 z m 49.829,28.618 c -0.154,-2.03 -3.046,-2.992 -6.233,-2.992 -2.968,0 -8.457,0.846 -13.655,2.249 l -0.447,0.121 0.391,0.249 c 3.117,1.984 7.783,3.539 12.309,3.539 h 0.141 c 4.397,0 7.654,-1.089 7.494,-3.166 M 24.634,26.711 C 16.261,20.595 9.139,11.307 4.393,4.464 L 3.351,3.015 2.595,1.978 C -0.457,1.484 -3.152,0.433 -5.552,-1.584 -5.791,-1.819 -6.429,-2.523 -6.03,-2.679 c 0.159,-0.156 0.637,0.235 0.956,0.548 1.928,1.444 3.762,2.13 6.364,2.397 -1.692,-2.164 -3.548,-4.333 -5.569,-6.561 -0.498,-0.492 -1.171,-1.216 -1.171,-1.216 -9.435,-9.756 -21.261,-17.567 -37.667,-17.642 -3.904,0.018 -7.541,0.461 -10.755,1.343 -1.913,0.461 -3.654,1.138 -5.148,1.982 -5.899,3.022 -9.234,7.376 -9.234,14.414 0,11.262 12.334,20.414 26.729,22.033 0.589,-5.826 4.212,-11.048 10.876,-13.42 0.61,-0.271 1.223,-0.407 1.685,-0.424 0.232,-0.008 0.416,0.014 0.513,0.266 -0.301,0.088 -0.801,0.196 -1.511,0.48 -7.369,3.159 -9.735,8.556 -9.699,13.307 0.769,0.043 1.54,0.066 2.309,0.066 l 1.054,-0.003 1.327,-0.061 c 9.665,-0.411 19.455,-3.918 19.455,-11.291 0,-1.267 -0.232,-2.41 -0.7,-3.553 -0.158,-0.406 -0.352,-0.801 -0.578,-1.185 -3.29,-5.807 -12.217,-9.905 -21.228,-10.674 -0.549,-0.061 -1.129,-0.094 -1.727,-0.094 l -0.711,0.016 h -0.561 c -4.695,0 -9.601,0.943 -12.081,4.272 -0.59,0.685 -0.985,1.426 -1.148,2.203 -0.099,0.287 -0.189,0.588 -0.279,0.921 -0.176,0.931 -0.117,1.396 -0.292,1.513 -0.408,0 -0.349,-0.99 -0.233,-1.688 0.176,-0.816 0.349,-1.582 0.699,-2.223 l 0.522,-0.857 c 2.504,-3.611 8.208,-5.372 13.39,-5.43 h 0.654 c 10.482,0 21.518,5.073 24.626,12.581 l 0.211,0.529 c 0.407,1.145 0.64,2.345 0.64,3.61 0,7.548 -8.949,12.17 -18.498,13.218 l -1.281,0.116 c -0.99,0.059 -1.98,0.117 -2.912,0.117 -0.833,0 -1.666,-0.026 -2.497,-0.078 0.045,0.302 0.1,0.598 0.163,0.889 2.561,10.668 14.205,15.163 27.545,15.163 7.454,0 17.99,-1.969 23.603,-3.23 4.906,-1.123 8.832,-2.103 12.057,-2.804 l 0.515,-0.112 z m 26.192,1.81 c 0.383,2.68 -3.499,4.115 -8.491,4.115 -5.57,0 -11.708,-1.951 -15.479,-3.92 -4.767,1.263 -9.676,2.667 -14.303,3.927 -8.691,2.385 -17.926,4.202 -23.786,4.202 -17.485,0.138 -28.845,-7.968 -30.228,-18.195 -0.087,-0.663 -0.138,-1.325 -0.151,-1.982 -14.962,-1.698 -28.815,-11.435 -28.815,-24.019 0,-8.072 4.483,-13.645 11.703,-16.648 l 0.758,-0.245 c 4.018,-1.514 8.736,-2.265 13.917,-2.265 0.096,0 0.189,0.006 0.285,0.007 0.06,-0.001 0.117,-0.007 0.177,-0.007 16.887,-0.057 29.807,7.041 40.231,16.944 l 1.062,0.939 c 2.865,2.819 5.544,5.85 8.099,9.02 L 6.643,0.377 12.053,0.214 C 17.07,0.135 23.443,0.37 26.071,2.52 26.306,2.751 27.869,4.617 26.71,3.642 23.283,1.007 18.738,1.875 13.481,2.194 L 8.071,2.357 6.887,2.344 7.312,2.893 8.353,4.362 c 1.047,1.404 2.103,2.86 3.091,4.324 3.465,4.951 8.772,12.408 15.218,17.636 l 0.841,-0.161 c 5.458,-0.839 9.795,-1.389 15.533,-1.389 4.635,0 7.532,1.549 7.79,3.749" /></g><g
           transform="translate(528.709,270.3947)"
           id="g24"><path
             id="path26"
             style="fill:#81312f;fill-opacity:1;fill-rule:nonzero;stroke:none"
             d="m 0,0 c 1.675,0 3.349,0.372 4.682,1.302 2.138,1.519 2.634,3.875 2.634,5.146 0,2.48 -0.868,4.402 -4.526,7.284 l -0.867,0.683 c -2.914,2.387 -3.782,3.44 -3.782,5.208 0,2.264 1.673,3.597 3.812,3.597 2.853,0 3.69,-1.303 3.875,-1.644 0.187,-0.342 0.372,-1.179 0.403,-1.551 0.032,-0.247 0.063,-0.402 0.248,-0.402 0.156,0 0.217,0.217 0.217,0.713 0,2.108 0.124,3.131 0.124,3.287 0,0.154 -0.061,0.217 -0.309,0.217 -0.248,0 -0.496,0.03 -1.085,0.155 -0.776,0.186 -1.675,0.309 -2.884,0.309 -3.937,0 -6.417,-2.263 -6.417,-5.58 0,-2.108 0.744,-4.03 4.03,-6.727 L 1.551,10.85 C 4.217,8.648 5.115,7.409 5.115,5.27 5.115,3.286 3.658,1.146 0.683,1.146 c -2.078,0 -4.123,0.869 -4.588,3.163 -0.094,0.434 -0.094,0.868 -0.094,1.147 0,0.248 -0.03,0.341 -0.217,0.341 -0.154,0 -0.217,-0.155 -0.248,-0.496 -0.03,-0.496 -0.154,-1.737 -0.154,-3.286 0,-0.837 0.03,-0.961 0.465,-1.178 C -2.883,0.217 -1.456,0 0,0 m -19.529,9.424 c 0,-2.976 0,-5.425 -0.156,-6.727 -0.124,-0.899 -0.279,-1.581 -0.899,-1.705 -0.278,-0.062 -0.65,-0.124 -0.93,-0.124 -0.185,0 -0.248,-0.094 -0.248,-0.186 0,-0.186 0.156,-0.248 0.496,-0.248 0.93,0 2.883,0.092 3.038,0.092 0.9,0 2.976,-0.185 7.659,-0.185 1.209,0 1.457,0 1.673,0.805 0.156,0.652 0.404,2.76 0.404,3.007 0,0.218 0,0.466 -0.187,0.466 -0.155,0 -0.217,-0.124 -0.279,-0.466 -0.217,-1.27 -0.589,-1.89 -1.395,-2.231 -0.805,-0.341 -2.17,-0.341 -2.975,-0.341 -3.039,0 -3.504,0.402 -3.598,2.542 -0.031,0.65 0,4.247 0,5.301 v 2.727 c 0,0.124 0.063,0.218 0.217,0.218 0.527,0 3.598,-0.062 4.435,-0.155 1.209,-0.124 1.488,-0.651 1.611,-1.085 0.125,-0.403 0.125,-0.713 0.125,-1.024 0,-0.154 0.061,-0.278 0.217,-0.278 0.217,0 0.217,0.341 0.217,0.589 0,0.217 0.061,1.364 0.124,1.983 0.092,1.024 0.248,1.551 0.248,1.737 0,0.186 -0.063,0.248 -0.156,0.248 -0.124,0 -0.248,-0.155 -0.465,-0.404 -0.279,-0.309 -0.712,-0.372 -1.458,-0.433 -0.712,-0.063 -4.526,-0.063 -4.928,-0.063 -0.156,0 -0.187,0.094 -0.187,0.311 v 8.556 c 0,0.216 0.063,0.311 0.187,0.311 0.341,0 3.719,-0.032 4.248,-0.095 1.674,-0.184 1.983,-0.557 2.2,-1.053 0.155,-0.372 0.187,-0.899 0.187,-1.117 0,-0.248 0.061,-0.402 0.248,-0.402 0.124,0 0.185,0.186 0.216,0.341 0.063,0.372 0.124,1.736 0.156,2.047 0.092,0.867 0.248,1.24 0.248,1.457 0,0.155 -0.032,0.279 -0.124,0.279 -0.156,0 -0.28,-0.124 -0.435,-0.155 -0.248,-0.063 -0.743,-0.124 -1.333,-0.156 -0.713,-0.031 -6.883,-0.031 -7.1,-0.031 -0.155,0 -2.108,0.093 -3.502,0.093 -0.341,0 -0.497,-0.062 -0.497,-0.247 0,-0.124 0.124,-0.186 0.248,-0.186 0.28,0 0.806,-0.031 1.054,-0.093 1.024,-0.218 1.272,-0.714 1.333,-1.768 0.063,-0.992 0.063,-1.86 0.063,-6.696 z m -13.269,13.113 3.906,-0.062 c 2.976,-0.062 3.69,-0.775 3.814,-1.705 l 0.03,-0.341 c 0.031,-0.434 0.094,-0.528 0.248,-0.528 0.124,0 0.218,0.124 0.218,0.404 0,0.341 0.093,2.481 0.093,3.411 0,0.185 0,0.371 -0.156,0.371 -0.248,0 -1.084,-0.31 -3.069,-0.31 h -11.625 c -0.372,0 -1.55,0.063 -2.448,0.156 -0.838,0.062 -1.148,0.371 -1.364,0.371 -0.124,0 -0.248,-0.403 -0.311,-0.588 -0.061,-0.249 -0.682,-2.915 -0.682,-3.225 0,-0.186 0.062,-0.279 0.156,-0.279 0.124,0 0.217,0.061 0.309,0.309 0.093,0.218 0.187,0.435 0.528,0.962 0.496,0.744 1.24,0.961 3.162,0.992 l 4.588,0.062 V 9.424 c 0,-2.976 0,-5.425 -0.156,-6.727 -0.124,-0.899 -0.279,-1.581 -0.898,-1.705 -0.279,-0.062 -0.651,-0.124 -0.931,-0.124 -0.185,0 -0.248,-0.094 -0.248,-0.186 0,-0.186 0.155,-0.248 0.496,-0.248 0.931,0 2.883,0.092 3.038,0.092 0.156,0 2.109,-0.092 3.814,-0.092 0.341,0 0.495,0.092 0.495,0.248 0,0.092 -0.062,0.186 -0.247,0.186 -0.279,0 -0.962,0.062 -1.396,0.124 -0.929,0.124 -1.116,0.806 -1.209,1.705 -0.155,1.302 -0.155,3.751 -0.155,6.727 z M -48.887,14.88 c 0,4.836 0,5.704 0.063,6.696 0.061,1.086 0.309,1.611 1.146,1.768 0.372,0.062 0.559,0.093 0.776,0.093 0.124,0 0.248,0.062 0.248,0.186 0,0.185 -0.156,0.247 -0.496,0.247 -0.93,0 -2.883,-0.093 -3.038,-0.093 -0.156,0 -2.109,0.093 -3.131,0.093 -0.341,0 -0.496,-0.062 -0.496,-0.247 0,-0.124 0.124,-0.186 0.248,-0.186 0.216,0 0.62,-0.031 0.961,-0.125 0.681,-0.154 0.992,-0.682 1.053,-1.736 0.063,-0.992 0.063,-1.86 0.063,-6.696 V 9.424 c 0,-2.976 0,-5.425 -0.156,-6.727 -0.124,-0.899 -0.279,-1.581 -0.899,-1.705 -0.278,-0.062 -0.65,-0.124 -0.93,-0.124 -0.185,0 -0.248,-0.094 -0.248,-0.186 0,-0.186 0.156,-0.248 0.496,-0.248 0.93,0 2.883,0.092 3.039,0.092 0.155,0 2.108,-0.092 3.812,-0.092 0.342,0 0.496,0.092 0.496,0.248 0,0.092 -0.061,0.186 -0.248,0.186 -0.278,0 -0.961,0.062 -1.394,0.124 -0.93,0.124 -1.117,0.806 -1.209,1.705 -0.156,1.302 -0.156,3.751 -0.156,6.727 z m -28.582,-4.526 c 0,-4.526 1.179,-6.696 2.698,-8.153 C -72.57,0.124 -69.439,0 -68.386,0 c 1.829,0 4.155,0.31 6.387,2.294 2.479,2.201 2.852,5.921 2.852,9.269 v 3.317 c 0,4.836 0,5.704 0.061,6.696 0.063,1.086 0.312,1.611 1.148,1.768 0.372,0.093 0.558,0.093 0.776,0.093 0.124,0 0.248,0.062 0.248,0.186 0,0.185 -0.156,0.247 -0.497,0.247 -0.93,0 -2.388,-0.093 -2.605,-0.093 -0.185,0 -1.89,0.093 -3.286,0.093 -0.341,0 -0.496,-0.062 -0.496,-0.247 0,-0.124 0.124,-0.186 0.248,-0.186 0.279,0 0.807,-0.031 1.055,-0.093 1.022,-0.218 1.27,-0.714 1.333,-1.768 0.061,-0.992 0.061,-1.86 0.061,-6.696 v -3.875 c 0,-3.193 -0.372,-5.828 -1.797,-7.595 -1.117,-1.333 -2.976,-2.232 -4.868,-2.232 -1.766,0 -3.162,0.279 -4.68,1.705 -1.333,1.27 -2.325,3.193 -2.325,7.657 v 4.34 c 0,4.836 0,5.704 0.061,6.696 0.063,1.086 0.311,1.644 1.147,1.768 0.373,0.062 0.558,0.093 0.776,0.093 0.124,0 0.248,0.062 0.248,0.186 0,0.185 -0.155,0.247 -0.496,0.247 -0.931,0 -2.79,-0.093 -3.069,-0.093 -0.28,0 -2.17,0.093 -3.566,0.093 -0.341,0 -0.495,-0.062 -0.495,-0.247 0,-0.124 0.123,-0.186 0.247,-0.186 0.279,0 0.807,-0.031 1.055,-0.093 1.022,-0.218 1.27,-0.714 1.333,-1.768 0.061,-0.992 0.061,-1.86 0.061,-6.696 z M -91.524,-0.119 c 2.051,0 4.103,0.456 5.738,1.596 2.622,1.862 3.229,4.75 3.229,6.308 0,3.04 -1.063,5.396 -5.547,8.93 l -1.065,0.836 c -3.571,2.926 -4.636,4.218 -4.636,6.385 0,2.773 2.052,4.407 4.674,4.407 3.496,0 4.523,-1.595 4.75,-2.014 0.229,-0.418 0.456,-1.443 0.494,-1.9 0.038,-0.304 0.076,-0.493 0.304,-0.493 0.19,0 0.267,0.266 0.267,0.874 0,2.583 0.152,3.837 0.152,4.027 0,0.19 -0.076,0.267 -0.381,0.267 -0.304,0 -0.607,0.037 -1.329,0.189 -0.95,0.228 -2.053,0.38 -3.534,0.38 -4.826,0 -7.866,-2.774 -7.866,-6.84 0,-2.584 0.912,-4.94 4.939,-8.246 l 1.711,-1.406 c 3.268,-2.699 4.369,-4.218 4.369,-6.84 0,-2.432 -1.785,-5.054 -5.433,-5.054 -2.546,0 -5.054,1.064 -5.625,3.876 -0.114,0.531 -0.114,1.064 -0.114,1.406 0,0.304 -0.038,0.418 -0.265,0.418 -0.191,0 -0.266,-0.19 -0.304,-0.608 -0.038,-0.608 -0.191,-2.128 -0.191,-4.028 0,-1.026 0.039,-1.178 0.571,-1.444 1.557,-0.761 3.305,-1.026 5.092,-1.026 m -24.088,21.973 c 0,0.25 0.062,0.373 0.279,0.435 0.31,0.094 0.868,0.124 1.643,0.124 1.829,0 4.743,-1.271 4.743,-5.673 0,-2.542 -0.899,-3.969 -1.829,-4.65 -0.558,-0.403 -0.961,-0.527 -2.201,-0.527 -0.775,0 -1.706,0.093 -2.356,0.31 -0.217,0.093 -0.279,0.217 -0.279,0.558 z m -3.659,-12.43 c 0,-2.852 0,-5.301 -0.154,-6.603 -0.124,-0.899 -0.28,-1.581 -0.9,-1.705 -0.279,-0.062 -0.651,-0.124 -1.115,-0.124 -0.373,0 -0.497,-0.094 -0.497,-0.248 0,-0.218 0.217,-0.31 0.621,-0.31 1.239,0 3.192,0.092 3.781,0.092 0.466,0 2.76,-0.092 4.558,-0.092 0.403,0 0.62,0.092 0.62,0.31 0,0.154 -0.124,0.248 -0.372,0.248 -0.372,0 -1.055,0.062 -1.519,0.124 -0.931,0.124 -1.116,0.806 -1.21,1.705 -0.154,1.302 -0.154,3.751 -0.154,6.634 v 0.434 c 0,0.186 0.092,0.248 0.248,0.248 l 2.697,-0.062 c 0.216,0 0.403,-0.031 0.558,-0.218 0.403,-0.464 1.829,-2.572 3.069,-4.277 1.736,-2.388 2.913,-3.845 4.246,-4.558 0.807,-0.433 1.581,-0.588 3.318,-0.588 h 2.946 c 0.372,0 0.589,0.062 0.589,0.31 0,0.154 -0.124,0.248 -0.372,0.248 -0.249,0 -0.528,0.03 -0.869,0.093 -0.464,0.093 -1.736,0.31 -3.472,2.107 -1.829,1.923 -3.968,4.682 -6.727,8.154 3.131,2.542 4.092,4.65 4.092,6.944 0,2.077 -1.24,3.659 -2.108,4.247 -1.674,1.147 -3.751,1.333 -5.704,1.333 -0.962,0 -3.317,-0.093 -4.372,-0.093 -0.651,0 -2.604,0.093 -4.247,0.093 -0.465,0 -0.681,-0.062 -0.681,-0.278 0,-0.217 0.186,-0.28 0.526,-0.28 0.435,0 0.961,-0.03 1.209,-0.092 1.023,-0.217 1.271,-0.713 1.333,-1.768 0.062,-0.992 0.062,-1.86 0.062,-6.572 z m -18.041,0 c 0,-2.852 0,-5.301 -0.155,-6.603 -0.124,-0.899 -0.279,-1.581 -0.899,-1.705 -0.279,-0.062 -0.651,-0.124 -1.116,-0.124 -0.372,0 -0.496,-0.094 -0.496,-0.248 0,-0.218 0.217,-0.31 0.62,-0.31 1.24,0 3.193,0.092 3.906,0.092 1.829,0 3.907,-0.185 8.588,-0.185 1.177,0 1.457,0 1.674,0.805 0.154,0.621 0.402,2.729 0.402,3.442 0,0.309 0,0.558 -0.248,0.558 -0.216,0 -0.278,-0.125 -0.34,-0.465 -0.218,-1.271 -0.589,-1.922 -1.395,-2.294 -0.807,-0.372 -2.108,-0.372 -2.915,-0.372 -3.162,0 -3.658,0.464 -3.719,2.604 -0.032,0.899 0,3.751 0,4.805 v 2.449 c 0,0.186 0.03,0.31 0.185,0.31 0.744,0 3.814,-0.032 4.403,-0.093 1.147,-0.124 1.581,-0.589 1.735,-1.209 0.094,-0.403 0.094,-0.806 0.124,-1.116 0,-0.156 0.062,-0.28 0.279,-0.28 0.28,0 0.28,0.342 0.28,0.59 0,0.217 0.062,1.457 0.124,2.076 0.092,1.581 0.248,2.078 0.248,2.264 0,0.186 -0.094,0.248 -0.218,0.248 -0.154,0 -0.278,-0.155 -0.495,-0.403 -0.28,-0.31 -0.744,-0.404 -1.489,-0.465 -0.712,-0.063 -4.277,-0.063 -4.959,-0.063 -0.187,0 -0.217,0.124 -0.217,0.342 v 7.843 c 0,0.217 0.061,0.31 0.217,0.31 0.62,0 3.875,-0.061 4.401,-0.123 1.551,-0.187 1.861,-0.558 2.078,-1.117 0.154,-0.372 0.186,-0.899 0.186,-1.116 0,-0.279 0.062,-0.434 0.278,-0.434 0.218,0 0.28,0.186 0.31,0.341 0.062,0.371 0.124,1.736 0.156,2.047 0.092,1.425 0.248,1.798 0.248,2.015 0,0.155 -0.032,0.279 -0.186,0.279 -0.156,0 -0.342,-0.095 -0.496,-0.124 -0.248,-0.062 -0.745,-0.125 -1.333,-0.187 -0.59,-0.031 -6.759,-0.031 -7.751,-0.031 -0.868,0 -2.821,0.093 -4.464,0.093 -0.465,0 -0.682,-0.062 -0.682,-0.278 0,-0.217 0.186,-0.28 0.527,-0.28 0.434,0 0.961,-0.03 1.209,-0.092 1.023,-0.217 1.271,-0.713 1.333,-1.768 0.062,-0.992 0.062,-1.86 0.062,-6.572 z M -150.983,0 c 1.643,0 3.379,0.278 4.929,1.271 2.232,1.457 2.914,3.596 2.914,5.394 0,2.944 -1.364,5.022 -5.084,7.904 l -0.868,0.652 c -2.573,1.953 -3.286,3.038 -3.286,4.464 0,1.861 1.395,3.194 3.689,3.194 2.015,0 2.914,-0.93 3.379,-1.521 0.651,-0.805 0.806,-1.766 0.806,-2.046 0,-0.372 0.093,-0.557 0.31,-0.557 0.248,0 0.341,0.248 0.341,0.93 0,2.419 0.124,3.318 0.124,3.721 0,0.217 -0.155,0.31 -0.434,0.371 -0.806,0.218 -2.108,0.527 -4.123,0.527 -4.309,0 -7.161,-2.45 -7.161,-5.86 0,-2.51 1.178,-4.68 4.588,-7.346 l 1.426,-1.117 c 2.573,-1.983 3.038,-3.44 3.038,-4.96 0,-1.642 -1.364,-3.534 -4.154,-3.534 -1.922,0 -3.751,0.838 -4.433,3.132 -0.155,0.527 -0.279,1.178 -0.279,1.581 0,0.248 -0.031,0.527 -0.31,0.527 -0.248,0 -0.341,-0.341 -0.372,-0.806 -0.031,-0.496 -0.155,-2.357 -0.155,-4.062 0,-0.681 0.093,-0.837 0.589,-1.053 1.333,-0.589 2.728,-0.806 4.526,-0.806 m -22.358,10.075 c -0.124,0 -0.156,0.093 -0.124,0.217 l 2.852,7.626 c 0.03,0.124 0.092,0.279 0.186,0.279 0.093,0 0.123,-0.155 0.155,-0.279 l 2.79,-7.657 c 0.03,-0.093 0,-0.186 -0.156,-0.186 z m 6.293,-1.551 c 0.154,0 0.248,-0.061 0.31,-0.216 l 2.48,-6.573 c 0.154,-0.371 -0.062,-0.65 -0.28,-0.713 -0.31,-0.03 -0.434,-0.092 -0.434,-0.278 0,-0.218 0.372,-0.218 0.93,-0.248 2.48,-0.062 4.744,-0.062 5.86,-0.062 1.147,0 1.426,0.062 1.426,0.31 0,0.217 -0.155,0.248 -0.403,0.248 -0.372,0 -0.837,0.03 -1.302,0.124 -0.651,0.155 -1.551,0.589 -2.728,3.379 -1.984,4.712 -6.944,17.359 -7.688,19.066 -0.31,0.712 -0.497,0.992 -0.775,0.992 -0.31,0 -0.496,-0.341 -0.869,-1.241 l -7.78,-19.468 c -0.62,-1.55 -1.209,-2.604 -2.636,-2.79 -0.248,-0.032 -0.682,-0.062 -0.961,-0.062 -0.248,0 -0.372,-0.062 -0.372,-0.248 0,-0.248 0.186,-0.31 0.589,-0.31 1.612,0 3.318,0.092 3.659,0.092 0.96,0 2.293,-0.092 3.286,-0.092 0.34,0 0.527,0.062 0.527,0.31 0,0.186 -0.093,0.248 -0.465,0.248 h -0.466 c -0.961,0 -1.239,0.403 -1.239,0.961 0,0.372 0.154,1.116 0.464,1.891 l 1.675,4.432 c 0.061,0.187 0.124,0.248 0.279,0.248 z m -29.451,13.33 c 0,0.25 0.062,0.373 0.279,0.435 0.31,0.094 0.868,0.124 1.643,0.124 1.829,0 4.744,-1.271 4.744,-5.673 0,-2.542 -0.9,-3.969 -1.83,-4.65 -0.558,-0.403 -0.961,-0.527 -2.201,-0.527 -0.775,0 -1.705,0.093 -2.356,0.31 -0.217,0.093 -0.279,0.217 -0.279,0.558 z m -3.658,-12.43 c 0,-2.852 0,-5.301 -0.155,-6.603 -0.124,-0.899 -0.279,-1.581 -0.898,-1.705 -0.28,-0.062 -0.652,-0.124 -1.117,-0.124 -0.372,0 -0.496,-0.094 -0.496,-0.248 0,-0.218 0.218,-0.31 0.62,-0.31 1.241,0 3.193,0.092 3.783,0.092 0.464,0 2.758,-0.092 4.556,-0.092 0.404,0 0.62,0.092 0.62,0.31 0,0.154 -0.124,0.248 -0.372,0.248 -0.372,0 -1.053,0.062 -1.519,0.124 -0.929,0.124 -1.115,0.806 -1.209,1.705 -0.155,1.302 -0.155,3.751 -0.155,6.634 v 0.434 c 0,0.186 0.093,0.248 0.249,0.248 l 2.696,-0.062 c 0.218,0 0.403,-0.031 0.558,-0.218 0.403,-0.464 1.829,-2.572 3.069,-4.277 1.736,-2.388 2.914,-3.845 4.247,-4.558 0.806,-0.433 1.581,-0.588 3.317,-0.588 h 2.946 c 0.372,0 0.589,0.062 0.589,0.31 0,0.154 -0.124,0.248 -0.372,0.248 -0.248,0 -0.527,0.03 -0.869,0.093 -0.464,0.093 -1.736,0.31 -3.471,2.107 -1.83,1.923 -3.969,4.682 -6.728,8.154 3.131,2.542 4.092,4.65 4.092,6.944 0,2.077 -1.24,3.659 -2.108,4.247 -1.674,1.147 -3.751,1.333 -5.704,1.333 -0.961,0 -3.317,-0.093 -4.371,-0.093 -0.651,0 -2.603,0.093 -4.246,0.093 -0.466,0 -0.683,-0.062 -0.683,-0.278 0,-0.217 0.186,-0.28 0.527,-0.28 0.434,0 0.961,-0.03 1.209,-0.092 1.023,-0.217 1.271,-0.713 1.333,-1.768 0.062,-0.992 0.062,-1.86 0.062,-6.572 z m -15.8,5.087 c 0,0.265 0.076,0.342 0.266,0.342 0.646,0 4.674,0 5.624,-0.114 1.178,-0.152 1.748,-0.836 1.938,-1.368 0.152,-0.456 0.228,-0.912 0.228,-1.179 0,-0.265 0.076,-0.531 0.304,-0.531 0.38,0 0.38,0.38 0.38,0.722 0,0.265 0.076,2.013 0.152,2.774 0.114,1.178 0.304,2.128 0.304,2.356 0,0.228 -0.076,0.341 -0.228,0.341 -0.228,0 -0.304,-0.151 -0.494,-0.379 -0.38,-0.495 -0.912,-0.646 -1.634,-0.684 -0.532,-0.038 -1.064,-0.038 -1.71,-0.038 l -4.864,-0.038 c -0.228,0 -0.266,0.114 -0.266,0.342 v 9.5 c 0,0.418 0.114,0.532 0.342,0.532 l 5.852,-0.114 c 1.444,-0.038 2.242,-0.608 2.508,-1.139 0.228,-0.532 0.228,-1.141 0.228,-1.444 0.038,-0.418 0.114,-0.609 0.38,-0.609 0.266,0 0.342,0.229 0.38,0.532 0.076,0.456 0.152,2.698 0.19,3.078 0.114,0.988 0.304,1.444 0.304,1.711 0,0.189 -0.113,0.341 -0.266,0.341 -0.19,0 -0.38,-0.152 -0.608,-0.228 -0.38,-0.113 -0.836,-0.113 -1.558,-0.152 -0.874,-0.038 -8.588,-0.038 -10.032,-0.038 -1.102,0 -3.496,0.114 -5.472,0.114 -0.57,0 -0.874,-0.076 -0.874,-0.38 0,-0.228 0.266,-0.303 0.646,-0.303 0.532,0 1.178,-0.039 1.482,-0.115 1.254,-0.266 1.558,-0.874 1.634,-2.166 0.076,-1.215 0.076,-2.28 0.076,-8.056 v -6.688 c 0,-3.648 0,-6.498 -0.19,-8.094 -0.152,-1.102 -0.342,-1.939 -1.102,-2.09 -0.342,-0.076 -0.798,-0.152 -1.368,-0.152 -0.418,0 -0.57,-0.115 -0.57,-0.304 0,-0.304 0.266,-0.38 0.798,-0.38 1.444,0 3.838,0.113 4.826,0.113 0.988,0 3.382,-0.113 5.776,-0.113 0.57,0 0.836,0.113 0.836,0.38 0,0.189 -0.152,0.304 -0.646,0.304 -0.532,0 -1.368,0.076 -1.9,0.152 -1.14,0.151 -1.368,0.988 -1.482,2.09 -0.19,1.596 -0.19,4.446 -0.19,8.094 z" /></g></g></g></g></svg>