<svg xmlns="http://www.w3.org/2000/svg" width="120.156" height="41.827" viewBox="0 0 120.156 41.827">
  <g id="g10" transform="translate(-405.5 467.999)">
    <g id="g12" transform="translate(405.5 -467.999)">
      <g id="g20" transform="translate(37.872)">
        <path id="path22" d="M-57.411-30.037l-.007,0,.019,0Zm25.818-14.828c-.08,1.052-1.578,1.55-3.23,1.55A31.909,31.909,0,0,1-41.9-44.48l-.232-.063.2-.129a12.535,12.535,0,0,1,6.378-1.834h.073c2.278,0,3.966.564,3.883,1.64m-13.055.988c-4.338,3.169-8.029,7.981-10.488,11.527l-.54.751-.392.537a8.4,8.4,0,0,0-4.221,1.846c-.124.122-.454.487-.248.567.082.081.33-.122.5-.284a6.092,6.092,0,0,1,3.3-1.242c-.877,1.121-1.838,2.245-2.886,3.4-.258.255-.607.63-.607.63-4.889,5.055-11.016,9.1-19.517,9.141a21.577,21.577,0,0,1-5.573-.7,10.384,10.384,0,0,1-2.667-1.027c-3.057-1.566-4.785-3.822-4.785-7.468,0-5.835,6.391-10.577,13.849-11.416a8.129,8.129,0,0,0,5.635,6.953,2.482,2.482,0,0,0,.873.22c.12,0,.216-.007.266-.138a6.59,6.59,0,0,1-.783-.249c-3.818-1.637-5.044-4.433-5.025-6.895.4-.022.8-.034,1.2-.034l.546,0,.688.032c5.008.213,10.08,2.03,10.08,5.85a4.735,4.735,0,0,1-.363,1.841,4.25,4.25,0,0,1-.3.614c-1.7,3.009-6.33,5.132-11,5.531a8.13,8.13,0,0,1-.895.049l-.368-.008h-.291c-2.433,0-4.975-.489-6.26-2.213A2.568,2.568,0,0,1-85.52-27.2c-.051-.149-.1-.3-.145-.477-.091-.482-.061-.723-.151-.784-.211,0-.181.513-.121.875a4.308,4.308,0,0,0,.362,1.152l.27.444c1.3,1.871,4.253,2.783,6.938,2.814h.339c5.431,0,11.149-2.629,12.76-6.519l.109-.274a5.546,5.546,0,0,0,.332-1.87c0-3.911-4.637-6.306-9.585-6.849l-.664-.06c-.513-.031-1.026-.061-1.509-.061q-.647,0-1.294.04c.023-.156.052-.31.084-.461,1.327-5.528,7.36-7.857,14.272-7.857a65.362,65.362,0,0,1,12.23,1.674c2.542.582,4.576,1.09,6.247,1.453l.267.058Zm13.571-.938c.2-1.389-1.813-2.132-4.4-2.132a18.9,18.9,0,0,0-8.02,2.031c-2.47-.654-5.014-1.382-7.411-2.035a53.935,53.935,0,0,0-12.324-2.177C-72.291-49.2-78.177-45-78.894-39.7a9.314,9.314,0,0,0-.078,1.027c-7.752.88-14.93,5.925-14.93,12.445,0,4.182,2.323,7.07,6.064,8.626l.393.127A20.542,20.542,0,0,0-80.235-16.3c.05,0,.1,0,.148,0,.031,0,.061,0,.092,0,8.75.03,15.444-3.648,20.845-8.779l.55-.487a54.608,54.608,0,0,0,4.2-4.674l.434.009,2.8.084c2.6.041,5.9-.081,7.263-1.195.122-.12.932-1.087.331-.581-1.776,1.365-4.131.916-6.854.75l-2.8-.084-.613.007.22-.284.539-.761c.542-.727,1.09-1.482,1.6-2.24A45.13,45.13,0,0,1-43.6-43.676l.436.083a48.887,48.887,0,0,0,8.048.72c2.4,0,3.9-.8,4.036-1.943" transform="translate(93.902 49.129)" fill="#866d4b"/>
      </g>
      <g id="g24" transform="translate(0 26.39)">
        <path id="path26" d="M-183.078-24.189a4.225,4.225,0,0,0,2.426-.675,3.329,3.329,0,0,0,1.365-2.666c0-1.285-.45-2.281-2.345-3.774l-.449-.354c-1.51-1.237-1.96-1.782-1.96-2.7a1.826,1.826,0,0,1,1.975-1.864c1.478,0,1.912.675,2.008.852a2.814,2.814,0,0,1,.209.8c.017.128.033.208.128.208.081,0,.112-.112.112-.369,0-1.092.064-1.622.064-1.7s-.032-.112-.16-.112a2.593,2.593,0,0,1-.562-.08,6.24,6.24,0,0,0-1.494-.16c-2.04,0-3.325,1.173-3.325,2.891,0,1.092.385,2.088,2.088,3.486l.723.594c1.381,1.141,1.847,1.783,1.847,2.891a2.144,2.144,0,0,1-2.3,2.137,2.185,2.185,0,0,1-2.377-1.639,2.8,2.8,0,0,1-.049-.594c0-.128-.016-.177-.112-.177-.08,0-.112.08-.128.257-.016.257-.08.9-.08,1.7,0,.434.016.5.241.61a4.872,4.872,0,0,0,2.152.434M-193.2-29.072c0,1.542,0,2.811-.081,3.486-.064.466-.145.819-.466.883a2.469,2.469,0,0,1-.482.064c-.1,0-.128.049-.128.1,0,.1.081.128.257.128.482,0,1.494-.048,1.574-.048.466,0,1.542.1,3.968.1.626,0,.755,0,.867-.417a15.631,15.631,0,0,0,.209-1.558c0-.113,0-.241-.1-.241-.08,0-.112.064-.145.241-.112.658-.305.979-.723,1.156a4.6,4.6,0,0,1-1.541.177c-1.575,0-1.816-.208-1.864-1.317-.016-.337,0-2.2,0-2.747v-1.413a.1.1,0,0,1,.112-.113c.273,0,1.864.032,2.3.08.626.064.771.337.835.562a1.629,1.629,0,0,1,.065.531c0,.08.032.144.112.144.112,0,.112-.177.112-.305,0-.112.032-.707.064-1.027.048-.531.128-.8.128-.9s-.033-.128-.081-.128c-.064,0-.129.08-.241.209-.145.16-.369.193-.755.224-.369.033-2.345.033-2.553.033-.081,0-.1-.049-.1-.161V-35.77c0-.112.033-.161.1-.161.177,0,1.927.017,2.2.049.867.1,1.027.289,1.14.546a1.727,1.727,0,0,1,.1.579c0,.128.032.208.128.208.064,0,.1-.1.112-.177.033-.193.064-.9.081-1.061.048-.449.129-.642.129-.755,0-.08-.017-.145-.064-.145-.081,0-.145.064-.225.08a4.262,4.262,0,0,1-.691.081c-.369.016-3.566.016-3.679.016-.08,0-1.092-.048-1.815-.048-.177,0-.258.032-.258.128,0,.064.064.1.128.1a3,3,0,0,1,.546.048c.531.113.659.37.691.916.033.514.033.964.033,3.469Zm-6.875-6.794,2.024.032c1.542.032,1.912.4,1.976.883l.016.177c.016.225.049.274.128.274.064,0,.113-.064.113-.209,0-.177.048-1.286.048-1.767,0-.1,0-.192-.081-.192a7.776,7.776,0,0,1-1.59.161h-6.023c-.193,0-.8-.033-1.268-.081a2.992,2.992,0,0,1-.707-.192c-.064,0-.128.209-.161.3-.032.129-.353,1.51-.353,1.671,0,.1.032.145.081.145.064,0,.112-.032.16-.16a2.819,2.819,0,0,1,.274-.5c.257-.385.642-.5,1.638-.514l2.377-.032v6.794c0,1.542,0,2.811-.081,3.486-.064.466-.145.819-.465.883a2.48,2.48,0,0,1-.482.064c-.1,0-.128.049-.128.1,0,.1.08.128.257.128.482,0,1.494-.048,1.574-.048s1.093.048,1.976.048c.177,0,.256-.048.256-.128,0-.048-.032-.1-.128-.1a7.015,7.015,0,0,1-.723-.064c-.481-.064-.578-.418-.626-.883-.08-.675-.08-1.944-.08-3.486Zm-8.336,3.967c0-2.506,0-2.955.033-3.469.032-.563.16-.835.594-.916a2.392,2.392,0,0,1,.4-.048c.064,0,.128-.032.128-.1,0-.1-.081-.128-.257-.128-.482,0-1.494.048-1.574.048s-1.093-.048-1.622-.048c-.177,0-.257.032-.257.128,0,.064.064.1.129.1a2.088,2.088,0,0,1,.5.065c.353.08.514.353.546.9.033.514.033.964.033,3.469v2.827c0,1.542,0,2.811-.081,3.486-.064.466-.145.819-.466.883a2.469,2.469,0,0,1-.482.064c-.1,0-.129.049-.129.1,0,.1.081.128.257.128.482,0,1.494-.048,1.575-.048s1.092.048,1.975.048c.177,0,.257-.048.257-.128,0-.048-.032-.1-.128-.1a7,7,0,0,1-.722-.064c-.482-.064-.579-.418-.626-.883-.081-.675-.081-1.944-.081-3.486Zm-14.809,2.345c0,2.345.611,3.469,1.4,4.224a4.933,4.933,0,0,0,3.308,1.14,4.706,4.706,0,0,0,3.309-1.189c1.284-1.14,1.478-3.068,1.478-4.8V-31.9c0-2.506,0-2.955.032-3.469.033-.563.162-.835.595-.916a1.4,1.4,0,0,1,.4-.048c.064,0,.128-.032.128-.1,0-.1-.081-.128-.258-.128-.482,0-1.237.048-1.35.048-.1,0-.979-.048-1.7-.048-.177,0-.257.032-.257.128,0,.064.064.1.128.1a3.009,3.009,0,0,1,.547.048c.53.113.658.37.691.916.032.514.032.964.032,3.469v2.008a6.241,6.241,0,0,1-.931,3.935A3.375,3.375,0,0,1-218.19-24.8a3.142,3.142,0,0,1-2.425-.883c-.691-.658-1.2-1.654-1.2-3.967V-31.9c0-2.506,0-2.955.032-3.469.033-.563.161-.852.594-.916a2.392,2.392,0,0,1,.4-.048c.064,0,.129-.032.129-.1,0-.1-.08-.128-.257-.128-.482,0-1.446.048-1.59.048s-1.124-.048-1.848-.048c-.177,0-.256.032-.256.128,0,.064.064.1.128.1a3.009,3.009,0,0,1,.547.048c.53.113.658.37.691.916.032.514.032.964.032,3.469Zm-7.282,5.426a5.181,5.181,0,0,0,2.973-.827,4.079,4.079,0,0,0,1.673-3.268c0-1.575-.551-2.8-2.874-4.627l-.552-.433c-1.85-1.516-2.4-2.186-2.4-3.308a2.238,2.238,0,0,1,2.422-2.283c1.811,0,2.344.826,2.461,1.044a3.439,3.439,0,0,1,.256.984c.02.158.039.255.158.255.1,0,.138-.138.138-.453,0-1.338.079-1.988.079-2.087s-.039-.138-.2-.138a3.206,3.206,0,0,1-.689-.1,7.639,7.639,0,0,0-1.831-.2c-2.5,0-4.076,1.437-4.076,3.544,0,1.339.473,2.56,2.559,4.273l.887.729c1.693,1.4,2.264,2.186,2.264,3.544a2.628,2.628,0,0,1-2.815,2.619,2.679,2.679,0,0,1-2.915-2.008,3.466,3.466,0,0,1-.059-.729c0-.158-.02-.217-.137-.217-.1,0-.138.1-.158.315-.02.315-.1,1.1-.1,2.087,0,.532.02.61.3.748a5.964,5.964,0,0,0,2.638.532m-12.481-11.385c0-.13.032-.193.145-.225a3.5,3.5,0,0,1,.851-.064c.948,0,2.458.659,2.458,2.939a2.83,2.83,0,0,1-.948,2.409,1.606,1.606,0,0,1-1.14.273,4.232,4.232,0,0,1-1.221-.161c-.112-.048-.145-.112-.145-.289Zm-1.9,6.44c0,1.478,0,2.747-.08,3.421-.064.466-.145.819-.466.883A2.62,2.62,0,0,1-246-24.7c-.193,0-.258.049-.258.128,0,.113.112.161.322.161.642,0,1.654-.048,1.959-.048.241,0,1.43.048,2.362.048.209,0,.321-.048.321-.161,0-.08-.064-.128-.193-.128a7.375,7.375,0,0,1-.787-.064c-.482-.064-.578-.418-.627-.883-.08-.675-.08-1.944-.08-3.437v-.225c0-.1.048-.128.128-.128l1.4.032a.335.335,0,0,1,.289.113c.209.24.948,1.333,1.59,2.216a7.744,7.744,0,0,0,2.2,2.362,3.276,3.276,0,0,0,1.719.3h1.526c.193,0,.305-.032.305-.161,0-.08-.064-.128-.193-.128a2.484,2.484,0,0,1-.45-.048,3.2,3.2,0,0,1-1.8-1.092c-.948-1-2.056-2.426-3.486-4.225,1.622-1.317,2.12-2.409,2.12-3.6a2.783,2.783,0,0,0-1.092-2.2,5.135,5.135,0,0,0-2.955-.691c-.5,0-1.719.048-2.265.048-.337,0-1.349-.048-2.2-.048-.241,0-.353.032-.353.144s.1.145.273.145a3.306,3.306,0,0,1,.626.048c.53.112.659.369.691.916.032.514.032.964.032,3.405Zm-9.348,0c0,1.478,0,2.747-.08,3.421-.064.466-.145.819-.466.883a2.621,2.621,0,0,1-.578.064c-.193,0-.257.049-.257.128,0,.113.112.161.321.161.643,0,1.654-.048,2.024-.048.948,0,2.024.1,4.45.1.61,0,.755,0,.867-.417a12.689,12.689,0,0,0,.208-1.783c0-.16,0-.289-.129-.289-.112,0-.144.065-.176.241-.113.659-.305,1-.723,1.189a4.077,4.077,0,0,1-1.51.193c-1.638,0-1.9-.24-1.927-1.349-.017-.466,0-1.944,0-2.49v-1.269c0-.1.016-.161.1-.161.385,0,1.976.017,2.281.048.594.064.819.305.9.626a4.073,4.073,0,0,1,.064.578.128.128,0,0,0,.145.145c.145,0,.145-.177.145-.306,0-.112.032-.755.064-1.076a11.692,11.692,0,0,1,.129-1.173c0-.1-.049-.128-.113-.128-.08,0-.144.08-.256.209a1.12,1.12,0,0,1-.772.241c-.369.033-2.216.033-2.569.033-.1,0-.112-.064-.112-.177v-4.064c0-.112.032-.161.112-.161.321,0,2.008.032,2.28.064.8.1.964.289,1.077.579a1.737,1.737,0,0,1,.1.578c0,.145.032.225.144.225s.145-.1.161-.177c.032-.192.064-.9.081-1.061a10.131,10.131,0,0,1,.129-1.044c0-.08-.017-.145-.1-.145a1.58,1.58,0,0,0-.257.064,6.4,6.4,0,0,1-.691.1c-.306.016-3.5.016-4.016.016-.45,0-1.462-.048-2.313-.048-.241,0-.353.032-.353.144s.1.145.273.145a3.31,3.31,0,0,1,.626.048c.53.112.659.369.691.916.032.514.032.964.032,3.405Zm-7.083,4.883a4.638,4.638,0,0,0,2.554-.659,3.237,3.237,0,0,0,1.51-2.795c0-1.525-.707-2.6-2.634-4.1l-.45-.338c-1.333-1.012-1.7-1.574-1.7-2.313a1.691,1.691,0,0,1,1.911-1.655,2.032,2.032,0,0,1,1.751.788,1.942,1.942,0,0,1,.418,1.06c0,.193.048.289.161.289.129,0,.177-.128.177-.482,0-1.253.064-1.719.064-1.928,0-.112-.08-.161-.225-.192a7.753,7.753,0,0,0-2.136-.273c-2.233,0-3.71,1.269-3.71,3.036,0,1.3.61,2.425,2.377,3.806l.739.579c1.333,1.027,1.574,1.782,1.574,2.57a1.952,1.952,0,0,1-2.152,1.831,2.214,2.214,0,0,1-2.3-1.623,3.393,3.393,0,0,1-.145-.819c0-.128-.016-.273-.161-.273-.129,0-.177.177-.193.418-.016.257-.08,1.221-.08,2.1,0,.353.048.434.305.546a5.565,5.565,0,0,0,2.345.418m-11.585-5.22c-.064,0-.081-.048-.064-.112l1.478-3.951c.016-.064.048-.145.1-.145s.064.08.08.145l1.446,3.967c.016.048,0,.1-.081.1Zm3.261.8a.155.155,0,0,1,.161.112l1.285,3.406a.262.262,0,0,1-.145.369c-.161.016-.225.048-.225.144,0,.113.193.113.482.128,1.285.032,2.458.032,3.036.032.594,0,.739-.032.739-.161,0-.112-.08-.128-.209-.128a3.482,3.482,0,0,1-.675-.064c-.337-.08-.8-.305-1.413-1.751-1.028-2.441-3.6-8.994-3.983-9.879-.161-.369-.258-.514-.4-.514-.161,0-.257.177-.45.643l-4.031,10.087c-.321.8-.626,1.349-1.366,1.446a4.721,4.721,0,0,1-.5.032c-.129,0-.193.032-.193.128,0,.128.1.161.305.161.835,0,1.719-.048,1.9-.048.5,0,1.188.048,1.7.048.176,0,.273-.032.273-.161,0-.1-.048-.128-.241-.128h-.241c-.5,0-.642-.209-.642-.5a3.112,3.112,0,0,1,.24-.98l.868-2.3c.032-.1.064-.128.145-.128Zm-15.26-6.907c0-.13.032-.193.145-.225a3.5,3.5,0,0,1,.851-.064c.948,0,2.458.659,2.458,2.939a2.83,2.83,0,0,1-.948,2.409,1.606,1.606,0,0,1-1.14.273,4.234,4.234,0,0,1-1.221-.161c-.112-.048-.145-.112-.145-.289Zm-1.9,6.44c0,1.478,0,2.747-.08,3.421-.064.466-.145.819-.465.883a2.63,2.63,0,0,1-.579.064c-.193,0-.257.049-.257.128,0,.113.113.161.321.161.643,0,1.654-.048,1.96-.048.24,0,1.429.048,2.361.048.209,0,.321-.048.321-.161,0-.08-.064-.128-.193-.128a7.4,7.4,0,0,1-.787-.064c-.481-.064-.578-.418-.626-.883-.08-.675-.08-1.944-.08-3.437v-.225c0-.1.048-.128.129-.128l1.4.032a.334.334,0,0,1,.289.113c.209.24.948,1.333,1.59,2.216a7.744,7.744,0,0,0,2.2,2.362,3.274,3.274,0,0,0,1.719.3h1.526c.193,0,.305-.032.305-.161,0-.08-.064-.128-.193-.128a2.492,2.492,0,0,1-.45-.048,3.2,3.2,0,0,1-1.8-1.092c-.948-1-2.057-2.426-3.486-4.225,1.622-1.317,2.12-2.409,2.12-3.6a2.783,2.783,0,0,0-1.092-2.2,5.135,5.135,0,0,0-2.955-.691c-.5,0-1.719.048-2.265.048-.337,0-1.349-.048-2.2-.048-.241,0-.354.032-.354.144s.1.145.273.145a3.31,3.31,0,0,1,.626.048c.53.112.659.369.691.916.032.514.032.964.032,3.405Zm-8.187-2.636c0-.137.039-.177.138-.177.335,0,2.422,0,2.914.059a1.157,1.157,0,0,1,1,.709,2.169,2.169,0,0,1,.118.611c0,.137.039.275.158.275.2,0,.2-.2.2-.374,0-.137.039-1.043.079-1.437.059-.61.158-1.1.158-1.221s-.039-.177-.118-.177c-.118,0-.158.078-.256.2a1.03,1.03,0,0,1-.847.354c-.276.02-.551.02-.886.02l-2.52.02c-.118,0-.138-.059-.138-.177v-4.922c0-.217.059-.276.177-.276l3.032.059a1.423,1.423,0,0,1,1.3.59,1.932,1.932,0,0,1,.118.748c.02.217.059.316.2.316s.177-.119.2-.276c.039-.236.079-1.4.1-1.595.059-.512.158-.748.158-.887a.158.158,0,0,0-.138-.177c-.1,0-.2.079-.315.118a3.871,3.871,0,0,1-.807.079c-.453.02-4.45.02-5.2.02-.571,0-1.811-.059-2.835-.059-.3,0-.453.039-.453.2,0,.118.138.157.335.157a4.044,4.044,0,0,1,.768.06c.65.138.807.453.847,1.122.039.63.039,1.181.039,4.174v3.465c0,1.89,0,3.367-.1,4.194-.079.571-.177,1-.571,1.083a3.213,3.213,0,0,1-.709.079c-.217,0-.3.06-.3.158,0,.158.138.2.414.2.748,0,1.989-.059,2.5-.059s1.752.059,2.993.059c.3,0,.433-.059.433-.2,0-.1-.079-.158-.335-.158a8.289,8.289,0,0,1-.984-.079c-.591-.078-.709-.512-.768-1.083-.1-.827-.1-2.3-.1-4.194Z" transform="translate(299.443 39.564)" fill="#81312f"/>
      </g>
    </g>
  </g>
</svg>
