<?xml version="1.0" encoding="UTF-8" standalone="no"?>
<svg
   xmlns:dc="http://purl.org/dc/elements/1.1/"
   xmlns:cc="http://creativecommons.org/ns#"
   xmlns:rdf="http://www.w3.org/1999/02/22-rdf-syntax-ns#"
   xmlns:svg="http://www.w3.org/2000/svg"
   xmlns="http://www.w3.org/2000/svg"
   viewBox="0 0 1122.52 793.70135"
   height="793.70135"
   width="1122.52"
   xml:space="preserve"
   id="svg2"
   version="1.1"><metadata
     id="metadata8"><rdf:RDF><cc:Work
         rdf:about=""><dc:format>image/svg+xml</dc:format><dc:type
           rdf:resource="http://purl.org/dc/dcmitype/StillImage" /></cc:Work></rdf:RDF></metadata><defs
     id="defs6"><clipPath
       id="clipPath18"
       clipPathUnits="userSpaceOnUse"><path
         id="path16"
         d="M 0,595.276 H 841.89 V 0 H 0 Z" /></clipPath></defs><g
     transform="matrix(1.3333333,0,0,-1.3333333,0,793.70133)"
     id="g10"><g
       id="g12"><g
         clip-path="url(#clipPath18)"
         id="g14"><g
           transform="translate(415.1123,314.1545)"
           id="g20"><path
             id="path22"
             style="fill:#866d4b;fill-opacity:1;fill-rule:nonzero;stroke:none"
             d="m 0,0 -0.014,-0.009 c 0.012,0.002 0.026,0.003 0.036,0.005 z m 49.828,28.617 c -0.154,-2.029 -3.046,-2.992 -6.233,-2.992 -2.969,0 -8.458,0.846 -13.655,2.25 l -0.447,0.121 0.391,0.248 c 3.116,1.985 7.782,3.539 12.309,3.539 h 0.14 c 4.398,0 7.655,-1.088 7.495,-3.166 M 24.633,26.71 C 16.26,20.595 9.139,11.307 4.393,4.464 L 3.351,3.015 2.595,1.978 c -3.052,-0.494 -5.747,-1.545 -8.146,-3.562 -0.24,-0.235 -0.877,-0.938 -0.479,-1.094 0.159,-0.157 0.638,0.235 0.956,0.547 1.928,1.444 3.762,2.13 6.364,2.397 -1.692,-2.163 -3.548,-4.333 -5.569,-6.561 -0.498,-0.492 -1.171,-1.215 -1.171,-1.215 -9.434,-9.756 -21.26,-17.567 -37.666,-17.642 -3.903,0.018 -7.54,0.461 -10.754,1.343 -1.913,0.461 -3.654,1.138 -5.148,1.982 -5.899,3.022 -9.234,7.376 -9.234,14.414 0,11.261 12.333,20.412 26.729,22.032 0.588,-5.827 4.211,-11.048 10.875,-13.42 0.61,-0.271 1.223,-0.407 1.685,-0.424 0.232,-0.008 0.416,0.014 0.513,0.266 -0.301,0.088 -0.801,0.196 -1.511,0.48 -7.369,3.159 -9.734,8.555 -9.698,13.307 0.768,0.043 1.539,0.066 2.308,0.066 l 1.055,-0.003 1.326,-0.061 c 9.666,-0.411 19.455,-3.919 19.455,-11.291 0,-1.267 -0.232,-2.41 -0.7,-3.553 -0.158,-0.406 -0.352,-0.801 -0.578,-1.184 -3.29,-5.807 -12.217,-9.906 -21.228,-10.674 -0.548,-0.061 -1.128,-0.094 -1.727,-0.094 l -0.71,0.016 h -0.562 c -4.694,0 -9.6,0.943 -12.08,4.271 -0.591,0.685 -0.986,1.426 -1.148,2.203 -0.099,0.287 -0.19,0.588 -0.28,0.921 -0.175,0.931 -0.117,1.397 -0.292,1.513 -0.408,0 -0.349,-0.989 -0.233,-1.688 0.176,-0.815 0.35,-1.582 0.699,-2.222 l 0.523,-0.857 c 2.504,-3.611 8.207,-5.372 13.39,-5.43 h 0.653 c 10.482,0 21.517,5.073 24.626,12.58 l 0.21,0.529 c 0.408,1.145 0.641,2.345 0.641,3.61 0,7.548 -8.949,12.17 -18.498,13.218 l -1.281,0.116 c -0.99,0.059 -1.98,0.117 -2.911,0.117 -0.833,0 -1.666,-0.026 -2.498,-0.078 0.045,0.302 0.101,0.598 0.164,0.889 2.561,10.667 14.205,15.162 27.543,15.162 7.455,0 17.99,-1.968 23.603,-3.229 4.905,-1.123 8.831,-2.103 12.056,-2.805 l 0.515,-0.112 z m 26.192,1.81 c 0.383,2.68 -3.499,4.115 -8.492,4.115 -5.57,0 -11.707,-1.95 -15.478,-3.919 -4.767,1.263 -9.676,2.666 -14.303,3.926 -8.69,2.385 -17.925,4.202 -23.785,4.202 -17.484,0.138 -28.844,-7.968 -30.226,-18.194 -0.087,-0.663 -0.139,-1.325 -0.151,-1.982 C -56.573,14.97 -70.425,5.233 -70.425,-7.35 c 0,-8.072 4.483,-13.645 11.703,-16.648 l 0.757,-0.245 c 4.018,-1.514 8.736,-2.265 13.918,-2.265 0.095,0 0.189,0.006 0.284,0.007 0.06,-10e-4 0.117,-0.007 0.178,-0.007 16.886,-0.057 29.806,7.041 40.229,16.943 l 1.062,0.939 c 2.865,2.819 5.544,5.85 8.098,9.02 L 6.642,0.377 12.053,0.214 C 17.069,0.135 23.442,0.37 26.07,2.52 26.305,2.751 27.868,4.617 26.709,3.642 23.282,1.007 18.737,1.875 13.48,2.194 L 8.071,2.357 6.886,2.344 7.312,2.893 8.353,4.362 c 1.047,1.404 2.103,2.86 3.091,4.324 3.464,4.951 8.771,12.408 15.217,17.635 l 0.841,-0.16 c 5.458,-0.84 9.794,-1.39 15.533,-1.39 4.635,0 7.532,1.549 7.79,3.749" /></g><g
           transform="translate(558.7285,279.6779)"
           id="g24"><path
             id="path26"
             style="fill:#00502f;fill-opacity:1;fill-rule:nonzero;stroke:none"
             d="m 0,0 c 0,-2.976 0,-5.425 -0.154,-6.727 -0.125,-0.898 -0.28,-1.581 -0.901,-1.705 -0.277,-0.061 -0.65,-0.124 -0.929,-0.124 -0.186,0 -0.248,-0.092 -0.248,-0.185 0,-0.187 0.156,-0.248 0.496,-0.248 0.929,0 2.882,0.093 3.039,0.093 0.898,0 2.974,-0.186 7.656,-0.186 1.209,0 1.457,0 1.674,0.806 0.154,0.651 0.402,2.758 0.402,3.006 0,0.217 0,0.465 -0.185,0.465 -0.155,0 -0.217,-0.124 -0.28,-0.465 -0.216,-1.27 -0.588,-1.89 -1.394,-2.232 -0.807,-0.341 -2.17,-0.341 -2.977,-0.341 -3.037,0 -3.502,0.404 -3.595,2.542 -0.032,0.652 0,4.247 0,5.301 v 2.729 c 0,0.124 0.062,0.216 0.216,0.216 0.528,0 3.598,-0.061 4.434,-0.155 C 8.463,2.666 8.742,2.14 8.865,1.705 8.99,1.303 8.99,0.992 8.99,0.683 c 0,-0.156 0.063,-0.28 0.217,-0.28 0.217,0 0.217,0.341 0.217,0.589 0,0.217 0.062,1.364 0.125,1.985 C 9.641,3.999 9.797,4.526 9.797,4.712 9.797,4.898 9.734,4.96 9.641,4.96 9.518,4.96 9.393,4.806 9.176,4.558 8.896,4.247 8.463,4.186 7.719,4.123 7.006,4.062 3.193,4.062 2.791,4.062 2.635,4.062 2.604,4.154 2.604,4.371 v 8.557 c 0,0.217 0.062,0.309 0.187,0.309 0.34,0 3.719,-0.031 4.246,-0.092 1.674,-0.187 1.984,-0.559 2.201,-1.055 0.155,-0.371 0.186,-0.899 0.186,-1.115 0,-0.248 0.062,-0.404 0.248,-0.404 0.125,0 0.185,0.186 0.217,0.341 0.062,0.372 0.125,1.736 0.156,2.046 0.092,0.868 0.248,1.24 0.248,1.457 0,0.155 -0.031,0.279 -0.125,0.279 -0.154,0 -0.279,-0.124 -0.434,-0.155 C 9.486,14.478 8.99,14.415 8.4,14.385 7.687,14.354 1.52,14.354 1.303,14.354 c -0.157,0 -2.11,0.092 -3.504,0.092 -0.34,0 -0.496,-0.061 -0.496,-0.248 0,-0.124 0.125,-0.185 0.248,-0.185 0.279,0 0.806,-0.032 1.054,-0.094 1.024,-0.217 1.272,-0.713 1.333,-1.767 C 0,11.16 0,10.292 0,5.456 Z m -11.406,-9.424 c 1.982,0 4.34,0.218 5.58,0.713 0.556,0.248 0.619,0.311 0.805,0.899 0.31,1.054 0.681,3.751 0.681,3.968 0,0.248 -0.06,0.465 -0.217,0.465 -0.185,0 -0.248,-0.124 -0.308,-0.465 -0.094,-0.557 -0.496,-1.922 -1.149,-2.603 -1.24,-1.272 -3.068,-1.55 -5.392,-1.55 -6.635,0 -11.192,5.425 -11.192,11.346 0,3.162 0.528,5.921 2.789,8.09 1.086,1.054 3.008,2.263 7.131,2.263 2.729,0 5.116,-0.837 6.199,-1.766 0.807,-0.683 1.303,-1.954 1.303,-3.163 0,-0.434 0.031,-0.651 0.248,-0.651 0.186,0 0.248,0.187 0.28,0.651 0.031,0.465 0.031,2.17 0.091,3.193 0.063,1.116 0.157,1.488 0.157,1.736 0,0.187 -0.063,0.311 -0.405,0.341 -0.992,0.062 -1.982,0.248 -3.162,0.466 -1.517,0.278 -3.254,0.371 -4.494,0.371 -4.773,0 -7.596,-1.457 -9.455,-3.317 -2.76,-2.758 -3.473,-6.385 -3.473,-8.462 0,-2.946 0.744,-6.48 3.752,-9.176 2.45,-2.201 5.58,-3.349 10.231,-3.349 m -36.272,19.499 c 0.992,-1.116 4.496,-5.021 8.092,-8.896 3.285,-3.534 7.75,-8.091 8.092,-8.402 1.642,-1.642 2.014,-1.983 2.262,-1.983 0.216,0 0.279,0.154 0.279,2.2 l 0.062,18.166 c 0,1.861 0.123,2.542 1.147,2.759 0.373,0.094 0.59,0.094 0.744,0.094 0.217,0 0.342,0.092 0.342,0.216 0,0.186 -0.217,0.217 -0.559,0.217 -1.271,0 -2.295,-0.092 -2.635,-0.092 -0.341,0 -1.83,0.092 -3.224,0.092 -0.371,0 -0.619,-0.031 -0.619,-0.217 0,-0.124 0.031,-0.216 0.248,-0.216 0.248,0 0.961,-0.032 1.517,-0.156 0.961,-0.248 1.18,-0.929 1.209,-2.945 l 0.342,-15.748 c -0.992,1.023 -4.371,4.806 -7.439,8.091 -4.776,5.115 -9.395,10.106 -9.86,10.634 -0.308,0.309 -0.836,0.991 -1.084,0.991 -0.248,0 -0.342,-0.341 -0.342,-1.55 l -0.031,-17.763 c 0,-2.821 -0.154,-3.719 -0.929,-3.936 -0.465,-0.155 -1.024,-0.187 -1.272,-0.187 -0.154,0 -0.246,-0.061 -0.246,-0.185 0,-0.218 0.186,-0.248 0.494,-0.248 1.397,0 2.697,0.093 2.977,0.093 0.279,0 1.519,-0.093 3.287,-0.093 0.371,0 0.556,0.061 0.556,0.248 0,0.124 -0.091,0.185 -0.248,0.185 -0.277,0 -0.961,0.032 -1.548,0.187 -0.838,0.248 -1.149,1.054 -1.209,3.596 z M -63.921,0 c 0,-2.976 0,-5.425 -0.154,-6.727 -0.123,-0.898 -0.279,-1.581 -0.9,-1.705 -0.279,-0.061 -0.65,-0.124 -0.929,-0.124 -0.187,0 -0.247,-0.092 -0.247,-0.185 0,-0.187 0.154,-0.248 0.496,-0.248 0.929,0 2.883,0.093 3.037,0.093 0.897,0 2.976,-0.186 7.655,-0.186 1.209,0 1.457,0 1.676,0.806 0.154,0.651 0.402,2.758 0.402,3.006 0,0.217 0,0.465 -0.185,0.465 -0.157,0 -0.217,-0.124 -0.28,-0.465 -0.216,-1.27 -0.589,-1.89 -1.394,-2.232 -0.807,-0.341 -2.17,-0.341 -2.977,-0.341 -3.038,0 -3.504,0.404 -3.595,2.542 -0.031,0.652 0,4.247 0,5.301 v 2.729 c 0,0.124 0.061,0.216 0.216,0.216 0.529,0 3.596,-0.061 4.434,-0.155 1.209,-0.124 1.486,-0.65 1.611,-1.085 0.123,-0.402 0.123,-0.713 0.123,-1.022 0,-0.156 0.063,-0.28 0.217,-0.28 0.219,0 0.219,0.341 0.219,0.589 0,0.217 0.06,1.364 0.123,1.985 0.094,1.022 0.248,1.549 0.248,1.735 0,0.186 -0.063,0.248 -0.154,0.248 -0.125,0 -0.248,-0.154 -0.465,-0.402 -0.279,-0.311 -0.713,-0.372 -1.457,-0.435 -0.713,-0.061 -4.528,-0.061 -4.929,-0.061 -0.154,0 -0.186,0.092 -0.186,0.309 v 8.557 c 0,0.217 0.061,0.309 0.186,0.309 0.342,0 3.72,-0.031 4.245,-0.092 1.674,-0.187 1.985,-0.559 2.201,-1.055 0.157,-0.371 0.188,-0.899 0.188,-1.115 0,-0.248 0.06,-0.404 0.248,-0.404 0.123,0 0.185,0.186 0.217,0.341 0.06,0.372 0.123,1.736 0.154,2.046 0.094,0.868 0.248,1.24 0.248,1.457 0,0.155 -0.031,0.279 -0.125,0.279 -0.154,0 -0.277,-0.124 -0.434,-0.155 -0.248,-0.061 -0.744,-0.124 -1.332,-0.154 -0.712,-0.031 -6.881,-0.031 -7.098,-0.031 -0.154,0 -2.108,0.092 -3.502,0.092 -0.342,0 -0.496,-0.061 -0.496,-0.248 0,-0.124 0.123,-0.185 0.248,-0.185 0.277,0 0.805,-0.032 1.052,-0.094 1.024,-0.217 1.272,-0.713 1.335,-1.767 0.06,-0.992 0.06,-1.86 0.06,-6.696 z m -22.42,5.952 c 0,2.387 0,5.549 0.031,6.604 0,0.34 0.094,0.496 0.373,0.62 0.249,0.123 1.395,0.217 2.014,0.217 3.69,0 7.225,-0.435 10.139,-3.503 1.269,-1.333 2.974,-3.875 2.974,-7.813 0,-2.851 -0.867,-5.827 -2.478,-7.408 -1.83,-1.829 -4.496,-2.884 -7.379,-2.884 -3.658,0 -4.867,0.652 -5.27,1.24 -0.248,0.341 -0.31,1.581 -0.341,2.357 -0.032,0.589 -0.063,3.44 -0.063,6.726 z M -88.944,0 c 0,-2.976 0,-5.425 -0.155,-6.727 -0.125,-0.898 -0.279,-1.581 -0.898,-1.705 -0.279,-0.061 -0.652,-0.124 -0.932,-0.124 -0.185,0 -0.248,-0.092 -0.248,-0.185 0,-0.187 0.156,-0.248 0.496,-0.248 0.932,0 2.883,0.093 3.039,0.093 0.311,0 4.215,-0.373 6.881,-0.373 5.272,0 8.061,2.17 9.395,3.566 1.734,1.828 3.347,4.836 3.347,8.741 0,3.69 -1.457,6.262 -3.007,7.874 -3.69,3.814 -9.362,3.534 -12.43,3.534 -1.861,0 -3.815,-0.092 -4.186,-0.092 -0.156,0 -2.107,0.092 -3.504,0.092 -0.339,0 -0.496,-0.061 -0.496,-0.248 0,-0.124 0.125,-0.185 0.248,-0.185 0.28,0 0.807,-0.032 1.055,-0.094 1.024,-0.217 1.272,-0.713 1.332,-1.767 0.063,-0.992 0.063,-1.86 0.063,-6.696 z m -7.936,5.456 c 0,4.836 0,5.704 0.063,6.696 0.062,1.085 0.31,1.613 1.146,1.767 0.373,0.062 0.559,0.094 0.775,0.094 0.125,0 0.249,0.061 0.249,0.185 0,0.187 -0.155,0.248 -0.497,0.248 -0.929,0 -2.882,-0.092 -3.037,-0.092 -0.156,0 -2.107,0.092 -3.131,0.092 -0.341,0 -0.496,-0.061 -0.496,-0.248 0,-0.124 0.123,-0.185 0.248,-0.185 0.217,0 0.62,-0.032 0.961,-0.124 0.682,-0.156 0.993,-0.683 1.053,-1.737 0.063,-0.992 0.063,-1.86 0.063,-6.696 V 0 c 0,-2.976 0,-5.425 -0.155,-6.727 -0.125,-0.898 -0.279,-1.581 -0.898,-1.705 -0.279,-0.061 -0.652,-0.124 -0.932,-0.124 -0.185,0 -0.248,-0.092 -0.248,-0.185 0,-0.187 0.156,-0.248 0.496,-0.248 0.932,0 2.883,0.093 3.039,0.093 0.155,0 2.108,-0.093 3.813,-0.093 0.342,0 0.496,0.093 0.496,0.248 0,0.093 -0.063,0.185 -0.248,0.185 -0.279,0 -0.961,0.063 -1.395,0.124 -0.929,0.124 -1.117,0.807 -1.209,1.705 -0.156,1.302 -0.156,3.751 -0.156,6.727 z m -15.004,-14.88 c 1.676,0 3.35,0.372 4.682,1.303 2.139,1.518 2.635,3.875 2.635,5.145 0,2.481 -0.868,4.403 -4.526,7.286 l -0.869,0.681 c -2.912,2.387 -3.781,3.442 -3.781,5.208 0,2.263 1.674,3.596 3.812,3.596 2.854,0 3.69,-1.302 3.875,-1.643 0.188,-0.34 0.373,-1.177 0.405,-1.549 0.031,-0.249 0.06,-0.404 0.248,-0.404 0.154,0 0.216,0.217 0.216,0.713 0,2.109 0.124,3.131 0.124,3.286 0,0.156 -0.061,0.217 -0.309,0.217 -0.248,0 -0.496,0.031 -1.086,0.155 -0.775,0.186 -1.674,0.31 -2.883,0.31 -3.937,0 -6.418,-2.263 -6.418,-5.58 0,-2.108 0.744,-4.029 4.031,-6.727 l 1.395,-1.146 c 2.666,-2.201 3.564,-3.442 3.564,-5.58 0,-1.985 -1.457,-4.123 -4.431,-4.123 -2.078,0 -4.123,0.868 -4.588,3.162 -0.094,0.433 -0.094,0.868 -0.094,1.146 0,0.248 -0.031,0.341 -0.217,0.341 -0.156,0 -0.216,-0.154 -0.248,-0.495 -0.031,-0.496 -0.156,-1.736 -0.156,-3.286 0,-0.837 0.031,-0.961 0.467,-1.179 1.269,-0.619 2.695,-0.837 4.152,-0.837 M -129.862,0 c 0,-2.976 0,-5.425 -0.157,-6.727 -0.123,-0.898 -0.279,-1.581 -0.898,-1.705 -0.279,-0.061 -0.65,-0.124 -0.93,-0.124 -0.185,0 -0.248,-0.092 -0.248,-0.185 0,-0.187 0.155,-0.248 0.496,-0.248 0.93,0 2.883,0.093 3.037,0.093 0.901,0 2.977,-0.186 7.659,-0.186 1.209,0 1.457,0 1.674,0.806 0.154,0.651 0.402,2.758 0.402,3.006 0,0.217 0,0.465 -0.186,0.465 -0.156,0 -0.216,-0.124 -0.279,-0.465 -0.217,-1.27 -0.59,-1.89 -1.395,-2.232 -0.806,-0.341 -2.169,-0.341 -2.976,-0.341 -3.037,0 -3.502,0.404 -3.596,2.542 -0.031,0.652 0,4.247 0,5.301 v 2.729 c 0,0.124 0.063,0.216 0.217,0.216 0.527,0 3.596,-0.061 4.434,-0.155 1.209,-0.124 1.488,-0.65 1.611,-1.085 0.125,-0.402 0.125,-0.713 0.125,-1.022 0,-0.156 0.06,-0.28 0.217,-0.28 0.217,0 0.217,0.341 0.217,0.589 0,0.217 0.06,1.364 0.123,1.985 0.093,1.022 0.248,1.549 0.248,1.735 0,0.186 -0.063,0.248 -0.155,0.248 -0.125,0 -0.248,-0.154 -0.465,-0.402 -0.279,-0.311 -0.712,-0.372 -1.457,-0.435 -0.712,-0.061 -4.527,-0.061 -4.929,-0.061 -0.155,0 -0.186,0.092 -0.186,0.309 v 8.557 c 0,0.217 0.063,0.309 0.186,0.309 0.342,0 3.72,-0.031 4.248,-0.092 1.674,-0.187 1.982,-0.559 2.201,-1.055 0.154,-0.371 0.186,-0.899 0.186,-1.115 0,-0.248 0.06,-0.404 0.248,-0.404 0.123,0 0.185,0.186 0.216,0.341 0.063,0.372 0.123,1.736 0.155,2.046 0.093,0.868 0.248,1.24 0.248,1.457 0,0.155 -0.032,0.279 -0.123,0.279 -0.157,0 -0.28,-0.124 -0.436,-0.155 -0.248,-0.061 -0.742,-0.124 -1.332,-0.154 -0.713,-0.031 -6.883,-0.031 -7.1,-0.031 -0.154,0 -2.107,0.092 -3.501,0.092 -0.342,0 -0.497,-0.061 -0.497,-0.248 0,-0.124 0.123,-0.185 0.248,-0.185 0.28,0 0.805,-0.032 1.053,-0.094 1.024,-0.217 1.272,-0.713 1.334,-1.767 0.063,-0.992 0.063,-1.86 0.063,-6.696 z m -23.416,17.817 c 0,0.229 0.113,0.38 0.303,0.456 0.381,0.114 1.407,0.228 2.546,0.228 4.067,0 6.575,-2.85 6.575,-7.6 0,-2.887 -0.988,-4.94 -2.318,-5.852 -0.874,-0.608 -1.938,-0.722 -2.85,-0.722 -1.672,0 -3.42,0.267 -3.991,0.609 -0.19,0.113 -0.265,0.265 -0.265,0.456 z m -3.04,-15.807 c 0,-3.649 0,-6.651 -0.19,-8.246 -0.153,-1.103 -0.342,-1.939 -1.102,-2.09 -0.343,-0.076 -0.798,-0.153 -1.14,-0.153 -0.228,0 -0.304,-0.114 -0.304,-0.227 0,-0.229 0.19,-0.305 0.608,-0.305 1.139,0 3.533,0.115 3.571,0.115 0.19,0 2.584,-0.115 4.675,-0.115 0.418,0 0.608,0.115 0.608,0.305 0,0.113 -0.076,0.227 -0.304,0.227 -0.342,0 -1.178,0.077 -1.71,0.153 -1.141,0.151 -1.369,0.987 -1.482,2.09 -0.19,1.595 -0.19,4.597 -0.19,8.246 v 0.911 c 0,0.19 0.075,0.305 0.265,0.305 l 4.675,-0.077 c 0.228,0 0.341,-0.076 0.494,-0.228 0.76,-0.987 2.546,-3.533 4.141,-5.623 2.166,-2.851 3.496,-4.712 5.131,-5.586 0.988,-0.532 1.936,-0.723 4.065,-0.723 h 2.697 c 0.686,0 0.913,0.076 0.913,0.305 0,0.113 -0.153,0.227 -0.342,0.227 -0.229,0 -0.76,0 -1.483,0.115 -0.949,0.151 -2.584,0.569 -4.634,2.735 -2.205,2.357 -4.789,5.738 -7.904,9.729 3.42,3.153 4.597,5.965 4.597,8.777 0,2.622 -1.671,4.484 -2.622,5.169 -2.013,1.443 -4.559,1.671 -6.953,1.671 -1.179,0 -4.067,-0.114 -4.485,-0.114 -0.19,0 -2.584,0.114 -4.293,0.114 -0.418,0 -0.608,-0.076 -0.608,-0.303 0,-0.153 0.151,-0.229 0.304,-0.229 0.342,0 0.988,-0.038 1.292,-0.114 1.254,-0.266 1.558,-0.874 1.633,-2.166 0.077,-1.216 0.077,-2.28 0.077,-8.208 z m -21.426,10.422 c 0,0.248 0.062,0.372 0.279,0.433 0.31,0.093 0.868,0.124 1.643,0.124 1.829,0 4.743,-1.27 4.743,-5.673 0,-2.542 -0.899,-3.967 -1.829,-4.65 -0.558,-0.402 -0.961,-0.526 -2.201,-0.526 -0.775,0 -1.705,0.092 -2.356,0.309 -0.217,0.093 -0.279,0.217 -0.279,0.558 z M -181.402,0 c 0,-2.852 0,-5.301 -0.155,-6.603 -0.124,-0.899 -0.279,-1.581 -0.899,-1.705 -0.279,-0.061 -0.651,-0.124 -1.116,-0.124 -0.372,0 -0.496,-0.092 -0.496,-0.248 0,-0.216 0.217,-0.309 0.62,-0.309 1.24,0 3.193,0.093 3.782,0.093 0.465,0 2.759,-0.093 4.557,-0.093 0.403,0 0.62,0.093 0.62,0.309 0,0.156 -0.124,0.248 -0.372,0.248 -0.372,0 -1.054,0.063 -1.519,0.124 -0.93,0.124 -1.116,0.806 -1.209,1.705 -0.155,1.302 -0.155,3.751 -0.155,6.634 v 0.435 c 0,0.185 0.093,0.248 0.248,0.248 l 2.697,-0.063 c 0.217,0 0.403,-0.031 0.558,-0.216 0.403,-0.465 1.829,-2.574 3.069,-4.279 1.736,-2.386 2.914,-3.843 4.247,-4.556 0.806,-0.434 1.581,-0.589 3.317,-0.589 h 2.945 c 0.372,0 0.589,0.061 0.589,0.309 0,0.156 -0.124,0.248 -0.372,0.248 -0.248,0 -0.528,0.032 -0.868,0.093 -0.465,0.094 -1.736,0.311 -3.472,2.109 -1.829,1.921 -3.968,4.68 -6.727,8.152 3.131,2.542 4.092,4.65 4.092,6.944 0,2.077 -1.24,3.658 -2.108,4.247 -1.674,1.148 -3.751,1.333 -5.704,1.333 -0.961,0 -3.317,-0.092 -4.371,-0.092 -0.651,0 -2.604,0.092 -4.247,0.092 -0.465,0 -0.682,-0.061 -0.682,-0.279 0,-0.217 0.186,-0.278 0.527,-0.278 0.434,0 0.961,-0.032 1.209,-0.094 1.023,-0.217 1.271,-0.713 1.333,-1.767 0.062,-0.992 0.062,-1.86 0.062,-6.572 z m -18.042,0 c 0,-2.852 0,-5.301 -0.155,-6.603 -0.124,-0.899 -0.278,-1.581 -0.899,-1.705 -0.279,-0.061 -0.65,-0.124 -1.115,-0.124 -0.372,0 -0.497,-0.092 -0.497,-0.248 0,-0.216 0.217,-0.309 0.62,-0.309 1.24,0 3.194,0.093 3.907,0.093 1.829,0 3.905,-0.186 8.586,-0.186 1.178,0 1.457,0 1.674,0.806 0.155,0.62 0.403,2.727 0.403,3.44 0,0.311 0,0.559 -0.248,0.559 -0.217,0 -0.279,-0.124 -0.341,-0.465 -0.217,-1.272 -0.589,-1.922 -1.395,-2.294 -0.806,-0.372 -2.108,-0.372 -2.914,-0.372 -3.162,0 -3.658,0.465 -3.72,2.603 -0.031,0.9 0,3.751 0,4.805 v 2.449 c 0,0.187 0.031,0.311 0.186,0.311 0.744,0 3.813,-0.031 4.402,-0.094 1.147,-0.124 1.581,-0.589 1.736,-1.209 0.093,-0.402 0.093,-0.806 0.124,-1.115 0,-0.155 0.062,-0.28 0.279,-0.28 0.279,0 0.279,0.341 0.279,0.589 0,0.217 0.062,1.457 0.124,2.078 0.093,1.581 0.248,2.077 0.248,2.262 0,0.187 -0.093,0.248 -0.217,0.248 -0.155,0 -0.279,-0.155 -0.496,-0.403 -0.279,-0.31 -0.744,-0.402 -1.488,-0.465 -0.713,-0.061 -4.278,-0.061 -4.96,-0.061 -0.186,0 -0.217,0.124 -0.217,0.34 v 7.843 c 0,0.217 0.062,0.311 0.217,0.311 0.62,0 3.875,-0.063 4.402,-0.124 1.55,-0.187 1.86,-0.559 2.077,-1.117 0.155,-0.372 0.186,-0.899 0.186,-1.116 0,-0.279 0.062,-0.433 0.279,-0.433 0.217,0 0.279,0.185 0.31,0.34 0.062,0.373 0.124,1.736 0.155,2.046 0.093,1.426 0.248,1.798 0.248,2.015 0,0.155 -0.031,0.279 -0.186,0.279 -0.155,0 -0.341,-0.092 -0.496,-0.124 -0.248,-0.061 -0.744,-0.124 -1.333,-0.185 -0.589,-0.031 -6.758,-0.031 -7.75,-0.031 -0.867,0 -2.821,0.092 -4.464,0.092 -0.464,0 -0.681,-0.061 -0.681,-0.279 0,-0.217 0.185,-0.278 0.526,-0.278 0.435,0 0.962,-0.032 1.209,-0.094 1.024,-0.217 1.272,-0.713 1.333,-1.767 0.062,-0.992 0.062,-1.86 0.062,-6.572 z m -13.67,-9.424 c 1.643,0 3.379,0.279 4.929,1.272 2.232,1.457 2.914,3.595 2.914,5.393 0,2.946 -1.363,5.023 -5.084,7.905 l -0.868,0.651 c -2.573,1.953 -3.286,3.038 -3.286,4.465 0,1.859 1.395,3.192 3.689,3.192 2.015,0 2.915,-0.93 3.38,-1.518 0.65,-0.807 0.806,-1.768 0.806,-2.046 0,-0.372 0.092,-0.559 0.31,-0.559 0.247,0 0.341,0.248 0.341,0.931 0,2.418 0.124,3.316 0.124,3.719 0,0.217 -0.156,0.31 -0.434,0.373 -0.807,0.216 -2.108,0.526 -4.124,0.526 -4.309,0 -7.161,-2.448 -7.161,-5.859 0,-2.51 1.178,-4.681 4.588,-7.347 l 1.426,-1.115 c 2.574,-1.985 3.039,-3.442 3.039,-4.96 0,-1.644 -1.365,-3.535 -4.155,-3.535 -1.922,0 -3.751,0.837 -4.433,3.131 -0.155,0.528 -0.279,1.178 -0.279,1.581 0,0.248 -0.031,0.528 -0.31,0.528 -0.248,0 -0.341,-0.341 -0.372,-0.807 -0.031,-0.495 -0.155,-2.355 -0.155,-4.06 0,-0.682 0.093,-0.837 0.589,-1.054 1.333,-0.589 2.728,-0.807 4.526,-0.807 m -22.358,10.075 c -0.124,0 -0.155,0.093 -0.124,0.217 l 2.852,7.626 c 0.031,0.124 0.093,0.279 0.186,0.279 0.093,0 0.124,-0.155 0.155,-0.279 l 2.79,-7.656 c 0.031,-0.094 0,-0.187 -0.155,-0.187 z m 6.293,-1.549 c 0.155,0 0.248,-0.063 0.31,-0.217 l 2.48,-6.572 c 0.155,-0.373 -0.062,-0.652 -0.279,-0.713 -0.31,-0.032 -0.434,-0.093 -0.434,-0.28 0,-0.216 0.372,-0.216 0.93,-0.248 2.48,-0.061 4.743,-0.061 5.859,-0.061 1.147,0 1.426,0.061 1.426,0.309 0,0.217 -0.155,0.248 -0.403,0.248 -0.372,0 -0.837,0.032 -1.302,0.124 -0.651,0.156 -1.55,0.589 -2.728,3.379 -1.984,4.712 -6.944,17.361 -7.688,19.066 -0.31,0.713 -0.496,0.991 -0.775,0.991 -0.31,0 -0.496,-0.341 -0.868,-1.239 l -7.781,-19.468 c -0.62,-1.551 -1.209,-2.605 -2.634,-2.79 -0.248,-0.031 -0.683,-0.063 -0.962,-0.063 -0.247,0 -0.371,-0.061 -0.371,-0.248 0,-0.248 0.185,-0.309 0.588,-0.309 1.612,0 3.317,0.093 3.658,0.093 0.962,0 2.295,-0.093 3.286,-0.093 0.342,0 0.527,0.061 0.527,0.309 0,0.187 -0.093,0.248 -0.465,0.248 h -0.465 c -0.961,0 -1.24,0.404 -1.24,0.961 0,0.372 0.156,1.117 0.466,1.892 l 1.673,4.433 c 0.062,0.185 0.124,0.248 0.279,0.248 z m -29.449,13.33 c 0,0.248 0.062,0.372 0.279,0.433 0.31,0.093 0.868,0.124 1.643,0.124 1.829,0 4.743,-1.27 4.743,-5.673 0,-2.542 -0.899,-3.967 -1.829,-4.65 -0.558,-0.402 -0.961,-0.526 -2.201,-0.526 -0.775,0 -1.705,0.092 -2.356,0.309 -0.217,0.093 -0.279,0.217 -0.279,0.558 z M -262.286,0 c 0,-2.852 0,-5.301 -0.155,-6.603 -0.124,-0.899 -0.279,-1.581 -0.899,-1.705 -0.279,-0.061 -0.651,-0.124 -1.116,-0.124 -0.372,0 -0.496,-0.092 -0.496,-0.248 0,-0.216 0.217,-0.309 0.62,-0.309 1.24,0 3.193,0.093 3.782,0.093 0.465,0 2.759,-0.093 4.557,-0.093 0.403,0 0.62,0.093 0.62,0.309 0,0.156 -0.124,0.248 -0.372,0.248 -0.372,0 -1.054,0.063 -1.519,0.124 -0.93,0.124 -1.116,0.806 -1.209,1.705 -0.155,1.302 -0.155,3.751 -0.155,6.634 v 0.435 c 0,0.185 0.093,0.248 0.248,0.248 l 2.697,-0.063 c 0.217,0 0.403,-0.031 0.558,-0.216 0.403,-0.465 1.829,-2.574 3.069,-4.279 1.736,-2.386 2.914,-3.843 4.247,-4.556 0.806,-0.434 1.581,-0.589 3.317,-0.589 h 2.945 c 0.372,0 0.589,0.061 0.589,0.309 0,0.156 -0.124,0.248 -0.373,0.248 -0.247,0 -0.526,0.032 -0.867,0.093 -0.465,0.094 -1.736,0.311 -3.472,2.109 -1.829,1.921 -3.968,4.68 -6.727,8.152 3.131,2.542 4.092,4.65 4.092,6.944 0,2.077 -1.24,3.658 -2.108,4.247 -1.674,1.148 -3.751,1.333 -5.704,1.333 -0.961,0 -3.317,-0.092 -4.371,-0.092 -0.651,0 -2.604,0.092 -4.247,0.092 -0.465,0 -0.682,-0.061 -0.682,-0.279 0,-0.217 0.186,-0.278 0.527,-0.278 0.434,0 0.961,-0.032 1.209,-0.094 1.023,-0.217 1.271,-0.713 1.333,-1.767 0.062,-0.992 0.062,-1.86 0.062,-6.572 z m -15.799,5.087 c 0,0.267 0.075,0.343 0.266,0.343 0.646,0 4.673,0 5.623,-0.115 1.178,-0.152 1.748,-0.836 1.938,-1.368 0.152,-0.456 0.228,-0.912 0.228,-1.177 0,-0.267 0.076,-0.533 0.304,-0.533 0.38,0 0.38,0.38 0.38,0.722 0,0.267 0.076,2.015 0.152,2.774 0.114,1.178 0.304,2.128 0.304,2.356 0,0.228 -0.076,0.343 -0.228,0.343 -0.228,0 -0.304,-0.153 -0.494,-0.38 -0.38,-0.494 -0.912,-0.647 -1.634,-0.685 -0.532,-0.038 -1.064,-0.038 -1.71,-0.038 l -4.863,-0.038 c -0.228,0 -0.266,0.114 -0.266,0.342 v 9.5 c 0,0.418 0.113,0.533 0.341,0.533 l 5.852,-0.115 c 1.444,-0.038 2.242,-0.608 2.508,-1.139 0.229,-0.533 0.229,-1.141 0.229,-1.444 0.037,-0.419 0.113,-0.609 0.379,-0.609 0.266,0 0.342,0.228 0.38,0.533 0.076,0.456 0.152,2.697 0.19,3.077 0.114,0.989 0.304,1.445 0.304,1.71 0,0.191 -0.114,0.342 -0.266,0.342 -0.19,0 -0.38,-0.151 -0.608,-0.228 -0.379,-0.114 -0.836,-0.114 -1.558,-0.152 -0.874,-0.038 -8.587,-0.038 -10.031,-0.038 -1.102,0 -3.496,0.114 -5.472,0.114 -0.571,0 -0.874,-0.076 -0.874,-0.38 0,-0.228 0.266,-0.304 0.646,-0.304 0.531,0 1.177,-0.037 1.482,-0.114 1.253,-0.266 1.558,-0.873 1.633,-2.166 0.076,-1.216 0.076,-2.279 0.076,-8.056 V 2.01 c 0,-3.649 0,-6.498 -0.19,-8.094 -0.151,-1.103 -0.341,-1.938 -1.102,-2.091 -0.341,-0.075 -0.797,-0.151 -1.368,-0.151 -0.418,0 -0.57,-0.114 -0.57,-0.305 0,-0.304 0.267,-0.38 0.798,-0.38 1.445,0 3.839,0.115 4.827,0.115 0.987,0 3.381,-0.115 5.775,-0.115 0.57,0 0.836,0.115 0.836,0.38 0,0.191 -0.152,0.305 -0.646,0.305 -0.532,0 -1.368,0.076 -1.9,0.151 -1.14,0.153 -1.367,0.988 -1.482,2.091 -0.189,1.596 -0.189,4.445 -0.189,8.094 z" /></g></g></g></g></svg>