<?xml version="1.0" encoding="UTF-8" standalone="no"?>
<svg
   xmlns:dc="http://purl.org/dc/elements/1.1/"
   xmlns:cc="http://creativecommons.org/ns#"
   xmlns:rdf="http://www.w3.org/1999/02/22-rdf-syntax-ns#"
   xmlns:svg="http://www.w3.org/2000/svg"
   xmlns="http://www.w3.org/2000/svg"
   viewBox="0 0 1122.52 793.70135"
   height="793.70135"
   width="1122.52"
   xml:space="preserve"
   id="svg2"
   version="1.1"><metadata
     id="metadata8"><rdf:RDF><cc:Work
         rdf:about=""><dc:format>image/svg+xml</dc:format><dc:type
           rdf:resource="http://purl.org/dc/dcmitype/StillImage" /></cc:Work></rdf:RDF></metadata><defs
     id="defs6"><clipPath
       id="clipPath18"
       clipPathUnits="userSpaceOnUse"><path
         id="path16"
         d="M 0,595.276 H 841.89 V 0 H 0 Z" /></clipPath></defs><g
     transform="matrix(1.3333333,0,0,-1.3333333,0,793.70133)"
     id="g10"><g
       id="g12"><g
         clip-path="url(#clipPath18)"
         id="g14"><g
           transform="translate(447.6123,313.8288)"
           id="g20"><path
             id="path22"
             style="fill:#866d4b;fill-opacity:1;fill-rule:nonzero;stroke:none"
             d="m 0,0 -0.014,-0.009 c 0.012,0.002 0.026,0.003 0.036,0.005 z m 49.827,28.617 c -0.154,-2.029 -3.045,-2.992 -6.232,-2.992 -2.969,0 -8.458,0.846 -13.656,2.25 l -0.447,0.121 0.391,0.248 c 3.117,1.985 7.783,3.539 12.31,3.539 h 0.14 c 4.398,0 7.654,-1.088 7.494,-3.166 M 24.633,26.71 C 16.26,20.595 9.138,11.307 4.392,4.464 L 3.35,3.015 2.595,1.978 C -0.457,1.484 -3.152,0.433 -5.552,-1.584 -5.791,-1.819 -6.429,-2.522 -6.03,-2.678 c 0.159,-0.157 0.637,0.234 0.956,0.547 1.928,1.444 3.762,2.13 6.364,2.397 -1.692,-2.164 -3.548,-4.333 -5.569,-6.561 -0.498,-0.492 -1.171,-1.215 -1.171,-1.215 -9.435,-9.756 -21.261,-17.568 -37.666,-17.643 -3.904,0.019 -7.541,0.461 -10.755,1.344 -1.913,0.461 -3.654,1.138 -5.148,1.981 -5.898,3.023 -9.234,7.377 -9.234,14.415 0,11.261 12.334,20.412 26.729,22.032 0.589,-5.826 4.211,-11.048 10.876,-13.42 0.609,-0.271 1.223,-0.407 1.685,-0.424 0.232,-0.008 0.416,0.014 0.513,0.266 -0.301,0.088 -0.801,0.196 -1.511,0.48 -7.37,3.159 -9.735,8.555 -9.699,13.307 0.769,0.043 1.539,0.066 2.308,0.066 l 1.055,-0.003 1.327,-0.061 c 9.665,-0.411 19.454,-3.918 19.454,-11.291 0,-1.267 -0.232,-2.41 -0.7,-3.553 -0.158,-0.406 -0.352,-0.801 -0.578,-1.185 -3.29,-5.806 -12.216,-9.905 -21.227,-10.673 -0.549,-0.062 -1.129,-0.095 -1.728,-0.095 l -0.71,0.016 h -0.561 c -4.695,0 -9.601,0.944 -12.081,4.272 -0.59,0.685 -0.985,1.426 -1.148,2.203 -0.099,0.287 -0.189,0.588 -0.279,0.921 -0.176,0.931 -0.118,1.397 -0.292,1.513 -0.409,0 -0.349,-0.989 -0.233,-1.688 0.176,-0.815 0.349,-1.582 0.699,-2.222 l 0.522,-0.857 c 2.504,-3.611 8.208,-5.373 13.39,-5.43 h 0.654 c 10.481,0 21.517,5.073 24.625,12.58 l 0.211,0.529 c 0.407,1.145 0.64,2.345 0.64,3.61 0,7.548 -8.948,12.17 -18.498,13.218 l -1.28,0.116 c -0.991,0.059 -1.98,0.117 -2.912,0.117 -0.833,0 -1.666,-0.026 -2.498,-0.078 0.046,0.302 0.101,0.598 0.164,0.889 2.561,10.667 14.205,15.163 27.544,15.163 7.454,0 17.989,-1.969 23.602,-3.23 4.906,-1.123 8.832,-2.103 12.057,-2.805 l 0.515,-0.112 z m 26.191,1.81 c 0.383,2.681 -3.498,4.116 -8.491,4.116 -5.57,0 -11.708,-1.951 -15.478,-3.92 -4.767,1.263 -9.676,2.666 -14.303,3.927 -8.691,2.384 -17.925,4.201 -23.785,4.201 -17.484,0.138 -28.845,-7.968 -30.227,-18.194 -0.087,-0.663 -0.138,-1.325 -0.151,-1.982 C -56.573,14.97 -70.426,5.233 -70.426,-7.35 c 0,-8.072 4.483,-13.646 11.703,-16.649 l 0.758,-0.245 c 4.018,-1.513 8.735,-2.264 13.917,-2.264 0.096,0 0.189,0.006 0.285,0.007 0.06,-10e-4 0.117,-0.007 0.177,-0.007 16.886,-0.058 29.806,7.041 40.23,16.943 l 1.062,0.939 c 2.865,2.819 5.543,5.85 8.098,9.02 L 6.642,0.377 12.052,0.214 C 17.069,0.135 23.442,0.37 26.069,2.52 26.304,2.751 27.867,4.617 26.708,3.642 23.282,1.007 18.737,1.875 13.48,2.194 L 8.07,2.357 6.886,2.344 7.311,2.893 8.352,4.362 c 1.047,1.404 2.103,2.86 3.091,4.324 3.465,4.951 8.772,12.408 15.217,17.635 l 0.842,-0.16 c 5.457,-0.84 9.794,-1.39 15.533,-1.39 4.635,0 7.531,1.549 7.789,3.749" /></g><g
           transform="translate(525.377,279.4963)"
           id="g24"><path
             id="path26"
             style="fill:#005b7f;fill-opacity:1;fill-rule:nonzero;stroke:none"
             d="m 0,0 c 0,-2.976 0,-5.425 -0.155,-6.727 -0.124,-0.899 -0.279,-1.581 -0.9,-1.705 -0.278,-0.062 -0.65,-0.124 -0.929,-0.124 -0.185,0 -0.247,-0.093 -0.247,-0.186 0,-0.186 0.155,-0.248 0.496,-0.248 0.929,0 2.881,0.094 3.038,0.094 0.899,0 2.975,-0.187 7.656,-0.187 1.21,0 1.457,0 1.674,0.806 0.155,0.651 0.404,2.759 0.404,3.007 0,0.217 0,0.465 -0.187,0.465 -0.155,0 -0.217,-0.124 -0.28,-0.465 C 10.354,-6.541 9.982,-7.161 9.176,-7.502 8.37,-7.843 7.007,-7.843 6.2,-7.843 c -3.038,0 -3.504,0.403 -3.596,2.542 -0.03,0.651 0,4.247 0,5.301 v 2.729 c 0,0.124 0.062,0.216 0.216,0.216 0.529,0 3.597,-0.062 4.434,-0.155 C 8.464,2.666 8.742,2.139 8.866,1.705 8.991,1.302 8.991,0.992 8.991,0.682 c 0,-0.155 0.062,-0.279 0.217,-0.279 0.216,0 0.216,0.341 0.216,0.589 0,0.217 0.062,1.364 0.125,1.985 C 9.641,3.999 9.796,4.526 9.796,4.712 9.796,4.898 9.733,4.96 9.641,4.96 9.517,4.96 9.394,4.806 9.176,4.558 8.896,4.247 8.464,4.186 7.72,4.123 7.007,4.062 3.192,4.062 2.791,4.062 2.636,4.062 2.604,4.154 2.604,4.371 v 8.557 c 0,0.217 0.062,0.309 0.187,0.309 0.341,0 3.72,-0.031 4.246,-0.092 1.675,-0.187 1.984,-0.559 2.2,-1.055 0.157,-0.371 0.187,-0.899 0.187,-1.115 0,-0.248 0.062,-0.404 0.249,-0.404 0.123,0 0.184,0.186 0.217,0.341 0.062,0.372 0.123,1.736 0.155,2.046 0.092,0.868 0.247,1.24 0.247,1.457 0,0.155 -0.03,0.279 -0.123,0.279 -0.156,0 -0.279,-0.124 -0.436,-0.155 C 9.486,14.478 8.991,14.415 8.4,14.385 7.687,14.354 1.52,14.354 1.303,14.354 c -0.157,0 -2.109,0.092 -3.504,0.092 -0.341,0 -0.495,-0.061 -0.495,-0.248 0,-0.124 0.124,-0.185 0.247,-0.185 0.28,0 0.806,-0.032 1.053,-0.094 1.025,-0.217 1.272,-0.713 1.334,-1.767 C 0,11.16 0,10.292 0,5.456 Z m -15.283,-9.424 c 1.985,0 4.341,0.217 5.581,0.713 0.556,0.248 0.619,0.31 0.806,0.899 0.309,1.054 0.682,3.751 0.682,3.968 0,0.248 -0.062,0.465 -0.219,0.465 -0.184,0 -0.247,-0.124 -0.309,-0.465 -0.092,-0.558 -0.496,-1.922 -1.147,-2.604 -1.24,-1.271 -3.069,-1.55 -5.394,-1.55 -6.634,0 -11.192,5.425 -11.192,11.347 0,3.162 0.529,5.921 2.791,8.09 1.084,1.054 3.008,2.263 7.129,2.263 2.729,0 5.117,-0.837 6.201,-1.766 0.807,-0.683 1.303,-1.954 1.303,-3.163 0,-0.434 0.03,-0.651 0.246,-0.651 0.188,0 0.249,0.187 0.28,0.651 0.032,0.465 0.032,2.17 0.092,3.193 0.063,1.116 0.157,1.488 0.157,1.736 0,0.187 -0.062,0.311 -0.404,0.341 -0.992,0.062 -1.983,0.248 -3.162,0.465 -1.518,0.279 -3.255,0.372 -4.495,0.372 -4.773,0 -7.596,-1.457 -9.455,-3.317 -2.759,-2.758 -3.472,-6.385 -3.472,-8.462 0,-2.946 0.743,-6.48 3.75,-9.177 2.451,-2.201 5.58,-3.348 10.231,-3.348 M -46.438,1.271 c -0.092,0 -0.155,0.062 -0.092,0.217 l 2.726,8.37 c 0.157,0.465 0.312,0.465 0.466,0 l 2.945,-8.37 c 0.031,-0.124 0.031,-0.217 -0.125,-0.217 z m -4.34,-6.851 c -0.557,-1.55 -1.177,-2.728 -2.603,-2.914 -0.249,-0.031 -0.682,-0.062 -0.899,-0.062 -0.157,0 -0.28,-0.062 -0.28,-0.186 0,-0.186 0.186,-0.248 0.588,-0.248 1.458,0 3.163,0.094 3.504,0.094 0.342,0 1.675,-0.094 2.418,-0.094 0.279,0 0.466,0.062 0.466,0.248 0,0.124 -0.095,0.186 -0.312,0.186 h -0.309 c -0.526,0 -1.178,0.279 -1.178,0.899 0,0.558 0.154,1.303 0.435,2.077 l 1.86,5.487 c 0.062,0.155 0.154,0.248 0.309,0.248 h 6.666 c 0.154,0 0.217,-0.062 0.279,-0.186 l 2.883,-7.626 c 0.184,-0.496 0,-0.775 -0.188,-0.837 -0.124,-0.031 -0.215,-0.093 -0.215,-0.217 0,-0.185 0.34,-0.185 0.929,-0.217 2.14,-0.062 4.403,-0.062 4.866,-0.062 0.342,0 0.621,0.062 0.621,0.248 0,0.155 -0.124,0.186 -0.309,0.186 -0.312,0 -0.775,0.031 -1.241,0.186 -0.651,0.186 -1.55,0.683 -2.666,3.441 -1.89,4.712 -6.757,17.515 -7.222,18.694 -0.373,0.961 -0.496,1.115 -0.683,1.115 -0.186,0 -0.309,-0.186 -0.682,-1.209 z M -65.805,5.456 c 0,4.836 0,5.704 0.063,6.696 0.061,1.085 0.308,1.613 1.208,1.767 0.373,0.062 0.805,0.094 1.024,0.094 0.122,0 0.246,0.061 0.246,0.185 0,0.187 -0.153,0.248 -0.495,0.248 -0.929,0 -3.192,-0.092 -3.347,-0.092 -0.157,0 -2.108,0.092 -3.503,0.092 -0.342,0 -0.496,-0.061 -0.496,-0.248 0,-0.124 0.124,-0.185 0.247,-0.185 0.279,0 0.807,-0.032 1.053,-0.094 1.025,-0.217 1.272,-0.713 1.333,-1.767 0.063,-0.992 0.063,-1.86 0.063,-6.696 V 0 c 0,-2.976 0,-5.425 -0.154,-6.727 -0.125,-0.899 -0.28,-1.581 -0.9,-1.705 -0.279,-0.062 -0.65,-0.124 -0.93,-0.124 -0.186,0 -0.249,-0.093 -0.249,-0.186 0,-0.186 0.157,-0.248 0.496,-0.248 0.932,0 2.761,0.094 3.04,0.094 1.797,0 3.842,-0.187 8.308,-0.187 1.643,0 1.735,0.124 1.951,0.837 0.248,0.899 0.467,2.759 0.467,3.1 0,0.341 -0.031,0.465 -0.187,0.465 -0.186,0 -0.248,-0.155 -0.28,-0.403 -0.091,-0.589 -0.402,-1.364 -0.804,-1.86 -0.745,-0.899 -2.108,-0.93 -3.752,-0.93 -2.418,0 -3.223,0.217 -3.719,0.713 -0.559,0.558 -0.683,2.542 -0.683,7.099 z M -90.609,2.009 c 0,-3.648 0,-6.65 -0.189,-8.246 -0.153,-1.102 -0.344,-1.938 -1.102,-2.09 -0.342,-0.076 -0.798,-0.152 -1.141,-0.152 -0.228,0 -0.305,-0.114 -0.305,-0.228 0,-0.228 0.191,-0.304 0.609,-0.304 1.14,0 3.535,0.115 3.649,0.115 0.189,0 2.583,-0.115 4.674,-0.115 0.418,0 0.606,0.115 0.606,0.304 0,0.114 -0.075,0.228 -0.302,0.228 -0.342,0 -1.178,0.076 -1.711,0.152 -1.139,0.152 -1.367,0.988 -1.483,2.09 -0.188,1.596 -0.188,4.598 -0.188,8.246 v 15.618 c 0,0.38 0.075,0.645 0.304,0.722 0.341,0.152 0.987,0.228 1.633,0.228 0.874,0 3.192,0.152 5.205,-1.9 2.016,-2.052 2.128,-4.598 2.128,-5.852 0,-3.496 -2.887,-6.194 -6.572,-6.194 -0.799,0 -1.027,-0.037 -1.027,-0.342 0,-0.189 0.228,-0.266 0.418,-0.266 0.19,-0.038 0.609,-0.038 0.799,-0.038 5.395,0 9.348,3.648 9.348,9.044 0,2.014 -1.065,3.724 -1.901,4.522 -0.608,0.57 -2.319,2.166 -7.069,2.166 -1.747,0 -3.95,-0.114 -4.788,-0.114 -0.303,0 -2.583,0.114 -4.294,0.114 -0.418,0 -0.606,-0.076 -0.606,-0.304 0,-0.152 0.15,-0.228 0.304,-0.228 0.341,0 0.988,-0.039 1.292,-0.114 1.253,-0.266 1.558,-0.874 1.633,-2.166 0.076,-1.216 0.076,-2.28 0.076,-8.208 z m -21.426,10.423 c 0,0.248 0.062,0.372 0.279,0.433 0.31,0.093 0.868,0.124 1.643,0.124 1.829,0 4.742,-1.27 4.742,-5.673 0,-2.542 -0.899,-3.967 -1.829,-4.65 -0.557,-0.402 -0.96,-0.527 -2.2,-0.527 -0.775,0 -1.705,0.093 -2.356,0.31 -0.217,0.093 -0.279,0.217 -0.279,0.558 z M -115.693,0 c 0,-2.852 0,-5.301 -0.155,-6.603 -0.124,-0.899 -0.279,-1.581 -0.899,-1.705 -0.279,-0.062 -0.651,-0.124 -1.116,-0.124 -0.372,0 -0.496,-0.093 -0.496,-0.248 0,-0.216 0.217,-0.31 0.62,-0.31 1.24,0 3.193,0.094 3.782,0.094 0.465,0 2.759,-0.094 4.557,-0.094 0.403,0 0.62,0.094 0.62,0.31 0,0.155 -0.125,0.248 -0.372,0.248 -0.373,0 -1.054,0.062 -1.519,0.124 -0.93,0.124 -1.117,0.806 -1.209,1.705 -0.155,1.302 -0.155,3.751 -0.155,6.634 v 0.434 c 0,0.186 0.093,0.248 0.247,0.248 l 2.698,-0.062 c 0.217,0 0.402,-0.031 0.558,-0.217 0.403,-0.465 1.829,-2.573 3.069,-4.278 1.735,-2.387 2.913,-3.843 4.246,-4.557 0.807,-0.434 1.582,-0.589 3.317,-0.589 h 2.945 c 0.372,0 0.589,0.062 0.589,0.31 0,0.155 -0.123,0.248 -0.372,0.248 -0.247,0 -0.527,0.031 -0.867,0.093 -0.466,0.093 -1.737,0.31 -3.472,2.108 -1.83,1.922 -3.969,4.681 -6.728,8.153 3.132,2.542 4.092,4.65 4.092,6.944 0,2.077 -1.239,3.658 -2.108,4.247 -1.673,1.148 -3.75,1.333 -5.704,1.333 -0.96,0 -3.317,-0.092 -4.371,-0.092 -0.65,0 -2.603,0.092 -4.246,0.092 -0.465,0 -0.682,-0.061 -0.682,-0.279 0,-0.217 0.186,-0.278 0.527,-0.278 0.434,0 0.961,-0.032 1.209,-0.094 1.023,-0.217 1.271,-0.713 1.333,-1.767 0.062,-0.992 0.062,-1.86 0.062,-6.572 z m -18.042,0 c 0,-2.852 0,-5.301 -0.155,-6.603 -0.124,-0.899 -0.279,-1.581 -0.899,-1.705 -0.279,-0.062 -0.651,-0.124 -1.116,-0.124 -0.372,0 -0.496,-0.093 -0.496,-0.248 0,-0.216 0.217,-0.31 0.62,-0.31 1.24,0 3.193,0.094 3.906,0.094 1.829,0 3.906,-0.187 8.587,-0.187 1.178,0 1.457,0 1.674,0.806 0.155,0.62 0.403,2.728 0.403,3.441 0,0.31 0,0.558 -0.248,0.558 -0.217,0 -0.279,-0.124 -0.341,-0.465 -0.217,-1.271 -0.589,-1.922 -1.395,-2.294 -0.806,-0.372 -2.108,-0.372 -2.914,-0.372 -3.162,0 -3.658,0.465 -3.72,2.604 -0.031,0.899 0,3.751 0,4.805 v 2.449 c 0,0.187 0.031,0.311 0.186,0.311 0.744,0 3.813,-0.031 4.402,-0.094 1.147,-0.124 1.581,-0.589 1.736,-1.209 0.093,-0.403 0.093,-0.806 0.124,-1.116 0,-0.154 0.062,-0.279 0.279,-0.279 0.279,0 0.279,0.341 0.279,0.589 0,0.217 0.062,1.457 0.124,2.078 0.093,1.581 0.248,2.077 0.248,2.262 0,0.187 -0.093,0.248 -0.217,0.248 -0.155,0 -0.279,-0.155 -0.496,-0.403 -0.279,-0.31 -0.744,-0.402 -1.488,-0.465 -0.713,-0.061 -4.278,-0.061 -4.96,-0.061 -0.186,0 -0.217,0.124 -0.217,0.34 v 7.843 c 0,0.217 0.062,0.311 0.217,0.311 0.62,0 3.875,-0.063 4.402,-0.124 1.55,-0.187 1.86,-0.559 2.077,-1.117 0.155,-0.372 0.186,-0.899 0.186,-1.116 0,-0.279 0.062,-0.433 0.279,-0.433 0.217,0 0.279,0.185 0.31,0.34 0.062,0.373 0.124,1.736 0.155,2.046 0.093,1.426 0.248,1.798 0.248,2.015 0,0.155 -0.031,0.279 -0.186,0.279 -0.155,0 -0.341,-0.092 -0.496,-0.124 -0.248,-0.062 -0.744,-0.124 -1.333,-0.185 -0.589,-0.031 -6.758,-0.031 -7.75,-0.031 -0.868,0 -2.821,0.092 -4.464,0.092 -0.465,0 -0.682,-0.061 -0.682,-0.279 0,-0.217 0.186,-0.278 0.527,-0.278 0.434,0 0.961,-0.032 1.209,-0.094 1.023,-0.217 1.271,-0.713 1.333,-1.767 0.062,-0.992 0.062,-1.86 0.062,-6.572 z m -13.67,-9.424 c 1.643,0 3.379,0.279 4.929,1.271 2.232,1.457 2.914,3.596 2.914,5.394 0,2.946 -1.364,5.023 -5.084,7.905 l -0.868,0.651 c -2.573,1.953 -3.286,3.038 -3.286,4.465 0,1.859 1.395,3.192 3.689,3.192 2.015,0 2.914,-0.93 3.379,-1.518 0.651,-0.807 0.806,-1.768 0.806,-2.046 0,-0.372 0.093,-0.559 0.31,-0.559 0.248,0 0.341,0.248 0.341,0.931 0,2.418 0.124,3.316 0.124,3.719 0,0.217 -0.155,0.31 -0.434,0.373 -0.806,0.216 -2.108,0.526 -4.123,0.526 -4.309,0 -7.161,-2.448 -7.161,-5.859 0,-2.51 1.178,-4.681 4.588,-7.347 l 1.426,-1.116 c 2.573,-1.984 3.038,-3.441 3.038,-4.96 0,-1.643 -1.364,-3.534 -4.154,-3.534 -1.922,0 -3.751,0.837 -4.433,3.131 -0.155,0.527 -0.279,1.178 -0.279,1.581 0,0.248 -0.031,0.527 -0.31,0.527 -0.248,0 -0.341,-0.341 -0.372,-0.806 -0.031,-0.496 -0.155,-2.356 -0.155,-4.06 0,-0.683 0.093,-0.838 0.589,-1.055 1.333,-0.589 2.728,-0.806 4.526,-0.806 m -22.358,10.075 c -0.124,0 -0.155,0.093 -0.124,0.217 l 2.852,7.626 c 0.031,0.124 0.093,0.279 0.186,0.279 0.093,0 0.124,-0.155 0.155,-0.279 l 2.79,-7.657 c 0.031,-0.093 0,-0.186 -0.155,-0.186 z m 6.293,-1.55 c 0.155,0 0.248,-0.062 0.31,-0.217 l 2.48,-6.571 c 0.155,-0.373 -0.062,-0.652 -0.279,-0.714 -0.31,-0.031 -0.434,-0.093 -0.434,-0.279 0,-0.216 0.372,-0.216 0.93,-0.248 2.48,-0.062 4.743,-0.062 5.859,-0.062 1.147,0 1.426,0.062 1.426,0.31 0,0.217 -0.155,0.248 -0.403,0.248 -0.372,0 -0.837,0.031 -1.302,0.124 -0.651,0.155 -1.55,0.589 -2.728,3.379 -1.984,4.712 -6.944,17.361 -7.688,19.066 -0.31,0.713 -0.496,0.991 -0.775,0.991 -0.31,0 -0.496,-0.341 -0.868,-1.239 l -7.781,-19.469 c -0.62,-1.55 -1.209,-2.604 -2.635,-2.79 -0.248,-0.031 -0.682,-0.062 -0.961,-0.062 -0.248,0 -0.372,-0.062 -0.372,-0.248 0,-0.248 0.186,-0.31 0.589,-0.31 1.612,0 3.317,0.094 3.658,0.094 0.961,0 2.294,-0.094 3.286,-0.094 0.341,0 0.527,0.062 0.527,0.31 0,0.186 -0.093,0.248 -0.465,0.248 h -0.465 c -0.961,0 -1.24,0.403 -1.24,0.961 0,0.372 0.155,1.117 0.465,1.891 l 1.674,4.434 c 0.062,0.185 0.124,0.247 0.279,0.247 z m -29.45,13.331 c 0,0.248 0.062,0.372 0.279,0.433 0.31,0.093 0.868,0.124 1.643,0.124 1.829,0 4.743,-1.27 4.743,-5.673 0,-2.542 -0.899,-3.967 -1.829,-4.65 -0.558,-0.402 -0.961,-0.527 -2.201,-0.527 -0.775,0 -1.705,0.093 -2.356,0.31 -0.217,0.093 -0.279,0.217 -0.279,0.558 z M -196.578,0 c 0,-2.852 0,-5.301 -0.155,-6.603 -0.124,-0.899 -0.279,-1.581 -0.899,-1.705 -0.279,-0.062 -0.651,-0.124 -1.116,-0.124 -0.372,0 -0.496,-0.093 -0.496,-0.248 0,-0.216 0.217,-0.31 0.62,-0.31 1.24,0 3.193,0.094 3.782,0.094 0.465,0 2.759,-0.094 4.557,-0.094 0.403,0 0.62,0.094 0.62,0.31 0,0.155 -0.124,0.248 -0.372,0.248 -0.372,0 -1.054,0.062 -1.519,0.124 -0.93,0.124 -1.116,0.806 -1.209,1.705 -0.155,1.302 -0.155,3.751 -0.155,6.634 v 0.434 c 0,0.186 0.093,0.248 0.248,0.248 l 2.697,-0.062 c 0.217,0 0.403,-0.031 0.558,-0.217 0.403,-0.465 1.829,-2.573 3.069,-4.278 1.736,-2.387 2.914,-3.843 4.247,-4.557 0.806,-0.434 1.581,-0.589 3.317,-0.589 h 2.945 c 0.372,0 0.589,0.062 0.589,0.31 0,0.155 -0.124,0.248 -0.372,0.248 -0.248,0 -0.527,0.031 -0.868,0.093 -0.465,0.093 -1.736,0.31 -3.472,2.108 -1.829,1.922 -3.968,4.681 -6.727,8.153 3.131,2.542 4.092,4.65 4.092,6.944 0,2.077 -1.24,3.658 -2.108,4.247 -1.674,1.148 -3.751,1.333 -5.704,1.333 -0.961,0 -3.317,-0.092 -4.371,-0.092 -0.651,0 -2.604,0.092 -4.247,0.092 -0.465,0 -0.682,-0.061 -0.682,-0.279 0,-0.217 0.186,-0.278 0.527,-0.278 0.434,0 0.961,-0.032 1.209,-0.094 1.023,-0.217 1.271,-0.713 1.333,-1.767 0.062,-0.992 0.062,-1.86 0.062,-6.572 z m -15.799,5.087 c 0,0.267 0.076,0.343 0.266,0.343 0.646,0 4.674,0 5.624,-0.115 1.177,-0.152 1.748,-0.836 1.938,-1.368 0.152,-0.456 0.228,-0.912 0.228,-1.177 0,-0.267 0.075,-0.533 0.303,-0.533 0.38,0 0.38,0.38 0.38,0.722 0,0.267 0.076,2.015 0.153,2.774 0.113,1.178 0.303,2.128 0.303,2.356 0,0.228 -0.075,0.343 -0.228,0.343 -0.228,0 -0.303,-0.153 -0.493,-0.38 -0.381,-0.494 -0.912,-0.647 -1.635,-0.685 -0.531,-0.038 -1.064,-0.038 -1.71,-0.038 l -4.863,-0.038 c -0.228,0 -0.266,0.114 -0.266,0.342 v 9.5 c 0,0.418 0.113,0.532 0.341,0.532 l 5.852,-0.114 c 1.445,-0.038 2.243,-0.608 2.509,-1.14 0.228,-0.532 0.228,-1.14 0.228,-1.443 0.037,-0.419 0.114,-0.609 0.38,-0.609 0.266,0 0.341,0.228 0.38,0.533 0.076,0.456 0.151,2.697 0.189,3.077 0.115,0.988 0.305,1.444 0.305,1.71 0,0.19 -0.115,0.342 -0.266,0.342 -0.19,0 -0.38,-0.152 -0.608,-0.228 -0.38,-0.114 -0.836,-0.114 -1.558,-0.152 -0.875,-0.038 -8.588,-0.038 -10.033,-0.038 -1.101,0 -3.495,0.114 -5.471,0.114 -0.571,0 -0.874,-0.076 -0.874,-0.38 0,-0.229 0.266,-0.304 0.646,-0.304 0.531,0 1.177,-0.038 1.482,-0.114 1.253,-0.266 1.558,-0.874 1.633,-2.166 0.076,-1.216 0.076,-2.279 0.076,-8.056 V 2.009 c 0,-3.648 0,-6.498 -0.189,-8.094 -0.152,-1.102 -0.342,-1.938 -1.103,-2.09 -0.341,-0.076 -0.797,-0.152 -1.368,-0.152 -0.418,0 -0.57,-0.114 -0.57,-0.304 0,-0.304 0.267,-0.38 0.798,-0.38 1.445,0 3.839,0.115 4.827,0.115 0.987,0 3.381,-0.115 5.775,-0.115 0.571,0 0.836,0.115 0.836,0.38 0,0.19 -0.152,0.304 -0.646,0.304 -0.531,0 -1.367,0.076 -1.9,0.152 -1.139,0.152 -1.367,0.988 -1.481,2.09 -0.19,1.596 -0.19,4.446 -0.19,8.094 z" /></g></g></g></g></svg>