<?xml version="1.0" encoding="UTF-8" standalone="no"?>
<svg
   xmlns:dc="http://purl.org/dc/elements/1.1/"
   xmlns:cc="http://creativecommons.org/ns#"
   xmlns:rdf="http://www.w3.org/1999/02/22-rdf-syntax-ns#"
   xmlns:svg="http://www.w3.org/2000/svg"
   xmlns="http://www.w3.org/2000/svg"
   viewBox="0 0 234.20667 234.20667"
   height="234.20667"
   width="234.20667"
   xml:space="preserve"
   id="svg2"
   version="1.1"><metadata
     id="metadata8"><rdf:RDF><cc:Work
         rdf:about=""><dc:format>image/svg+xml</dc:format><dc:type
           rdf:resource="http://purl.org/dc/dcmitype/StillImage" /></cc:Work></rdf:RDF></metadata><defs
     id="defs6"><clipPath
       id="clipPath18"
       clipPathUnits="userSpaceOnUse"><path
         id="path16"
         d="M 0,175.655 H 175.655 V 0 H 0 Z" /></clipPath><clipPath
       id="clipPath96"
       clipPathUnits="userSpaceOnUse"><path
         id="path94"
         d="M 0,175.655 H 175.655 V 0 H 0 Z" /></clipPath><clipPath
       id="clipPath174"
       clipPathUnits="userSpaceOnUse"><path
         id="path172"
         d="M 0,175.655 H 175.655 V 0 H 0 Z" /></clipPath><clipPath
       id="clipPath252"
       clipPathUnits="userSpaceOnUse"><path
         id="path250"
         d="M 0,175.655 H 175.655 V 0 H 0 Z" /></clipPath></defs><g
     transform="matrix(1.3333333,0,0,-1.3333333,0,234.20667)"
     id="g10"><g
       id="g12"><g
         clip-path="url(#clipPath18)"
         id="g14"><g
           transform="translate(46.0122,56.3314)"
           id="g20"><path
             id="path22"
             style="fill:#373535;fill-opacity:1;fill-rule:nonzero;stroke:none"
             d="m 0,0 c 0,1.356 -0.764,2.339 -1.657,2.339 -0.79,0 -1.361,-0.656 -1.361,-1.799 0,-1.115 0.322,-2.502 1.084,-3.941 C -0.733,-2.723 0,-1.445 0,0 m -6.525,-9.85 c 0,-2.72 2.172,-5.085 4.653,-5.085 0.998,0 1.9,0.35 2.661,1.031 -2.258,3.1 -3.836,5.736 -4.923,7.915 -1.605,-1.008 -2.391,-2.2 -2.391,-3.861 m 9.301,4.351 H 9.358 V -6.394 C 7.675,-6.477 7.265,-6.83 6.665,-7.89 5.766,-9.468 4.946,-11.159 3.777,-12.65 c 1.169,-1.467 2.178,-2.178 2.914,-2.178 0.709,0 1.279,0.622 1.987,1.823 L 9.657,-13.44 C 8.843,-15.614 7.4,-16.788 5.63,-16.788 c -1.331,0 -2.724,0.656 -3.972,1.96 -1.63,-1.277 -3.212,-1.903 -4.922,-1.903 -1.632,0 -3.128,0.543 -4.242,1.603 -1.225,1.141 -1.878,2.668 -1.878,4.163 0,2.418 1.603,4.406 4.784,6.119 -0.674,1.636 -1.057,2.961 -1.057,4.024 0,2.48 1.796,4.162 4.322,4.162 2.37,0 3.702,-1.165 3.702,-3.264 0,-1.928 -1.222,-3.425 -3.727,-4.539 0.627,-1.496 2.045,-3.945 4.38,-7.205 1.657,2.339 2.284,3.964 2.284,4.4 0,0.684 -0.819,0.822 -2.528,0.875 z" /></g><g
           transform="translate(67.1897,40.9857)"
           id="g24"><path
             id="path26"
             style="fill:#373535;fill-opacity:1;fill-rule:nonzero;stroke:none"
             d="m 0,0 h 3.024 c 3.292,0 4.813,1.358 4.813,4.464 0,3.044 -1.304,4.131 -4.239,4.131 H 0 Z m 2.449,9.605 c 2.744,0 3.945,1.082 3.945,3.64 0,3.023 -1.009,4.005 -3.641,4.005 H 0 V 9.605 Z m -8.241,-9.744 h 1.061 c 1.414,0 1.852,0.517 1.852,1.96 l 10e-4,13.601 c 0,1.527 -0.192,1.96 -1.767,1.96 h -1.147 v 0.876 h 9.334 c 3.913,0 5.896,-1.498 5.896,-4.419 0,-2.221 -1.112,-3.555 -3.532,-4.322 3.345,-1.109 5.008,-2.826 5.008,-5.354 0,-3.292 -2.723,-5.171 -7.921,-5.171 h -8.785 z" /></g><path
           id="path28"
           style="fill:#373535;fill-opacity:1;fill-rule:nonzero;stroke:none"
           d="m 81.722,60.001 h 2.775 v -2.64 h -2.775 z m 4.923,-20.024 h -6.991 v 0.792 h 0.763 c 1.086,0 1.361,0.434 1.361,1.605 v 8.159 c 0,1.334 -0.195,1.657 -1.663,1.657 h -0.381 v 0.709 c 1.687,0 3.266,0.083 4.762,0.247 V 42.374 c 0,-1.171 0.305,-1.605 1.388,-1.605 h 0.761 z" /><g
           transform="translate(88.1717,43.6221)"
           id="g30"><path
             id="path32"
             style="fill:#373535;fill-opacity:1;fill-rule:nonzero;stroke:none"
             d="m 0,0 0.734,0.081 c 0.515,-2.118 2.041,-3.313 4.082,-3.313 1.797,0 2.882,0.844 2.882,2.145 0,1.466 -1.145,2.039 -3.105,2.97 -2.794,1.3 -4.406,2.144 -4.406,4.242 0,2.283 1.743,3.861 4.604,3.861 1.111,0 2.439,-0.379 3.993,-0.379 H 8.947 L 9.165,6.285 8.459,6.202 C 8.21,8.106 7.044,9.168 5.083,9.168 3.376,9.168 2.391,8.408 2.391,7.18 c 0,-1.409 1.255,-1.869 3.376,-2.848 2.692,-1.259 4.236,-2.262 4.236,-4.44 0,-2.258 -1.974,-3.972 -4.974,-3.972 -1.903,0 -3.424,0.9 -4.899,0.9 z" /></g><g
           transform="translate(99.3238,52.0588)"
           id="g34"><path
             id="path36"
             style="fill:#373535;fill-opacity:1;fill-rule:nonzero;stroke:none"
             d="m 0,0 v 1.087 h 2.395 v 3.454 l 2.718,0.736 v -4.19 h 3.86 V 0 h -3.86 v -8.733 c 0,-1.688 0.274,-2.501 1.365,-2.501 0.651,0 1.522,0.431 2.495,1.388 v -1.009 c -1.053,-1.118 -2.334,-1.658 -3.721,-1.658 -2.231,0 -2.857,1.194 -2.857,3.697 l 0,8.816 z" /></g><g
           transform="translate(115.6419,40.7687)"
           id="g38"><path
             id="path40"
             style="fill:#373535;fill-opacity:1;fill-rule:nonzero;stroke:none"
             d="M 0,0 H 0.772 V -0.791 H -6.225 V 0 h 0.764 c 1.086,0 1.36,0.435 1.36,1.605 v 8.159 c 0,1.279 -0.19,1.657 -1.526,1.657 h -0.299 v 0.709 h 0.519 c 1.221,0 2.419,0.083 3.647,0.248 l 0.377,-1.793 c 1.415,1.497 2.582,2.254 3.618,2.254 1.632,0 2.7,-1.329 2.7,-3.618 h -2.32 c -0.081,1.443 -0.431,2.096 -1.327,2.096 -0.604,0 -1.526,-0.681 -2.671,-2.096 V 1.605 C -1.383,0.435 -1.081,0 0,0" /></g><g
           transform="translate(123.8894,46.5562)"
           id="g42"><path
             id="path44"
             style="fill:#373535;fill-opacity:1;fill-rule:nonzero;stroke:none"
             d="m 0,0 c 0,-4.053 1.365,-6.196 3.567,-6.196 2.199,0 3.559,2.143 3.559,6.196 0,4.056 -1.36,6.207 -3.559,6.207 C 1.365,6.207 0,4.056 0,0 m 10.042,0 c 0,-4.271 -2.696,-7.01 -6.475,-7.01 -3.781,0 -6.474,2.739 -6.474,7.01 0,4.276 2.693,7.027 6.474,7.026 3.779,0 6.475,-2.75 6.475,-7.026" /></g><g
           transform="translate(36.8848,111.5913)"
           id="g46"><path
             id="path48"
             style="fill:#373535;fill-opacity:1;fill-rule:nonzero;stroke:none"
             d="m 0,0 h 1.523 c 2.04,0 2.655,0.741 2.655,2.82 l 0.001,19.548 c 0,2.193 -0.269,2.815 -2.539,2.815 H 0 v 1.253 l 12.514,-0.001 v -1.252 h -1.645 c -2.266,0 -2.541,-0.622 -2.541,-2.815 v -8.055 h 13.14 v 8.054 c 0,2.194 -0.278,2.816 -2.54,2.816 h -1.61 v 1.252 h 12.48 v -1.252 h -1.649 c -2.262,0 -2.531,-0.622 -2.531,-2.816 V 2.82 C 25.618,0.627 25.887,0 28.149,0 h 1.649 V -1.247 H 17.318 V 0 h 1.293 c 2.27,0 2.857,0.592 2.857,2.82 V 12.86 H 8.328 V 2.82 C 8.328,0.627 8.603,0 10.869,0 h 1.645 V -1.247 H 0 Z" /></g><g
           transform="translate(72.9009,119.8034)"
           id="g50"><path
             id="path52"
             style="fill:#373535;fill-opacity:1;fill-rule:nonzero;stroke:none"
             d="m 0,0 c 0,-5.823 1.953,-8.917 5.119,-8.917 3.171,0 5.129,3.094 5.129,8.917 0,5.829 -1.958,8.915 -5.129,8.915 C 1.954,8.915 0,5.829 0,0 m 14.432,0 c -0.001,-6.136 -3.875,-10.085 -9.313,-10.085 -5.432,0 -9.302,3.949 -9.302,10.085 0,6.141 3.87,10.089 9.302,10.089 5.438,0 9.313,-3.949 9.313,-10.089" /></g><g
           transform="translate(88.8197,127.7023)"
           id="g54"><path
             id="path56"
             style="fill:#373535;fill-opacity:1;fill-rule:nonzero;stroke:none"
             d="M 0,0 V 1.56 H 3.44 V 6.527 L 7.35,7.585 V 1.56 h 5.549 V 0 H 7.35 v -12.549 c 0,-2.427 0.392,-3.596 1.958,-3.596 0.94,0 2.186,0.623 3.591,1.992 v -1.454 c -1.516,-1.6 -3.358,-2.377 -5.351,-2.377 -3.208,0 -4.108,1.721 -4.108,5.315 L 3.44,0 Z" /></g><g
           transform="translate(117.2075,121.996)"
           id="g58"><path
             id="path60"
             style="fill:#373535;fill-opacity:1;fill-rule:nonzero;stroke:none"
             d="M 0,0 V 0.386 C 0,4.413 -1.796,6.722 -4.339,6.722 -7.154,6.722 -9.028,4.34 -9.185,0 Z m -9.306,-1.253 c -0.04,-0.435 -0.081,-0.858 -0.081,-1.215 0,-5.388 2.469,-8.323 6.339,-8.323 2.188,0 4.577,1.092 7.47,3.084 v -1.837 c -2.656,-1.838 -5.439,-2.734 -8.015,-2.734 -2.622,0 -4.966,0.896 -6.726,2.613 -2.029,1.996 -3.132,4.735 -3.132,7.825 0,5.827 3.871,9.733 9.354,9.733 4.568,0 7.89,-3.437 8.242,-9.146 z" /></g><g
           transform="translate(130.6239,113.7836)"
           id="g62"><path
             id="path64"
             style="fill:#373535;fill-opacity:1;fill-rule:nonzero;stroke:none"
             d="m 0,0 c 0,-1.688 0.392,-2.31 1.959,-2.31 h 1.092 v -1.13 h -9.89 v 1.13 h 1.09 c 1.572,0 1.952,0.622 1.952,2.31 v 21.581 c 0,1.839 -0.266,2.387 -2.187,2.387 h -0.427 v 1.013 h 0.783 c 1.796,0 3.716,0.123 5.628,0.357 z" /></g><g
           transform="translate(38.4463,90.6023)"
           id="g66"><path
             id="path68"
             style="fill:#373535;fill-opacity:1;fill-rule:nonzero;stroke:none"
             d="m 0,0 c -3.001,0 -4.993,-3.17 -4.993,-9.049 0,-6.341 2.196,-9.851 5.497,-9.851 2.541,0 4.402,1.986 4.402,5.413 L 4.907,-3.043 C 3.254,-1.017 1.813,0 0,0 m 4.907,7.189 c 0,2.114 -0.302,2.58 -2.663,2.58 h -1.06 v 1.097 H 2.2 c 2.324,0 4.606,0.13 6.89,0.378 v -27.446 c 0,-2.016 0.334,-2.617 2.584,-2.617 h 0.506 v -1.056 c -0.73,0.046 -1.399,0.046 -2.071,0.046 -1.606,0 -3.171,-0.085 -4.614,-0.337 l -0.589,2.408 c -1.604,-1.865 -3.346,-2.792 -5.329,-2.792 -5.246,0 -9.053,4.567 -9.053,11.166 0,2.918 0.808,5.41 2.456,7.48 1.604,2.036 3.975,3.169 6.341,3.169 2.158,0 3.849,-0.756 5.586,-2.408 z" /></g><g
           transform="translate(67.0701,87.1358)"
           id="g70"><path
             id="path72"
             style="fill:#373535;fill-opacity:1;fill-rule:nonzero;stroke:none"
             d="m 0,0 c 0,2.028 -0.258,2.575 -2.547,2.575 v 1.1 c 2.289,0.044 4.529,0.175 6.773,0.379 v -16.79 c 0,-1.982 0.253,-2.612 2.493,-2.612 v -1.061 c -0.548,0.047 -1.101,0.047 -1.644,0.047 -1.565,0 -3.011,-0.127 -4.446,-0.338 L 0,-13.322 c -2.415,-2.582 -4.743,-3.807 -7.7,-3.807 -4.095,0 -5.493,2.121 -5.493,6.644 V 0 c 0,2.028 -0.3,2.575 -2.582,2.575 v 1.1 c 2.282,0.044 4.571,0.175 6.805,0.379 V -9.769 c 0,-3.765 0.514,-5.496 3.006,-5.496 1.688,0 3.888,1.309 5.964,3.931 z" /></g><g
           transform="translate(130.5029,89.9225)"
           id="g74"><path
             id="path76"
             style="fill:#373535;fill-opacity:1;fill-rule:nonzero;stroke:none"
             d="m 0,0 c -2.025,0 -4.052,-1.226 -5.578,-3.51 v -11.964 c 0,-1.818 0.465,-2.496 2.155,-2.496 h 1.185 v -1.226 h -10.865 v 1.226 h 1.178 c 1.69,0 2.116,0.678 2.116,2.496 v 12.683 c 0,1.992 -0.297,2.579 -2.368,2.579 h -0.464 v 1.1 h 0.804 c 1.903,0 3.761,0.128 5.668,0.378 l 0.591,-2.616 c 2.195,2.2 4.478,3.294 7.061,3.294 3.976,0 6.257,-2.323 6.257,-6.211 v -11.207 c 0,-1.818 0.462,-2.496 2.159,-2.496 h 1.178 v -1.226 H 0.213 v 1.226 h 1.145 c 1.687,0 2.155,0.678 2.155,2.496 V -4.095 C 3.513,-1.351 2.372,0 0,0" /></g><g
           transform="translate(116.3651,71.9529)"
           id="g78"><path
             id="path80"
             style="fill:#373535;fill-opacity:1;fill-rule:nonzero;stroke:none"
             d="m 0,0 c -1.693,0 -2.161,0.678 -2.161,2.496 v 16.74 C -4.48,18.985 -6.934,18.857 -9.556,18.857 v -1.099 h 0.587 c 2.287,0 2.583,-0.505 2.583,-2.576 V 2.496 C -6.386,0.678 -6.81,0 -8.503,0 H -9.688 V -1.226 H 1.178 l 0,1.226 z" /></g><g
           transform="translate(100.0041,100.6628)"
           id="g82"><path
             id="path84"
             style="fill:#373535;fill-opacity:1;fill-rule:nonzero;stroke:none"
             d="m 0,0 v -1.353 h 1.774 c 1.866,0 2.758,-0.165 2.758,-1.352 0,-0.34 -0.128,-1.013 -0.512,-1.896 l -8.414,-20.976 -8.879,21.141 c -0.383,0.93 -0.594,1.565 -0.594,1.905 0,1.051 0.804,1.178 2.49,1.178 h 1.398 V 0 h -12.518 v -1.353 h 0.805 c 1.948,0 2.661,-0.722 3.428,-2.493 l 11.291,-26.765 h 2.152 l 10.239,26.01 c 0.491,1.237 0.829,2.057 1.334,2.56 0.018,0.018 0.036,0.031 0.059,0.049 0.628,0.582 1.521,0.565 2.221,0.099 0.551,-0.366 0.851,-1.152 0.851,-2.07 V -4.146 H 14.2 L 14.2,0 Z" /></g><g
           transform="translate(8e-4,175.6548)"
           id="g86"><path
             id="path88"
             style="fill:#373535;fill-opacity:1;fill-rule:nonzero;stroke:none"
             d="m 0,0 -0.001,-175.653 175.655,-0.002 0.001,175.653 z M 5.788,-5.788 169.866,-5.79 v -164.076 l -164.078,0.001 z" /></g></g></g><g
       id="g90"><g
         clip-path="url(#clipPath96)"
         id="g92"><g
           transform="translate(46.0122,56.3314)"
           id="g98"><path
             id="path100"
             style="fill:#ffffff;fill-opacity:1;fill-rule:nonzero;stroke:none"
             d="m 0,0 c 0,1.356 -0.764,2.339 -1.657,2.339 -0.79,0 -1.361,-0.656 -1.361,-1.799 0,-1.115 0.322,-2.502 1.084,-3.941 C -0.733,-2.723 0,-1.445 0,0 m -6.525,-9.85 c 0,-2.72 2.172,-5.085 4.653,-5.085 0.998,0 1.9,0.35 2.661,1.031 -2.258,3.1 -3.836,5.736 -4.923,7.915 -1.605,-1.008 -2.391,-2.2 -2.391,-3.861 m 9.301,4.351 H 9.358 V -6.394 C 7.675,-6.477 7.265,-6.83 6.665,-7.89 5.766,-9.468 4.946,-11.159 3.777,-12.65 c 1.169,-1.467 2.178,-2.178 2.914,-2.178 0.709,0 1.279,0.622 1.987,1.823 L 9.657,-13.44 C 8.843,-15.614 7.4,-16.788 5.63,-16.788 c -1.331,0 -2.724,0.656 -3.972,1.96 -1.63,-1.277 -3.212,-1.903 -4.922,-1.903 -1.632,0 -3.128,0.543 -4.242,1.603 -1.225,1.141 -1.878,2.668 -1.878,4.163 0,2.418 1.603,4.406 4.784,6.119 -0.674,1.636 -1.057,2.961 -1.057,4.024 0,2.48 1.796,4.162 4.322,4.162 2.37,0 3.702,-1.165 3.702,-3.264 0,-1.928 -1.222,-3.425 -3.727,-4.539 0.627,-1.496 2.045,-3.945 4.38,-7.205 1.657,2.339 2.284,3.964 2.284,4.4 0,0.684 -0.819,0.822 -2.528,0.875 z" /></g><g
           transform="translate(67.1897,40.9857)"
           id="g102"><path
             id="path104"
             style="fill:#ffffff;fill-opacity:1;fill-rule:nonzero;stroke:none"
             d="m 0,0 h 3.024 c 3.292,0 4.813,1.358 4.813,4.464 0,3.044 -1.304,4.131 -4.239,4.131 H 0 Z m 2.449,9.605 c 2.744,0 3.945,1.082 3.945,3.64 0,3.023 -1.009,4.005 -3.641,4.005 H 0 V 9.605 Z m -8.241,-9.744 h 1.061 c 1.414,0 1.852,0.517 1.852,1.96 l 10e-4,13.601 c 0,1.527 -0.192,1.96 -1.767,1.96 h -1.147 v 0.876 h 9.334 c 3.913,0 5.896,-1.498 5.896,-4.419 0,-2.221 -1.112,-3.555 -3.532,-4.322 3.345,-1.109 5.008,-2.826 5.008,-5.354 0,-3.292 -2.723,-5.171 -7.921,-5.171 h -8.785 z" /></g><path
           id="path106"
           style="fill:#ffffff;fill-opacity:1;fill-rule:nonzero;stroke:none"
           d="m 81.722,60.001 h 2.775 v -2.64 h -2.775 z m 4.923,-20.024 h -6.991 v 0.792 h 0.763 c 1.086,0 1.361,0.434 1.361,1.605 v 8.159 c 0,1.334 -0.195,1.657 -1.663,1.657 h -0.381 v 0.709 c 1.687,0 3.266,0.083 4.762,0.247 V 42.374 c 0,-1.171 0.305,-1.605 1.388,-1.605 h 0.761 z" /><g
           transform="translate(88.1717,43.6221)"
           id="g108"><path
             id="path110"
             style="fill:#ffffff;fill-opacity:1;fill-rule:nonzero;stroke:none"
             d="m 0,0 0.734,0.081 c 0.515,-2.118 2.041,-3.313 4.082,-3.313 1.797,0 2.882,0.844 2.882,2.145 0,1.466 -1.145,2.039 -3.105,2.97 -2.794,1.3 -4.406,2.144 -4.406,4.242 0,2.283 1.743,3.861 4.604,3.861 1.111,0 2.439,-0.379 3.993,-0.379 H 8.947 L 9.165,6.285 8.459,6.202 C 8.21,8.106 7.044,9.168 5.083,9.168 3.376,9.168 2.391,8.408 2.391,7.18 c 0,-1.409 1.255,-1.869 3.376,-2.848 2.692,-1.259 4.236,-2.262 4.236,-4.44 0,-2.258 -1.974,-3.972 -4.974,-3.972 -1.903,0 -3.424,0.9 -4.899,0.9 z" /></g><g
           transform="translate(99.3238,52.0588)"
           id="g112"><path
             id="path114"
             style="fill:#ffffff;fill-opacity:1;fill-rule:nonzero;stroke:none"
             d="m 0,0 v 1.087 h 2.395 v 3.454 l 2.718,0.736 v -4.19 h 3.86 V 0 h -3.86 v -8.733 c 0,-1.688 0.274,-2.501 1.365,-2.501 0.651,0 1.522,0.431 2.495,1.388 v -1.009 c -1.053,-1.118 -2.334,-1.658 -3.721,-1.658 -2.231,0 -2.857,1.194 -2.857,3.697 l 0,8.816 z" /></g><g
           transform="translate(115.6419,40.7687)"
           id="g116"><path
             id="path118"
             style="fill:#ffffff;fill-opacity:1;fill-rule:nonzero;stroke:none"
             d="M 0,0 H 0.772 V -0.791 H -6.225 V 0 h 0.764 c 1.086,0 1.36,0.435 1.36,1.605 v 8.159 c 0,1.279 -0.19,1.657 -1.526,1.657 h -0.299 v 0.709 h 0.519 c 1.221,0 2.419,0.083 3.647,0.248 l 0.377,-1.793 c 1.415,1.497 2.582,2.254 3.618,2.254 1.632,0 2.7,-1.329 2.7,-3.618 h -2.32 c -0.081,1.443 -0.431,2.096 -1.327,2.096 -0.604,0 -1.526,-0.681 -2.671,-2.096 V 1.605 C -1.383,0.435 -1.081,0 0,0" /></g><g
           transform="translate(123.8894,46.5562)"
           id="g120"><path
             id="path122"
             style="fill:#ffffff;fill-opacity:1;fill-rule:nonzero;stroke:none"
             d="m 0,0 c 0,-4.053 1.365,-6.196 3.567,-6.196 2.199,0 3.559,2.143 3.559,6.196 0,4.056 -1.36,6.207 -3.559,6.207 C 1.365,6.207 0,4.056 0,0 m 10.042,0 c 0,-4.271 -2.696,-7.01 -6.475,-7.01 -3.781,0 -6.474,2.739 -6.474,7.01 0,4.276 2.693,7.027 6.474,7.026 3.779,0 6.475,-2.75 6.475,-7.026" /></g><g
           transform="translate(36.8848,111.5913)"
           id="g124"><path
             id="path126"
             style="fill:#ffffff;fill-opacity:1;fill-rule:nonzero;stroke:none"
             d="m 0,0 h 1.523 c 2.04,0 2.655,0.741 2.655,2.82 l 0.001,19.548 c 0,2.193 -0.269,2.815 -2.539,2.815 H 0 v 1.253 l 12.514,-0.001 v -1.252 h -1.645 c -2.266,0 -2.541,-0.622 -2.541,-2.815 v -8.055 h 13.14 v 8.054 c 0,2.194 -0.278,2.816 -2.54,2.816 h -1.61 v 1.252 h 12.48 v -1.252 h -1.649 c -2.262,0 -2.531,-0.622 -2.531,-2.816 V 2.82 C 25.618,0.627 25.887,0 28.149,0 h 1.649 V -1.247 H 17.318 V 0 h 1.293 c 2.27,0 2.857,0.592 2.857,2.82 V 12.86 H 8.328 V 2.82 C 8.328,0.627 8.603,0 10.869,0 h 1.645 V -1.247 H 0 Z" /></g><g
           transform="translate(72.9009,119.8034)"
           id="g128"><path
             id="path130"
             style="fill:#ffffff;fill-opacity:1;fill-rule:nonzero;stroke:none"
             d="m 0,0 c 0,-5.823 1.953,-8.917 5.119,-8.917 3.171,0 5.129,3.094 5.129,8.917 0,5.829 -1.958,8.915 -5.129,8.915 C 1.954,8.915 0,5.829 0,0 m 14.432,0 c -0.001,-6.136 -3.875,-10.085 -9.313,-10.085 -5.432,0 -9.302,3.949 -9.302,10.085 0,6.141 3.87,10.089 9.302,10.089 5.438,0 9.313,-3.949 9.313,-10.089" /></g><g
           transform="translate(88.8197,127.7023)"
           id="g132"><path
             id="path134"
             style="fill:#ffffff;fill-opacity:1;fill-rule:nonzero;stroke:none"
             d="M 0,0 V 1.56 H 3.44 V 6.527 L 7.35,7.585 V 1.56 h 5.549 V 0 H 7.35 v -12.549 c 0,-2.427 0.392,-3.596 1.958,-3.596 0.94,0 2.186,0.623 3.591,1.992 v -1.454 c -1.516,-1.6 -3.358,-2.377 -5.351,-2.377 -3.208,0 -4.108,1.721 -4.108,5.315 L 3.44,0 Z" /></g><g
           transform="translate(117.2075,121.996)"
           id="g136"><path
             id="path138"
             style="fill:#ffffff;fill-opacity:1;fill-rule:nonzero;stroke:none"
             d="M 0,0 V 0.386 C 0,4.413 -1.796,6.722 -4.339,6.722 -7.154,6.722 -9.028,4.34 -9.185,0 Z m -9.306,-1.253 c -0.04,-0.435 -0.081,-0.858 -0.081,-1.215 0,-5.388 2.469,-8.323 6.339,-8.323 2.188,0 4.577,1.092 7.47,3.084 v -1.837 c -2.656,-1.838 -5.439,-2.734 -8.015,-2.734 -2.622,0 -4.966,0.896 -6.726,2.613 -2.029,1.996 -3.132,4.735 -3.132,7.825 0,5.827 3.871,9.733 9.354,9.733 4.568,0 7.89,-3.437 8.242,-9.146 z" /></g><g
           transform="translate(130.6239,113.7836)"
           id="g140"><path
             id="path142"
             style="fill:#ffffff;fill-opacity:1;fill-rule:nonzero;stroke:none"
             d="m 0,0 c 0,-1.688 0.392,-2.31 1.959,-2.31 h 1.092 v -1.13 h -9.89 v 1.13 h 1.09 c 1.572,0 1.952,0.622 1.952,2.31 v 21.581 c 0,1.839 -0.266,2.387 -2.187,2.387 h -0.427 v 1.013 h 0.783 c 1.796,0 3.716,0.123 5.628,0.357 z" /></g><g
           transform="translate(38.4463,90.6023)"
           id="g144"><path
             id="path146"
             style="fill:#ffffff;fill-opacity:1;fill-rule:nonzero;stroke:none"
             d="m 0,0 c -3.001,0 -4.993,-3.17 -4.993,-9.049 0,-6.341 2.196,-9.851 5.497,-9.851 2.541,0 4.402,1.986 4.402,5.413 L 4.907,-3.043 C 3.254,-1.017 1.813,0 0,0 m 4.907,7.189 c 0,2.114 -0.302,2.58 -2.663,2.58 h -1.06 v 1.097 H 2.2 c 2.324,0 4.606,0.13 6.89,0.378 v -27.446 c 0,-2.016 0.334,-2.617 2.584,-2.617 h 0.506 v -1.056 c -0.73,0.046 -1.399,0.046 -2.071,0.046 -1.606,0 -3.171,-0.085 -4.614,-0.337 l -0.589,2.408 c -1.604,-1.865 -3.346,-2.792 -5.329,-2.792 -5.246,0 -9.053,4.567 -9.053,11.166 0,2.918 0.808,5.41 2.456,7.48 1.604,2.036 3.975,3.169 6.341,3.169 2.158,0 3.849,-0.756 5.586,-2.408 z" /></g><g
           transform="translate(67.0701,87.1358)"
           id="g148"><path
             id="path150"
             style="fill:#ffffff;fill-opacity:1;fill-rule:nonzero;stroke:none"
             d="m 0,0 c 0,2.028 -0.258,2.575 -2.547,2.575 v 1.1 c 2.289,0.044 4.529,0.175 6.773,0.379 v -16.79 c 0,-1.982 0.253,-2.612 2.493,-2.612 v -1.061 c -0.548,0.047 -1.101,0.047 -1.644,0.047 -1.565,0 -3.011,-0.127 -4.446,-0.338 L 0,-13.322 c -2.415,-2.582 -4.743,-3.807 -7.7,-3.807 -4.095,0 -5.493,2.121 -5.493,6.644 V 0 c 0,2.028 -0.3,2.575 -2.582,2.575 v 1.1 c 2.282,0.044 4.571,0.175 6.805,0.379 V -9.769 c 0,-3.765 0.514,-5.496 3.006,-5.496 1.688,0 3.888,1.309 5.964,3.931 z" /></g><g
           transform="translate(130.5029,89.9225)"
           id="g152"><path
             id="path154"
             style="fill:#ffffff;fill-opacity:1;fill-rule:nonzero;stroke:none"
             d="m 0,0 c -2.025,0 -4.052,-1.226 -5.578,-3.51 v -11.964 c 0,-1.818 0.465,-2.496 2.155,-2.496 h 1.185 v -1.226 h -10.865 v 1.226 h 1.178 c 1.69,0 2.116,0.678 2.116,2.496 v 12.683 c 0,1.992 -0.297,2.579 -2.368,2.579 h -0.464 v 1.1 h 0.804 c 1.903,0 3.761,0.128 5.668,0.378 l 0.591,-2.616 c 2.195,2.2 4.478,3.294 7.061,3.294 3.976,0 6.257,-2.323 6.257,-6.211 v -11.207 c 0,-1.818 0.462,-2.496 2.159,-2.496 h 1.178 v -1.226 H 0.213 v 1.226 h 1.145 c 1.687,0 2.155,0.678 2.155,2.496 V -4.095 C 3.513,-1.351 2.372,0 0,0" /></g><g
           transform="translate(116.3651,71.9529)"
           id="g156"><path
             id="path158"
             style="fill:#ffffff;fill-opacity:1;fill-rule:nonzero;stroke:none"
             d="m 0,0 c -1.693,0 -2.161,0.678 -2.161,2.496 v 16.74 C -4.48,18.985 -6.934,18.857 -9.556,18.857 v -1.099 h 0.587 c 2.287,0 2.583,-0.505 2.583,-2.576 V 2.496 C -6.386,0.678 -6.81,0 -8.503,0 H -9.688 V -1.226 H 1.178 l 0,1.226 z" /></g><g
           transform="translate(100.0041,100.6628)"
           id="g160"><path
             id="path162"
             style="fill:#ffffff;fill-opacity:1;fill-rule:nonzero;stroke:none"
             d="m 0,0 v -1.353 h 1.774 c 1.866,0 2.758,-0.165 2.758,-1.352 0,-0.34 -0.128,-1.013 -0.512,-1.896 l -8.414,-20.976 -8.879,21.141 c -0.383,0.93 -0.594,1.565 -0.594,1.905 0,1.051 0.804,1.178 2.49,1.178 h 1.398 V 0 h -12.518 v -1.353 h 0.805 c 1.948,0 2.661,-0.722 3.428,-2.493 l 11.291,-26.765 h 2.152 l 10.239,26.01 c 0.491,1.237 0.829,2.057 1.334,2.56 0.018,0.018 0.036,0.031 0.059,0.049 0.628,0.582 1.521,0.565 2.221,0.099 0.551,-0.366 0.851,-1.152 0.851,-2.07 V -4.146 H 14.2 L 14.2,0 Z" /></g><g
           transform="translate(8e-4,175.6548)"
           id="g164"><path
             id="path166"
             style="fill:#ffffff;fill-opacity:1;fill-rule:nonzero;stroke:none"
             d="m 0,0 -0.001,-175.653 175.655,-0.002 0.001,175.653 z M 5.788,-5.788 169.866,-5.79 v -164.076 l -164.078,0.001 z" /></g></g></g><g
       id="g168"><g
         clip-path="url(#clipPath174)"
         id="g170"><g
           transform="translate(46.0122,56.3314)"
           id="g176"><path
             id="path178"
             style="fill:#00b1ff;fill-opacity:1;fill-rule:nonzero;stroke:none"
             d="m 0,0 c 0,1.356 -0.764,2.339 -1.657,2.339 -0.79,0 -1.361,-0.656 -1.361,-1.799 0,-1.115 0.322,-2.502 1.084,-3.941 C -0.733,-2.723 0,-1.445 0,0 m -6.525,-9.85 c 0,-2.72 2.172,-5.085 4.653,-5.085 0.998,0 1.9,0.35 2.661,1.031 -2.258,3.1 -3.836,5.736 -4.923,7.915 -1.605,-1.008 -2.391,-2.2 -2.391,-3.861 m 9.301,4.351 H 9.358 V -6.394 C 7.675,-6.477 7.265,-6.83 6.665,-7.89 5.766,-9.468 4.946,-11.159 3.777,-12.65 c 1.169,-1.467 2.178,-2.178 2.914,-2.178 0.709,0 1.279,0.622 1.987,1.823 L 9.657,-13.44 C 8.843,-15.614 7.4,-16.788 5.63,-16.788 c -1.331,0 -2.724,0.656 -3.972,1.96 -1.63,-1.277 -3.212,-1.903 -4.922,-1.903 -1.632,0 -3.128,0.543 -4.242,1.603 -1.225,1.141 -1.878,2.668 -1.878,4.163 0,2.418 1.603,4.406 4.784,6.119 -0.674,1.636 -1.057,2.961 -1.057,4.024 0,2.48 1.796,4.162 4.322,4.162 2.37,0 3.702,-1.165 3.702,-3.264 0,-1.928 -1.222,-3.425 -3.727,-4.539 0.627,-1.496 2.045,-3.945 4.38,-7.205 1.657,2.339 2.284,3.964 2.284,4.4 0,0.684 -0.819,0.822 -2.528,0.875 z" /></g><g
           transform="translate(67.1897,40.9857)"
           id="g180"><path
             id="path182"
             style="fill:#00b1ff;fill-opacity:1;fill-rule:nonzero;stroke:none"
             d="m 0,0 h 3.024 c 3.292,0 4.813,1.358 4.813,4.464 0,3.044 -1.304,4.131 -4.239,4.131 H 0 Z m 2.449,9.605 c 2.744,0 3.945,1.082 3.945,3.64 0,3.023 -1.009,4.005 -3.641,4.005 H 0 V 9.605 Z m -8.241,-9.744 h 1.061 c 1.414,0 1.852,0.517 1.852,1.96 l 10e-4,13.601 c 0,1.527 -0.192,1.96 -1.767,1.96 h -1.147 v 0.876 h 9.334 c 3.913,0 5.896,-1.498 5.896,-4.419 0,-2.221 -1.112,-3.555 -3.532,-4.322 3.345,-1.109 5.008,-2.826 5.008,-5.354 0,-3.292 -2.723,-5.171 -7.921,-5.171 h -8.785 z" /></g><path
           id="path184"
           style="fill:#00b1ff;fill-opacity:1;fill-rule:nonzero;stroke:none"
           d="m 81.722,60.001 h 2.775 v -2.64 h -2.775 z m 4.923,-20.024 h -6.991 v 0.792 h 0.763 c 1.086,0 1.361,0.434 1.361,1.605 v 8.159 c 0,1.334 -0.195,1.657 -1.663,1.657 h -0.381 v 0.709 c 1.687,0 3.266,0.083 4.762,0.247 V 42.374 c 0,-1.171 0.305,-1.605 1.388,-1.605 h 0.761 z" /><g
           transform="translate(88.1717,43.6221)"
           id="g186"><path
             id="path188"
             style="fill:#00b1ff;fill-opacity:1;fill-rule:nonzero;stroke:none"
             d="m 0,0 0.734,0.081 c 0.515,-2.118 2.041,-3.313 4.082,-3.313 1.797,0 2.882,0.844 2.882,2.145 0,1.466 -1.145,2.039 -3.105,2.97 -2.794,1.3 -4.406,2.144 -4.406,4.242 0,2.283 1.743,3.861 4.604,3.861 1.111,0 2.439,-0.379 3.993,-0.379 H 8.947 L 9.165,6.285 8.459,6.202 C 8.21,8.106 7.044,9.168 5.083,9.168 3.376,9.168 2.391,8.408 2.391,7.18 c 0,-1.409 1.255,-1.869 3.376,-2.848 2.692,-1.259 4.236,-2.262 4.236,-4.44 0,-2.258 -1.974,-3.972 -4.974,-3.972 -1.903,0 -3.424,0.9 -4.899,0.9 z" /></g><g
           transform="translate(99.3238,52.0588)"
           id="g190"><path
             id="path192"
             style="fill:#00b1ff;fill-opacity:1;fill-rule:nonzero;stroke:none"
             d="m 0,0 v 1.087 h 2.395 v 3.454 l 2.718,0.736 v -4.19 h 3.86 V 0 h -3.86 v -8.733 c 0,-1.688 0.274,-2.501 1.365,-2.501 0.651,0 1.522,0.431 2.495,1.388 v -1.009 c -1.053,-1.118 -2.334,-1.658 -3.721,-1.658 -2.231,0 -2.857,1.194 -2.857,3.697 l 0,8.816 z" /></g><g
           transform="translate(115.6419,40.7687)"
           id="g194"><path
             id="path196"
             style="fill:#00b1ff;fill-opacity:1;fill-rule:nonzero;stroke:none"
             d="M 0,0 H 0.772 V -0.791 H -6.225 V 0 h 0.764 c 1.086,0 1.36,0.435 1.36,1.605 v 8.159 c 0,1.279 -0.19,1.657 -1.526,1.657 h -0.299 v 0.709 h 0.519 c 1.221,0 2.419,0.083 3.647,0.248 l 0.377,-1.793 c 1.415,1.497 2.582,2.254 3.618,2.254 1.632,0 2.7,-1.329 2.7,-3.618 h -2.32 c -0.081,1.443 -0.431,2.096 -1.327,2.096 -0.604,0 -1.526,-0.681 -2.671,-2.096 V 1.605 C -1.383,0.435 -1.081,0 0,0" /></g><g
           transform="translate(123.8894,46.5562)"
           id="g198"><path
             id="path200"
             style="fill:#00b1ff;fill-opacity:1;fill-rule:nonzero;stroke:none"
             d="m 0,0 c 0,-4.053 1.365,-6.196 3.567,-6.196 2.199,0 3.559,2.143 3.559,6.196 0,4.056 -1.36,6.207 -3.559,6.207 C 1.365,6.207 0,4.056 0,0 m 10.042,0 c 0,-4.271 -2.696,-7.01 -6.475,-7.01 -3.781,0 -6.474,2.739 -6.474,7.01 0,4.276 2.693,7.027 6.474,7.026 3.779,0 6.475,-2.75 6.475,-7.026" /></g><g
           transform="translate(36.8848,111.5913)"
           id="g202"><path
             id="path204"
             style="fill:#00b1ff;fill-opacity:1;fill-rule:nonzero;stroke:none"
             d="m 0,0 h 1.523 c 2.04,0 2.655,0.741 2.655,2.82 l 0.001,19.548 c 0,2.193 -0.269,2.815 -2.539,2.815 H 0 v 1.253 l 12.514,-0.001 v -1.252 h -1.645 c -2.266,0 -2.541,-0.622 -2.541,-2.815 v -8.055 h 13.14 v 8.054 c 0,2.194 -0.278,2.816 -2.54,2.816 h -1.61 v 1.252 h 12.48 v -1.252 h -1.649 c -2.262,0 -2.531,-0.622 -2.531,-2.816 V 2.82 C 25.618,0.627 25.887,0 28.149,0 h 1.649 V -1.247 H 17.318 V 0 h 1.293 c 2.27,0 2.857,0.592 2.857,2.82 V 12.86 H 8.328 V 2.82 C 8.328,0.627 8.603,0 10.869,0 h 1.645 V -1.247 H 0 Z" /></g><g
           transform="translate(72.9009,119.8034)"
           id="g206"><path
             id="path208"
             style="fill:#00b1ff;fill-opacity:1;fill-rule:nonzero;stroke:none"
             d="m 0,0 c 0,-5.823 1.953,-8.917 5.119,-8.917 3.171,0 5.129,3.094 5.129,8.917 0,5.829 -1.958,8.915 -5.129,8.915 C 1.954,8.915 0,5.829 0,0 m 14.432,0 c -0.001,-6.136 -3.875,-10.085 -9.313,-10.085 -5.432,0 -9.302,3.949 -9.302,10.085 0,6.141 3.87,10.089 9.302,10.089 5.438,0 9.313,-3.949 9.313,-10.089" /></g><g
           transform="translate(88.8197,127.7023)"
           id="g210"><path
             id="path212"
             style="fill:#00b1ff;fill-opacity:1;fill-rule:nonzero;stroke:none"
             d="M 0,0 V 1.56 H 3.44 V 6.527 L 7.35,7.585 V 1.56 h 5.549 V 0 H 7.35 v -12.549 c 0,-2.427 0.392,-3.596 1.958,-3.596 0.94,0 2.186,0.623 3.591,1.992 v -1.454 c -1.516,-1.6 -3.358,-2.377 -5.351,-2.377 -3.208,0 -4.108,1.721 -4.108,5.315 L 3.44,0 Z" /></g><g
           transform="translate(117.2075,121.996)"
           id="g214"><path
             id="path216"
             style="fill:#00b1ff;fill-opacity:1;fill-rule:nonzero;stroke:none"
             d="M 0,0 V 0.386 C 0,4.413 -1.796,6.722 -4.339,6.722 -7.154,6.722 -9.028,4.34 -9.185,0 Z m -9.306,-1.253 c -0.04,-0.435 -0.081,-0.858 -0.081,-1.215 0,-5.388 2.469,-8.323 6.339,-8.323 2.188,0 4.577,1.092 7.47,3.084 v -1.837 c -2.656,-1.838 -5.439,-2.734 -8.015,-2.734 -2.622,0 -4.966,0.896 -6.726,2.613 -2.029,1.996 -3.132,4.735 -3.132,7.825 0,5.827 3.871,9.733 9.354,9.733 4.568,0 7.89,-3.437 8.242,-9.146 z" /></g><g
           transform="translate(130.6239,113.7836)"
           id="g218"><path
             id="path220"
             style="fill:#00b1ff;fill-opacity:1;fill-rule:nonzero;stroke:none"
             d="m 0,0 c 0,-1.688 0.392,-2.31 1.959,-2.31 h 1.092 v -1.13 h -9.89 v 1.13 h 1.09 c 1.572,0 1.952,0.622 1.952,2.31 v 21.581 c 0,1.839 -0.266,2.387 -2.187,2.387 h -0.427 v 1.013 h 0.783 c 1.796,0 3.716,0.123 5.628,0.357 z" /></g><g
           transform="translate(38.4463,90.6023)"
           id="g222"><path
             id="path224"
             style="fill:#00b1ff;fill-opacity:1;fill-rule:nonzero;stroke:none"
             d="m 0,0 c -3.001,0 -4.993,-3.17 -4.993,-9.049 0,-6.341 2.196,-9.851 5.497,-9.851 2.541,0 4.402,1.986 4.402,5.413 L 4.907,-3.043 C 3.254,-1.017 1.813,0 0,0 m 4.907,7.189 c 0,2.114 -0.302,2.58 -2.663,2.58 h -1.06 v 1.097 H 2.2 c 2.324,0 4.606,0.13 6.89,0.378 v -27.446 c 0,-2.016 0.334,-2.617 2.584,-2.617 h 0.506 v -1.056 c -0.73,0.046 -1.399,0.046 -2.071,0.046 -1.606,0 -3.171,-0.085 -4.614,-0.337 l -0.589,2.408 c -1.604,-1.865 -3.346,-2.792 -5.329,-2.792 -5.246,0 -9.053,4.567 -9.053,11.166 0,2.918 0.808,5.41 2.456,7.48 1.604,2.036 3.975,3.169 6.341,3.169 2.158,0 3.849,-0.756 5.586,-2.408 z" /></g><g
           transform="translate(67.0701,87.1358)"
           id="g226"><path
             id="path228"
             style="fill:#00b1ff;fill-opacity:1;fill-rule:nonzero;stroke:none"
             d="m 0,0 c 0,2.028 -0.258,2.575 -2.547,2.575 v 1.1 c 2.289,0.044 4.529,0.175 6.773,0.379 v -16.79 c 0,-1.982 0.253,-2.612 2.493,-2.612 v -1.061 c -0.548,0.047 -1.101,0.047 -1.644,0.047 -1.565,0 -3.011,-0.127 -4.446,-0.338 L 0,-13.322 c -2.415,-2.582 -4.743,-3.807 -7.7,-3.807 -4.095,0 -5.493,2.121 -5.493,6.644 V 0 c 0,2.028 -0.3,2.575 -2.582,2.575 v 1.1 c 2.282,0.044 4.571,0.175 6.805,0.379 V -9.769 c 0,-3.765 0.514,-5.496 3.006,-5.496 1.688,0 3.888,1.309 5.964,3.931 z" /></g><g
           transform="translate(130.5029,89.9225)"
           id="g230"><path
             id="path232"
             style="fill:#00b1ff;fill-opacity:1;fill-rule:nonzero;stroke:none"
             d="m 0,0 c -2.025,0 -4.052,-1.226 -5.578,-3.51 v -11.964 c 0,-1.818 0.465,-2.496 2.155,-2.496 h 1.185 v -1.226 h -10.865 v 1.226 h 1.178 c 1.69,0 2.116,0.678 2.116,2.496 v 12.683 c 0,1.992 -0.297,2.579 -2.368,2.579 h -0.464 v 1.1 h 0.804 c 1.903,0 3.761,0.128 5.668,0.378 l 0.591,-2.616 c 2.195,2.2 4.478,3.294 7.061,3.294 3.976,0 6.257,-2.323 6.257,-6.211 v -11.207 c 0,-1.818 0.462,-2.496 2.159,-2.496 h 1.178 v -1.226 H 0.213 v 1.226 h 1.145 c 1.687,0 2.155,0.678 2.155,2.496 V -4.095 C 3.513,-1.351 2.372,0 0,0" /></g><g
           transform="translate(116.3651,71.9529)"
           id="g234"><path
             id="path236"
             style="fill:#00b1ff;fill-opacity:1;fill-rule:nonzero;stroke:none"
             d="m 0,0 c -1.693,0 -2.161,0.678 -2.161,2.496 v 16.74 C -4.48,18.985 -6.934,18.857 -9.556,18.857 v -1.099 h 0.587 c 2.287,0 2.583,-0.505 2.583,-2.576 V 2.496 C -6.386,0.678 -6.81,0 -8.503,0 H -9.688 V -1.226 H 1.178 l 0,1.226 z" /></g><g
           transform="translate(100.0041,100.6628)"
           id="g238"><path
             id="path240"
             style="fill:#00b1ff;fill-opacity:1;fill-rule:nonzero;stroke:none"
             d="m 0,0 v -1.353 h 1.774 c 1.866,0 2.758,-0.165 2.758,-1.352 0,-0.34 -0.128,-1.013 -0.512,-1.896 l -8.414,-20.976 -8.879,21.141 c -0.383,0.93 -0.594,1.565 -0.594,1.905 0,1.051 0.804,1.178 2.49,1.178 h 1.398 V 0 h -12.518 v -1.353 h 0.805 c 1.948,0 2.661,-0.722 3.428,-2.493 l 11.291,-26.765 h 2.152 l 10.239,26.01 c 0.491,1.237 0.829,2.057 1.334,2.56 0.018,0.018 0.036,0.031 0.059,0.049 0.628,0.582 1.521,0.565 2.221,0.099 0.551,-0.366 0.851,-1.152 0.851,-2.07 V -4.146 H 14.2 L 14.2,0 Z" /></g><g
           transform="translate(8e-4,175.6548)"
           id="g242"><path
             id="path244"
             style="fill:#00b1ff;fill-opacity:1;fill-rule:nonzero;stroke:none"
             d="m 0,0 -0.001,-175.653 175.655,-0.002 0.001,175.653 z M 5.788,-5.788 169.866,-5.79 v -164.076 l -164.078,0.001 z" /></g></g></g><g
       id="g246"><g
         clip-path="url(#clipPath252)"
         id="g248"><g
           transform="translate(46.0122,56.3314)"
           id="g254"><path
             id="path256"
             style="fill:#003ebf;fill-opacity:1;fill-rule:nonzero;stroke:none"
             d="m 0,0 c 0,1.356 -0.764,2.339 -1.657,2.339 -0.79,0 -1.361,-0.656 -1.361,-1.799 0,-1.115 0.322,-2.502 1.084,-3.941 C -0.733,-2.723 0,-1.445 0,0 m -6.525,-9.85 c 0,-2.72 2.172,-5.085 4.653,-5.085 0.998,0 1.9,0.35 2.661,1.031 -2.258,3.1 -3.836,5.736 -4.923,7.915 -1.605,-1.008 -2.391,-2.2 -2.391,-3.861 m 9.301,4.351 H 9.358 V -6.394 C 7.675,-6.477 7.265,-6.83 6.665,-7.89 5.766,-9.468 4.946,-11.159 3.777,-12.65 c 1.169,-1.467 2.178,-2.178 2.914,-2.178 0.709,0 1.279,0.622 1.987,1.823 L 9.657,-13.44 C 8.843,-15.614 7.4,-16.788 5.63,-16.788 c -1.331,0 -2.724,0.656 -3.972,1.96 -1.63,-1.277 -3.212,-1.903 -4.922,-1.903 -1.632,0 -3.128,0.543 -4.242,1.603 -1.225,1.141 -1.878,2.668 -1.878,4.163 0,2.418 1.603,4.406 4.784,6.119 -0.674,1.636 -1.057,2.961 -1.057,4.024 0,2.48 1.796,4.162 4.322,4.162 2.37,0 3.702,-1.165 3.702,-3.264 0,-1.928 -1.222,-3.425 -3.727,-4.539 0.627,-1.496 2.045,-3.945 4.38,-7.205 1.657,2.339 2.284,3.964 2.284,4.4 0,0.684 -0.819,0.822 -2.528,0.875 z" /></g><g
           transform="translate(67.1897,40.9857)"
           id="g258"><path
             id="path260"
             style="fill:#003ebf;fill-opacity:1;fill-rule:nonzero;stroke:none"
             d="m 0,0 h 3.024 c 3.292,0 4.813,1.358 4.813,4.464 0,3.044 -1.304,4.131 -4.239,4.131 H 0 Z m 2.449,9.605 c 2.744,0 3.945,1.082 3.945,3.64 0,3.023 -1.009,4.005 -3.641,4.005 H 0 V 9.605 Z m -8.241,-9.744 h 1.061 c 1.414,0 1.852,0.517 1.852,1.96 l 10e-4,13.601 c 0,1.527 -0.192,1.96 -1.767,1.96 h -1.147 v 0.876 h 9.334 c 3.913,0 5.896,-1.498 5.896,-4.419 0,-2.221 -1.112,-3.555 -3.532,-4.322 3.345,-1.109 5.008,-2.826 5.008,-5.354 0,-3.292 -2.723,-5.171 -7.921,-5.171 h -8.785 z" /></g><path
           id="path262"
           style="fill:#003ebf;fill-opacity:1;fill-rule:nonzero;stroke:none"
           d="m 81.722,60.001 h 2.775 v -2.64 h -2.775 z m 4.923,-20.024 h -6.991 v 0.792 h 0.763 c 1.086,0 1.361,0.434 1.361,1.605 v 8.159 c 0,1.334 -0.195,1.657 -1.663,1.657 h -0.381 v 0.709 c 1.687,0 3.266,0.083 4.762,0.247 V 42.374 c 0,-1.171 0.305,-1.605 1.388,-1.605 h 0.761 z" /><g
           transform="translate(88.1717,43.6221)"
           id="g264"><path
             id="path266"
             style="fill:#003ebf;fill-opacity:1;fill-rule:nonzero;stroke:none"
             d="m 0,0 0.734,0.081 c 0.515,-2.118 2.041,-3.313 4.082,-3.313 1.797,0 2.882,0.844 2.882,2.145 0,1.466 -1.145,2.039 -3.105,2.97 -2.794,1.3 -4.406,2.144 -4.406,4.242 0,2.283 1.743,3.861 4.604,3.861 1.111,0 2.439,-0.379 3.993,-0.379 H 8.947 L 9.165,6.285 8.459,6.202 C 8.21,8.106 7.044,9.168 5.083,9.168 3.376,9.168 2.391,8.408 2.391,7.18 c 0,-1.409 1.255,-1.869 3.376,-2.848 2.692,-1.259 4.236,-2.262 4.236,-4.44 0,-2.258 -1.974,-3.972 -4.974,-3.972 -1.903,0 -3.424,0.9 -4.899,0.9 z" /></g><g
           transform="translate(99.3238,52.0588)"
           id="g268"><path
             id="path270"
             style="fill:#003ebf;fill-opacity:1;fill-rule:nonzero;stroke:none"
             d="m 0,0 v 1.087 h 2.395 v 3.454 l 2.718,0.736 v -4.19 h 3.86 V 0 h -3.86 v -8.733 c 0,-1.688 0.274,-2.501 1.365,-2.501 0.651,0 1.522,0.431 2.495,1.388 v -1.009 c -1.053,-1.118 -2.334,-1.658 -3.721,-1.658 -2.231,0 -2.857,1.194 -2.857,3.697 l 0,8.816 z" /></g><g
           transform="translate(115.6419,40.7687)"
           id="g272"><path
             id="path274"
             style="fill:#003ebf;fill-opacity:1;fill-rule:nonzero;stroke:none"
             d="M 0,0 H 0.772 V -0.791 H -6.225 V 0 h 0.764 c 1.086,0 1.36,0.435 1.36,1.605 v 8.159 c 0,1.279 -0.19,1.657 -1.526,1.657 h -0.299 v 0.709 h 0.519 c 1.221,0 2.419,0.083 3.647,0.248 l 0.377,-1.793 c 1.415,1.497 2.582,2.254 3.618,2.254 1.632,0 2.7,-1.329 2.7,-3.618 h -2.32 c -0.081,1.443 -0.431,2.096 -1.327,2.096 -0.604,0 -1.526,-0.681 -2.671,-2.096 V 1.605 C -1.383,0.435 -1.081,0 0,0" /></g><g
           transform="translate(123.8894,46.5562)"
           id="g276"><path
             id="path278"
             style="fill:#003ebf;fill-opacity:1;fill-rule:nonzero;stroke:none"
             d="m 0,0 c 0,-4.053 1.365,-6.196 3.567,-6.196 2.199,0 3.559,2.143 3.559,6.196 0,4.056 -1.36,6.207 -3.559,6.207 C 1.365,6.207 0,4.056 0,0 m 10.042,0 c 0,-4.271 -2.696,-7.01 -6.475,-7.01 -3.781,0 -6.474,2.739 -6.474,7.01 0,4.276 2.693,7.027 6.474,7.026 3.779,0 6.475,-2.75 6.475,-7.026" /></g><g
           transform="translate(36.8848,111.5913)"
           id="g280"><path
             id="path282"
             style="fill:#003ebf;fill-opacity:1;fill-rule:nonzero;stroke:none"
             d="m 0,0 h 1.523 c 2.04,0 2.655,0.741 2.655,2.82 l 0.001,19.548 c 0,2.193 -0.269,2.815 -2.539,2.815 H 0 v 1.253 l 12.514,-0.001 v -1.252 h -1.645 c -2.266,0 -2.541,-0.622 -2.541,-2.815 v -8.055 h 13.14 v 8.054 c 0,2.194 -0.278,2.816 -2.54,2.816 h -1.61 v 1.252 h 12.48 v -1.252 h -1.649 c -2.262,0 -2.531,-0.622 -2.531,-2.816 V 2.82 C 25.618,0.627 25.887,0 28.149,0 h 1.649 V -1.247 H 17.318 V 0 h 1.293 c 2.27,0 2.857,0.592 2.857,2.82 V 12.86 H 8.328 V 2.82 C 8.328,0.627 8.603,0 10.869,0 h 1.645 V -1.247 H 0 Z" /></g><g
           transform="translate(72.9009,119.8034)"
           id="g284"><path
             id="path286"
             style="fill:#003ebf;fill-opacity:1;fill-rule:nonzero;stroke:none"
             d="m 0,0 c 0,-5.823 1.953,-8.917 5.119,-8.917 3.171,0 5.129,3.094 5.129,8.917 0,5.829 -1.958,8.915 -5.129,8.915 C 1.954,8.915 0,5.829 0,0 m 14.432,0 c -0.001,-6.136 -3.875,-10.085 -9.313,-10.085 -5.432,0 -9.302,3.949 -9.302,10.085 0,6.141 3.87,10.089 9.302,10.089 5.438,0 9.313,-3.949 9.313,-10.089" /></g><g
           transform="translate(88.8197,127.7023)"
           id="g288"><path
             id="path290"
             style="fill:#003ebf;fill-opacity:1;fill-rule:nonzero;stroke:none"
             d="M 0,0 V 1.56 H 3.44 V 6.527 L 7.35,7.585 V 1.56 h 5.549 V 0 H 7.35 v -12.549 c 0,-2.427 0.392,-3.596 1.958,-3.596 0.94,0 2.186,0.623 3.591,1.992 v -1.454 c -1.516,-1.6 -3.358,-2.377 -5.351,-2.377 -3.208,0 -4.108,1.721 -4.108,5.315 L 3.44,0 Z" /></g><g
           transform="translate(117.2075,121.996)"
           id="g292"><path
             id="path294"
             style="fill:#003ebf;fill-opacity:1;fill-rule:nonzero;stroke:none"
             d="M 0,0 V 0.386 C 0,4.413 -1.796,6.722 -4.339,6.722 -7.154,6.722 -9.028,4.34 -9.185,0 Z m -9.306,-1.253 c -0.04,-0.435 -0.081,-0.858 -0.081,-1.215 0,-5.388 2.469,-8.323 6.339,-8.323 2.188,0 4.577,1.092 7.47,3.084 v -1.837 c -2.656,-1.838 -5.439,-2.734 -8.015,-2.734 -2.622,0 -4.966,0.896 -6.726,2.613 -2.029,1.996 -3.132,4.735 -3.132,7.825 0,5.827 3.871,9.733 9.354,9.733 4.568,0 7.89,-3.437 8.242,-9.146 z" /></g><g
           transform="translate(130.6239,113.7836)"
           id="g296"><path
             id="path298"
             style="fill:#003ebf;fill-opacity:1;fill-rule:nonzero;stroke:none"
             d="m 0,0 c 0,-1.688 0.392,-2.31 1.959,-2.31 h 1.092 v -1.13 h -9.89 v 1.13 h 1.09 c 1.572,0 1.952,0.622 1.952,2.31 v 21.581 c 0,1.839 -0.266,2.387 -2.187,2.387 h -0.427 v 1.013 h 0.783 c 1.796,0 3.716,0.123 5.628,0.357 z" /></g><g
           transform="translate(38.4463,90.6023)"
           id="g300"><path
             id="path302"
             style="fill:#003ebf;fill-opacity:1;fill-rule:nonzero;stroke:none"
             d="m 0,0 c -3.001,0 -4.993,-3.17 -4.993,-9.049 0,-6.341 2.196,-9.851 5.497,-9.851 2.541,0 4.402,1.986 4.402,5.413 L 4.907,-3.043 C 3.254,-1.017 1.813,0 0,0 m 4.907,7.189 c 0,2.114 -0.302,2.58 -2.663,2.58 h -1.06 v 1.097 H 2.2 c 2.324,0 4.606,0.13 6.89,0.378 v -27.446 c 0,-2.016 0.334,-2.617 2.584,-2.617 h 0.506 v -1.056 c -0.73,0.046 -1.399,0.046 -2.071,0.046 -1.606,0 -3.171,-0.085 -4.614,-0.337 l -0.589,2.408 c -1.604,-1.865 -3.346,-2.792 -5.329,-2.792 -5.246,0 -9.053,4.567 -9.053,11.166 0,2.918 0.808,5.41 2.456,7.48 1.604,2.036 3.975,3.169 6.341,3.169 2.158,0 3.849,-0.756 5.586,-2.408 z" /></g><g
           transform="translate(67.0701,87.1358)"
           id="g304"><path
             id="path306"
             style="fill:#003ebf;fill-opacity:1;fill-rule:nonzero;stroke:none"
             d="m 0,0 c 0,2.028 -0.258,2.575 -2.547,2.575 v 1.1 c 2.289,0.044 4.529,0.175 6.773,0.379 v -16.79 c 0,-1.982 0.253,-2.612 2.493,-2.612 v -1.061 c -0.548,0.047 -1.101,0.047 -1.644,0.047 -1.565,0 -3.011,-0.127 -4.446,-0.338 L 0,-13.322 c -2.415,-2.582 -4.743,-3.807 -7.7,-3.807 -4.095,0 -5.493,2.121 -5.493,6.644 V 0 c 0,2.028 -0.3,2.575 -2.582,2.575 v 1.1 c 2.282,0.044 4.571,0.175 6.805,0.379 V -9.769 c 0,-3.765 0.514,-5.496 3.006,-5.496 1.688,0 3.888,1.309 5.964,3.931 z" /></g><g
           transform="translate(130.5029,89.9225)"
           id="g308"><path
             id="path310"
             style="fill:#003ebf;fill-opacity:1;fill-rule:nonzero;stroke:none"
             d="m 0,0 c -2.025,0 -4.052,-1.226 -5.578,-3.51 v -11.964 c 0,-1.818 0.465,-2.496 2.155,-2.496 h 1.185 v -1.226 h -10.865 v 1.226 h 1.178 c 1.69,0 2.116,0.678 2.116,2.496 v 12.683 c 0,1.992 -0.297,2.579 -2.368,2.579 h -0.464 v 1.1 h 0.804 c 1.903,0 3.761,0.128 5.668,0.378 l 0.591,-2.616 c 2.195,2.2 4.478,3.294 7.061,3.294 3.976,0 6.257,-2.323 6.257,-6.211 v -11.207 c 0,-1.818 0.462,-2.496 2.159,-2.496 h 1.178 v -1.226 H 0.213 v 1.226 h 1.145 c 1.687,0 2.155,0.678 2.155,2.496 V -4.095 C 3.513,-1.351 2.372,0 0,0" /></g><g
           transform="translate(116.3651,71.9529)"
           id="g312"><path
             id="path314"
             style="fill:#003ebf;fill-opacity:1;fill-rule:nonzero;stroke:none"
             d="m 0,0 c -1.693,0 -2.161,0.678 -2.161,2.496 v 16.74 C -4.48,18.985 -6.934,18.857 -9.556,18.857 v -1.099 h 0.587 c 2.287,0 2.583,-0.505 2.583,-2.576 V 2.496 C -6.386,0.678 -6.81,0 -8.503,0 H -9.688 V -1.226 H 1.178 l 0,1.226 z" /></g><g
           transform="translate(100.0041,100.6628)"
           id="g316"><path
             id="path318"
             style="fill:#003ebf;fill-opacity:1;fill-rule:nonzero;stroke:none"
             d="m 0,0 v -1.353 h 1.774 c 1.866,0 2.758,-0.165 2.758,-1.352 0,-0.34 -0.128,-1.013 -0.512,-1.896 l -8.414,-20.976 -8.879,21.141 c -0.383,0.93 -0.594,1.565 -0.594,1.905 0,1.051 0.804,1.178 2.49,1.178 h 1.398 V 0 h -12.518 v -1.353 h 0.805 c 1.948,0 2.661,-0.722 3.428,-2.493 l 11.291,-26.765 h 2.152 l 10.239,26.01 c 0.491,1.237 0.829,2.057 1.334,2.56 0.018,0.018 0.036,0.031 0.059,0.049 0.628,0.582 1.521,0.565 2.221,0.099 0.551,-0.366 0.851,-1.152 0.851,-2.07 V -4.146 H 14.2 L 14.2,0 Z" /></g><g
           transform="translate(8e-4,175.6548)"
           id="g320"><path
             id="path322"
             style="fill:#003ebf;fill-opacity:1;fill-rule:nonzero;stroke:none"
             d="m 0,0 -0.001,-175.653 175.655,-0.002 0.001,175.653 z M 5.788,-5.788 169.866,-5.79 v -164.076 l -164.078,0.001 z" /></g></g></g></g></svg>