<svg xmlns="http://www.w3.org/2000/svg" xmlns:xlink="http://www.w3.org/1999/xlink" width="80" height="80" viewBox="0 0 80 80">
  <defs>
    <clipPath id="clip-path">
      <path id="path16" d="M0-234.206H80v80H0Z" transform="translate(0 234.206)"/>
    </clipPath>
  </defs>
  <g id="g10" transform="translate(0 234.206)">
    <g id="g12" transform="translate(0 -234.206)">
      <g id="g14" clip-path="url(#clip-path)">
        <g id="g20" transform="translate(16.682 52.823)">
          <path id="path22" d="M-8.238-2.932C-8.238-3.55-8.586-4-8.993-4c-.36,0-.62.3-.62.819a3.931,3.931,0,0,0,.494,1.795,1.754,1.754,0,0,0,.881-1.549M-11.21,1.554A2.278,2.278,0,0,0-9.091,3.87,1.777,1.777,0,0,0-7.879,3.4,25.683,25.683,0,0,1-10.121-.2,1.975,1.975,0,0,0-11.21,1.554M-6.974-.428h3V-.02c-.767.038-.953.2-1.226.681A17.075,17.075,0,0,1-6.518,2.829c.532.668.992.992,1.327.992s.583-.283.9-.83l.446.2A2.006,2.006,0,0,1-5.674,4.714a2.556,2.556,0,0,1-1.809-.893,3.56,3.56,0,0,1-2.242.867,2.757,2.757,0,0,1-1.932-.73,2.614,2.614,0,0,1-.855-1.9c0-1.1.73-2.007,2.179-2.787a5.146,5.146,0,0,1-.481-1.833,1.847,1.847,0,0,1,1.968-1.9c1.079,0,1.686.531,1.686,1.487,0,.878-.557,1.56-1.7,2.067A19.021,19.021,0,0,0-6.863,2.382a5.484,5.484,0,0,0,1.04-2c0-.312-.373-.374-1.151-.4Z" transform="translate(12.512 4.453)" fill="#373535"/>
        </g>
        <g id="g24" transform="translate(27.963 53.018)">
          <path id="path26" d="M-5.085-16.029h1.377c1.5,0,2.192-.618,2.192-2.033,0-1.386-.594-1.881-1.931-1.881H-5.085ZM-3.969-20.4c1.25,0,1.8-.493,1.8-1.658,0-1.377-.46-1.824-1.658-1.824H-5.085V-20.4Zm-3.753,4.438h.483c.644,0,.843-.235.843-.893v-6.194c0-.7-.087-.893-.8-.893h-.522v-.4h4.251c1.782,0,2.685.682,2.685,2.013a1.928,1.928,0,0,1-1.609,1.968c1.523.505,2.281,1.287,2.281,2.438,0,1.5-1.24,2.355-3.608,2.355h-4Z" transform="translate(7.723 24.344)" fill="#373535"/>
        </g>
        <path id="path28" d="M107.147-80h1.264v1.2h-1.264Zm2.242,9.12h-3.184v-.361h.347c.495,0,.62-.2.62-.731v-3.716c0-.608-.089-.755-.757-.755h-.174v-.323a19.872,19.872,0,0,0,2.169-.112v4.906c0,.533.139.731.632.731h.347Z" transform="translate(-69.928 132.674)" fill="#373535"/>
        <g id="g30" transform="translate(40.157 55.585)">
          <path id="path32" d="M0-8.767.334-8.8A1.832,1.832,0,0,0,2.193-7.295c.818,0,1.313-.384,1.313-.977,0-.668-.521-.929-1.414-1.353C.819-10.216.085-10.6.085-11.556c0-1.04.794-1.758,2.1-1.758.506,0,1.111.173,1.819.173h.074l.1,1.513-.322.038a1.416,1.416,0,0,0-1.538-1.351c-.777,0-1.226.346-1.226.905,0,.642.572.851,1.538,1.3,1.226.573,1.929,1.03,1.929,2.022,0,1.028-.9,1.809-2.265,1.809-.867,0-1.559-.41-2.231-.41Z" transform="translate(0 13.315)" fill="#373535"/>
        </g>
        <g id="g34" transform="translate(45.236 53.887)">
          <path id="path36" d="M0-4.633v-.5H1.091V-6.7l1.238-.335v1.908H4.087v.5H2.329V-.655c0,.769.125,1.139.622,1.139A1.813,1.813,0,0,0,4.087-.148v.46a2.274,2.274,0,0,1-1.695.755c-1.016,0-1.3-.544-1.3-1.684V-4.633Z" transform="translate(0 7.036)" fill="#373535"/>
        </g>
        <g id="g38" transform="translate(49.833 55.585)">
          <path id="path40" d="M-5.465-11.271h.352v.36H-8.3v-.36h.348c.495,0,.619-.2.619-.731v-3.716c0-.583-.087-.755-.695-.755h-.136V-16.8h.236a12.372,12.372,0,0,0,1.661-.113l.172.817a2.577,2.577,0,0,1,1.648-1.027c.743,0,1.23.605,1.23,1.648H-4.274c-.037-.657-.2-.955-.6-.955-.275,0-.695.31-1.216.955V-12c0,.533.138.731.63.731" transform="translate(8.3 17.119)" fill="#373535"/>
        </g>
        <g id="g42" transform="translate(55.1 55.597)">
          <path id="path44" d="M-2.552-6.168c0,1.846.622,2.822,1.625,2.822S.693-4.322.693-6.168.074-8.995-.927-8.995s-1.625.98-1.625,2.827m4.574,0A2.918,2.918,0,0,1-.927-2.975,2.917,2.917,0,0,1-3.876-6.168a2.922,2.922,0,0,1,2.949-3.2,2.923,2.923,0,0,1,2.949,3.2" transform="translate(3.876 9.368)" fill="#373535"/>
        </g>
        <g id="g46" transform="translate(16.799 17.137)">
          <path id="path48" d="M0-23.208H.694c.929,0,1.209-.337,1.209-1.284v-8.9c0-1-.123-1.282-1.156-1.282H0v-.571H5.7v.57H4.95c-1.032,0-1.157.283-1.157,1.282v3.669H9.777v-3.668c0-1-.127-1.283-1.157-1.283H7.887v-.57h5.684v.57H12.82c-1.03,0-1.153.283-1.153,1.283v8.9c0,1,.123,1.284,1.153,1.284h.751v.568H7.887v-.568h.589c1.034,0,1.3-.27,1.3-1.284v-4.573H3.793v4.573c0,1,.125,1.284,1.157,1.284H5.7v.568H0Z" transform="translate(0 35.248)" fill="#373535"/>
        </g>
        <g id="g50" transform="translate(31.297 20.842)">
          <path id="path52" d="M-3.672-8.857c0,2.652.889,4.061,2.331,4.061S1-6.205,1-8.857s-.892-4.06-2.336-4.06-2.331,1.405-2.331,4.06m6.573,0c0,2.795-1.765,4.593-4.241,4.593s-4.236-1.8-4.236-4.593,1.763-4.595,4.236-4.595S2.9-11.653,2.9-8.857" transform="translate(5.577 13.452)" fill="#373535"/>
        </g>
        <g id="g54" transform="translate(40.452 18.385)">
          <path id="path56" d="M0-6.659v-.71H1.567V-9.631l1.781-.482v2.744H5.875v.71H3.347V-.944c0,1.105.179,1.638.892,1.638A2.624,2.624,0,0,0,5.875-.213V.449A3.282,3.282,0,0,1,3.438,1.532c-1.461,0-1.871-.784-1.871-2.421v-5.77Z" transform="translate(0 10.113)" fill="#373535"/>
        </g>
        <g id="g58" transform="translate(47.255 20.844)">
          <path id="path60" d="M-11.809-6.929V-7.1c0-1.834-.818-2.886-1.976-2.886-1.282,0-2.136,1.085-2.207,3.061Zm-4.238.571c-.018.2-.037.391-.037.553,0,2.454,1.124,3.791,2.887,3.791a6.337,6.337,0,0,0,3.4-1.4v.837a6.478,6.478,0,0,1-3.65,1.245,4.3,4.3,0,0,1-3.063-1.19,4.9,4.9,0,0,1-1.426-3.564,4.143,4.143,0,0,1,4.26-4.433c2.08,0,3.593,1.565,3.754,4.165Z" transform="translate(17.935 10.524)" fill="#373535"/>
        </g>
        <g id="g62" transform="translate(56.376 16.639)">
          <path id="path64" d="M-6-22.244c0,.769.179,1.052.892,1.052h.5v.515h-4.5v-.515h.5c.716,0,.889-.283.889-1.052v-9.829c0-.838-.121-1.087-1-1.087h-.194v-.461h.357A21.357,21.357,0,0,0-6-33.784Z" transform="translate(9.119 33.784)" fill="#373535"/>
        </g>
        <g id="g66" transform="translate(13.194 33.615)">
          <path id="path68" d="M-8.319-9.871c-1.367,0-2.274,1.444-2.274,4.121,0,2.888,1,4.487,2.5,4.487,1.157,0,2-.9,2-2.465V-8.485A2.92,2.92,0,0,0-8.319-9.871m2.235-3.274c0-.963-.138-1.175-1.213-1.175H-7.78v-.5h.463a28.956,28.956,0,0,0,3.138-.172v12.5C-4.179-1.574-4.027-1.3-3-1.3h.23v.481C-3.1-.84-3.409-.84-3.715-.84a12.36,12.36,0,0,0-2.1.153l-.268-1.1A3.15,3.15,0,0,1-8.512-.512c-2.389,0-4.123-2.08-4.123-5.085A5.294,5.294,0,0,1-11.516-9a3.712,3.712,0,0,1,2.888-1.443,3.477,3.477,0,0,1,2.544,1.1Z" transform="translate(12.635 14.992)" fill="#373535"/>
        </g>
        <g id="g70" transform="translate(23.362 38.469)">
          <path id="path72" d="M-13.849-3.559c0-.924-.118-1.173-1.16-1.173v-.5c1.042-.02,2.063-.08,3.085-.173V2.241c0,.9.115,1.19,1.135,1.19v.483c-.25-.021-.5-.021-.749-.021a13.718,13.718,0,0,0-2.025.154l-.286-1.538a4.589,4.589,0,0,1-3.507,1.734c-1.865,0-2.5-.966-2.5-3.026V-3.559c0-.924-.137-1.173-1.176-1.173v-.5c1.039-.02,2.082-.08,3.1-.173V.89c0,1.715.234,2.5,1.369,2.5A3.966,3.966,0,0,0-13.849,1.6Z" transform="translate(21.033 5.405)" fill="#373535"/>
        </g>
        <g id="g74" transform="translate(53.468 38.16)">
          <path id="path76" d="M-11.5-1.707a3.165,3.165,0,0,0-2.54,1.6V5.341c0,.828.212,1.137.981,1.137h.54v.558h-4.948V6.478h.537c.77,0,.964-.309.964-1.137V-.435c0-.907-.135-1.175-1.078-1.175h-.211v-.5h.366a19.681,19.681,0,0,0,2.581-.172l.269,1.191a4.443,4.443,0,0,1,3.216-1.5A2.6,2.6,0,0,1-7.978.237v5.1c0,.828.21,1.137.983,1.137h.537v.558h-4.948V6.478h.521c.768,0,.981-.309.981-1.137V.158c0-1.25-.52-1.865-1.6-1.865" transform="translate(17.471 2.592)" fill="#373535"/>
        </g>
        <g id="g78" transform="translate(48.585 38.469)">
          <path id="path80" d="M-8.505-16.887c-.771,0-.984-.309-.984-1.137v-7.624a31.267,31.267,0,0,1-3.368.173v.5h.267c1.042,0,1.176.23,1.176,1.173v5.778c0,.828-.193,1.137-.964,1.137h-.54v.558h4.949v-.558Z" transform="translate(12.917 25.648)" fill="#373535"/>
        </g>
        <g id="g82" transform="translate(35.3 34.154)">
          <path id="path84" d="M-19.75,0V.616h.808c.85,0,1.256.075,1.256.616a2.432,2.432,0,0,1-.233.864l-3.832,9.553L-25.795,2.02a2.994,2.994,0,0,1-.271-.868c0-.479.366-.537,1.134-.537h.637V0H-30V.616h.367c.887,0,1.212.329,1.561,1.135l5.142,12.19h.98L-17.282,2.1A3.529,3.529,0,0,1-16.675.93a.279.279,0,0,1,.027-.022A.8.8,0,0,1-15.636.862a1.109,1.109,0,0,1,.388.943v.083h1.966V0Z" transform="translate(29.996)" fill="#373535"/>
        </g>
        <g id="g86" transform="translate(0 0)">
          <path id="path88" d="M0,0V80H80V0ZM2.635,2.636H77.363V77.363H2.635Z" transform="translate(0.001)" fill="#373535"/>
        </g>
      </g>
    </g>
    <g id="g90" transform="translate(0 -234.206)">
      <g id="g92" clip-path="url(#clip-path)">
        <g id="g98" transform="translate(16.682 52.823)">
          <path id="path100" d="M-8.238-2.932C-8.238-3.55-8.586-4-8.993-4c-.36,0-.62.3-.62.819a3.931,3.931,0,0,0,.494,1.795,1.754,1.754,0,0,0,.881-1.549M-11.21,1.554A2.278,2.278,0,0,0-9.091,3.87,1.777,1.777,0,0,0-7.879,3.4,25.683,25.683,0,0,1-10.121-.2,1.975,1.975,0,0,0-11.21,1.554M-6.974-.428h3V-.02c-.767.038-.953.2-1.226.681A17.075,17.075,0,0,1-6.518,2.829c.532.668.992.992,1.327.992s.583-.283.9-.83l.446.2A2.006,2.006,0,0,1-5.674,4.714a2.556,2.556,0,0,1-1.809-.893,3.56,3.56,0,0,1-2.242.867,2.757,2.757,0,0,1-1.932-.73,2.614,2.614,0,0,1-.855-1.9c0-1.1.73-2.007,2.179-2.787a5.146,5.146,0,0,1-.481-1.833,1.847,1.847,0,0,1,1.968-1.9c1.079,0,1.686.531,1.686,1.487,0,.878-.557,1.56-1.7,2.067A19.021,19.021,0,0,0-6.863,2.382a5.484,5.484,0,0,0,1.04-2c0-.312-.373-.374-1.151-.4Z" transform="translate(12.512 4.453)" fill="#fff"/>
        </g>
        <g id="g102" transform="translate(27.963 53.018)">
          <path id="path104" d="M-5.085-16.029h1.377c1.5,0,2.192-.618,2.192-2.033,0-1.386-.594-1.881-1.931-1.881H-5.085ZM-3.969-20.4c1.25,0,1.8-.493,1.8-1.658,0-1.377-.46-1.824-1.658-1.824H-5.085V-20.4Zm-3.753,4.438h.483c.644,0,.843-.235.843-.893v-6.194c0-.7-.087-.893-.8-.893h-.522v-.4h4.251c1.782,0,2.685.682,2.685,2.013a1.928,1.928,0,0,1-1.609,1.968c1.523.505,2.281,1.287,2.281,2.438,0,1.5-1.24,2.355-3.608,2.355h-4Z" transform="translate(7.723 24.344)" fill="#fff"/>
        </g>
        <path id="path106" d="M107.147-80h1.264v1.2h-1.264Zm2.242,9.12h-3.184v-.361h.347c.495,0,.62-.2.62-.731v-3.716c0-.608-.089-.755-.757-.755h-.174v-.323a19.872,19.872,0,0,0,2.169-.112v4.906c0,.533.139.731.632.731h.347Z" transform="translate(-69.928 132.674)" fill="#fff"/>
        <g id="g108" transform="translate(40.157 55.585)">
          <path id="path110" d="M0-8.767.334-8.8A1.832,1.832,0,0,0,2.193-7.295c.818,0,1.313-.384,1.313-.977,0-.668-.521-.929-1.414-1.353C.819-10.216.085-10.6.085-11.556c0-1.04.794-1.758,2.1-1.758.506,0,1.111.173,1.819.173h.074l.1,1.513-.322.038a1.416,1.416,0,0,0-1.538-1.351c-.777,0-1.226.346-1.226.905,0,.642.572.851,1.538,1.3,1.226.573,1.929,1.03,1.929,2.022,0,1.028-.9,1.809-2.265,1.809-.867,0-1.559-.41-2.231-.41Z" transform="translate(0 13.315)" fill="#fff"/>
        </g>
        <g id="g112" transform="translate(45.236 53.887)">
          <path id="path114" d="M0-4.633v-.5H1.091V-6.7l1.238-.335v1.908H4.087v.5H2.329V-.655c0,.769.125,1.139.622,1.139A1.813,1.813,0,0,0,4.087-.148v.46a2.274,2.274,0,0,1-1.695.755c-1.016,0-1.3-.544-1.3-1.684V-4.633Z" transform="translate(0 7.036)" fill="#fff"/>
        </g>
        <g id="g116" transform="translate(49.833 55.585)">
          <path id="path118" d="M-5.465-11.271h.352v.36H-8.3v-.36h.348c.495,0,.619-.2.619-.731v-3.716c0-.583-.087-.755-.695-.755h-.136V-16.8h.236a12.372,12.372,0,0,0,1.661-.113l.172.817a2.577,2.577,0,0,1,1.648-1.027c.743,0,1.23.605,1.23,1.648H-4.274c-.037-.657-.2-.955-.6-.955-.275,0-.695.31-1.216.955V-12c0,.533.138.731.63.731" transform="translate(8.3 17.119)" fill="#fff"/>
        </g>
        <g id="g120" transform="translate(55.1 55.597)">
          <path id="path122" d="M-2.552-6.168c0,1.846.622,2.822,1.625,2.822S.693-4.322.693-6.168.074-8.995-.927-8.995s-1.625.98-1.625,2.827m4.574,0A2.918,2.918,0,0,1-.927-2.975,2.917,2.917,0,0,1-3.876-6.168a2.922,2.922,0,0,1,2.949-3.2,2.923,2.923,0,0,1,2.949,3.2" transform="translate(3.876 9.368)" fill="#fff"/>
        </g>
        <g id="g124" transform="translate(16.799 17.137)">
          <path id="path126" d="M0-23.208H.694c.929,0,1.209-.337,1.209-1.284v-8.9c0-1-.123-1.282-1.156-1.282H0v-.571H5.7v.57H4.95c-1.032,0-1.157.283-1.157,1.282v3.669H9.777v-3.668c0-1-.127-1.283-1.157-1.283H7.887v-.57h5.684v.57H12.82c-1.03,0-1.153.283-1.153,1.283v8.9c0,1,.123,1.284,1.153,1.284h.751v.568H7.887v-.568h.589c1.034,0,1.3-.27,1.3-1.284v-4.573H3.793v4.573c0,1,.125,1.284,1.157,1.284H5.7v.568H0Z" transform="translate(0 35.248)" fill="#fff"/>
        </g>
        <g id="g128" transform="translate(31.297 20.842)">
          <path id="path130" d="M-3.672-8.857c0,2.652.889,4.061,2.331,4.061S1-6.205,1-8.857s-.892-4.06-2.336-4.06-2.331,1.405-2.331,4.06m6.573,0c0,2.795-1.765,4.593-4.241,4.593s-4.236-1.8-4.236-4.593,1.763-4.595,4.236-4.595S2.9-11.653,2.9-8.857" transform="translate(5.577 13.452)" fill="#fff"/>
        </g>
        <g id="g132" transform="translate(40.452 18.385)">
          <path id="path134" d="M0-6.659v-.71H1.567V-9.631l1.781-.482v2.744H5.875v.71H3.347V-.944c0,1.105.179,1.638.892,1.638A2.624,2.624,0,0,0,5.875-.213V.449A3.282,3.282,0,0,1,3.438,1.532c-1.461,0-1.871-.784-1.871-2.421v-5.77Z" transform="translate(0 10.113)" fill="#fff"/>
        </g>
        <g id="g136" transform="translate(47.255 20.844)">
          <path id="path138" d="M-11.809-6.929V-7.1c0-1.834-.818-2.886-1.976-2.886-1.282,0-2.136,1.085-2.207,3.061Zm-4.238.571c-.018.2-.037.391-.037.553,0,2.454,1.124,3.791,2.887,3.791a6.337,6.337,0,0,0,3.4-1.4v.837a6.478,6.478,0,0,1-3.65,1.245,4.3,4.3,0,0,1-3.063-1.19,4.9,4.9,0,0,1-1.426-3.564,4.143,4.143,0,0,1,4.26-4.433c2.08,0,3.593,1.565,3.754,4.165Z" transform="translate(17.935 10.524)" fill="#fff"/>
        </g>
        <g id="g140" transform="translate(56.376 16.639)">
          <path id="path142" d="M-6-22.244c0,.769.179,1.052.892,1.052h.5v.515h-4.5v-.515h.5c.716,0,.889-.283.889-1.052v-9.829c0-.838-.121-1.087-1-1.087h-.194v-.461h.357A21.357,21.357,0,0,0-6-33.784Z" transform="translate(9.119 33.784)" fill="#fff"/>
        </g>
        <g id="g144" transform="translate(13.194 33.615)">
          <path id="path146" d="M-8.319-9.871c-1.367,0-2.274,1.444-2.274,4.121,0,2.888,1,4.487,2.5,4.487,1.157,0,2-.9,2-2.465V-8.485A2.92,2.92,0,0,0-8.319-9.871m2.235-3.274c0-.963-.138-1.175-1.213-1.175H-7.78v-.5h.463a28.956,28.956,0,0,0,3.138-.172v12.5C-4.179-1.574-4.027-1.3-3-1.3h.23v.481C-3.1-.84-3.409-.84-3.715-.84a12.36,12.36,0,0,0-2.1.153l-.268-1.1A3.15,3.15,0,0,1-8.512-.512c-2.389,0-4.123-2.08-4.123-5.085A5.294,5.294,0,0,1-11.516-9a3.712,3.712,0,0,1,2.888-1.443,3.477,3.477,0,0,1,2.544,1.1Z" transform="translate(12.635 14.992)" fill="#fff"/>
        </g>
        <g id="g148" transform="translate(23.362 38.469)">
          <path id="path150" d="M-13.849-3.559c0-.924-.118-1.173-1.16-1.173v-.5c1.042-.02,2.063-.08,3.085-.173V2.241c0,.9.115,1.19,1.135,1.19v.483c-.25-.021-.5-.021-.749-.021a13.718,13.718,0,0,0-2.025.154l-.286-1.538a4.589,4.589,0,0,1-3.507,1.734c-1.865,0-2.5-.966-2.5-3.026V-3.559c0-.924-.137-1.173-1.176-1.173v-.5c1.039-.02,2.082-.08,3.1-.173V.89c0,1.715.234,2.5,1.369,2.5A3.966,3.966,0,0,0-13.849,1.6Z" transform="translate(21.033 5.405)" fill="#fff"/>
        </g>
        <g id="g152" transform="translate(53.468 38.16)">
          <path id="path154" d="M-11.5-1.707a3.165,3.165,0,0,0-2.54,1.6V5.341c0,.828.212,1.137.981,1.137h.54v.558h-4.948V6.478h.537c.77,0,.964-.309.964-1.137V-.435c0-.907-.135-1.175-1.078-1.175h-.211v-.5h.366a19.681,19.681,0,0,0,2.581-.172l.269,1.191a4.443,4.443,0,0,1,3.216-1.5A2.6,2.6,0,0,1-7.978.237v5.1c0,.828.21,1.137.983,1.137h.537v.558h-4.948V6.478h.521c.768,0,.981-.309.981-1.137V.158c0-1.25-.52-1.865-1.6-1.865" transform="translate(17.471 2.592)" fill="#fff"/>
        </g>
        <g id="g156" transform="translate(48.585 38.469)">
          <path id="path158" d="M-8.505-16.887c-.771,0-.984-.309-.984-1.137v-7.624a31.267,31.267,0,0,1-3.368.173v.5h.267c1.042,0,1.176.23,1.176,1.173v5.778c0,.828-.193,1.137-.964,1.137h-.54v.558h4.949v-.558Z" transform="translate(12.917 25.648)" fill="#fff"/>
        </g>
        <g id="g160" transform="translate(35.3 34.154)">
          <path id="path162" d="M-19.75,0V.616h.808c.85,0,1.256.075,1.256.616a2.432,2.432,0,0,1-.233.864l-3.832,9.553L-25.795,2.02a2.994,2.994,0,0,1-.271-.868c0-.479.366-.537,1.134-.537h.637V0H-30V.616h.367c.887,0,1.212.329,1.561,1.135l5.142,12.19h.98L-17.282,2.1A3.529,3.529,0,0,1-16.675.93a.279.279,0,0,1,.027-.022A.8.8,0,0,1-15.636.862a1.109,1.109,0,0,1,.388.943v.083h1.966V0Z" transform="translate(29.996)" fill="#fff"/>
        </g>
        <g id="g164" transform="translate(0 0)">
          <path id="path166" d="M0,0V80H80V0ZM2.635,2.636H77.363V77.363H2.635Z" transform="translate(0.001)" fill="#fff"/>
        </g>
      </g>
    </g>
    <g id="g168" transform="translate(0 -234.206)">
      <g id="g170" clip-path="url(#clip-path)">
        <g id="g176" transform="translate(16.682 52.823)">
          <path id="path178" d="M-8.238-2.932C-8.238-3.55-8.586-4-8.993-4c-.36,0-.62.3-.62.819a3.931,3.931,0,0,0,.494,1.795,1.754,1.754,0,0,0,.881-1.549M-11.21,1.554A2.278,2.278,0,0,0-9.091,3.87,1.777,1.777,0,0,0-7.879,3.4,25.683,25.683,0,0,1-10.121-.2,1.975,1.975,0,0,0-11.21,1.554M-6.974-.428h3V-.02c-.767.038-.953.2-1.226.681A17.075,17.075,0,0,1-6.518,2.829c.532.668.992.992,1.327.992s.583-.283.9-.83l.446.2A2.006,2.006,0,0,1-5.674,4.714a2.556,2.556,0,0,1-1.809-.893,3.56,3.56,0,0,1-2.242.867,2.757,2.757,0,0,1-1.932-.73,2.614,2.614,0,0,1-.855-1.9c0-1.1.73-2.007,2.179-2.787a5.146,5.146,0,0,1-.481-1.833,1.847,1.847,0,0,1,1.968-1.9c1.079,0,1.686.531,1.686,1.487,0,.878-.557,1.56-1.7,2.067A19.021,19.021,0,0,0-6.863,2.382a5.484,5.484,0,0,0,1.04-2c0-.312-.373-.374-1.151-.4Z" transform="translate(12.512 4.453)" fill="#00b1ff"/>
        </g>
        <g id="g180" transform="translate(27.963 53.018)">
          <path id="path182" d="M-5.085-16.029h1.377c1.5,0,2.192-.618,2.192-2.033,0-1.386-.594-1.881-1.931-1.881H-5.085ZM-3.969-20.4c1.25,0,1.8-.493,1.8-1.658,0-1.377-.46-1.824-1.658-1.824H-5.085V-20.4Zm-3.753,4.438h.483c.644,0,.843-.235.843-.893v-6.194c0-.7-.087-.893-.8-.893h-.522v-.4h4.251c1.782,0,2.685.682,2.685,2.013a1.928,1.928,0,0,1-1.609,1.968c1.523.505,2.281,1.287,2.281,2.438,0,1.5-1.24,2.355-3.608,2.355h-4Z" transform="translate(7.723 24.344)" fill="#00b1ff"/>
        </g>
        <path id="path184" d="M107.147-80h1.264v1.2h-1.264Zm2.242,9.12h-3.184v-.361h.347c.495,0,.62-.2.62-.731v-3.716c0-.608-.089-.755-.757-.755h-.174v-.323a19.872,19.872,0,0,0,2.169-.112v4.906c0,.533.139.731.632.731h.347Z" transform="translate(-69.928 132.674)" fill="#00b1ff"/>
        <g id="g186" transform="translate(40.157 55.585)">
          <path id="path188" d="M0-8.767.334-8.8A1.832,1.832,0,0,0,2.193-7.295c.818,0,1.313-.384,1.313-.977,0-.668-.521-.929-1.414-1.353C.819-10.216.085-10.6.085-11.556c0-1.04.794-1.758,2.1-1.758.506,0,1.111.173,1.819.173h.074l.1,1.513-.322.038a1.416,1.416,0,0,0-1.538-1.351c-.777,0-1.226.346-1.226.905,0,.642.572.851,1.538,1.3,1.226.573,1.929,1.03,1.929,2.022,0,1.028-.9,1.809-2.265,1.809-.867,0-1.559-.41-2.231-.41Z" transform="translate(0 13.315)" fill="#00b1ff"/>
        </g>
        <g id="g190" transform="translate(45.236 53.887)">
          <path id="path192" d="M0-4.633v-.5H1.091V-6.7l1.238-.335v1.908H4.087v.5H2.329V-.655c0,.769.125,1.139.622,1.139A1.813,1.813,0,0,0,4.087-.148v.46a2.274,2.274,0,0,1-1.695.755c-1.016,0-1.3-.544-1.3-1.684V-4.633Z" transform="translate(0 7.036)" fill="#00b1ff"/>
        </g>
        <g id="g194" transform="translate(49.833 55.585)">
          <path id="path196" d="M-5.465-11.271h.352v.36H-8.3v-.36h.348c.495,0,.619-.2.619-.731v-3.716c0-.583-.087-.755-.695-.755h-.136V-16.8h.236a12.372,12.372,0,0,0,1.661-.113l.172.817a2.577,2.577,0,0,1,1.648-1.027c.743,0,1.23.605,1.23,1.648H-4.274c-.037-.657-.2-.955-.6-.955-.275,0-.695.31-1.216.955V-12c0,.533.138.731.63.731" transform="translate(8.3 17.119)" fill="#00b1ff"/>
        </g>
        <g id="g198" transform="translate(55.1 55.597)">
          <path id="path200" d="M-2.552-6.168c0,1.846.622,2.822,1.625,2.822S.693-4.322.693-6.168.074-8.995-.927-8.995s-1.625.98-1.625,2.827m4.574,0A2.918,2.918,0,0,1-.927-2.975,2.917,2.917,0,0,1-3.876-6.168a2.922,2.922,0,0,1,2.949-3.2,2.923,2.923,0,0,1,2.949,3.2" transform="translate(3.876 9.368)" fill="#00b1ff"/>
        </g>
        <g id="g202" transform="translate(16.799 17.137)">
          <path id="path204" d="M0-23.208H.694c.929,0,1.209-.337,1.209-1.284v-8.9c0-1-.123-1.282-1.156-1.282H0v-.571H5.7v.57H4.95c-1.032,0-1.157.283-1.157,1.282v3.669H9.777v-3.668c0-1-.127-1.283-1.157-1.283H7.887v-.57h5.684v.57H12.82c-1.03,0-1.153.283-1.153,1.283v8.9c0,1,.123,1.284,1.153,1.284h.751v.568H7.887v-.568h.589c1.034,0,1.3-.27,1.3-1.284v-4.573H3.793v4.573c0,1,.125,1.284,1.157,1.284H5.7v.568H0Z" transform="translate(0 35.248)" fill="#00b1ff"/>
        </g>
        <g id="g206" transform="translate(31.297 20.842)">
          <path id="path208" d="M-3.672-8.857c0,2.652.889,4.061,2.331,4.061S1-6.205,1-8.857s-.892-4.06-2.336-4.06-2.331,1.405-2.331,4.06m6.573,0c0,2.795-1.765,4.593-4.241,4.593s-4.236-1.8-4.236-4.593,1.763-4.595,4.236-4.595S2.9-11.653,2.9-8.857" transform="translate(5.577 13.452)" fill="#00b1ff"/>
        </g>
        <g id="g210" transform="translate(40.452 18.385)">
          <path id="path212" d="M0-6.659v-.71H1.567V-9.631l1.781-.482v2.744H5.875v.71H3.347V-.944c0,1.105.179,1.638.892,1.638A2.624,2.624,0,0,0,5.875-.213V.449A3.282,3.282,0,0,1,3.438,1.532c-1.461,0-1.871-.784-1.871-2.421v-5.77Z" transform="translate(0 10.113)" fill="#00b1ff"/>
        </g>
        <g id="g214" transform="translate(47.255 20.844)">
          <path id="path216" d="M-11.809-6.929V-7.1c0-1.834-.818-2.886-1.976-2.886-1.282,0-2.136,1.085-2.207,3.061Zm-4.238.571c-.018.2-.037.391-.037.553,0,2.454,1.124,3.791,2.887,3.791a6.337,6.337,0,0,0,3.4-1.4v.837a6.478,6.478,0,0,1-3.65,1.245,4.3,4.3,0,0,1-3.063-1.19,4.9,4.9,0,0,1-1.426-3.564,4.143,4.143,0,0,1,4.26-4.433c2.08,0,3.593,1.565,3.754,4.165Z" transform="translate(17.935 10.524)" fill="#00b1ff"/>
        </g>
        <g id="g218" transform="translate(56.376 16.639)">
          <path id="path220" d="M-6-22.244c0,.769.179,1.052.892,1.052h.5v.515h-4.5v-.515h.5c.716,0,.889-.283.889-1.052v-9.829c0-.838-.121-1.087-1-1.087h-.194v-.461h.357A21.357,21.357,0,0,0-6-33.784Z" transform="translate(9.119 33.784)" fill="#00b1ff"/>
        </g>
        <g id="g222" transform="translate(13.194 33.615)">
          <path id="path224" d="M-8.319-9.871c-1.367,0-2.274,1.444-2.274,4.121,0,2.888,1,4.487,2.5,4.487,1.157,0,2-.9,2-2.465V-8.485A2.92,2.92,0,0,0-8.319-9.871m2.235-3.274c0-.963-.138-1.175-1.213-1.175H-7.78v-.5h.463a28.956,28.956,0,0,0,3.138-.172v12.5C-4.179-1.574-4.027-1.3-3-1.3h.23v.481C-3.1-.84-3.409-.84-3.715-.84a12.36,12.36,0,0,0-2.1.153l-.268-1.1A3.15,3.15,0,0,1-8.512-.512c-2.389,0-4.123-2.08-4.123-5.085A5.294,5.294,0,0,1-11.516-9a3.712,3.712,0,0,1,2.888-1.443,3.477,3.477,0,0,1,2.544,1.1Z" transform="translate(12.635 14.992)" fill="#00b1ff"/>
        </g>
        <g id="g226" transform="translate(23.362 38.469)">
          <path id="path228" d="M-13.849-3.559c0-.924-.118-1.173-1.16-1.173v-.5c1.042-.02,2.063-.08,3.085-.173V2.241c0,.9.115,1.19,1.135,1.19v.483c-.25-.021-.5-.021-.749-.021a13.718,13.718,0,0,0-2.025.154l-.286-1.538a4.589,4.589,0,0,1-3.507,1.734c-1.865,0-2.5-.966-2.5-3.026V-3.559c0-.924-.137-1.173-1.176-1.173v-.5c1.039-.02,2.082-.08,3.1-.173V.89c0,1.715.234,2.5,1.369,2.5A3.966,3.966,0,0,0-13.849,1.6Z" transform="translate(21.033 5.405)" fill="#00b1ff"/>
        </g>
        <g id="g230" transform="translate(53.468 38.16)">
          <path id="path232" d="M-11.5-1.707a3.165,3.165,0,0,0-2.54,1.6V5.341c0,.828.212,1.137.981,1.137h.54v.558h-4.948V6.478h.537c.77,0,.964-.309.964-1.137V-.435c0-.907-.135-1.175-1.078-1.175h-.211v-.5h.366a19.681,19.681,0,0,0,2.581-.172l.269,1.191a4.443,4.443,0,0,1,3.216-1.5A2.6,2.6,0,0,1-7.978.237v5.1c0,.828.21,1.137.983,1.137h.537v.558h-4.948V6.478h.521c.768,0,.981-.309.981-1.137V.158c0-1.25-.52-1.865-1.6-1.865" transform="translate(17.471 2.592)" fill="#00b1ff"/>
        </g>
        <g id="g234" transform="translate(48.585 38.469)">
          <path id="path236" d="M-8.505-16.887c-.771,0-.984-.309-.984-1.137v-7.624a31.267,31.267,0,0,1-3.368.173v.5h.267c1.042,0,1.176.23,1.176,1.173v5.778c0,.828-.193,1.137-.964,1.137h-.54v.558h4.949v-.558Z" transform="translate(12.917 25.648)" fill="#00b1ff"/>
        </g>
        <g id="g238" transform="translate(35.3 34.154)">
          <path id="path240" d="M-19.75,0V.616h.808c.85,0,1.256.075,1.256.616a2.432,2.432,0,0,1-.233.864l-3.832,9.553L-25.795,2.02a2.994,2.994,0,0,1-.271-.868c0-.479.366-.537,1.134-.537h.637V0H-30V.616h.367c.887,0,1.212.329,1.561,1.135l5.142,12.19h.98L-17.282,2.1A3.529,3.529,0,0,1-16.675.93a.279.279,0,0,1,.027-.022A.8.8,0,0,1-15.636.862a1.109,1.109,0,0,1,.388.943v.083h1.966V0Z" transform="translate(29.996)" fill="#00b1ff"/>
        </g>
        <g id="g242" transform="translate(0 0)">
          <path id="path244" d="M0,0V80H80V0ZM2.635,2.636H77.363V77.363H2.635Z" transform="translate(0.001)" fill="#00b1ff"/>
        </g>
      </g>
    </g>
    <g id="g246" transform="translate(0 -234.206)">
      <g id="g248" clip-path="url(#clip-path)">
        <g id="g254" transform="translate(16.682 52.823)">
          <path id="path256" d="M-8.238-2.932C-8.238-3.55-8.586-4-8.993-4c-.36,0-.62.3-.62.819a3.931,3.931,0,0,0,.494,1.795,1.754,1.754,0,0,0,.881-1.549M-11.21,1.554A2.278,2.278,0,0,0-9.091,3.87,1.777,1.777,0,0,0-7.879,3.4,25.683,25.683,0,0,1-10.121-.2,1.975,1.975,0,0,0-11.21,1.554M-6.974-.428h3V-.02c-.767.038-.953.2-1.226.681A17.075,17.075,0,0,1-6.518,2.829c.532.668.992.992,1.327.992s.583-.283.9-.83l.446.2A2.006,2.006,0,0,1-5.674,4.714a2.556,2.556,0,0,1-1.809-.893,3.56,3.56,0,0,1-2.242.867,2.757,2.757,0,0,1-1.932-.73,2.614,2.614,0,0,1-.855-1.9c0-1.1.73-2.007,2.179-2.787a5.146,5.146,0,0,1-.481-1.833,1.847,1.847,0,0,1,1.968-1.9c1.079,0,1.686.531,1.686,1.487,0,.878-.557,1.56-1.7,2.067A19.021,19.021,0,0,0-6.863,2.382a5.484,5.484,0,0,0,1.04-2c0-.312-.373-.374-1.151-.4Z" transform="translate(12.512 4.453)" fill="#003ebf"/>
        </g>
        <g id="g258" transform="translate(27.963 53.018)">
          <path id="path260" d="M-5.085-16.029h1.377c1.5,0,2.192-.618,2.192-2.033,0-1.386-.594-1.881-1.931-1.881H-5.085ZM-3.969-20.4c1.25,0,1.8-.493,1.8-1.658,0-1.377-.46-1.824-1.658-1.824H-5.085V-20.4Zm-3.753,4.438h.483c.644,0,.843-.235.843-.893v-6.194c0-.7-.087-.893-.8-.893h-.522v-.4h4.251c1.782,0,2.685.682,2.685,2.013a1.928,1.928,0,0,1-1.609,1.968c1.523.505,2.281,1.287,2.281,2.438,0,1.5-1.24,2.355-3.608,2.355h-4Z" transform="translate(7.723 24.344)" fill="#003ebf"/>
        </g>
        <path id="path262" d="M107.147-80h1.264v1.2h-1.264Zm2.242,9.12h-3.184v-.361h.347c.495,0,.62-.2.62-.731v-3.716c0-.608-.089-.755-.757-.755h-.174v-.323a19.872,19.872,0,0,0,2.169-.112v4.906c0,.533.139.731.632.731h.347Z" transform="translate(-69.928 132.674)" fill="#003ebf"/>
        <g id="g264" transform="translate(40.157 55.585)">
          <path id="path266" d="M0-8.767.334-8.8A1.832,1.832,0,0,0,2.193-7.295c.818,0,1.313-.384,1.313-.977,0-.668-.521-.929-1.414-1.353C.819-10.216.085-10.6.085-11.556c0-1.04.794-1.758,2.1-1.758.506,0,1.111.173,1.819.173h.074l.1,1.513-.322.038a1.416,1.416,0,0,0-1.538-1.351c-.777,0-1.226.346-1.226.905,0,.642.572.851,1.538,1.3,1.226.573,1.929,1.03,1.929,2.022,0,1.028-.9,1.809-2.265,1.809-.867,0-1.559-.41-2.231-.41Z" transform="translate(0 13.315)" fill="#003ebf"/>
        </g>
        <g id="g268" transform="translate(45.236 53.887)">
          <path id="path270" d="M0-4.633v-.5H1.091V-6.7l1.238-.335v1.908H4.087v.5H2.329V-.655c0,.769.125,1.139.622,1.139A1.813,1.813,0,0,0,4.087-.148v.46a2.274,2.274,0,0,1-1.695.755c-1.016,0-1.3-.544-1.3-1.684V-4.633Z" transform="translate(0 7.036)" fill="#003ebf"/>
        </g>
        <g id="g272" transform="translate(49.833 55.585)">
          <path id="path274" d="M-5.465-11.271h.352v.36H-8.3v-.36h.348c.495,0,.619-.2.619-.731v-3.716c0-.583-.087-.755-.695-.755h-.136V-16.8h.236a12.372,12.372,0,0,0,1.661-.113l.172.817a2.577,2.577,0,0,1,1.648-1.027c.743,0,1.23.605,1.23,1.648H-4.274c-.037-.657-.2-.955-.6-.955-.275,0-.695.31-1.216.955V-12c0,.533.138.731.63.731" transform="translate(8.3 17.119)" fill="#003ebf"/>
        </g>
        <g id="g276" transform="translate(55.1 55.597)">
          <path id="path278" d="M-2.552-6.168c0,1.846.622,2.822,1.625,2.822S.693-4.322.693-6.168.074-8.995-.927-8.995s-1.625.98-1.625,2.827m4.574,0A2.918,2.918,0,0,1-.927-2.975,2.917,2.917,0,0,1-3.876-6.168a2.922,2.922,0,0,1,2.949-3.2,2.923,2.923,0,0,1,2.949,3.2" transform="translate(3.876 9.368)" fill="#003ebf"/>
        </g>
        <g id="g280" transform="translate(16.799 17.137)">
          <path id="path282" d="M0-23.208H.694c.929,0,1.209-.337,1.209-1.284v-8.9c0-1-.123-1.282-1.156-1.282H0v-.571H5.7v.57H4.95c-1.032,0-1.157.283-1.157,1.282v3.669H9.777v-3.668c0-1-.127-1.283-1.157-1.283H7.887v-.57h5.684v.57H12.82c-1.03,0-1.153.283-1.153,1.283v8.9c0,1,.123,1.284,1.153,1.284h.751v.568H7.887v-.568h.589c1.034,0,1.3-.27,1.3-1.284v-4.573H3.793v4.573c0,1,.125,1.284,1.157,1.284H5.7v.568H0Z" transform="translate(0 35.248)" fill="#003ebf"/>
        </g>
        <g id="g284" transform="translate(31.297 20.842)">
          <path id="path286" d="M-3.672-8.857c0,2.652.889,4.061,2.331,4.061S1-6.205,1-8.857s-.892-4.06-2.336-4.06-2.331,1.405-2.331,4.06m6.573,0c0,2.795-1.765,4.593-4.241,4.593s-4.236-1.8-4.236-4.593,1.763-4.595,4.236-4.595S2.9-11.653,2.9-8.857" transform="translate(5.577 13.452)" fill="#003ebf"/>
        </g>
        <g id="g288" transform="translate(40.452 18.385)">
          <path id="path290" d="M0-6.659v-.71H1.567V-9.631l1.781-.482v2.744H5.875v.71H3.347V-.944c0,1.105.179,1.638.892,1.638A2.624,2.624,0,0,0,5.875-.213V.449A3.282,3.282,0,0,1,3.438,1.532c-1.461,0-1.871-.784-1.871-2.421v-5.77Z" transform="translate(0 10.113)" fill="#003ebf"/>
        </g>
        <g id="g292" transform="translate(47.255 20.844)">
          <path id="path294" d="M-11.809-6.929V-7.1c0-1.834-.818-2.886-1.976-2.886-1.282,0-2.136,1.085-2.207,3.061Zm-4.238.571c-.018.2-.037.391-.037.553,0,2.454,1.124,3.791,2.887,3.791a6.337,6.337,0,0,0,3.4-1.4v.837a6.478,6.478,0,0,1-3.65,1.245,4.3,4.3,0,0,1-3.063-1.19,4.9,4.9,0,0,1-1.426-3.564,4.143,4.143,0,0,1,4.26-4.433c2.08,0,3.593,1.565,3.754,4.165Z" transform="translate(17.935 10.524)" fill="#003ebf"/>
        </g>
        <g id="g296" transform="translate(56.376 16.639)">
          <path id="path298" d="M-6-22.244c0,.769.179,1.052.892,1.052h.5v.515h-4.5v-.515h.5c.716,0,.889-.283.889-1.052v-9.829c0-.838-.121-1.087-1-1.087h-.194v-.461h.357A21.357,21.357,0,0,0-6-33.784Z" transform="translate(9.119 33.784)" fill="#003ebf"/>
        </g>
        <g id="g300" transform="translate(13.194 33.615)">
          <path id="path302" d="M-8.319-9.871c-1.367,0-2.274,1.444-2.274,4.121,0,2.888,1,4.487,2.5,4.487,1.157,0,2-.9,2-2.465V-8.485A2.92,2.92,0,0,0-8.319-9.871m2.235-3.274c0-.963-.138-1.175-1.213-1.175H-7.78v-.5h.463a28.956,28.956,0,0,0,3.138-.172v12.5C-4.179-1.574-4.027-1.3-3-1.3h.23v.481C-3.1-.84-3.409-.84-3.715-.84a12.36,12.36,0,0,0-2.1.153l-.268-1.1A3.15,3.15,0,0,1-8.512-.512c-2.389,0-4.123-2.08-4.123-5.085A5.294,5.294,0,0,1-11.516-9a3.712,3.712,0,0,1,2.888-1.443,3.477,3.477,0,0,1,2.544,1.1Z" transform="translate(12.635 14.992)" fill="#003ebf"/>
        </g>
        <g id="g304" transform="translate(23.362 38.469)">
          <path id="path306" d="M-13.849-3.559c0-.924-.118-1.173-1.16-1.173v-.5c1.042-.02,2.063-.08,3.085-.173V2.241c0,.9.115,1.19,1.135,1.19v.483c-.25-.021-.5-.021-.749-.021a13.718,13.718,0,0,0-2.025.154l-.286-1.538a4.589,4.589,0,0,1-3.507,1.734c-1.865,0-2.5-.966-2.5-3.026V-3.559c0-.924-.137-1.173-1.176-1.173v-.5c1.039-.02,2.082-.08,3.1-.173V.89c0,1.715.234,2.5,1.369,2.5A3.966,3.966,0,0,0-13.849,1.6Z" transform="translate(21.033 5.405)" fill="#003ebf"/>
        </g>
        <g id="g308" transform="translate(53.468 38.16)">
          <path id="path310" d="M-11.5-1.707a3.165,3.165,0,0,0-2.54,1.6V5.341c0,.828.212,1.137.981,1.137h.54v.558h-4.948V6.478h.537c.77,0,.964-.309.964-1.137V-.435c0-.907-.135-1.175-1.078-1.175h-.211v-.5h.366a19.681,19.681,0,0,0,2.581-.172l.269,1.191a4.443,4.443,0,0,1,3.216-1.5A2.6,2.6,0,0,1-7.978.237v5.1c0,.828.21,1.137.983,1.137h.537v.558h-4.948V6.478h.521c.768,0,.981-.309.981-1.137V.158c0-1.25-.52-1.865-1.6-1.865" transform="translate(17.471 2.592)" fill="#003ebf"/>
        </g>
        <g id="g312" transform="translate(48.585 38.469)">
          <path id="path314" d="M-8.505-16.887c-.771,0-.984-.309-.984-1.137v-7.624a31.267,31.267,0,0,1-3.368.173v.5h.267c1.042,0,1.176.23,1.176,1.173v5.778c0,.828-.193,1.137-.964,1.137h-.54v.558h4.949v-.558Z" transform="translate(12.917 25.648)" fill="#003ebf"/>
        </g>
        <g id="g316" transform="translate(35.3 34.154)">
          <path id="path318" d="M-19.75,0V.616h.808c.85,0,1.256.075,1.256.616a2.432,2.432,0,0,1-.233.864l-3.832,9.553L-25.795,2.02a2.994,2.994,0,0,1-.271-.868c0-.479.366-.537,1.134-.537h.637V0H-30V.616h.367c.887,0,1.212.329,1.561,1.135l5.142,12.19h.98L-17.282,2.1A3.529,3.529,0,0,1-16.675.93a.279.279,0,0,1,.027-.022A.8.8,0,0,1-15.636.862a1.109,1.109,0,0,1,.388.943v.083h1.966V0Z" transform="translate(29.996)" fill="#003ebf"/>
        </g>
        <g id="g320" transform="translate(0 0)">
          <path id="path322" d="M0,0V80H80V0ZM2.635,2.636H77.363V77.363H2.635Z" transform="translate(0.001)" fill="#003ebf"/>
        </g>
      </g>
    </g>
  </g>
</svg>
