<?xml version="1.0" encoding="UTF-8" standalone="no"?>
<svg
   xmlns:dc="http://purl.org/dc/elements/1.1/"
   xmlns:cc="http://creativecommons.org/ns#"
   xmlns:rdf="http://www.w3.org/1999/02/22-rdf-syntax-ns#"
   xmlns:svg="http://www.w3.org/2000/svg"
   xmlns="http://www.w3.org/2000/svg"
   viewBox="0 0 1575.4133 667.96667"
   height="667.96667"
   width="1575.4133"
   xml:space="preserve"
   id="svg2"
   version="1.1"><metadata
     id="metadata8"><rdf:RDF><cc:Work
         rdf:about=""><dc:format>image/svg+xml</dc:format><dc:type
           rdf:resource="http://purl.org/dc/dcmitype/StillImage" /></cc:Work></rdf:RDF></metadata><defs
     id="defs6"><clipPath
       id="clipPath18"
       clipPathUnits="userSpaceOnUse"><path
         id="path16"
         d="M 0,500.975 H 1181.561 V 0 H 0 Z" /></clipPath><clipPath
       id="clipPath82"
       clipPathUnits="userSpaceOnUse"><path
         id="path80"
         d="M 0,500.975 H 1181.561 V 0 H 0 Z" /></clipPath><clipPath
       id="clipPath146"
       clipPathUnits="userSpaceOnUse"><path
         id="path144"
         d="M 0,500.975 H 1181.561 V 0 H 0 Z" /></clipPath></defs><g
     transform="matrix(1.3333333,0,0,-1.3333333,0,667.96667)"
     id="g10"><g
       id="g12"><g
         clip-path="url(#clipPath18)"
         id="g14"><g
           transform="translate(740.9105,375.4821)"
           id="g20"><path
             id="path22"
             style="fill:#373536;fill-opacity:1;fill-rule:nonzero;stroke:none"
             d="m 0,0 v -1.301 c -2.174,0 -2.981,2.355 -3.961,3.866 C -2.685,1.717 -1.375,0.881 0,0 m -3.961,-56.858 c 0,10.768 -3.072,22.331 3.961,31.06 v 1.26 c 2.949,0 5.65,-3.422 8.005,-4.702 3.047,-1.569 6.712,-2.463 10.262,-3.035 v 1.305 c 4.644,0 -7.166,18.234 -9.158,20.626 0,2.195 2.314,1.923 3.986,2.586 h -1.376 c 0,4.085 -9.454,11.802 -13.094,12.955 V 3.883 c -3.731,0 -6.317,-2.063 -9.134,-3.883 0,-20.395 -26.781,-45.46 6.548,-56.858" /></g><g
           transform="translate(1141.9044,132.663)"
           id="g24"><path
             id="path26"
             style="fill:#373536;fill-opacity:1;fill-rule:nonzero;stroke:none"
             d="m 0,0 h -1.326 c -0.848,-0.449 -1.746,-0.906 -2.61,-1.293 0,-1.697 0.436,-1.318 -1.31,-1.318 v -1.26 c 2.273,0 3.616,1.775 5.246,2.578 V 0" /></g><g
           transform="translate(1175.4148,135.0635)"
           id="g28"><path
             id="path30"
             style="fill:#373536;fill-opacity:1;fill-rule:nonzero;stroke:none"
             d="m 0,0 c 0,2.166 -2.199,1.285 -3.986,1.285 0.461,-0.873 0.848,-1.709 1.334,-2.566 1.326,0 1.623,0.47 2.652,1.281" /></g><g
           transform="translate(1164.1733,140.3755)"
           id="g32"><path
             id="path34"
             style="fill:#373536;fill-opacity:1;fill-rule:nonzero;stroke:none"
             d="M 0,0 V -0.778 C 0.939,-0.503 2.174,-0.231 2.61,0 H 0" /></g><g
           transform="translate(816.9078,271.8919)"
           id="g36"><path
             id="path38"
             style="fill:#373536;fill-opacity:1;fill-rule:nonzero;stroke:none"
             d="M 0,0 C 0,-0.445 -0.667,-0.573 -0.667,-1.005 -3.006,-1.005 -0.898,-2.574 0,-3.891 0,-2.598 1.367,-2.45 0,0" /></g><g
           transform="translate(1156.3251,137.7895)"
           id="g40"><path
             id="path42"
             style="fill:#373536;fill-opacity:1;fill-rule:nonzero;stroke:none"
             d="m 0,0 h -1.31 c -1.737,-0.881 -3.5,-1.75 -5.262,-2.565 v -1.306 h -1.277 v -1.255 c 3.525,0 6.638,1.885 9.15,3.845 C -0.436,-1.281 0,-1.672 0,0" /></g><g
           transform="translate(1164.1733,139.0945)"
           id="g44"><path
             id="path46"
             style="fill:#373536;fill-opacity:1;fill-rule:nonzero;stroke:none"
             d="M 0,0 V 0.503 C -0.939,0.227 -1.483,0 0,0" /></g><g
           transform="translate(818.1592,261.8198)"
           id="g48"><path
             id="path50"
             style="fill:#373536;fill-opacity:1;fill-rule:nonzero;stroke:none"
             d="m 0,0 h 2.66 2.586 c 0,-1.968 -2.635,-3.698 -3.895,-5.159 V -6.453 C -1.251,-6.453 -0.156,-1.968 0,0 m 41.021,-163.264 c -17.714,9.718 -41.358,15.425 -50.656,35.227 -1.236,2.689 -3.245,7.14 -2.125,10.471 0,2.623 -2.174,5.345 -3.088,7.614 -1.581,3.937 -2.66,9.018 -3.484,13.07 1.812,0 3.69,-1.878 5.262,-2.611 -0.247,2.084 -0.634,4.11 -0.938,6.193 0.411,4.909 3.319,11.365 0.938,15.792 v 1.272 c 4.143,0 3.805,4.027 5.156,6.708 8.285,16.825 22.936,55.404 42.594,61.848 2.907,0.437 5.699,0.816 8.59,1.227 -1.606,-5.645 -3.229,-11.262 -4.86,-16.907 -0.98,-5.139 -1.984,-10.298 -3.014,-15.404 -2.157,0 -1.309,-0.779 -1.309,-2.574 h 2.66 c 0,-1.293 0.338,-0.918 1.301,0 13.251,0 15.722,28.03 17.624,37.369 1.581,7.597 8.153,15.256 4.324,23.895 -3.682,8.128 -16.298,11.608 -24.6,12.361 -1.309,-2.174 -2.569,-4.324 -3.895,-6.465 0,-4.591 -7.396,-6.592 -10.508,-7.749 0,-3.068 -2.315,1.898 -2.628,2.565 H 17.08 c 0,-2.211 -1.169,-4.463 0,-6.432 v -1.272 c -1.721,0.399 -3.499,0.823 -5.221,1.272 h -1.375 v -1.272 c -2.718,0 -5.172,-7.132 -7.824,-9.043 0,1.1 -5.773,-3.146 -6.917,-5.044 -1.211,-3.138 -2.381,-6.09 -3.616,-9.191 -2.38,0 -0.733,-1.375 0,-2.565 0,-1.581 1.515,-3.158 2.611,-3.916 v -1.256 c -2.611,0 -4.233,3.377 -5.172,5.172 -2.109,0 -3.797,-1.338 -5.246,-2.623 -1.804,0 -1.326,0.461 -1.326,-1.293 2.265,0 1.631,-1.063 2.611,-2.549 0,-1.89 2.956,0.227 5.245,0 1.738,0 1.277,0.457 1.277,-1.305 1.762,0 1.351,0.432 1.351,-1.272 -3.138,0 -8.219,0.288 -10.484,-1.306 h -1.326 c 0,1.491 -0.461,1.787 -1.301,2.578 0,-3.62 -2.586,-6.115 -3.92,-9.022 -2.421,0 -0.865,-1.371 0,-2.586 0,-2.22 -2.24,-2.813 -3.937,-3.867 v -3.891 h 1.31 c 0,-2.656 1.713,0.502 2.627,1.281 v 1.305 h 1.284 c 0,-4.212 -6.341,-5.999 -9.158,-7.783 0,-2.997 2.982,-5.118 5.247,-6.432 v -1.305 c -2.636,0.4 -5.247,0.881 -7.873,1.305 0,-6.353 -4.011,-17.936 1.301,-21.951 0,-1.697 0.461,-1.285 -1.301,-1.285 0,-10.595 -3.023,-16.248 3.936,-25.843 1.713,0 1.301,0.437 1.301,-1.313 -2.24,0 -3.706,-1.228 -5.237,-2.599 -1.335,0 -1.401,0.194 -0.849,-1.066 4.67,-10.002 6.753,-22.075 13.045,-31.303 9.314,-13.815 22.574,-22.718 34.976,-33.486 1.722,0 1.326,0.445 1.326,-1.317 -3.022,0 -4.991,-5.473 -6.885,-7.359 -2.931,-2.314 -5.905,-4.533 -8.861,-6.823 -8.672,-8.561 -16.685,-20.144 -20.968,-31.007 -0.708,0 -3.434,-12.118 -3.911,-14.202 -1.812,-2.059 0.271,-2.894 1.276,-3.866 0.165,-1.272 -0.799,-2.611 -1.276,-3.891 -0.396,-3.883 -0.874,-7.775 -1.31,-11.654 -0.041,-1.325 2.29,-3.022 2.586,-1.26 0,3.253 1.836,6.115 3.163,8.791 1.918,4.155 3.755,8.792 7,12.362 5.979,6.753 13.737,11.217 18.702,18.896 8.516,0 11.72,5.46 18.662,8.001 9.43,3.538 18.678,7.095 28.52,10.08 0,7.569 6.868,13.597 2.149,21.796 -2.907,4.826 -7.643,6.279 -12.271,8.709" /></g><g
           transform="translate(694.6188,124.7856)"
           id="g52"><path
             id="path54"
             style="fill:#373536;fill-opacity:1;fill-rule:nonzero;stroke:none"
             d="m 0,0 c 0.165,-13.185 0.256,-26.391 0.371,-39.576 -2.109,-7.955 -11.975,-17.615 -20.918,-17.352 -25.736,0.939 -25.481,49.833 -26.445,69.932 -0.732,15.495 -3.228,31.838 -0.502,47.737 2.289,13.77 12.889,47.889 25.571,54.342 0,0.378 0.157,1.544 0.157,1.98 C 9.438,109.944 -1.738,29.187 0,0 m -278.895,96.392 c 0,0.437 -0.774,8.425 -0.774,9.673 0,16.858 1.326,24.846 5.329,42.52 1.927,5.628 3.845,11.34 5.773,16.96 4.891,27.137 12.196,52.901 18.332,78.79 3.278,13.687 6.934,27.765 13.391,39.966 2.314,-12.785 -5.147,-31.715 -7.396,-44.019 -5.765,-28.865 -11.488,-57.751 -17.212,-86.559 -5.312,-19.345 -9.545,-38.583 -14.832,-57.891 -0.758,-1.832 -1.417,-1.626 -2.611,0.56 M -356.473,-9.557 c -3.706,-9.59 -26.592,-22.1 -36.343,-23.928 -0.692,-0.128 -1.491,-0.416 -1.993,-0.416 -0.873,0 -1.466,-0.342 -2.363,-0.342 -1.829,-0.399 -2.652,-1.236 -4.761,-0.56 -1.878,0.798 -3.335,5.789 -4.439,8.227 -2.948,6.572 -4.208,13.988 -4.579,21.54 -2.33,48.322 16.438,85.567 46.976,117.533 2.404,2.792 4.9,6.959 6.563,-1.326 0,-7.993 1.466,-17.159 1.079,-25.777 -0.799,-16.356 -3.319,-35.009 -1.853,-51.608 0.346,-7.371 0.618,-14.671 1.005,-22.018 0.486,-6.353 3.138,-15.145 0.708,-21.325 m -57.294,26.473 V 15.59 c -2.471,0 -0.527,2.54 0,3.879 z M 20.877,-33.58 c -2.808,21.585 -0.016,45.69 0.321,67.321 -0.823,15.923 -1.597,31.863 -2.446,47.761 0,12.58 2.125,25.341 -0.025,37.484 -0.683,3.859 -1.325,6.317 -4.233,8.792 -0.757,0.477 -1.531,0.972 -2.314,1.511 -2.404,0.399 -1.581,-2.43 -2.627,-3.871 -6.135,10.669 -15.845,15.178 -20.951,16.78 -1.713,-0.399 -1.326,-2.141 -1.326,-2.565 -17.187,0 -20.901,-7.301 -30.035,-19.432 -3.335,-3.665 -6.588,-7.202 -9.841,-10.772 -15.952,-24.731 -15.796,-57.43 -17.78,-88.667 -0.808,-10.805 0.708,-23.69 -2.636,-33.589 0,-0.416 -0.873,-1.272 -1.325,-1.272 0,16.434 -20.375,91.471 -40.404,85.826 -9.108,-2.561 -12.477,-14.775 -17.261,-21.264 -0.478,-0.4 -0.478,-1.672 -1.302,-1.268 0,0.823 -0.667,6.819 -0.939,8.96 -1.375,10.908 -14.494,45.266 -24.245,49.923 -15.384,7.383 -32.505,-42.05 -33.831,-52.418 -0.387,-0.857 -0.733,-1.19 -1.26,0 -0.659,3.446 -1.368,6.934 -2.1,10.38 -1.334,13.358 -8.474,66.259 -31.089,49.133 -16.092,-12.028 -19,-60.819 -23.925,-81.226 -3.845,-15.817 -8.169,-31.304 -14.988,-45.481 -1.532,-2.68 -2.224,-2.256 -2.611,-1.293 -1.235,3.467 -2.519,7.013 -3.681,10.484 -2.067,5.39 -3.096,12.864 -2.429,19.168 0.939,9.59 3.731,18.452 6.497,27.045 1.08,5.275 2.175,10.542 3.254,15.808 6.497,20.383 13.621,40.457 18.883,61.779 10.023,40.815 11.448,84.904 19.758,126.621 3.475,17.842 4.694,36.133 8.103,54.193 1.161,6.613 4.941,11.925 3.862,19.411 -0.633,3.846 -4.364,7.165 -7.939,8.297 -6.819,2.257 -12.015,-4.681 -15.82,-8.643 -21.099,-21.425 -24.813,-53.069 -31.155,-82.062 -4.57,-20.564 -8.878,-41.647 -10.961,-63.475 -0.848,-9.508 -1.738,-18.962 -2.635,-28.45 -0.272,-5.839 1.26,-12.019 -1.483,-16.767 0,-2.212 0.568,-2.142 1.326,-3.916 0.157,-2.347 0.618,-12.704 0.799,-15.038 -0.206,-11.822 -0.157,-17.422 -2.973,-28.602 -1.285,-3.55 -2.66,-7.086 -4.011,-10.644 -0.823,-7.371 -1.713,-14.73 -2.602,-22.055 -4.143,-17.809 -10.056,-36.442 -18.019,-52.522 -2.38,-4.9 -5.197,-13.963 -13.045,-11.402 -16.685,5.518 -14.19,84.023 -13.828,104.13 0.14,11.698 2.339,29.985 -1.26,40.724 -1.993,5.814 -6.292,11.843 -11.9,12.221 -1.672,0 -4.628,-1.35 -5.402,-2.095 -5.131,-4.221 -7.009,-4.67 -12.527,-7.713 -8.4,-4.67 -16.273,-12.337 -22.911,-19.81 -15.31,-17.122 -28.379,-35.709 -37.175,-56.096 -12.954,-29.928 -27.811,-98.266 21.66,-102.878 2.379,-0.231 5.262,-3.574 1.35,-3.871 -9.249,0 -20.901,-5.835 -28.89,-9.018 0,-8.239 5.79,-16.034 4.143,-24.266 -1.186,-5.505 -7.437,-6.053 -11.448,-3.364 -27.737,18.497 -35.132,79.452 -36.763,112.921 -0.955,18.905 1.4,38.501 2.018,56.846 0.387,13.061 2.017,24.496 3.664,36.133 0.067,3.401 2.858,28.935 3.566,32.518 6.984,36.635 15.088,74.473 15.088,114.806 0,23.887 -3.064,46.996 -7.395,68.512 -1.483,7.28 -2.356,16.022 -7.231,21.745 -4.604,5.415 -13.416,7.396 -20.647,7.828 -5.402,-6.658 -10.895,-13.263 -16.273,-19.913 -12.773,-18.6 -22.162,-41.408 -29.121,-62.903 -4.439,-14.239 -8.812,-28.383 -13.275,-42.578 -1.853,-6.843 -3.706,-13.687 -5.543,-20.555 -0.527,-5.403 -1.054,-3.821 -1.301,-2.599 0,4.913 -4.398,13.828 -7.396,17.468 -16.479,19.72 -35.915,-15.557 -43.722,-25.225 0.074,0.457 0.643,6.959 0.807,9.121 1.895,23.417 -6.209,86.114 -38.641,80.184 -8.218,-1.453 -12.616,-16.928 -14.65,-23.372 -8.17,-25.328 -9.406,-53.539 -15.014,-80.345 -1.284,-9.006 -2.545,-17.9 -3.829,-26.828 -1.417,-8.272 -3.591,-16.697 -3.179,-25.888 0.684,-14.193 3.047,-24.253 10.278,-34.91 v -1.326 c 4.002,0 5.929,8.54 6.596,11.653 2.446,12.576 1.186,26.712 3.014,40.012 2.957,22.376 6.844,43.949 12.527,64.596 3.409,12.497 2.586,26.806 9.314,37.471 v 1.272 h 1.301 c 0.692,-2.174 1.351,-4.327 1.977,-6.571 1.029,-5.617 1.985,-11.123 2.948,-16.628 1.623,-13.988 1.812,-29.026 3.253,-43.883 0.939,-10.175 2.421,-21.482 1.894,-32.275 -1.919,-16.882 -3.911,-33.671 -5.855,-50.483 -2.084,-24.678 -2.701,-50.578 -3.113,-76.137 -0.165,-9.417 -1.557,-19.831 -0.914,-29.722 0.453,-7.692 2.33,-14.799 3.73,-21.997 h 1.302 c 0,2.895 5.632,5.962 7.164,8.285 3.665,5.736 6.251,11.834 7.05,18.909 0.436,14.238 0.914,28.498 1.26,42.803 1.993,17.855 3.961,35.87 7.025,53.107 0.37,5.081 0.667,10.208 0.988,15.359 5.609,28.589 11.472,61.223 31.542,82.384 0.577,0.399 0.873,0.893 1.309,0.893 0.544,-2.322 1.121,-4.089 1.623,-6.374 0.247,-6.354 0.453,-12.662 0.758,-18.978 -1.878,-38.238 -10.097,-74.861 -12.568,-112.427 -1.54,-22.697 -2.339,-45.642 -2.701,-68.429 -0.206,-10.541 1.919,-64.999 11.101,-63.533 24.838,4.176 16.414,79.473 19.296,100.935 5.172,38.159 11.423,75.309 17.394,112.496 1.811,15.425 3.615,30.842 5.427,46.271 1.26,4.418 2.429,8.907 3.64,13.371 2.47,12.003 3.5,22.981 6.292,34.461 2.157,8.903 5.888,16.183 8.309,24.834 6.688,24.287 14.832,46.745 31.863,65.695 2.084,2.199 5.288,0.518 5.288,-1.302 0,-5.917 3.162,-11.492 3.096,-18.052 -0.436,-24.892 -2.199,-49.545 -2.998,-74.77 -0.691,-21.038 -5.427,-41.923 -7.675,-62.194 -8.812,-78.081 -14.552,-175.844 12.452,-245.018 4.628,-11.802 24.385,-48.005 39.876,-48.005 17.945,0 34.268,28.775 19.485,42.442 0,22.75 36.558,14.535 48.483,23.22 8.836,6.436 13.522,16.401 18.974,25.171 0.774,1.121 1.507,3.789 2.817,4.233 0,-4.36 4.274,-12.143 6.613,-15.429 13.868,-19.72 32.958,-7.416 43.648,8.013 1.334,0 4.653,-17.867 13.119,-18.085 9.52,0 20.902,7.099 26.691,13.815 8.129,9.376 14.487,17.534 18.291,29.142 1.285,8.046 2.561,16.067 3.912,24.171 1.417,7.358 2.751,14.716 4.076,22.1 1.236,10.335 1.697,23.92 7.347,32.209 v 1.292 h 1.284 c 1.055,-11.274 1.994,-22.466 2.998,-33.753 0.272,-10.253 1.302,-19.732 1.787,-29.573 -0.049,-2.681 -0.09,-5.287 -0.165,-7.873 2.175,-11.262 4.143,-22.677 4.555,-34.763 3.187,-5.95 9.619,-6.67 15.433,-3.306 17.715,10.22 14.832,73.823 25.547,93.609 0.337,0.461 1.325,4.019 2.289,2.738 0.387,-0.618 1.557,-10.681 1.894,-12.819 4.027,-29.449 -0.527,-65.249 15.112,-89.252 1.853,-2.264 5.741,-0.835 7.618,-0.387 19.708,4.876 21.791,39.716 24.106,57.212 1.194,6.49 2.404,12.946 3.664,19.378 0.206,2.014 0.98,1.647 1.301,0 1.195,-5.608 2.364,-11.179 3.484,-16.812 1.466,-8.162 2.421,-16.582 4.991,-24.32 2.009,-6.32 5.106,-11.904 7.255,-18.27 0.89,-1.899 2.331,-3.533 3.023,-5.423 5.534,-15.886 18.793,-20.922 33.666,-12.671 1.285,0.643 0.848,0 2.66,0 0,-13.95 22.475,-42.425 37.999,-42.737 11.126,-0.194 17.533,6.262 24.854,13.049 0,1.729 -0.453,1.292 1.351,1.292 0,-7.082 15.112,-28.004 23.537,-27.811 3.821,0.07 5.625,5.757 9.24,7.12 0,5.056 -10.162,16.537 -12.246,22.421 -3.566,10.245 -3.846,21.861 -5.287,33.041" /></g><g
           transform="translate(896.8163,121.8909)"
           id="g56"><path
             id="path58"
             style="fill:#373536;fill-opacity:1;fill-rule:nonzero;stroke:none"
             d="M 0,0 C -6.753,0.127 -12.246,4.303 -15.268,9.718 -29.829,36.178 -8.68,63.854 2.627,84.397 5.93,80.506 8.145,75.655 12.699,72.917 16.093,70.916 20.466,70.916 22.681,67.102 34.606,46.893 30.875,-0.482 0,0 m 269.967,13.333 h -1.284 V 12.028 C 262.094,9.841 255.572,7.716 249.025,5.575 243.762,5.118 238.541,4.727 233.295,4.303 v 1.272 c 1.837,0 1.902,1.326 2.611,2.586 h -13.111 c -62.153,0 -54.733,86.868 -79.917,122.717 v 1.306 c -1.326,0 -3.937,-0.861 -3.937,-1.306 -0.453,0 -0.939,-1.293 -2.61,-1.293 0,2.599 -4.555,3.307 -6.589,3.891 -6.638,-8.61 -13.325,-17.076 -19.938,-25.649 -2.957,-4.052 -7.025,-7.144 -8.861,-11.822 -2.537,-2.508 -2.702,-1.318 -2.627,0 0,3.751 0.642,12.048 -0.256,14.968 -0.98,3.092 -5.015,4.657 -7.733,5.427 -16.529,5.127 -25.316,-5.357 -37.867,-12.773 -6.613,-2.944 -13.185,-5.954 -19.707,-8.94 -3.797,0.342 -7.643,0.663 -11.513,1.017 -3.344,0.939 -7.94,4.979 -12.066,2.887 0,-2.108 -1.572,-3.665 -2.627,-5.164 v -1.305 c -8.309,0 -14.263,7.099 -24.27,1.499 -6.679,-3.661 -8.993,-12.942 -11.941,-19.168 -8.82,-17.616 -23.372,-63.064 -0.486,-76.594 3.228,0 3.5,-6.498 3.912,-9.064 2.66,0.4 5.246,0.857 7.881,1.273 v -3.858 c 0,-1.73 -0.461,-1.294 1.326,-1.294 0,-2.256 1.302,-0.745 2.726,-0.308 3.525,1.029 6.86,0.181 10.41,-0.161 11.604,-0.996 23.759,2.953 30.496,11.501 4.118,5.254 9.932,9.788 11.464,16.483 0.37,3.64 0.782,7.289 1.144,11.019 0.848,2.611 1.672,5.222 2.471,7.865 -0.733,2.644 -1.416,5.263 -2.125,7.906 -1.12,6.354 -7.255,26.062 -4.628,31.065 2.224,4.533 10.302,6.534 14.56,8.297 5.559,2.462 11.102,5.942 17.352,7.062 0,-8.343 -3.821,-17.488 -1.325,-25.81 -2.043,0 -1.442,-0.799 -1.631,-2.446 -2.191,-15.063 -0.955,-30.126 -0.955,-45.361 0,0 8.235,-7.507 9.133,-7.725 3.911,0 5.699,-2.759 9.149,-1.293 0,-2.676 2.891,-2.619 5.271,-2.619 1.738,0 1.351,0.47 1.351,-1.293 2.701,0 5.312,8.618 4.85,11.604 -0.642,4.624 -3.022,9.314 -2.47,14.26 1.713,6.065 3.45,12.11 5.238,18.175 6.135,19.436 13.967,42.277 27.72,58.028 v 1.305 c 5.658,0 6.185,-9.043 7.19,-12.728 10.533,-38.48 21.058,-71.752 58.373,-93.209 0,-1.647 16.957,-1.833 19.658,-5.172 h 2.611 c 0,2.755 1.877,-0.14 2.61,-1.293 3.986,0.959 7.964,1.91 11.925,2.915 18.975,1.614 36.492,6.115 51.002,17.789 -3.203,0 -4.949,0.412 -6.572,2.561" /></g><g
           transform="translate(936.0916,139.0945)"
           id="g60"><path
             id="path62"
             style="fill:#373536;fill-opacity:1;fill-rule:nonzero;stroke:none"
             d="m 0,0 h 1.351 c 0,3.558 1.35,5.72 0,9.051 C 0.939,5.996 0.511,3.019 0,0" /></g><g
           transform="translate(774.9479,66.7829)"
           id="g64"><path
             id="path66"
             style="fill:#373536;fill-opacity:1;fill-rule:nonzero;stroke:none"
             d="m 0,0 v -1.293 c -1.853,0 -3.846,1.829 -5.271,2.561 0,-2.297 -2.586,-4.818 -3.911,-6.465 v -1.28 c -18.407,0 -9.406,47.416 -17.032,58.118 2.109,0 1.013,16.413 0,19.366 2.677,0 1.878,1.202 3.188,3.133 -3.83,-1.565 -2.726,2.026 -3.188,2.026 0,2.141 2.224,2.096 3.896,2.598 0,2.541 -1.054,3.64 -2.611,5.197 0,2.174 1.441,3.607 2.611,5.151 1.943,0 -1.219,3.158 -1.326,5.217 -0.231,3.562 2.191,6.078 0.066,8.952 v 6.478 c 1.737,0 3.113,1.799 3.664,3.24 1.664,4.427 -0.32,7.795 0,12.213 1.162,17.246 6.819,59.218 -14.123,63.372 -2.611,-0.345 -7.215,-14.271 -8.59,-22.103 -0.321,-9.43 -0.642,-18.848 -1.005,-28.236 -3.87,-39.839 -8.35,-87.041 0.552,-125.723 1.581,-7.062 1.713,-13.3 6.358,-18.999 0,-2.862 0.305,-2.635 1.31,-5.164 h 1.375 c 0,-1.968 -0.848,-1.293 -2.685,-1.293 v -1.305 h 1.31 c 0,-1.165 3.639,-2.998 4.941,-4.027 4.142,-3.298 10.92,-7.293 16.965,-6.111 C -7.535,-23.212 5.608,-1.408 2.61,3.846 2.61,2.059 1.161,1.145 0,0" /></g><g
           transform="translate(824.7312,47.4048)"
           id="g68"><path
             id="path70"
             style="fill:#373536;fill-opacity:1;fill-rule:nonzero;stroke:none"
             d="M 0,0 H -2.61 C -1.391,-1.466 -1.351,-0.354 0,0" /></g><g
           transform="translate(805.0895,30.5921)"
           id="g72"><path
             id="path74"
             style="fill:#373536;fill-opacity:1;fill-rule:nonzero;stroke:none"
             d="M 0,0 C -0.453,-0.902 -0.864,-1.738 -1.326,-2.553 -1.326,-5.493 0,-1.041 0,0" /></g></g></g><g
       id="g76"><g
         clip-path="url(#clipPath82)"
         id="g78"><g
           transform="translate(740.9105,375.4821)"
           id="g84"><path
             id="path86"
             style="fill:#ffffff;fill-opacity:1;fill-rule:nonzero;stroke:none"
             d="m 0,0 v -1.301 c -2.174,0 -2.981,2.355 -3.961,3.866 C -2.685,1.717 -1.375,0.881 0,0 m -3.961,-56.858 c 0,10.768 -3.072,22.331 3.961,31.06 v 1.26 c 2.949,0 5.65,-3.422 8.005,-4.702 3.047,-1.569 6.712,-2.463 10.262,-3.035 v 1.305 c 4.644,0 -7.166,18.234 -9.158,20.626 0,2.195 2.314,1.923 3.986,2.586 h -1.376 c 0,4.085 -9.454,11.802 -13.094,12.955 V 3.883 c -3.731,0 -6.317,-2.063 -9.134,-3.883 0,-20.395 -26.781,-45.46 6.548,-56.858" /></g><g
           transform="translate(1141.9044,132.663)"
           id="g88"><path
             id="path90"
             style="fill:#ffffff;fill-opacity:1;fill-rule:nonzero;stroke:none"
             d="m 0,0 h -1.326 c -0.848,-0.449 -1.746,-0.906 -2.61,-1.293 0,-1.697 0.436,-1.318 -1.31,-1.318 v -1.26 c 2.273,0 3.616,1.775 5.246,2.578 V 0" /></g><g
           transform="translate(1175.4148,135.0635)"
           id="g92"><path
             id="path94"
             style="fill:#ffffff;fill-opacity:1;fill-rule:nonzero;stroke:none"
             d="m 0,0 c 0,2.166 -2.199,1.285 -3.986,1.285 0.461,-0.873 0.848,-1.709 1.334,-2.566 1.326,0 1.623,0.47 2.652,1.281" /></g><g
           transform="translate(1164.1733,140.3755)"
           id="g96"><path
             id="path98"
             style="fill:#ffffff;fill-opacity:1;fill-rule:nonzero;stroke:none"
             d="M 0,0 V -0.778 C 0.939,-0.503 2.174,-0.231 2.61,0 H 0" /></g><g
           transform="translate(816.9078,271.8919)"
           id="g100"><path
             id="path102"
             style="fill:#ffffff;fill-opacity:1;fill-rule:nonzero;stroke:none"
             d="M 0,0 C 0,-0.445 -0.667,-0.573 -0.667,-1.005 -3.006,-1.005 -0.898,-2.574 0,-3.891 0,-2.598 1.367,-2.45 0,0" /></g><g
           transform="translate(1156.3251,137.7895)"
           id="g104"><path
             id="path106"
             style="fill:#ffffff;fill-opacity:1;fill-rule:nonzero;stroke:none"
             d="m 0,0 h -1.31 c -1.737,-0.881 -3.5,-1.75 -5.262,-2.565 v -1.306 h -1.277 v -1.255 c 3.525,0 6.638,1.885 9.15,3.845 C -0.436,-1.281 0,-1.672 0,0" /></g><g
           transform="translate(1164.1733,139.0945)"
           id="g108"><path
             id="path110"
             style="fill:#ffffff;fill-opacity:1;fill-rule:nonzero;stroke:none"
             d="M 0,0 V 0.503 C -0.939,0.227 -1.483,0 0,0" /></g><g
           transform="translate(818.1592,261.8198)"
           id="g112"><path
             id="path114"
             style="fill:#ffffff;fill-opacity:1;fill-rule:nonzero;stroke:none"
             d="m 0,0 h 2.66 2.586 c 0,-1.968 -2.635,-3.698 -3.895,-5.159 V -6.453 C -1.251,-6.453 -0.156,-1.968 0,0 m 41.021,-163.264 c -17.714,9.718 -41.358,15.425 -50.656,35.227 -1.236,2.689 -3.245,7.14 -2.125,10.471 0,2.623 -2.174,5.345 -3.088,7.614 -1.581,3.937 -2.66,9.018 -3.484,13.07 1.812,0 3.69,-1.878 5.262,-2.611 -0.247,2.084 -0.634,4.11 -0.938,6.193 0.411,4.909 3.319,11.365 0.938,15.792 v 1.272 c 4.143,0 3.805,4.027 5.156,6.708 8.285,16.825 22.936,55.404 42.594,61.848 2.907,0.437 5.699,0.816 8.59,1.227 -1.606,-5.645 -3.229,-11.262 -4.86,-16.907 -0.98,-5.139 -1.984,-10.298 -3.014,-15.404 -2.157,0 -1.309,-0.779 -1.309,-2.574 h 2.66 c 0,-1.293 0.338,-0.918 1.301,0 13.251,0 15.722,28.03 17.624,37.369 1.581,7.597 8.153,15.256 4.324,23.895 -3.682,8.128 -16.298,11.608 -24.6,12.361 -1.309,-2.174 -2.569,-4.324 -3.895,-6.465 0,-4.591 -7.396,-6.592 -10.508,-7.749 0,-3.068 -2.315,1.898 -2.628,2.565 H 17.08 c 0,-2.211 -1.169,-4.463 0,-6.432 v -1.272 c -1.721,0.399 -3.499,0.823 -5.221,1.272 h -1.375 v -1.272 c -2.718,0 -5.172,-7.132 -7.824,-9.043 0,1.1 -5.773,-3.146 -6.917,-5.044 -1.211,-3.138 -2.381,-6.09 -3.616,-9.191 -2.38,0 -0.733,-1.375 0,-2.565 0,-1.581 1.515,-3.158 2.611,-3.916 v -1.256 c -2.611,0 -4.233,3.377 -5.172,5.172 -2.109,0 -3.797,-1.338 -5.246,-2.623 -1.804,0 -1.326,0.461 -1.326,-1.293 2.265,0 1.631,-1.063 2.611,-2.549 0,-1.89 2.956,0.227 5.245,0 1.738,0 1.277,0.457 1.277,-1.305 1.762,0 1.351,0.432 1.351,-1.272 -3.138,0 -8.219,0.288 -10.484,-1.306 h -1.326 c 0,1.491 -0.461,1.787 -1.301,2.578 0,-3.62 -2.586,-6.115 -3.92,-9.022 -2.421,0 -0.865,-1.371 0,-2.586 0,-2.22 -2.24,-2.813 -3.937,-3.867 v -3.891 h 1.31 c 0,-2.656 1.713,0.502 2.627,1.281 v 1.305 h 1.284 c 0,-4.212 -6.341,-5.999 -9.158,-7.783 0,-2.997 2.982,-5.118 5.247,-6.432 v -1.305 c -2.636,0.4 -5.247,0.881 -7.873,1.305 0,-6.353 -4.011,-17.936 1.301,-21.951 0,-1.697 0.461,-1.285 -1.301,-1.285 0,-10.595 -3.023,-16.248 3.936,-25.843 1.713,0 1.301,0.437 1.301,-1.313 -2.24,0 -3.706,-1.228 -5.237,-2.599 -1.335,0 -1.401,0.194 -0.849,-1.066 4.67,-10.002 6.753,-22.075 13.045,-31.303 9.314,-13.815 22.574,-22.718 34.976,-33.486 1.722,0 1.326,0.445 1.326,-1.317 -3.022,0 -4.991,-5.473 -6.885,-7.359 -2.931,-2.314 -5.905,-4.533 -8.861,-6.823 -8.672,-8.561 -16.685,-20.144 -20.968,-31.007 -0.708,0 -3.434,-12.118 -3.911,-14.202 -1.812,-2.059 0.271,-2.894 1.276,-3.866 0.165,-1.272 -0.799,-2.611 -1.276,-3.891 -0.396,-3.883 -0.874,-7.775 -1.31,-11.654 -0.041,-1.325 2.29,-3.022 2.586,-1.26 0,3.253 1.836,6.115 3.163,8.791 1.918,4.155 3.755,8.792 7,12.362 5.979,6.753 13.737,11.217 18.702,18.896 8.516,0 11.72,5.46 18.662,8.001 9.43,3.538 18.678,7.095 28.52,10.08 0,7.569 6.868,13.597 2.149,21.796 -2.907,4.826 -7.643,6.279 -12.271,8.709" /></g><g
           transform="translate(694.6188,124.7856)"
           id="g116"><path
             id="path118"
             style="fill:#ffffff;fill-opacity:1;fill-rule:nonzero;stroke:none"
             d="m 0,0 c 0.165,-13.185 0.256,-26.391 0.371,-39.576 -2.109,-7.955 -11.975,-17.615 -20.918,-17.352 -25.736,0.939 -25.481,49.833 -26.445,69.932 -0.732,15.495 -3.228,31.838 -0.502,47.737 2.289,13.77 12.889,47.889 25.571,54.342 0,0.378 0.157,1.544 0.157,1.98 C 9.438,109.944 -1.738,29.187 0,0 m -278.895,96.392 c 0,0.437 -0.774,8.425 -0.774,9.673 0,16.858 1.326,24.846 5.329,42.52 1.927,5.628 3.845,11.34 5.773,16.96 4.891,27.137 12.196,52.901 18.332,78.79 3.278,13.687 6.934,27.765 13.391,39.966 2.314,-12.785 -5.147,-31.715 -7.396,-44.019 -5.765,-28.865 -11.488,-57.751 -17.212,-86.559 -5.312,-19.345 -9.545,-38.583 -14.832,-57.891 -0.758,-1.832 -1.417,-1.626 -2.611,0.56 M -356.473,-9.557 c -3.706,-9.59 -26.592,-22.1 -36.343,-23.928 -0.692,-0.128 -1.491,-0.416 -1.993,-0.416 -0.873,0 -1.466,-0.342 -2.363,-0.342 -1.829,-0.399 -2.652,-1.236 -4.761,-0.56 -1.878,0.798 -3.335,5.789 -4.439,8.227 -2.948,6.572 -4.208,13.988 -4.579,21.54 -2.33,48.322 16.438,85.567 46.976,117.533 2.404,2.792 4.9,6.959 6.563,-1.326 0,-7.993 1.466,-17.159 1.079,-25.777 -0.799,-16.356 -3.319,-35.009 -1.853,-51.608 0.346,-7.371 0.618,-14.671 1.005,-22.018 0.486,-6.353 3.138,-15.145 0.708,-21.325 m -57.294,26.473 V 15.59 c -2.471,0 -0.527,2.54 0,3.879 z M 20.877,-33.58 c -2.808,21.585 -0.016,45.69 0.321,67.321 -0.823,15.923 -1.597,31.863 -2.446,47.761 0,12.58 2.125,25.341 -0.025,37.484 -0.683,3.859 -1.325,6.317 -4.233,8.792 -0.757,0.477 -1.531,0.972 -2.314,1.511 -2.404,0.399 -1.581,-2.43 -2.627,-3.871 -6.135,10.669 -15.845,15.178 -20.951,16.78 -1.713,-0.399 -1.326,-2.141 -1.326,-2.565 -17.187,0 -20.901,-7.301 -30.035,-19.432 -3.335,-3.665 -6.588,-7.202 -9.841,-10.772 -15.952,-24.731 -15.796,-57.43 -17.78,-88.667 -0.808,-10.805 0.708,-23.69 -2.636,-33.589 0,-0.416 -0.873,-1.272 -1.325,-1.272 0,16.434 -20.375,91.471 -40.404,85.826 -9.108,-2.561 -12.477,-14.775 -17.261,-21.264 -0.478,-0.4 -0.478,-1.672 -1.302,-1.268 0,0.823 -0.667,6.819 -0.939,8.96 -1.375,10.908 -14.494,45.266 -24.245,49.923 -15.384,7.383 -32.505,-42.05 -33.831,-52.418 -0.387,-0.857 -0.733,-1.19 -1.26,0 -0.659,3.446 -1.368,6.934 -2.1,10.38 -1.334,13.358 -8.474,66.259 -31.089,49.133 -16.092,-12.028 -19,-60.819 -23.925,-81.226 -3.845,-15.817 -8.169,-31.304 -14.988,-45.481 -1.532,-2.68 -2.224,-2.256 -2.611,-1.293 -1.235,3.467 -2.519,7.013 -3.681,10.484 -2.067,5.39 -3.096,12.864 -2.429,19.168 0.939,9.59 3.731,18.452 6.497,27.045 1.08,5.275 2.175,10.542 3.254,15.808 6.497,20.383 13.621,40.457 18.883,61.779 10.023,40.815 11.448,84.904 19.758,126.621 3.475,17.842 4.694,36.133 8.103,54.193 1.161,6.613 4.941,11.925 3.862,19.411 -0.633,3.846 -4.364,7.165 -7.939,8.297 -6.819,2.257 -12.015,-4.681 -15.82,-8.643 -21.099,-21.425 -24.813,-53.069 -31.155,-82.062 -4.57,-20.564 -8.878,-41.647 -10.961,-63.475 -0.848,-9.508 -1.738,-18.962 -2.635,-28.45 -0.272,-5.839 1.26,-12.019 -1.483,-16.767 0,-2.212 0.568,-2.142 1.326,-3.916 0.157,-2.347 0.618,-12.704 0.799,-15.038 -0.206,-11.822 -0.157,-17.422 -2.973,-28.602 -1.285,-3.55 -2.66,-7.086 -4.011,-10.644 -0.823,-7.371 -1.713,-14.73 -2.602,-22.055 -4.143,-17.809 -10.056,-36.442 -18.019,-52.522 -2.38,-4.9 -5.197,-13.963 -13.045,-11.402 -16.685,5.518 -14.19,84.023 -13.828,104.13 0.14,11.698 2.339,29.985 -1.26,40.724 -1.993,5.814 -6.292,11.843 -11.9,12.221 -1.672,0 -4.628,-1.35 -5.402,-2.095 -5.131,-4.221 -7.009,-4.67 -12.527,-7.713 -8.4,-4.67 -16.273,-12.337 -22.911,-19.81 -15.31,-17.122 -28.379,-35.709 -37.175,-56.096 -12.954,-29.928 -27.811,-98.266 21.66,-102.878 2.379,-0.231 5.262,-3.574 1.35,-3.871 -9.249,0 -20.901,-5.835 -28.89,-9.018 0,-8.239 5.79,-16.034 4.143,-24.266 -1.186,-5.505 -7.437,-6.053 -11.448,-3.364 -27.737,18.497 -35.132,79.452 -36.763,112.921 -0.955,18.905 1.4,38.501 2.018,56.846 0.387,13.061 2.017,24.496 3.664,36.133 0.067,3.401 2.858,28.935 3.566,32.518 6.984,36.635 15.088,74.473 15.088,114.806 0,23.887 -3.064,46.996 -7.395,68.512 -1.483,7.28 -2.356,16.022 -7.231,21.745 -4.604,5.415 -13.416,7.396 -20.647,7.828 -5.402,-6.658 -10.895,-13.263 -16.273,-19.913 -12.773,-18.6 -22.162,-41.408 -29.121,-62.903 -4.439,-14.239 -8.812,-28.383 -13.275,-42.578 -1.853,-6.843 -3.706,-13.687 -5.543,-20.555 -0.527,-5.403 -1.054,-3.821 -1.301,-2.599 0,4.913 -4.398,13.828 -7.396,17.468 -16.479,19.72 -35.915,-15.557 -43.722,-25.225 0.074,0.457 0.643,6.959 0.807,9.121 1.895,23.417 -6.209,86.114 -38.641,80.184 -8.218,-1.453 -12.616,-16.928 -14.65,-23.372 -8.17,-25.328 -9.406,-53.539 -15.014,-80.345 -1.284,-9.006 -2.545,-17.9 -3.829,-26.828 -1.417,-8.272 -3.591,-16.697 -3.179,-25.888 0.684,-14.193 3.047,-24.253 10.278,-34.91 v -1.326 c 4.002,0 5.929,8.54 6.596,11.653 2.446,12.576 1.186,26.712 3.014,40.012 2.957,22.376 6.844,43.949 12.527,64.596 3.409,12.497 2.586,26.806 9.314,37.471 v 1.272 h 1.301 c 0.692,-2.174 1.351,-4.327 1.977,-6.571 1.029,-5.617 1.985,-11.123 2.948,-16.628 1.623,-13.988 1.812,-29.026 3.253,-43.883 0.939,-10.175 2.421,-21.482 1.894,-32.275 -1.919,-16.882 -3.911,-33.671 -5.855,-50.483 -2.084,-24.678 -2.701,-50.578 -3.113,-76.137 -0.165,-9.417 -1.557,-19.831 -0.914,-29.722 0.453,-7.692 2.33,-14.799 3.73,-21.997 h 1.302 c 0,2.895 5.632,5.962 7.164,8.285 3.665,5.736 6.251,11.834 7.05,18.909 0.436,14.238 0.914,28.498 1.26,42.803 1.993,17.855 3.961,35.87 7.025,53.107 0.37,5.081 0.667,10.208 0.988,15.359 5.609,28.589 11.472,61.223 31.542,82.384 0.577,0.399 0.873,0.893 1.309,0.893 0.544,-2.322 1.121,-4.089 1.623,-6.374 0.247,-6.354 0.453,-12.662 0.758,-18.978 -1.878,-38.238 -10.097,-74.861 -12.568,-112.427 -1.54,-22.697 -2.339,-45.642 -2.701,-68.429 -0.206,-10.541 1.919,-64.999 11.101,-63.533 24.838,4.176 16.414,79.473 19.296,100.935 5.172,38.159 11.423,75.309 17.394,112.496 1.811,15.425 3.615,30.842 5.427,46.271 1.26,4.418 2.429,8.907 3.64,13.371 2.47,12.003 3.5,22.981 6.292,34.461 2.157,8.903 5.888,16.183 8.309,24.834 6.688,24.287 14.832,46.745 31.863,65.695 2.084,2.199 5.288,0.518 5.288,-1.302 0,-5.917 3.162,-11.492 3.096,-18.052 -0.436,-24.892 -2.199,-49.545 -2.998,-74.77 -0.691,-21.038 -5.427,-41.923 -7.675,-62.194 -8.812,-78.081 -14.552,-175.844 12.452,-245.018 4.628,-11.802 24.385,-48.005 39.876,-48.005 17.945,0 34.268,28.775 19.485,42.442 0,22.75 36.558,14.535 48.483,23.22 8.836,6.436 13.522,16.401 18.974,25.171 0.774,1.121 1.507,3.789 2.817,4.233 0,-4.36 4.274,-12.143 6.613,-15.429 13.868,-19.72 32.958,-7.416 43.648,8.013 1.334,0 4.653,-17.867 13.119,-18.085 9.52,0 20.902,7.099 26.691,13.815 8.129,9.376 14.487,17.534 18.291,29.142 1.285,8.046 2.561,16.067 3.912,24.171 1.417,7.358 2.751,14.716 4.076,22.1 1.236,10.335 1.697,23.92 7.347,32.209 v 1.292 h 1.284 c 1.055,-11.274 1.994,-22.466 2.998,-33.753 0.272,-10.253 1.302,-19.732 1.787,-29.573 -0.049,-2.681 -0.09,-5.287 -0.165,-7.873 2.175,-11.262 4.143,-22.677 4.555,-34.763 3.187,-5.95 9.619,-6.67 15.433,-3.306 17.715,10.22 14.832,73.823 25.547,93.609 0.337,0.461 1.325,4.019 2.289,2.738 0.387,-0.618 1.557,-10.681 1.894,-12.819 4.027,-29.449 -0.527,-65.249 15.112,-89.252 1.853,-2.264 5.741,-0.835 7.618,-0.387 19.708,4.876 21.791,39.716 24.106,57.212 1.194,6.49 2.404,12.946 3.664,19.378 0.206,2.014 0.98,1.647 1.301,0 1.195,-5.608 2.364,-11.179 3.484,-16.812 1.466,-8.162 2.421,-16.582 4.991,-24.32 2.009,-6.32 5.106,-11.904 7.255,-18.27 0.89,-1.899 2.331,-3.533 3.023,-5.423 5.534,-15.886 18.793,-20.922 33.666,-12.671 1.285,0.643 0.848,0 2.66,0 0,-13.95 22.475,-42.425 37.999,-42.737 11.126,-0.194 17.533,6.262 24.854,13.049 0,1.729 -0.453,1.292 1.351,1.292 0,-7.082 15.112,-28.004 23.537,-27.811 3.821,0.07 5.625,5.757 9.24,7.12 0,5.056 -10.162,16.537 -12.246,22.421 -3.566,10.245 -3.846,21.861 -5.287,33.041" /></g><g
           transform="translate(896.8163,121.8909)"
           id="g120"><path
             id="path122"
             style="fill:#ffffff;fill-opacity:1;fill-rule:nonzero;stroke:none"
             d="M 0,0 C -6.753,0.127 -12.246,4.303 -15.268,9.718 -29.829,36.178 -8.68,63.854 2.627,84.397 5.93,80.506 8.145,75.655 12.699,72.917 16.093,70.916 20.466,70.916 22.681,67.102 34.606,46.893 30.875,-0.482 0,0 m 269.967,13.333 h -1.284 V 12.028 C 262.094,9.841 255.572,7.716 249.025,5.575 243.762,5.118 238.541,4.727 233.295,4.303 v 1.272 c 1.837,0 1.902,1.326 2.611,2.586 h -13.111 c -62.153,0 -54.733,86.868 -79.917,122.717 v 1.306 c -1.326,0 -3.937,-0.861 -3.937,-1.306 -0.453,0 -0.939,-1.293 -2.61,-1.293 0,2.599 -4.555,3.307 -6.589,3.891 -6.638,-8.61 -13.325,-17.076 -19.938,-25.649 -2.957,-4.052 -7.025,-7.144 -8.861,-11.822 -2.537,-2.508 -2.702,-1.318 -2.627,0 0,3.751 0.642,12.048 -0.256,14.968 -0.98,3.092 -5.015,4.657 -7.733,5.427 -16.529,5.127 -25.316,-5.357 -37.867,-12.773 -6.613,-2.944 -13.185,-5.954 -19.707,-8.94 -3.797,0.342 -7.643,0.663 -11.513,1.017 -3.344,0.939 -7.94,4.979 -12.066,2.887 0,-2.108 -1.572,-3.665 -2.627,-5.164 v -1.305 c -8.309,0 -14.263,7.099 -24.27,1.499 -6.679,-3.661 -8.993,-12.942 -11.941,-19.168 -8.82,-17.616 -23.372,-63.064 -0.486,-76.594 3.228,0 3.5,-6.498 3.912,-9.064 2.66,0.4 5.246,0.857 7.881,1.273 v -3.858 c 0,-1.73 -0.461,-1.294 1.326,-1.294 0,-2.256 1.302,-0.745 2.726,-0.308 3.525,1.029 6.86,0.181 10.41,-0.161 11.604,-0.996 23.759,2.953 30.496,11.501 4.118,5.254 9.932,9.788 11.464,16.483 0.37,3.64 0.782,7.289 1.144,11.019 0.848,2.611 1.672,5.222 2.471,7.865 -0.733,2.644 -1.416,5.263 -2.125,7.906 -1.12,6.354 -7.255,26.062 -4.628,31.065 2.224,4.533 10.302,6.534 14.56,8.297 5.559,2.462 11.102,5.942 17.352,7.062 0,-8.343 -3.821,-17.488 -1.325,-25.81 -2.043,0 -1.442,-0.799 -1.631,-2.446 -2.191,-15.063 -0.955,-30.126 -0.955,-45.361 0,0 8.235,-7.507 9.133,-7.725 3.911,0 5.699,-2.759 9.149,-1.293 0,-2.676 2.891,-2.619 5.271,-2.619 1.738,0 1.351,0.47 1.351,-1.293 2.701,0 5.312,8.618 4.85,11.604 -0.642,4.624 -3.022,9.314 -2.47,14.26 1.713,6.065 3.45,12.11 5.238,18.175 6.135,19.436 13.967,42.277 27.72,58.028 v 1.305 c 5.658,0 6.185,-9.043 7.19,-12.728 10.533,-38.48 21.058,-71.752 58.373,-93.209 0,-1.647 16.957,-1.833 19.658,-5.172 h 2.611 c 0,2.755 1.877,-0.14 2.61,-1.293 3.986,0.959 7.964,1.91 11.925,2.915 18.975,1.614 36.492,6.115 51.002,17.789 -3.203,0 -4.949,0.412 -6.572,2.561" /></g><g
           transform="translate(936.0916,139.0945)"
           id="g124"><path
             id="path126"
             style="fill:#ffffff;fill-opacity:1;fill-rule:nonzero;stroke:none"
             d="m 0,0 h 1.351 c 0,3.558 1.35,5.72 0,9.051 C 0.939,5.996 0.511,3.019 0,0" /></g><g
           transform="translate(774.9479,66.7829)"
           id="g128"><path
             id="path130"
             style="fill:#ffffff;fill-opacity:1;fill-rule:nonzero;stroke:none"
             d="m 0,0 v -1.293 c -1.853,0 -3.846,1.829 -5.271,2.561 0,-2.297 -2.586,-4.818 -3.911,-6.465 v -1.28 c -18.407,0 -9.406,47.416 -17.032,58.118 2.109,0 1.013,16.413 0,19.366 2.677,0 1.878,1.202 3.188,3.133 -3.83,-1.565 -2.726,2.026 -3.188,2.026 0,2.141 2.224,2.096 3.896,2.598 0,2.541 -1.054,3.64 -2.611,5.197 0,2.174 1.441,3.607 2.611,5.151 1.943,0 -1.219,3.158 -1.326,5.217 -0.231,3.562 2.191,6.078 0.066,8.952 v 6.478 c 1.737,0 3.113,1.799 3.664,3.24 1.664,4.427 -0.32,7.795 0,12.213 1.162,17.246 6.819,59.218 -14.123,63.372 -2.611,-0.345 -7.215,-14.271 -8.59,-22.103 -0.321,-9.43 -0.642,-18.848 -1.005,-28.236 -3.87,-39.839 -8.35,-87.041 0.552,-125.723 1.581,-7.062 1.713,-13.3 6.358,-18.999 0,-2.862 0.305,-2.635 1.31,-5.164 h 1.375 c 0,-1.968 -0.848,-1.293 -2.685,-1.293 v -1.305 h 1.31 c 0,-1.165 3.639,-2.998 4.941,-4.027 4.142,-3.298 10.92,-7.293 16.965,-6.111 C -7.535,-23.212 5.608,-1.408 2.61,3.846 2.61,2.059 1.161,1.145 0,0" /></g><g
           transform="translate(824.7312,47.4048)"
           id="g132"><path
             id="path134"
             style="fill:#ffffff;fill-opacity:1;fill-rule:nonzero;stroke:none"
             d="M 0,0 H -2.61 C -1.391,-1.466 -1.351,-0.354 0,0" /></g><g
           transform="translate(805.0895,30.5921)"
           id="g136"><path
             id="path138"
             style="fill:#ffffff;fill-opacity:1;fill-rule:nonzero;stroke:none"
             d="M 0,0 C -0.453,-0.902 -0.864,-1.738 -1.326,-2.553 -1.326,-5.493 0,-1.041 0,0" /></g></g></g><g
       id="g140"><g
         clip-path="url(#clipPath146)"
         id="g142"><g
           transform="translate(740.9105,375.4821)"
           id="g148"><path
             id="path150"
             style="fill:#bf3491;fill-opacity:1;fill-rule:nonzero;stroke:none"
             d="m 0,0 v -1.301 c -2.174,0 -2.981,2.355 -3.961,3.866 C -2.685,1.717 -1.375,0.881 0,0 m -3.961,-56.858 c 0,10.768 -3.072,22.331 3.961,31.06 v 1.26 c 2.949,0 5.65,-3.422 8.005,-4.702 3.047,-1.569 6.712,-2.463 10.262,-3.035 v 1.305 c 4.644,0 -7.166,18.234 -9.158,20.626 0,2.195 2.314,1.923 3.986,2.586 h -1.376 c 0,4.085 -9.454,11.802 -13.094,12.955 V 3.883 c -3.731,0 -6.317,-2.063 -9.134,-3.883 0,-20.395 -26.781,-45.46 6.548,-56.858" /></g><g
           transform="translate(1141.9044,132.663)"
           id="g152"><path
             id="path154"
             style="fill:#bf3491;fill-opacity:1;fill-rule:nonzero;stroke:none"
             d="m 0,0 h -1.326 c -0.848,-0.449 -1.746,-0.906 -2.61,-1.293 0,-1.697 0.436,-1.318 -1.31,-1.318 v -1.26 c 2.273,0 3.616,1.775 5.246,2.578 V 0" /></g><g
           transform="translate(1175.4148,135.0635)"
           id="g156"><path
             id="path158"
             style="fill:#bf3491;fill-opacity:1;fill-rule:nonzero;stroke:none"
             d="m 0,0 c 0,2.166 -2.199,1.285 -3.986,1.285 0.461,-0.873 0.848,-1.709 1.334,-2.566 1.326,0 1.623,0.47 2.652,1.281" /></g><g
           transform="translate(1164.1733,140.3755)"
           id="g160"><path
             id="path162"
             style="fill:#bf3491;fill-opacity:1;fill-rule:nonzero;stroke:none"
             d="M 0,0 V -0.778 C 0.939,-0.503 2.174,-0.231 2.61,0 H 0" /></g><g
           transform="translate(816.9078,271.8919)"
           id="g164"><path
             id="path166"
             style="fill:#bf3491;fill-opacity:1;fill-rule:nonzero;stroke:none"
             d="M 0,0 C 0,-0.445 -0.667,-0.573 -0.667,-1.005 -3.006,-1.005 -0.898,-2.574 0,-3.891 0,-2.598 1.367,-2.45 0,0" /></g><g
           transform="translate(1156.3251,137.7895)"
           id="g168"><path
             id="path170"
             style="fill:#bf3491;fill-opacity:1;fill-rule:nonzero;stroke:none"
             d="m 0,0 h -1.31 c -1.737,-0.881 -3.5,-1.75 -5.262,-2.565 v -1.306 h -1.277 v -1.255 c 3.525,0 6.638,1.885 9.15,3.845 C -0.436,-1.281 0,-1.672 0,0" /></g><g
           transform="translate(1164.1733,139.0945)"
           id="g172"><path
             id="path174"
             style="fill:#bf3491;fill-opacity:1;fill-rule:nonzero;stroke:none"
             d="M 0,0 V 0.503 C -0.939,0.227 -1.483,0 0,0" /></g><g
           transform="translate(818.1592,261.8198)"
           id="g176"><path
             id="path178"
             style="fill:#bf3491;fill-opacity:1;fill-rule:nonzero;stroke:none"
             d="m 0,0 h 2.66 2.586 c 0,-1.968 -2.635,-3.698 -3.895,-5.159 V -6.453 C -1.251,-6.453 -0.156,-1.968 0,0 m 41.021,-163.264 c -17.714,9.718 -41.358,15.425 -50.656,35.227 -1.236,2.689 -3.245,7.14 -2.125,10.471 0,2.623 -2.174,5.345 -3.088,7.614 -1.581,3.937 -2.66,9.018 -3.484,13.07 1.812,0 3.69,-1.878 5.262,-2.611 -0.247,2.084 -0.634,4.11 -0.938,6.193 0.411,4.909 3.319,11.365 0.938,15.792 v 1.272 c 4.143,0 3.805,4.027 5.156,6.708 8.285,16.825 22.936,55.404 42.594,61.848 2.907,0.437 5.699,0.816 8.59,1.227 -1.606,-5.645 -3.229,-11.262 -4.86,-16.907 -0.98,-5.139 -1.984,-10.298 -3.014,-15.404 -2.157,0 -1.309,-0.779 -1.309,-2.574 h 2.66 c 0,-1.293 0.338,-0.918 1.301,0 13.251,0 15.722,28.03 17.624,37.369 1.581,7.597 8.153,15.256 4.324,23.895 -3.682,8.128 -16.298,11.608 -24.6,12.361 -1.309,-2.174 -2.569,-4.324 -3.895,-6.465 0,-4.591 -7.396,-6.592 -10.508,-7.749 0,-3.068 -2.315,1.898 -2.628,2.565 H 17.08 c 0,-2.211 -1.169,-4.463 0,-6.432 v -1.272 c -1.721,0.399 -3.499,0.823 -5.221,1.272 h -1.375 v -1.272 c -2.718,0 -5.172,-7.132 -7.824,-9.043 0,1.1 -5.773,-3.146 -6.917,-5.044 -1.211,-3.138 -2.381,-6.09 -3.616,-9.191 -2.38,0 -0.733,-1.375 0,-2.565 0,-1.581 1.515,-3.158 2.611,-3.916 v -1.256 c -2.611,0 -4.233,3.377 -5.172,5.172 -2.109,0 -3.797,-1.338 -5.246,-2.623 -1.804,0 -1.326,0.461 -1.326,-1.293 2.265,0 1.631,-1.063 2.611,-2.549 0,-1.89 2.956,0.227 5.245,0 1.738,0 1.277,0.457 1.277,-1.305 1.762,0 1.351,0.432 1.351,-1.272 -3.138,0 -8.219,0.288 -10.484,-1.306 h -1.326 c 0,1.491 -0.461,1.787 -1.301,2.578 0,-3.62 -2.586,-6.115 -3.92,-9.022 -2.421,0 -0.865,-1.371 0,-2.586 0,-2.22 -2.24,-2.813 -3.937,-3.867 v -3.891 h 1.31 c 0,-2.656 1.713,0.502 2.627,1.281 v 1.305 h 1.284 c 0,-4.212 -6.341,-5.999 -9.158,-7.783 0,-2.997 2.982,-5.118 5.247,-6.432 v -1.305 c -2.636,0.4 -5.247,0.881 -7.873,1.305 0,-6.353 -4.011,-17.936 1.301,-21.951 0,-1.697 0.461,-1.285 -1.301,-1.285 0,-10.595 -3.023,-16.248 3.936,-25.843 1.713,0 1.301,0.437 1.301,-1.313 -2.24,0 -3.706,-1.228 -5.237,-2.599 -1.335,0 -1.401,0.194 -0.849,-1.066 4.67,-10.002 6.753,-22.075 13.045,-31.303 9.314,-13.815 22.574,-22.718 34.976,-33.486 1.722,0 1.326,0.445 1.326,-1.317 -3.022,0 -4.991,-5.473 -6.885,-7.359 -2.931,-2.314 -5.905,-4.533 -8.861,-6.823 -8.672,-8.561 -16.685,-20.144 -20.968,-31.007 -0.708,0 -3.434,-12.118 -3.911,-14.202 -1.812,-2.059 0.271,-2.894 1.276,-3.866 0.165,-1.272 -0.799,-2.611 -1.276,-3.891 -0.396,-3.883 -0.874,-7.775 -1.31,-11.654 -0.041,-1.325 2.29,-3.022 2.586,-1.26 0,3.253 1.836,6.115 3.163,8.791 1.918,4.155 3.755,8.792 7,12.362 5.979,6.753 13.737,11.217 18.702,18.896 8.516,0 11.72,5.46 18.662,8.001 9.43,3.538 18.678,7.095 28.52,10.08 0,7.569 6.868,13.597 2.149,21.796 -2.907,4.826 -7.643,6.279 -12.271,8.709" /></g><g
           transform="translate(694.6188,124.7856)"
           id="g180"><path
             id="path182"
             style="fill:#bf3491;fill-opacity:1;fill-rule:nonzero;stroke:none"
             d="m 0,0 c 0.165,-13.185 0.256,-26.391 0.371,-39.576 -2.109,-7.955 -11.975,-17.615 -20.918,-17.352 -25.736,0.939 -25.481,49.833 -26.445,69.932 -0.732,15.495 -3.228,31.838 -0.502,47.737 2.289,13.77 12.889,47.889 25.571,54.342 0,0.378 0.157,1.544 0.157,1.98 C 9.438,109.944 -1.738,29.187 0,0 m -278.895,96.392 c 0,0.437 -0.774,8.425 -0.774,9.673 0,16.858 1.326,24.846 5.329,42.52 1.927,5.628 3.845,11.34 5.773,16.96 4.891,27.137 12.196,52.901 18.332,78.79 3.278,13.687 6.934,27.765 13.391,39.966 2.314,-12.785 -5.147,-31.715 -7.396,-44.019 -5.765,-28.865 -11.488,-57.751 -17.212,-86.559 -5.312,-19.345 -9.545,-38.583 -14.832,-57.891 -0.758,-1.832 -1.417,-1.626 -2.611,0.56 M -356.473,-9.557 c -3.706,-9.59 -26.592,-22.1 -36.343,-23.928 -0.692,-0.128 -1.491,-0.416 -1.993,-0.416 -0.873,0 -1.466,-0.342 -2.363,-0.342 -1.829,-0.399 -2.652,-1.236 -4.761,-0.56 -1.878,0.798 -3.335,5.789 -4.439,8.227 -2.948,6.572 -4.208,13.988 -4.579,21.54 -2.33,48.322 16.438,85.567 46.976,117.533 2.404,2.792 4.9,6.959 6.563,-1.326 0,-7.993 1.466,-17.159 1.079,-25.777 -0.799,-16.356 -3.319,-35.009 -1.853,-51.608 0.346,-7.371 0.618,-14.671 1.005,-22.018 0.486,-6.353 3.138,-15.145 0.708,-21.325 m -57.294,26.473 V 15.59 c -2.471,0 -0.527,2.54 0,3.879 z M 20.877,-33.58 c -2.808,21.585 -0.016,45.69 0.321,67.321 -0.823,15.923 -1.597,31.863 -2.446,47.761 0,12.58 2.125,25.341 -0.025,37.484 -0.683,3.859 -1.325,6.317 -4.233,8.792 -0.757,0.477 -1.531,0.972 -2.314,1.511 -2.404,0.399 -1.581,-2.43 -2.627,-3.871 -6.135,10.669 -15.845,15.178 -20.951,16.78 -1.713,-0.399 -1.326,-2.141 -1.326,-2.565 -17.187,0 -20.901,-7.301 -30.035,-19.432 -3.335,-3.665 -6.588,-7.202 -9.841,-10.772 -15.952,-24.731 -15.796,-57.43 -17.78,-88.667 -0.808,-10.805 0.708,-23.69 -2.636,-33.589 0,-0.416 -0.873,-1.272 -1.325,-1.272 0,16.434 -20.375,91.471 -40.404,85.826 -9.108,-2.561 -12.477,-14.775 -17.261,-21.264 -0.478,-0.4 -0.478,-1.672 -1.302,-1.268 0,0.823 -0.667,6.819 -0.939,8.96 -1.375,10.908 -14.494,45.266 -24.245,49.923 -15.384,7.383 -32.505,-42.05 -33.831,-52.418 -0.387,-0.857 -0.733,-1.19 -1.26,0 -0.659,3.446 -1.368,6.934 -2.1,10.38 -1.334,13.358 -8.474,66.259 -31.089,49.133 -16.092,-12.028 -19,-60.819 -23.925,-81.226 -3.845,-15.817 -8.169,-31.304 -14.988,-45.481 -1.532,-2.68 -2.224,-2.256 -2.611,-1.293 -1.235,3.467 -2.519,7.013 -3.681,10.484 -2.067,5.39 -3.096,12.864 -2.429,19.168 0.939,9.59 3.731,18.452 6.497,27.045 1.08,5.275 2.175,10.542 3.254,15.808 6.497,20.383 13.621,40.457 18.883,61.779 10.023,40.815 11.448,84.904 19.758,126.621 3.475,17.842 4.694,36.133 8.103,54.193 1.161,6.613 4.941,11.925 3.862,19.411 -0.633,3.846 -4.364,7.165 -7.939,8.297 -6.819,2.257 -12.015,-4.681 -15.82,-8.643 -21.099,-21.425 -24.813,-53.069 -31.155,-82.062 -4.57,-20.564 -8.878,-41.647 -10.961,-63.475 -0.848,-9.508 -1.738,-18.962 -2.635,-28.45 -0.272,-5.839 1.26,-12.019 -1.483,-16.767 0,-2.212 0.568,-2.142 1.326,-3.916 0.157,-2.347 0.618,-12.704 0.799,-15.038 -0.206,-11.822 -0.157,-17.422 -2.973,-28.602 -1.285,-3.55 -2.66,-7.086 -4.011,-10.644 -0.823,-7.371 -1.713,-14.73 -2.602,-22.055 -4.143,-17.809 -10.056,-36.442 -18.019,-52.522 -2.38,-4.9 -5.197,-13.963 -13.045,-11.402 -16.685,5.518 -14.19,84.023 -13.828,104.13 0.14,11.698 2.339,29.985 -1.26,40.724 -1.993,5.814 -6.292,11.843 -11.9,12.221 -1.672,0 -4.628,-1.35 -5.402,-2.095 -5.131,-4.221 -7.009,-4.67 -12.527,-7.713 -8.4,-4.67 -16.273,-12.337 -22.911,-19.81 -15.31,-17.122 -28.379,-35.709 -37.175,-56.096 -12.954,-29.928 -27.811,-98.266 21.66,-102.878 2.379,-0.231 5.262,-3.574 1.35,-3.871 -9.249,0 -20.901,-5.835 -28.89,-9.018 0,-8.239 5.79,-16.034 4.143,-24.266 -1.186,-5.505 -7.437,-6.053 -11.448,-3.364 -27.737,18.497 -35.132,79.452 -36.763,112.921 -0.955,18.905 1.4,38.501 2.018,56.846 0.387,13.061 2.017,24.496 3.664,36.133 0.067,3.401 2.858,28.935 3.566,32.518 6.984,36.635 15.088,74.473 15.088,114.806 0,23.887 -3.064,46.996 -7.395,68.512 -1.483,7.28 -2.356,16.022 -7.231,21.745 -4.604,5.415 -13.416,7.396 -20.647,7.828 -5.402,-6.658 -10.895,-13.263 -16.273,-19.913 -12.773,-18.6 -22.162,-41.408 -29.121,-62.903 -4.439,-14.239 -8.812,-28.383 -13.275,-42.578 -1.853,-6.843 -3.706,-13.687 -5.543,-20.555 -0.527,-5.403 -1.054,-3.821 -1.301,-2.599 0,4.913 -4.398,13.828 -7.396,17.468 -16.479,19.72 -35.915,-15.557 -43.722,-25.225 0.074,0.457 0.643,6.959 0.807,9.121 1.895,23.417 -6.209,86.114 -38.641,80.184 -8.218,-1.453 -12.616,-16.928 -14.65,-23.372 -8.17,-25.328 -9.406,-53.539 -15.014,-80.345 -1.284,-9.006 -2.545,-17.9 -3.829,-26.828 -1.417,-8.272 -3.591,-16.697 -3.179,-25.888 0.684,-14.193 3.047,-24.253 10.278,-34.91 v -1.326 c 4.002,0 5.929,8.54 6.596,11.653 2.446,12.576 1.186,26.712 3.014,40.012 2.957,22.376 6.844,43.949 12.527,64.596 3.409,12.497 2.586,26.806 9.314,37.471 v 1.272 h 1.301 c 0.692,-2.174 1.351,-4.327 1.977,-6.571 1.029,-5.617 1.985,-11.123 2.948,-16.628 1.623,-13.988 1.812,-29.026 3.253,-43.883 0.939,-10.175 2.421,-21.482 1.894,-32.275 -1.919,-16.882 -3.911,-33.671 -5.855,-50.483 -2.084,-24.678 -2.701,-50.578 -3.113,-76.137 -0.165,-9.417 -1.557,-19.831 -0.914,-29.722 0.453,-7.692 2.33,-14.799 3.73,-21.997 h 1.302 c 0,2.895 5.632,5.962 7.164,8.285 3.665,5.736 6.251,11.834 7.05,18.909 0.436,14.238 0.914,28.498 1.26,42.803 1.993,17.855 3.961,35.87 7.025,53.107 0.37,5.081 0.667,10.208 0.988,15.359 5.609,28.589 11.472,61.223 31.542,82.384 0.577,0.399 0.873,0.893 1.309,0.893 0.544,-2.322 1.121,-4.089 1.623,-6.374 0.247,-6.354 0.453,-12.662 0.758,-18.978 -1.878,-38.238 -10.097,-74.861 -12.568,-112.427 -1.54,-22.697 -2.339,-45.642 -2.701,-68.429 -0.206,-10.541 1.919,-64.999 11.101,-63.533 24.838,4.176 16.414,79.473 19.296,100.935 5.172,38.159 11.423,75.309 17.394,112.496 1.811,15.425 3.615,30.842 5.427,46.271 1.26,4.418 2.429,8.907 3.64,13.371 2.47,12.003 3.5,22.981 6.292,34.461 2.157,8.903 5.888,16.183 8.309,24.834 6.688,24.287 14.832,46.745 31.863,65.695 2.084,2.199 5.288,0.518 5.288,-1.302 0,-5.917 3.162,-11.492 3.096,-18.052 -0.436,-24.892 -2.199,-49.545 -2.998,-74.77 -0.691,-21.038 -5.427,-41.923 -7.675,-62.194 -8.812,-78.081 -14.552,-175.844 12.452,-245.018 4.628,-11.802 24.385,-48.005 39.876,-48.005 17.945,0 34.268,28.775 19.485,42.442 0,22.75 36.558,14.535 48.483,23.22 8.836,6.436 13.522,16.401 18.974,25.171 0.774,1.121 1.507,3.789 2.817,4.233 0,-4.36 4.274,-12.143 6.613,-15.429 13.868,-19.72 32.958,-7.416 43.648,8.013 1.334,0 4.653,-17.867 13.119,-18.085 9.52,0 20.902,7.099 26.691,13.815 8.129,9.376 14.487,17.534 18.291,29.142 1.285,8.046 2.561,16.067 3.912,24.171 1.417,7.358 2.751,14.716 4.076,22.1 1.236,10.335 1.697,23.92 7.347,32.209 v 1.292 h 1.284 c 1.055,-11.274 1.994,-22.466 2.998,-33.753 0.272,-10.253 1.302,-19.732 1.787,-29.573 -0.049,-2.681 -0.09,-5.287 -0.165,-7.873 2.175,-11.262 4.143,-22.677 4.555,-34.763 3.187,-5.95 9.619,-6.67 15.433,-3.306 17.715,10.22 14.832,73.823 25.547,93.609 0.337,0.461 1.325,4.019 2.289,2.738 0.387,-0.618 1.557,-10.681 1.894,-12.819 4.027,-29.449 -0.527,-65.249 15.112,-89.252 1.853,-2.264 5.741,-0.835 7.618,-0.387 19.708,4.876 21.791,39.716 24.106,57.212 1.194,6.49 2.404,12.946 3.664,19.378 0.206,2.014 0.98,1.647 1.301,0 1.195,-5.608 2.364,-11.179 3.484,-16.812 1.466,-8.162 2.421,-16.582 4.991,-24.32 2.009,-6.32 5.106,-11.904 7.255,-18.27 0.89,-1.899 2.331,-3.533 3.023,-5.423 5.534,-15.886 18.793,-20.922 33.666,-12.671 1.285,0.643 0.848,0 2.66,0 0,-13.95 22.475,-42.425 37.999,-42.737 11.126,-0.194 17.533,6.262 24.854,13.049 0,1.729 -0.453,1.292 1.351,1.292 0,-7.082 15.112,-28.004 23.537,-27.811 3.821,0.07 5.625,5.757 9.24,7.12 0,5.056 -10.162,16.537 -12.246,22.421 -3.566,10.245 -3.846,21.861 -5.287,33.041" /></g><g
           transform="translate(896.8163,121.8909)"
           id="g184"><path
             id="path186"
             style="fill:#bf3491;fill-opacity:1;fill-rule:nonzero;stroke:none"
             d="M 0,0 C -6.753,0.127 -12.246,4.303 -15.268,9.718 -29.829,36.178 -8.68,63.854 2.627,84.397 5.93,80.506 8.145,75.655 12.699,72.917 16.093,70.916 20.466,70.916 22.681,67.102 34.606,46.893 30.875,-0.482 0,0 m 269.967,13.333 h -1.284 V 12.028 C 262.094,9.841 255.572,7.716 249.025,5.575 243.762,5.118 238.541,4.727 233.295,4.303 v 1.272 c 1.837,0 1.902,1.326 2.611,2.586 h -13.111 c -62.153,0 -54.733,86.868 -79.917,122.717 v 1.306 c -1.326,0 -3.937,-0.861 -3.937,-1.306 -0.453,0 -0.939,-1.293 -2.61,-1.293 0,2.599 -4.555,3.307 -6.589,3.891 -6.638,-8.61 -13.325,-17.076 -19.938,-25.649 -2.957,-4.052 -7.025,-7.144 -8.861,-11.822 -2.537,-2.508 -2.702,-1.318 -2.627,0 0,3.751 0.642,12.048 -0.256,14.968 -0.98,3.092 -5.015,4.657 -7.733,5.427 -16.529,5.127 -25.316,-5.357 -37.867,-12.773 -6.613,-2.944 -13.185,-5.954 -19.707,-8.94 -3.797,0.342 -7.643,0.663 -11.513,1.017 -3.344,0.939 -7.94,4.979 -12.066,2.887 0,-2.108 -1.572,-3.665 -2.627,-5.164 v -1.305 c -8.309,0 -14.263,7.099 -24.27,1.499 -6.679,-3.661 -8.993,-12.942 -11.941,-19.168 -8.82,-17.616 -23.372,-63.064 -0.486,-76.594 3.228,0 3.5,-6.498 3.912,-9.064 2.66,0.4 5.246,0.857 7.881,1.273 v -3.858 c 0,-1.73 -0.461,-1.294 1.326,-1.294 0,-2.256 1.302,-0.745 2.726,-0.308 3.525,1.029 6.86,0.181 10.41,-0.161 11.604,-0.996 23.759,2.953 30.496,11.501 4.118,5.254 9.932,9.788 11.464,16.483 0.37,3.64 0.782,7.289 1.144,11.019 0.848,2.611 1.672,5.222 2.471,7.865 -0.733,2.644 -1.416,5.263 -2.125,7.906 -1.12,6.354 -7.255,26.062 -4.628,31.065 2.224,4.533 10.302,6.534 14.56,8.297 5.559,2.462 11.102,5.942 17.352,7.062 0,-8.343 -3.821,-17.488 -1.325,-25.81 -2.043,0 -1.442,-0.799 -1.631,-2.446 -2.191,-15.063 -0.955,-30.126 -0.955,-45.361 0,0 8.235,-7.507 9.133,-7.725 3.911,0 5.699,-2.759 9.149,-1.293 0,-2.676 2.891,-2.619 5.271,-2.619 1.738,0 1.351,0.47 1.351,-1.293 2.701,0 5.312,8.618 4.85,11.604 -0.642,4.624 -3.022,9.314 -2.47,14.26 1.713,6.065 3.45,12.11 5.238,18.175 6.135,19.436 13.967,42.277 27.72,58.028 v 1.305 c 5.658,0 6.185,-9.043 7.19,-12.728 10.533,-38.48 21.058,-71.752 58.373,-93.209 0,-1.647 16.957,-1.833 19.658,-5.172 h 2.611 c 0,2.755 1.877,-0.14 2.61,-1.293 3.986,0.959 7.964,1.91 11.925,2.915 18.975,1.614 36.492,6.115 51.002,17.789 -3.203,0 -4.949,0.412 -6.572,2.561" /></g><g
           transform="translate(936.0916,139.0945)"
           id="g188"><path
             id="path190"
             style="fill:#bf3491;fill-opacity:1;fill-rule:nonzero;stroke:none"
             d="m 0,0 h 1.351 c 0,3.558 1.35,5.72 0,9.051 C 0.939,5.996 0.511,3.019 0,0" /></g><g
           transform="translate(774.9479,66.7829)"
           id="g192"><path
             id="path194"
             style="fill:#bf3491;fill-opacity:1;fill-rule:nonzero;stroke:none"
             d="m 0,0 v -1.293 c -1.853,0 -3.846,1.829 -5.271,2.561 0,-2.297 -2.586,-4.818 -3.911,-6.465 v -1.28 c -18.407,0 -9.406,47.416 -17.032,58.118 2.109,0 1.013,16.413 0,19.366 2.677,0 1.878,1.202 3.188,3.133 -3.83,-1.565 -2.726,2.026 -3.188,2.026 0,2.141 2.224,2.096 3.896,2.598 0,2.541 -1.054,3.64 -2.611,5.197 0,2.174 1.441,3.607 2.611,5.151 1.943,0 -1.219,3.158 -1.326,5.217 -0.231,3.562 2.191,6.078 0.066,8.952 v 6.478 c 1.737,0 3.113,1.799 3.664,3.24 1.664,4.427 -0.32,7.795 0,12.213 1.162,17.246 6.819,59.218 -14.123,63.372 -2.611,-0.345 -7.215,-14.271 -8.59,-22.103 -0.321,-9.43 -0.642,-18.848 -1.005,-28.236 -3.87,-39.839 -8.35,-87.041 0.552,-125.723 1.581,-7.062 1.713,-13.3 6.358,-18.999 0,-2.862 0.305,-2.635 1.31,-5.164 h 1.375 c 0,-1.968 -0.848,-1.293 -2.685,-1.293 v -1.305 h 1.31 c 0,-1.165 3.639,-2.998 4.941,-4.027 4.142,-3.298 10.92,-7.293 16.965,-6.111 C -7.535,-23.212 5.608,-1.408 2.61,3.846 2.61,2.059 1.161,1.145 0,0" /></g><g
           transform="translate(824.7312,47.4048)"
           id="g196"><path
             id="path198"
             style="fill:#bf3491;fill-opacity:1;fill-rule:nonzero;stroke:none"
             d="M 0,0 H -2.61 C -1.391,-1.466 -1.351,-0.354 0,0" /></g><g
           transform="translate(805.0895,30.5921)"
           id="g200"><path
             id="path202"
             style="fill:#bf3491;fill-opacity:1;fill-rule:nonzero;stroke:none"
             d="M 0,0 C -0.453,-0.902 -0.864,-1.738 -1.326,-2.553 -1.326,-5.493 0,-1.041 0,0" /></g></g></g></g></svg>