<svg xmlns="http://www.w3.org/2000/svg" xmlns:xlink="http://www.w3.org/1999/xlink" width="120" height="50.879" viewBox="0 0 120 50.879">
  <defs>
    <clipPath id="clip-path">
      <path id="path16" d="M0-667.965H120v50.879H0Z" transform="translate(0 667.965)"/>
    </clipPath>
  </defs>
  <g id="g10" transform="translate(0 667.965)">
    <g id="g12" transform="translate(0 -667.965)">
      <g id="g14" transform="translate(0 0)" clip-path="url(#clip-path)">
        <g id="g20" transform="translate(73.146 12.217)">
          <path id="path22" d="M-25.48-6.4v.132c-.221,0-.3-.239-.4-.393.13.086.263.171.4.261m-.4,5.775c0-1.094-.312-2.268.4-3.154v-.128c.3,0,.574.348.813.478a3.549,3.549,0,0,0,1.042.308v-.133c.472,0-.728-1.852-.93-2.095,0-.223.235-.2.4-.263h-.14c0-.415-.96-1.2-1.33-1.316V-6.8a1.679,1.679,0,0,0-.928.394c0,2.071-2.72,4.617.665,5.775" transform="translate(27.58 6.929)" fill="#373536"/>
        </g>
        <g id="g24" transform="translate(115.44 37.406)">
          <path id="path26" d="M-6.462,0H-6.6c-.086.046-.177.092-.265.131,0,.172.044.134-.133.134V.393c.231,0,.367-.18.533-.262V0" transform="translate(6.995)" fill="#373536"/>
        </g>
        <g id="g28" transform="translate(118.971 37.014)">
          <path id="path30" d="M-4.91-1.8c0-.22-.223-.131-.4-.131.047.089.086.174.135.261.135,0,.165-.048.269-.13" transform="translate(5.315 1.95)" fill="#373536"/>
        </g>
        <g id="g32" transform="translate(118.234 36.623)">
          <path id="path34" d="M0,0V.079A2.43,2.43,0,0,0,.265,0H0" fill="#373536"/>
        </g>
        <g id="g36" transform="translate(82.79 23.266)">
          <path id="path38" d="M-2.135,0c0,.045-.068.058-.068.1-.238,0-.023.159.068.293,0-.131.139-.146,0-.4" transform="translate(2.311)" fill="#373536"/>
        </g>
        <g id="g40" transform="translate(116.64 36.885)">
          <path id="path42" d="M-9.668,0H-9.8c-.176.089-.355.178-.534.261V.393h-.13V.521A1.558,1.558,0,0,0-9.536.13c-.176,0-.132.04-.132-.13" transform="translate(10.465)" fill="#373536"/>
        </g>
        <g id="g44" transform="translate(118.141 36.702)">
          <path id="path46" d="M-1.133-.62V-.671c-.1.028-.151.051,0,.051" transform="translate(1.226 0.671)" fill="#373536"/>
        </g>
        <g id="g48" transform="translate(79.487 21.01)">
          <path id="path50" d="M-43.734-39.77h.533c0,.2-.268.376-.4.524v.131c-.264,0-.153-.455-.137-.655m4.166,16.581c-1.8-.987-4.2-1.567-5.145-3.578a1.632,1.632,0,0,1-.216-1.063,2.351,2.351,0,0,0-.314-.773,8.153,8.153,0,0,1-.354-1.327c.184,0,.375.191.534.265-.025-.212-.064-.417-.1-.629.042-.5.337-1.154.1-1.6v-.129c.421,0,.386-.409.524-.681.841-1.709,2.329-5.627,4.326-6.281.3-.044.579-.083.872-.125-.163.573-.328,1.144-.494,1.717-.1.522-.2,1.046-.306,1.564-.219,0-.133.079-.133.261H-40c0,.131.034.093.132,0,1.346,0,1.6-2.847,1.79-3.8.161-.772.828-1.549.439-2.427-.374-.825-1.655-1.179-2.5-1.255-.133.221-.261.439-.4.657,0,.466-.751.669-1.067.787,0,.312-.235-.193-.267-.261H-42c0,.225-.119.453,0,.653v.129c-.175-.041-.355-.084-.53-.129h-.14v.129c-.276,0-.525.724-.795.918,0-.112-.586.32-.7.512-.123.319-.242.619-.367.933-.242,0-.074.14,0,.261a.574.574,0,0,0,.265.4v.128c-.265,0-.43-.343-.525-.525a.834.834,0,0,0-.533.266c-.183,0-.135-.047-.135.131.23,0,.166.108.265.259,0,.192.3-.023.533,0,.177,0,.13-.046.13.133.179,0,.137-.044.137.129a2.264,2.264,0,0,0-1.065.133H-45.6a.284.284,0,0,0-.132-.262c0,.368-.263.621-.4.916-.246,0-.088.139,0,.263,0,.225-.227.286-.4.393v.4h.133c0,.27.174-.051.267-.13v-.133H-46c0,.428-.644.609-.93.79,0,.3.3.52.533.653v.133c-.268-.041-.533-.089-.8-.133,0,.645-.407,1.822.132,2.229,0,.172.047.131-.132.131,0,1.076-.307,1.65.4,2.625.174,0,.132-.044.132.133a.779.779,0,0,0-.532.264c-.136,0-.142-.02-.086.108a21.725,21.725,0,0,0,1.325,3.179,18.387,18.387,0,0,0,3.552,3.4c.175,0,.135-.045.135.134-.307,0-.507.556-.7.747-.3.235-.6.46-.9.693A9.723,9.723,0,0,0-46-17.729a9.388,9.388,0,0,0-.4,1.442c-.184.209.028.294.13.393.017.129-.081.265-.13.4-.04.394-.089.79-.133,1.184,0,.135.233.307.263.128a2.074,2.074,0,0,1,.321-.893,4.762,4.762,0,0,1,.711-1.255,17.466,17.466,0,0,0,1.9-1.919c.865,0,1.19-.555,1.9-.813.958-.359,1.9-.721,2.9-1.024,0-.769.7-1.381.218-2.214a2.655,2.655,0,0,0-1.246-.884" transform="translate(47.34 43.049)" fill="#373536"/>
        </g>
        <g id="g52" transform="translate(1.521 1.068)">
          <path id="path54" d="M-837.164-450.429c.017,1.339.026,2.68.038,4.019a2.543,2.543,0,0,1-2.124,1.762c-2.614-.1-2.588-5.061-2.686-7.1a22.351,22.351,0,0,1-.051-4.848c.232-1.4,1.309-4.864,2.6-5.519,0-.038.016-.157.016-.2,3.169.723,2.034,8.925,2.211,11.889m-28.325-9.79c0-.044-.079-.856-.079-.982a16.127,16.127,0,0,1,.541-4.318c.2-.572.391-1.152.586-1.722.5-2.756,1.239-5.373,1.862-8a17.319,17.319,0,0,1,1.36-4.059c.235,1.3-.523,3.221-.751,4.471q-.878,4.4-1.748,8.791c-.539,1.965-.969,3.918-1.506,5.879-.077.186-.144.165-.265-.057m-7.879,10.76c-.376.974-2.7,2.244-3.691,2.43a1.614,1.614,0,0,1-.2.042c-.089,0-.149.035-.24.035-.186.04-.269.126-.484.057-.191-.081-.339-.588-.451-.836a6.076,6.076,0,0,1-.465-2.188,15.515,15.515,0,0,1,4.771-11.937c.244-.284.5-.707.667.135,0,.812.149,1.743.11,2.618a39.784,39.784,0,0,0-.188,5.241c.035.749.063,1.49.1,2.236a5.353,5.353,0,0,1,.072,2.166m-5.819-2.689v.135c-.251,0-.054-.258,0-.394Zm44.143,5.128a48.842,48.842,0,0,1,.033-6.837c-.084-1.617-.162-3.236-.248-4.851a22.157,22.157,0,0,0,0-3.807,1.287,1.287,0,0,0-.43-.893c-.077-.048-.156-.1-.235-.153-.244-.04-.161.247-.267.393a3.8,3.8,0,0,0-2.128-1.7c-.174.041-.135.217-.135.26-1.746,0-2.123.742-3.05,1.974-.339.372-.669.731-1,1.094-1.62,2.512-1.6,5.833-1.806,9.005a14.834,14.834,0,0,1-.268,3.411.2.2,0,0,1-.135.129c0-1.669-2.069-9.29-4.1-8.717-.925.26-1.267,1.5-1.753,2.16-.049.041-.049.17-.132.129,0-.084-.068-.693-.1-.91-.14-1.108-1.472-4.6-2.462-5.07-1.562-.75-3.3,4.271-3.436,5.324-.039.087-.074.121-.128,0-.067-.35-.139-.7-.213-1.054-.135-1.357-.861-6.729-3.157-4.99-1.634,1.222-1.93,6.177-2.43,8.249a23.321,23.321,0,0,1-1.522,4.619c-.156.272-.226.229-.265.131-.125-.352-.256-.712-.374-1.065a4.522,4.522,0,0,1-.247-1.947,13.07,13.07,0,0,1,.66-2.747q.165-.8.331-1.605c.66-2.07,1.383-4.109,1.918-6.274,1.018-4.145,1.163-8.623,2.007-12.86.353-1.812.477-3.67.823-5.5a5.644,5.644,0,0,0,.392-1.971,1.192,1.192,0,0,0-.806-.843c-.693-.229-1.22.475-1.607.878-2.143,2.176-2.52,5.39-3.164,8.334a52.741,52.741,0,0,0-1.113,6.447c-.086.966-.177,1.926-.268,2.889a3.794,3.794,0,0,1-.151,1.7c0,.225.058.218.135.4.016.238.063,1.29.081,1.527a10.564,10.564,0,0,1-.3,2.9c-.13.361-.27.72-.407,1.081-.084.749-.174,1.5-.264,2.24a25.078,25.078,0,0,1-1.83,5.334c-.242.5-.528,1.418-1.325,1.158-1.695-.56-1.441-8.533-1.4-10.576a14.989,14.989,0,0,0-.128-4.136c-.2-.59-.639-1.2-1.209-1.241a1.129,1.129,0,0,0-.549.213,6.1,6.1,0,0,1-1.272.783,9.549,9.549,0,0,0-2.327,2.012,21.331,21.331,0,0,0-3.776,5.7c-1.316,3.04-2.825,9.98,2.2,10.448.242.023.534.363.137.393a9.147,9.147,0,0,0-2.934.916c0,.837.588,1.628.421,2.464a.721.721,0,0,1-1.163.342c-2.817-1.879-3.568-8.069-3.734-11.468-.1-1.92.142-3.91.2-5.773a31.957,31.957,0,0,1,.372-3.67c.007-.345.29-2.939.362-3.3a61.409,61.409,0,0,0,1.532-11.66,35.325,35.325,0,0,0-.751-6.958,4.862,4.862,0,0,0-.734-2.208,3.057,3.057,0,0,0-2.1-.8c-.549.676-1.106,1.347-1.653,2.022a25.178,25.178,0,0,0-2.958,6.388c-.451,1.446-.895,2.883-1.348,4.324q-.282,1.042-.563,2.088c-.054.549-.107.388-.132.264a3.8,3.8,0,0,0-.751-1.774c-1.674-2-3.648,1.58-4.44,2.562.008-.046.065-.707.082-.926.192-2.378-.631-8.746-3.924-8.144-.835.148-1.281,1.719-1.488,2.374-.83,2.572-.955,5.437-1.525,8.16-.13.915-.258,1.818-.389,2.725a11.982,11.982,0,0,0-.323,2.629,6.292,6.292,0,0,0,1.044,3.546v.135c.406,0,.6-.867.67-1.184.248-1.277.12-2.713.306-4.064a48.819,48.819,0,0,1,1.272-6.56c.346-1.269.263-2.722.946-3.806v-.129h.132c.07.221.137.439.2.667.1.57.2,1.13.3,1.689.165,1.421.184,2.948.33,4.457a23.614,23.614,0,0,1,.192,3.278c-.195,1.715-.4,3.42-.595,5.127-.212,2.506-.274,5.137-.316,7.733-.017.956-.158,2.014-.093,3.019a16.6,16.6,0,0,0,.379,2.234h.132c0-.294.572-.605.728-.841a4.433,4.433,0,0,0,.716-1.92c.044-1.446.093-2.894.128-4.347.2-1.813.4-3.643.713-5.394.038-.516.068-1.037.1-1.56.57-2.9,1.165-6.218,3.2-8.367.059-.041.089-.091.133-.091.055.236.114.415.165.647.025.645.046,1.286.077,1.927-.191,3.883-1.025,7.6-1.276,11.418-.156,2.305-.238,4.635-.274,6.95-.021,1.071.195,6.6,1.127,6.452,2.523-.424,1.667-8.071,1.96-10.251.525-3.875,1.16-7.648,1.767-11.425q.276-2.35.551-4.7c.128-.449.247-.9.37-1.358.251-1.219.355-2.334.639-3.5.219-.9.6-1.644.844-2.522a15.733,15.733,0,0,1,3.236-6.672.31.31,0,0,1,.537.132c0,.6.321,1.167.314,1.833-.044,2.528-.223,5.032-.3,7.594-.07,2.137-.551,4.258-.779,6.316-.895,7.93-1.478,17.859,1.265,24.884.47,1.2,2.477,4.875,4.05,4.875,1.823,0,3.48-2.922,1.979-4.31,0-2.31,3.713-1.476,4.924-2.358a8.268,8.268,0,0,0,1.927-2.556c.079-.114.153-.385.286-.43a3.757,3.757,0,0,0,.672,1.567c1.408,2,3.347.753,4.433-.814.135,0,.473,1.815,1.332,1.837a4.128,4.128,0,0,0,2.711-1.4,8.355,8.355,0,0,0,1.858-2.96c.13-.817.26-1.632.4-2.455.144-.747.279-1.495.414-2.244a7.85,7.85,0,0,1,.746-3.271v-.131h.13c.107,1.145.2,2.282.3,3.428.028,1.041.132,2,.181,3,0,.272-.009.537-.017.8a22.461,22.461,0,0,1,.463,3.531,1.057,1.057,0,0,0,1.567.336c1.8-1.038,1.506-7.5,2.595-9.507.034-.047.135-.408.232-.278.039.063.158,1.085.192,1.3.409,2.991-.054,6.627,1.535,9.064.188.23.583.085.774.039,2-.5,2.213-4.034,2.448-5.81q.182-.989.372-1.968c.021-.2.1-.167.132,0,.121.57.24,1.135.354,1.707a17.916,17.916,0,0,0,.507,2.47c.2.642.519,1.209.737,1.855.09.193.237.359.307.551a2.185,2.185,0,0,0,3.419,1.287c.13-.065.086,0,.27,0,0,1.417,2.283,4.309,3.859,4.34a3.507,3.507,0,0,0,2.524-1.325c0-.176-.046-.131.137-.131,0,.719,1.535,2.844,2.39,2.824.388-.007.571-.585.938-.723,0-.513-1.032-1.68-1.244-2.277a16.92,16.92,0,0,1-.537-3.356" transform="translate(906.189 487.567)" fill="#373536"/>
        </g>
        <g id="g56" transform="translate(86.774 24.944)">
          <path id="path58" d="M-52.235-164.412a1.838,1.838,0,0,1-1.551-.987c-1.479-2.687.669-5.5,1.817-7.584a4.675,4.675,0,0,0,1.023,1.166c.345.2.789.2,1.014.591,1.211,2.052.832,6.864-2.3,6.815m27.418-1.354h-.13v.133c-.669.222-1.332.438-2,.655-.535.046-1.065.086-1.6.129v-.129c.187,0,.193-.135.265-.263h-1.332c-6.312,0-5.559-8.822-8.116-12.463v-.133c-.135,0-.4.087-.4.133-.046,0-.1.131-.265.131,0-.264-.463-.336-.669-.4-.674.874-1.353,1.734-2.025,2.6a5.831,5.831,0,0,0-.9,1.2c-.258.255-.274.134-.267,0a8.322,8.322,0,0,0-.026-1.52c-.1-.314-.509-.473-.785-.551-1.679-.521-2.571.544-3.846,1.3-.672.3-1.339.6-2,.908-.386-.035-.776-.067-1.169-.1-.34-.1-.806-.506-1.225-.293a.957.957,0,0,1-.267.524v.133c-.844,0-1.449-.721-2.465-.152-.678.372-.913,1.314-1.213,1.947-.9,1.789-2.374,6.4-.049,7.779.328,0,.355.66.4.921.27-.041.533-.087.8-.129v.392c0,.176-.047.131.135.131,0,.229.132.076.277.031a2.7,2.7,0,0,1,1.057.016,3.578,3.578,0,0,0,3.1-1.168,4.688,4.688,0,0,0,1.164-1.674c.038-.37.079-.74.116-1.119.086-.265.17-.53.251-.8-.074-.269-.144-.535-.216-.8-.114-.645-.737-2.647-.47-3.155.226-.46,1.046-.664,1.479-.843a7.93,7.93,0,0,1,1.762-.717,9.122,9.122,0,0,0-.135,2.621c-.207,0-.146.081-.166.248a31.8,31.8,0,0,0-.1,4.607,11.692,11.692,0,0,0,.928.785c.4,0,.579.28.929.131,0,.272.294.266.535.266.177,0,.137-.048.137.131.274,0,.539-.875.493-1.179a5.781,5.781,0,0,1-.251-1.448c.174-.616.35-1.23.532-1.846a16.706,16.706,0,0,1,2.815-5.893v-.133c.575,0,.628.918.73,1.293,1.07,3.908,2.139,7.287,5.928,9.466,0,.167,1.722.186,2,.525h.265c0-.28.191.014.265.131.4-.1.809-.194,1.211-.3a9.212,9.212,0,0,0,5.18-1.807.7.7,0,0,1-.667-.26" transform="translate(56.542 177.968)" fill="#373536"/>
        </g>
        <g id="g60" transform="translate(95.07 35.834)">
          <path id="path62" d="M0-11.149H.137c0-.361.137-.581,0-.919-.042.31-.085.613-.137.919" transform="translate(0 12.068)" fill="#373536"/>
        </g>
        <g id="g64" transform="translate(73.804 24.944)">
          <path id="path66" d="M-59.437-232.292v.131c-.188,0-.391-.186-.535-.26,0,.233-.263.489-.4.657v.13c-1.869,0-.955-4.816-1.73-5.9.214,0,.1-1.667,0-1.967.272,0,.191-.122.324-.318-.389.159-.277-.206-.324-.206,0-.217.226-.213.4-.264a.659.659,0,0,0-.265-.528.875.875,0,0,1,.265-.523c.2,0-.124-.321-.135-.53-.023-.362.223-.617.007-.909v-.658c.176,0,.316-.183.372-.329.169-.45-.033-.792,0-1.24.118-1.752.693-6.014-1.434-6.436-.265.035-.733,1.449-.872,2.245q-.049,1.437-.1,2.868c-.393,4.046-.848,8.84.056,12.768a4.134,4.134,0,0,0,.646,1.93.93.93,0,0,0,.133.524h.14c0,.2-.086.131-.273.131v.133h.133c0,.118.37.3.5.409a2.357,2.357,0,0,0,1.723.621c.606-.118,1.941-2.333,1.637-2.866,0,.181-.147.274-.265.391" transform="translate(64.337 251.445)" fill="#373536"/>
        </g>
        <g id="g68" transform="translate(83.495 46.065)">
          <path id="path70" d="M-3.215,0H-3.48c.124.149.128.036.265,0" transform="translate(3.48)" fill="#373536"/>
        </g>
        <g id="g72" transform="translate(81.631 47.772)">
          <path id="path74" d="M-1.633,0c-.046.092-.088.177-.135.259,0,.3.135-.154.135-.259" transform="translate(1.768)" fill="#373536"/>
        </g>
      </g>
    </g>
    <g id="g76" transform="translate(0 -667.965)">
      <g id="g78" transform="translate(0 0)" clip-path="url(#clip-path)">
        <g id="g84" transform="translate(73.146 12.217)">
          <path id="path86" d="M-25.48-6.4v.132c-.221,0-.3-.239-.4-.393.13.086.263.171.4.261m-.4,5.775c0-1.094-.312-2.268.4-3.154v-.128c.3,0,.574.348.813.478a3.549,3.549,0,0,0,1.042.308v-.133c.472,0-.728-1.852-.93-2.095,0-.223.235-.2.4-.263h-.14c0-.415-.96-1.2-1.33-1.316V-6.8a1.679,1.679,0,0,0-.928.394c0,2.071-2.72,4.617.665,5.775" transform="translate(27.58 6.929)" fill="#fff"/>
        </g>
        <g id="g88" transform="translate(115.44 37.406)">
          <path id="path90" d="M-6.462,0H-6.6c-.086.046-.177.092-.265.131,0,.172.044.134-.133.134V.393c.231,0,.367-.18.533-.262V0" transform="translate(6.995)" fill="#fff"/>
        </g>
        <g id="g92" transform="translate(118.971 37.014)">
          <path id="path94" d="M-4.91-1.8c0-.22-.223-.131-.4-.131.047.089.086.174.135.261.135,0,.165-.048.269-.13" transform="translate(5.315 1.95)" fill="#fff"/>
        </g>
        <g id="g96" transform="translate(118.234 36.623)">
          <path id="path98" d="M0,0V.079A2.43,2.43,0,0,0,.265,0H0" fill="#fff"/>
        </g>
        <g id="g100" transform="translate(82.79 23.266)">
          <path id="path102" d="M-2.135,0c0,.045-.068.058-.068.1-.238,0-.023.159.068.293,0-.131.139-.146,0-.4" transform="translate(2.311)" fill="#fff"/>
        </g>
        <g id="g104" transform="translate(116.64 36.885)">
          <path id="path106" d="M-9.668,0H-9.8c-.176.089-.355.178-.534.261V.393h-.13V.521A1.558,1.558,0,0,0-9.536.13c-.176,0-.132.04-.132-.13" transform="translate(10.465)" fill="#fff"/>
        </g>
        <g id="g108" transform="translate(118.141 36.702)">
          <path id="path110" d="M-1.133-.62V-.671c-.1.028-.151.051,0,.051" transform="translate(1.226 0.671)" fill="#fff"/>
        </g>
        <g id="g112" transform="translate(79.487 21.01)">
          <path id="path114" d="M-43.734-39.77h.533c0,.2-.268.376-.4.524v.131c-.264,0-.153-.455-.137-.655m4.166,16.581c-1.8-.987-4.2-1.567-5.145-3.578a1.632,1.632,0,0,1-.216-1.063,2.351,2.351,0,0,0-.314-.773,8.153,8.153,0,0,1-.354-1.327c.184,0,.375.191.534.265-.025-.212-.064-.417-.1-.629.042-.5.337-1.154.1-1.6v-.129c.421,0,.386-.409.524-.681.841-1.709,2.329-5.627,4.326-6.281.3-.044.579-.083.872-.125-.163.573-.328,1.144-.494,1.717-.1.522-.2,1.046-.306,1.564-.219,0-.133.079-.133.261H-40c0,.131.034.093.132,0,1.346,0,1.6-2.847,1.79-3.8.161-.772.828-1.549.439-2.427-.374-.825-1.655-1.179-2.5-1.255-.133.221-.261.439-.4.657,0,.466-.751.669-1.067.787,0,.312-.235-.193-.267-.261H-42c0,.225-.119.453,0,.653v.129c-.175-.041-.355-.084-.53-.129h-.14v.129c-.276,0-.525.724-.795.918,0-.112-.586.32-.7.512-.123.319-.242.619-.367.933-.242,0-.074.14,0,.261a.574.574,0,0,0,.265.4v.128c-.265,0-.43-.343-.525-.525a.834.834,0,0,0-.533.266c-.183,0-.135-.047-.135.131.23,0,.166.108.265.259,0,.192.3-.023.533,0,.177,0,.13-.046.13.133.179,0,.137-.044.137.129a2.264,2.264,0,0,0-1.065.133H-45.6a.284.284,0,0,0-.132-.262c0,.368-.263.621-.4.916-.246,0-.088.139,0,.263,0,.225-.227.286-.4.393v.4h.133c0,.27.174-.051.267-.13v-.133H-46c0,.428-.644.609-.93.79,0,.3.3.52.533.653v.133c-.268-.041-.533-.089-.8-.133,0,.645-.407,1.822.132,2.229,0,.172.047.131-.132.131,0,1.076-.307,1.65.4,2.625.174,0,.132-.044.132.133a.779.779,0,0,0-.532.264c-.136,0-.142-.02-.086.108a21.725,21.725,0,0,0,1.325,3.179,18.387,18.387,0,0,0,3.552,3.4c.175,0,.135-.045.135.134-.307,0-.507.556-.7.747-.3.235-.6.46-.9.693A9.723,9.723,0,0,0-46-17.729a9.388,9.388,0,0,0-.4,1.442c-.184.209.028.294.13.393.017.129-.081.265-.13.4-.04.394-.089.79-.133,1.184,0,.135.233.307.263.128a2.074,2.074,0,0,1,.321-.893,4.762,4.762,0,0,1,.711-1.255,17.466,17.466,0,0,0,1.9-1.919c.865,0,1.19-.555,1.9-.813.958-.359,1.9-.721,2.9-1.024,0-.769.7-1.381.218-2.214a2.655,2.655,0,0,0-1.246-.884" transform="translate(47.34 43.049)" fill="#fff"/>
        </g>
        <g id="g116" transform="translate(1.521 1.068)">
          <path id="path118" d="M-837.164-450.429c.017,1.339.026,2.68.038,4.019a2.543,2.543,0,0,1-2.124,1.762c-2.614-.1-2.588-5.061-2.686-7.1a22.351,22.351,0,0,1-.051-4.848c.232-1.4,1.309-4.864,2.6-5.519,0-.038.016-.157.016-.2,3.169.723,2.034,8.925,2.211,11.889m-28.325-9.79c0-.044-.079-.856-.079-.982a16.127,16.127,0,0,1,.541-4.318c.2-.572.391-1.152.586-1.722.5-2.756,1.239-5.373,1.862-8a17.319,17.319,0,0,1,1.36-4.059c.235,1.3-.523,3.221-.751,4.471q-.878,4.4-1.748,8.791c-.539,1.965-.969,3.918-1.506,5.879-.077.186-.144.165-.265-.057m-7.879,10.76c-.376.974-2.7,2.244-3.691,2.43a1.614,1.614,0,0,1-.2.042c-.089,0-.149.035-.24.035-.186.04-.269.126-.484.057-.191-.081-.339-.588-.451-.836a6.076,6.076,0,0,1-.465-2.188,15.515,15.515,0,0,1,4.771-11.937c.244-.284.5-.707.667.135,0,.812.149,1.743.11,2.618a39.784,39.784,0,0,0-.188,5.241c.035.749.063,1.49.1,2.236a5.353,5.353,0,0,1,.072,2.166m-5.819-2.689v.135c-.251,0-.054-.258,0-.394Zm44.143,5.128a48.842,48.842,0,0,1,.033-6.837c-.084-1.617-.162-3.236-.248-4.851a22.157,22.157,0,0,0,0-3.807,1.287,1.287,0,0,0-.43-.893c-.077-.048-.156-.1-.235-.153-.244-.04-.161.247-.267.393a3.8,3.8,0,0,0-2.128-1.7c-.174.041-.135.217-.135.26-1.746,0-2.123.742-3.05,1.974-.339.372-.669.731-1,1.094-1.62,2.512-1.6,5.833-1.806,9.005a14.834,14.834,0,0,1-.268,3.411.2.2,0,0,1-.135.129c0-1.669-2.069-9.29-4.1-8.717-.925.26-1.267,1.5-1.753,2.16-.049.041-.049.17-.132.129,0-.084-.068-.693-.1-.91-.14-1.108-1.472-4.6-2.462-5.07-1.562-.75-3.3,4.271-3.436,5.324-.039.087-.074.121-.128,0-.067-.35-.139-.7-.213-1.054-.135-1.357-.861-6.729-3.157-4.99-1.634,1.222-1.93,6.177-2.43,8.249a23.321,23.321,0,0,1-1.522,4.619c-.156.272-.226.229-.265.131-.125-.352-.256-.712-.374-1.065a4.522,4.522,0,0,1-.247-1.947,13.07,13.07,0,0,1,.66-2.747q.165-.8.331-1.605c.66-2.07,1.383-4.109,1.918-6.274,1.018-4.145,1.163-8.623,2.007-12.86.353-1.812.477-3.67.823-5.5a5.644,5.644,0,0,0,.392-1.971,1.192,1.192,0,0,0-.806-.843c-.693-.229-1.22.475-1.607.878-2.143,2.176-2.52,5.39-3.164,8.334a52.741,52.741,0,0,0-1.113,6.447c-.086.966-.177,1.926-.268,2.889a3.794,3.794,0,0,1-.151,1.7c0,.225.058.218.135.4.016.238.063,1.29.081,1.527a10.564,10.564,0,0,1-.3,2.9c-.13.361-.27.72-.407,1.081-.084.749-.174,1.5-.264,2.24a25.078,25.078,0,0,1-1.83,5.334c-.242.5-.528,1.418-1.325,1.158-1.695-.56-1.441-8.533-1.4-10.576a14.989,14.989,0,0,0-.128-4.136c-.2-.59-.639-1.2-1.209-1.241a1.129,1.129,0,0,0-.549.213,6.1,6.1,0,0,1-1.272.783,9.549,9.549,0,0,0-2.327,2.012,21.331,21.331,0,0,0-3.776,5.7c-1.316,3.04-2.825,9.98,2.2,10.448.242.023.534.363.137.393a9.147,9.147,0,0,0-2.934.916c0,.837.588,1.628.421,2.464a.721.721,0,0,1-1.163.342c-2.817-1.879-3.568-8.069-3.734-11.468-.1-1.92.142-3.91.2-5.773a31.957,31.957,0,0,1,.372-3.67c.007-.345.29-2.939.362-3.3a61.409,61.409,0,0,0,1.532-11.66,35.325,35.325,0,0,0-.751-6.958,4.862,4.862,0,0,0-.734-2.208,3.057,3.057,0,0,0-2.1-.8c-.549.676-1.106,1.347-1.653,2.022a25.178,25.178,0,0,0-2.958,6.388c-.451,1.446-.895,2.883-1.348,4.324q-.282,1.042-.563,2.088c-.054.549-.107.388-.132.264a3.8,3.8,0,0,0-.751-1.774c-1.674-2-3.648,1.58-4.44,2.562.008-.046.065-.707.082-.926.192-2.378-.631-8.746-3.924-8.144-.835.148-1.281,1.719-1.488,2.374-.83,2.572-.955,5.437-1.525,8.16-.13.915-.258,1.818-.389,2.725a11.982,11.982,0,0,0-.323,2.629,6.292,6.292,0,0,0,1.044,3.546v.135c.406,0,.6-.867.67-1.184.248-1.277.12-2.713.306-4.064a48.819,48.819,0,0,1,1.272-6.56c.346-1.269.263-2.722.946-3.806v-.129h.132c.07.221.137.439.2.667.1.57.2,1.13.3,1.689.165,1.421.184,2.948.33,4.457a23.614,23.614,0,0,1,.192,3.278c-.195,1.715-.4,3.42-.595,5.127-.212,2.506-.274,5.137-.316,7.733-.017.956-.158,2.014-.093,3.019a16.6,16.6,0,0,0,.379,2.234h.132c0-.294.572-.605.728-.841a4.433,4.433,0,0,0,.716-1.92c.044-1.446.093-2.894.128-4.347.2-1.813.4-3.643.713-5.394.038-.516.068-1.037.1-1.56.57-2.9,1.165-6.218,3.2-8.367.059-.041.089-.091.133-.091.055.236.114.415.165.647.025.645.046,1.286.077,1.927-.191,3.883-1.025,7.6-1.276,11.418-.156,2.305-.238,4.635-.274,6.95-.021,1.071.195,6.6,1.127,6.452,2.523-.424,1.667-8.071,1.96-10.251.525-3.875,1.16-7.648,1.767-11.425q.276-2.35.551-4.7c.128-.449.247-.9.37-1.358.251-1.219.355-2.334.639-3.5.219-.9.6-1.644.844-2.522a15.733,15.733,0,0,1,3.236-6.672.31.31,0,0,1,.537.132c0,.6.321,1.167.314,1.833-.044,2.528-.223,5.032-.3,7.594-.07,2.137-.551,4.258-.779,6.316-.895,7.93-1.478,17.859,1.265,24.884.47,1.2,2.477,4.875,4.05,4.875,1.823,0,3.48-2.922,1.979-4.31,0-2.31,3.713-1.476,4.924-2.358a8.268,8.268,0,0,0,1.927-2.556c.079-.114.153-.385.286-.43a3.757,3.757,0,0,0,.672,1.567c1.408,2,3.347.753,4.433-.814.135,0,.473,1.815,1.332,1.837a4.128,4.128,0,0,0,2.711-1.4,8.355,8.355,0,0,0,1.858-2.96c.13-.817.26-1.632.4-2.455.144-.747.279-1.495.414-2.244a7.85,7.85,0,0,1,.746-3.271v-.131h.13c.107,1.145.2,2.282.3,3.428.028,1.041.132,2,.181,3,0,.272-.009.537-.017.8a22.461,22.461,0,0,1,.463,3.531,1.057,1.057,0,0,0,1.567.336c1.8-1.038,1.506-7.5,2.595-9.507.034-.047.135-.408.232-.278.039.063.158,1.085.192,1.3.409,2.991-.054,6.627,1.535,9.064.188.23.583.085.774.039,2-.5,2.213-4.034,2.448-5.81q.182-.989.372-1.968c.021-.2.1-.167.132,0,.121.57.24,1.135.354,1.707a17.916,17.916,0,0,0,.507,2.47c.2.642.519,1.209.737,1.855.09.193.237.359.307.551a2.185,2.185,0,0,0,3.419,1.287c.13-.065.086,0,.27,0,0,1.417,2.283,4.309,3.859,4.34a3.507,3.507,0,0,0,2.524-1.325c0-.176-.046-.131.137-.131,0,.719,1.535,2.844,2.39,2.824.388-.007.571-.585.938-.723,0-.513-1.032-1.68-1.244-2.277a16.92,16.92,0,0,1-.537-3.356" transform="translate(906.189 487.567)" fill="#fff"/>
        </g>
        <g id="g120" transform="translate(86.774 24.944)">
          <path id="path122" d="M-52.235-164.412a1.838,1.838,0,0,1-1.551-.987c-1.479-2.687.669-5.5,1.817-7.584a4.675,4.675,0,0,0,1.023,1.166c.345.2.789.2,1.014.591,1.211,2.052.832,6.864-2.3,6.815m27.418-1.354h-.13v.133c-.669.222-1.332.438-2,.655-.535.046-1.065.086-1.6.129v-.129c.187,0,.193-.135.265-.263h-1.332c-6.312,0-5.559-8.822-8.116-12.463v-.133c-.135,0-.4.087-.4.133-.046,0-.1.131-.265.131,0-.264-.463-.336-.669-.4-.674.874-1.353,1.734-2.025,2.6a5.831,5.831,0,0,0-.9,1.2c-.258.255-.274.134-.267,0a8.322,8.322,0,0,0-.026-1.52c-.1-.314-.509-.473-.785-.551-1.679-.521-2.571.544-3.846,1.3-.672.3-1.339.6-2,.908-.386-.035-.776-.067-1.169-.1-.34-.1-.806-.506-1.225-.293a.957.957,0,0,1-.267.524v.133c-.844,0-1.449-.721-2.465-.152-.678.372-.913,1.314-1.213,1.947-.9,1.789-2.374,6.4-.049,7.779.328,0,.355.66.4.921.27-.041.533-.087.8-.129v.392c0,.176-.047.131.135.131,0,.229.132.076.277.031a2.7,2.7,0,0,1,1.057.016,3.578,3.578,0,0,0,3.1-1.168,4.688,4.688,0,0,0,1.164-1.674c.038-.37.079-.74.116-1.119.086-.265.17-.53.251-.8-.074-.269-.144-.535-.216-.8-.114-.645-.737-2.647-.47-3.155.226-.46,1.046-.664,1.479-.843a7.93,7.93,0,0,1,1.762-.717,9.122,9.122,0,0,0-.135,2.621c-.207,0-.146.081-.166.248a31.8,31.8,0,0,0-.1,4.607,11.692,11.692,0,0,0,.928.785c.4,0,.579.28.929.131,0,.272.294.266.535.266.177,0,.137-.048.137.131.274,0,.539-.875.493-1.179a5.781,5.781,0,0,1-.251-1.448c.174-.616.35-1.23.532-1.846a16.706,16.706,0,0,1,2.815-5.893v-.133c.575,0,.628.918.73,1.293,1.07,3.908,2.139,7.287,5.928,9.466,0,.167,1.722.186,2,.525h.265c0-.28.191.014.265.131.4-.1.809-.194,1.211-.3a9.212,9.212,0,0,0,5.18-1.807.7.7,0,0,1-.667-.26" transform="translate(56.542 177.968)" fill="#fff"/>
        </g>
        <g id="g124" transform="translate(95.07 35.834)">
          <path id="path126" d="M0-11.149H.137c0-.361.137-.581,0-.919-.042.31-.085.613-.137.919" transform="translate(0 12.068)" fill="#fff"/>
        </g>
        <g id="g128" transform="translate(73.804 24.944)">
          <path id="path130" d="M-59.437-232.292v.131c-.188,0-.391-.186-.535-.26,0,.233-.263.489-.4.657v.13c-1.869,0-.955-4.816-1.73-5.9.214,0,.1-1.667,0-1.967.272,0,.191-.122.324-.318-.389.159-.277-.206-.324-.206,0-.217.226-.213.4-.264a.659.659,0,0,0-.265-.528.875.875,0,0,1,.265-.523c.2,0-.124-.321-.135-.53-.023-.362.223-.617.007-.909v-.658c.176,0,.316-.183.372-.329.169-.45-.033-.792,0-1.24.118-1.752.693-6.014-1.434-6.436-.265.035-.733,1.449-.872,2.245q-.049,1.437-.1,2.868c-.393,4.046-.848,8.84.056,12.768a4.134,4.134,0,0,0,.646,1.93.93.93,0,0,0,.133.524h.14c0,.2-.086.131-.273.131v.133h.133c0,.118.37.3.5.409a2.357,2.357,0,0,0,1.723.621c.606-.118,1.941-2.333,1.637-2.866,0,.181-.147.274-.265.391" transform="translate(64.337 251.445)" fill="#fff"/>
        </g>
        <g id="g132" transform="translate(83.495 46.065)">
          <path id="path134" d="M-3.215,0H-3.48c.124.149.128.036.265,0" transform="translate(3.48)" fill="#fff"/>
        </g>
        <g id="g136" transform="translate(81.631 47.772)">
          <path id="path138" d="M-1.633,0c-.046.092-.088.177-.135.259,0,.3.135-.154.135-.259" transform="translate(1.768)" fill="#fff"/>
        </g>
      </g>
    </g>
    <g id="g140" transform="translate(0 -667.965)">
      <g id="g142" transform="translate(0 0)" clip-path="url(#clip-path)">
        <g id="g148" transform="translate(73.146 12.217)">
          <path id="path150" d="M-25.48-6.4v.132c-.221,0-.3-.239-.4-.393.13.086.263.171.4.261m-.4,5.775c0-1.094-.312-2.268.4-3.154v-.128c.3,0,.574.348.813.478a3.549,3.549,0,0,0,1.042.308v-.133c.472,0-.728-1.852-.93-2.095,0-.223.235-.2.4-.263h-.14c0-.415-.96-1.2-1.33-1.316V-6.8a1.679,1.679,0,0,0-.928.394c0,2.071-2.72,4.617.665,5.775" transform="translate(27.58 6.929)" fill="#bf3491"/>
        </g>
        <g id="g152" transform="translate(115.44 37.406)">
          <path id="path154" d="M-6.462,0H-6.6c-.086.046-.177.092-.265.131,0,.172.044.134-.133.134V.393c.231,0,.367-.18.533-.262V0" transform="translate(6.995)" fill="#bf3491"/>
        </g>
        <g id="g156" transform="translate(118.971 37.014)">
          <path id="path158" d="M-4.91-1.8c0-.22-.223-.131-.4-.131.047.089.086.174.135.261.135,0,.165-.048.269-.13" transform="translate(5.315 1.95)" fill="#bf3491"/>
        </g>
        <g id="g160" transform="translate(118.234 36.623)">
          <path id="path162" d="M0,0V.079A2.43,2.43,0,0,0,.265,0H0" fill="#bf3491"/>
        </g>
        <g id="g164" transform="translate(82.79 23.266)">
          <path id="path166" d="M-2.135,0c0,.045-.068.058-.068.1-.238,0-.023.159.068.293,0-.131.139-.146,0-.4" transform="translate(2.311)" fill="#bf3491"/>
        </g>
        <g id="g168" transform="translate(116.64 36.885)">
          <path id="path170" d="M-9.668,0H-9.8c-.176.089-.355.178-.534.261V.393h-.13V.521A1.558,1.558,0,0,0-9.536.13c-.176,0-.132.04-.132-.13" transform="translate(10.465)" fill="#bf3491"/>
        </g>
        <g id="g172" transform="translate(118.141 36.702)">
          <path id="path174" d="M-1.133-.62V-.671c-.1.028-.151.051,0,.051" transform="translate(1.226 0.671)" fill="#bf3491"/>
        </g>
        <g id="g176" transform="translate(79.487 21.01)">
          <path id="path178" d="M-43.734-39.77h.533c0,.2-.268.376-.4.524v.131c-.264,0-.153-.455-.137-.655m4.166,16.581c-1.8-.987-4.2-1.567-5.145-3.578a1.632,1.632,0,0,1-.216-1.063,2.351,2.351,0,0,0-.314-.773,8.153,8.153,0,0,1-.354-1.327c.184,0,.375.191.534.265-.025-.212-.064-.417-.1-.629.042-.5.337-1.154.1-1.6v-.129c.421,0,.386-.409.524-.681.841-1.709,2.329-5.627,4.326-6.281.3-.044.579-.083.872-.125-.163.573-.328,1.144-.494,1.717-.1.522-.2,1.046-.306,1.564-.219,0-.133.079-.133.261H-40c0,.131.034.093.132,0,1.346,0,1.6-2.847,1.79-3.8.161-.772.828-1.549.439-2.427-.374-.825-1.655-1.179-2.5-1.255-.133.221-.261.439-.4.657,0,.466-.751.669-1.067.787,0,.312-.235-.193-.267-.261H-42c0,.225-.119.453,0,.653v.129c-.175-.041-.355-.084-.53-.129h-.14v.129c-.276,0-.525.724-.795.918,0-.112-.586.32-.7.512-.123.319-.242.619-.367.933-.242,0-.074.14,0,.261a.574.574,0,0,0,.265.4v.128c-.265,0-.43-.343-.525-.525a.834.834,0,0,0-.533.266c-.183,0-.135-.047-.135.131.23,0,.166.108.265.259,0,.192.3-.023.533,0,.177,0,.13-.046.13.133.179,0,.137-.044.137.129a2.264,2.264,0,0,0-1.065.133H-45.6a.284.284,0,0,0-.132-.262c0,.368-.263.621-.4.916-.246,0-.088.139,0,.263,0,.225-.227.286-.4.393v.4h.133c0,.27.174-.051.267-.13v-.133H-46c0,.428-.644.609-.93.79,0,.3.3.52.533.653v.133c-.268-.041-.533-.089-.8-.133,0,.645-.407,1.822.132,2.229,0,.172.047.131-.132.131,0,1.076-.307,1.65.4,2.625.174,0,.132-.044.132.133a.779.779,0,0,0-.532.264c-.136,0-.142-.02-.086.108a21.725,21.725,0,0,0,1.325,3.179,18.387,18.387,0,0,0,3.552,3.4c.175,0,.135-.045.135.134-.307,0-.507.556-.7.747-.3.235-.6.46-.9.693A9.723,9.723,0,0,0-46-17.729a9.388,9.388,0,0,0-.4,1.442c-.184.209.028.294.13.393.017.129-.081.265-.13.4-.04.394-.089.79-.133,1.184,0,.135.233.307.263.128a2.074,2.074,0,0,1,.321-.893,4.762,4.762,0,0,1,.711-1.255,17.466,17.466,0,0,0,1.9-1.919c.865,0,1.19-.555,1.9-.813.958-.359,1.9-.721,2.9-1.024,0-.769.7-1.381.218-2.214a2.655,2.655,0,0,0-1.246-.884" transform="translate(47.34 43.049)" fill="#bf3491"/>
        </g>
        <g id="g180" transform="translate(1.521 1.068)">
          <path id="path182" d="M-837.164-450.429c.017,1.339.026,2.68.038,4.019a2.543,2.543,0,0,1-2.124,1.762c-2.614-.1-2.588-5.061-2.686-7.1a22.351,22.351,0,0,1-.051-4.848c.232-1.4,1.309-4.864,2.6-5.519,0-.038.016-.157.016-.2,3.169.723,2.034,8.925,2.211,11.889m-28.325-9.79c0-.044-.079-.856-.079-.982a16.127,16.127,0,0,1,.541-4.318c.2-.572.391-1.152.586-1.722.5-2.756,1.239-5.373,1.862-8a17.319,17.319,0,0,1,1.36-4.059c.235,1.3-.523,3.221-.751,4.471q-.878,4.4-1.748,8.791c-.539,1.965-.969,3.918-1.506,5.879-.077.186-.144.165-.265-.057m-7.879,10.76c-.376.974-2.7,2.244-3.691,2.43a1.614,1.614,0,0,1-.2.042c-.089,0-.149.035-.24.035-.186.04-.269.126-.484.057-.191-.081-.339-.588-.451-.836a6.076,6.076,0,0,1-.465-2.188,15.515,15.515,0,0,1,4.771-11.937c.244-.284.5-.707.667.135,0,.812.149,1.743.11,2.618a39.784,39.784,0,0,0-.188,5.241c.035.749.063,1.49.1,2.236a5.353,5.353,0,0,1,.072,2.166m-5.819-2.689v.135c-.251,0-.054-.258,0-.394Zm44.143,5.128a48.842,48.842,0,0,1,.033-6.837c-.084-1.617-.162-3.236-.248-4.851a22.157,22.157,0,0,0,0-3.807,1.287,1.287,0,0,0-.43-.893c-.077-.048-.156-.1-.235-.153-.244-.04-.161.247-.267.393a3.8,3.8,0,0,0-2.128-1.7c-.174.041-.135.217-.135.26-1.746,0-2.123.742-3.05,1.974-.339.372-.669.731-1,1.094-1.62,2.512-1.6,5.833-1.806,9.005a14.834,14.834,0,0,1-.268,3.411.2.2,0,0,1-.135.129c0-1.669-2.069-9.29-4.1-8.717-.925.26-1.267,1.5-1.753,2.16-.049.041-.049.17-.132.129,0-.084-.068-.693-.1-.91-.14-1.108-1.472-4.6-2.462-5.07-1.562-.75-3.3,4.271-3.436,5.324-.039.087-.074.121-.128,0-.067-.35-.139-.7-.213-1.054-.135-1.357-.861-6.729-3.157-4.99-1.634,1.222-1.93,6.177-2.43,8.249a23.321,23.321,0,0,1-1.522,4.619c-.156.272-.226.229-.265.131-.125-.352-.256-.712-.374-1.065a4.522,4.522,0,0,1-.247-1.947,13.07,13.07,0,0,1,.66-2.747q.165-.8.331-1.605c.66-2.07,1.383-4.109,1.918-6.274,1.018-4.145,1.163-8.623,2.007-12.86.353-1.812.477-3.67.823-5.5a5.644,5.644,0,0,0,.392-1.971,1.192,1.192,0,0,0-.806-.843c-.693-.229-1.22.475-1.607.878-2.143,2.176-2.52,5.39-3.164,8.334a52.741,52.741,0,0,0-1.113,6.447c-.086.966-.177,1.926-.268,2.889a3.794,3.794,0,0,1-.151,1.7c0,.225.058.218.135.4.016.238.063,1.29.081,1.527a10.564,10.564,0,0,1-.3,2.9c-.13.361-.27.72-.407,1.081-.084.749-.174,1.5-.264,2.24a25.078,25.078,0,0,1-1.83,5.334c-.242.5-.528,1.418-1.325,1.158-1.695-.56-1.441-8.533-1.4-10.576a14.989,14.989,0,0,0-.128-4.136c-.2-.59-.639-1.2-1.209-1.241a1.129,1.129,0,0,0-.549.213,6.1,6.1,0,0,1-1.272.783,9.549,9.549,0,0,0-2.327,2.012,21.331,21.331,0,0,0-3.776,5.7c-1.316,3.04-2.825,9.98,2.2,10.448.242.023.534.363.137.393a9.147,9.147,0,0,0-2.934.916c0,.837.588,1.628.421,2.464a.721.721,0,0,1-1.163.342c-2.817-1.879-3.568-8.069-3.734-11.468-.1-1.92.142-3.91.2-5.773a31.957,31.957,0,0,1,.372-3.67c.007-.345.29-2.939.362-3.3a61.409,61.409,0,0,0,1.532-11.66,35.325,35.325,0,0,0-.751-6.958,4.862,4.862,0,0,0-.734-2.208,3.057,3.057,0,0,0-2.1-.8c-.549.676-1.106,1.347-1.653,2.022a25.178,25.178,0,0,0-2.958,6.388c-.451,1.446-.895,2.883-1.348,4.324q-.282,1.042-.563,2.088c-.054.549-.107.388-.132.264a3.8,3.8,0,0,0-.751-1.774c-1.674-2-3.648,1.58-4.44,2.562.008-.046.065-.707.082-.926.192-2.378-.631-8.746-3.924-8.144-.835.148-1.281,1.719-1.488,2.374-.83,2.572-.955,5.437-1.525,8.16-.13.915-.258,1.818-.389,2.725a11.982,11.982,0,0,0-.323,2.629,6.292,6.292,0,0,0,1.044,3.546v.135c.406,0,.6-.867.67-1.184.248-1.277.12-2.713.306-4.064a48.819,48.819,0,0,1,1.272-6.56c.346-1.269.263-2.722.946-3.806v-.129h.132c.07.221.137.439.2.667.1.57.2,1.13.3,1.689.165,1.421.184,2.948.33,4.457a23.614,23.614,0,0,1,.192,3.278c-.195,1.715-.4,3.42-.595,5.127-.212,2.506-.274,5.137-.316,7.733-.017.956-.158,2.014-.093,3.019a16.6,16.6,0,0,0,.379,2.234h.132c0-.294.572-.605.728-.841a4.433,4.433,0,0,0,.716-1.92c.044-1.446.093-2.894.128-4.347.2-1.813.4-3.643.713-5.394.038-.516.068-1.037.1-1.56.57-2.9,1.165-6.218,3.2-8.367.059-.041.089-.091.133-.091.055.236.114.415.165.647.025.645.046,1.286.077,1.927-.191,3.883-1.025,7.6-1.276,11.418-.156,2.305-.238,4.635-.274,6.95-.021,1.071.195,6.6,1.127,6.452,2.523-.424,1.667-8.071,1.96-10.251.525-3.875,1.16-7.648,1.767-11.425q.276-2.35.551-4.7c.128-.449.247-.9.37-1.358.251-1.219.355-2.334.639-3.5.219-.9.6-1.644.844-2.522a15.733,15.733,0,0,1,3.236-6.672.31.31,0,0,1,.537.132c0,.6.321,1.167.314,1.833-.044,2.528-.223,5.032-.3,7.594-.07,2.137-.551,4.258-.779,6.316-.895,7.93-1.478,17.859,1.265,24.884.47,1.2,2.477,4.875,4.05,4.875,1.823,0,3.48-2.922,1.979-4.31,0-2.31,3.713-1.476,4.924-2.358a8.268,8.268,0,0,0,1.927-2.556c.079-.114.153-.385.286-.43a3.757,3.757,0,0,0,.672,1.567c1.408,2,3.347.753,4.433-.814.135,0,.473,1.815,1.332,1.837a4.128,4.128,0,0,0,2.711-1.4,8.355,8.355,0,0,0,1.858-2.96c.13-.817.26-1.632.4-2.455.144-.747.279-1.495.414-2.244a7.85,7.85,0,0,1,.746-3.271v-.131h.13c.107,1.145.2,2.282.3,3.428.028,1.041.132,2,.181,3,0,.272-.009.537-.017.8a22.461,22.461,0,0,1,.463,3.531,1.057,1.057,0,0,0,1.567.336c1.8-1.038,1.506-7.5,2.595-9.507.034-.047.135-.408.232-.278.039.063.158,1.085.192,1.3.409,2.991-.054,6.627,1.535,9.064.188.23.583.085.774.039,2-.5,2.213-4.034,2.448-5.81q.182-.989.372-1.968c.021-.2.1-.167.132,0,.121.57.24,1.135.354,1.707a17.916,17.916,0,0,0,.507,2.47c.2.642.519,1.209.737,1.855.09.193.237.359.307.551a2.185,2.185,0,0,0,3.419,1.287c.13-.065.086,0,.27,0,0,1.417,2.283,4.309,3.859,4.34a3.507,3.507,0,0,0,2.524-1.325c0-.176-.046-.131.137-.131,0,.719,1.535,2.844,2.39,2.824.388-.007.571-.585.938-.723,0-.513-1.032-1.68-1.244-2.277a16.92,16.92,0,0,1-.537-3.356" transform="translate(906.189 487.567)" fill="#bf3491"/>
        </g>
        <g id="g184" transform="translate(86.774 24.944)">
          <path id="path186" d="M-52.235-164.412a1.838,1.838,0,0,1-1.551-.987c-1.479-2.687.669-5.5,1.817-7.584a4.675,4.675,0,0,0,1.023,1.166c.345.2.789.2,1.014.591,1.211,2.052.832,6.864-2.3,6.815m27.418-1.354h-.13v.133c-.669.222-1.332.438-2,.655-.535.046-1.065.086-1.6.129v-.129c.187,0,.193-.135.265-.263h-1.332c-6.312,0-5.559-8.822-8.116-12.463v-.133c-.135,0-.4.087-.4.133-.046,0-.1.131-.265.131,0-.264-.463-.336-.669-.4-.674.874-1.353,1.734-2.025,2.6a5.831,5.831,0,0,0-.9,1.2c-.258.255-.274.134-.267,0a8.322,8.322,0,0,0-.026-1.52c-.1-.314-.509-.473-.785-.551-1.679-.521-2.571.544-3.846,1.3-.672.3-1.339.6-2,.908-.386-.035-.776-.067-1.169-.1-.34-.1-.806-.506-1.225-.293a.957.957,0,0,1-.267.524v.133c-.844,0-1.449-.721-2.465-.152-.678.372-.913,1.314-1.213,1.947-.9,1.789-2.374,6.4-.049,7.779.328,0,.355.66.4.921.27-.041.533-.087.8-.129v.392c0,.176-.047.131.135.131,0,.229.132.076.277.031a2.7,2.7,0,0,1,1.057.016,3.578,3.578,0,0,0,3.1-1.168,4.688,4.688,0,0,0,1.164-1.674c.038-.37.079-.74.116-1.119.086-.265.17-.53.251-.8-.074-.269-.144-.535-.216-.8-.114-.645-.737-2.647-.47-3.155.226-.46,1.046-.664,1.479-.843a7.93,7.93,0,0,1,1.762-.717,9.122,9.122,0,0,0-.135,2.621c-.207,0-.146.081-.166.248a31.8,31.8,0,0,0-.1,4.607,11.692,11.692,0,0,0,.928.785c.4,0,.579.28.929.131,0,.272.294.266.535.266.177,0,.137-.048.137.131.274,0,.539-.875.493-1.179a5.781,5.781,0,0,1-.251-1.448c.174-.616.35-1.23.532-1.846a16.706,16.706,0,0,1,2.815-5.893v-.133c.575,0,.628.918.73,1.293,1.07,3.908,2.139,7.287,5.928,9.466,0,.167,1.722.186,2,.525h.265c0-.28.191.014.265.131.4-.1.809-.194,1.211-.3a9.212,9.212,0,0,0,5.18-1.807.7.7,0,0,1-.667-.26" transform="translate(56.542 177.968)" fill="#bf3491"/>
        </g>
        <g id="g188" transform="translate(95.07 35.834)">
          <path id="path190" d="M0-11.149H.137c0-.361.137-.581,0-.919-.042.31-.085.613-.137.919" transform="translate(0 12.068)" fill="#bf3491"/>
        </g>
        <g id="g192" transform="translate(73.804 24.944)">
          <path id="path194" d="M-59.437-232.292v.131c-.188,0-.391-.186-.535-.26,0,.233-.263.489-.4.657v.13c-1.869,0-.955-4.816-1.73-5.9.214,0,.1-1.667,0-1.967.272,0,.191-.122.324-.318-.389.159-.277-.206-.324-.206,0-.217.226-.213.4-.264a.659.659,0,0,0-.265-.528.875.875,0,0,1,.265-.523c.2,0-.124-.321-.135-.53-.023-.362.223-.617.007-.909v-.658c.176,0,.316-.183.372-.329.169-.45-.033-.792,0-1.24.118-1.752.693-6.014-1.434-6.436-.265.035-.733,1.449-.872,2.245q-.049,1.437-.1,2.868c-.393,4.046-.848,8.84.056,12.768a4.134,4.134,0,0,0,.646,1.93.93.93,0,0,0,.133.524h.14c0,.2-.086.131-.273.131v.133h.133c0,.118.37.3.5.409a2.357,2.357,0,0,0,1.723.621c.606-.118,1.941-2.333,1.637-2.866,0,.181-.147.274-.265.391" transform="translate(64.337 251.445)" fill="#bf3491"/>
        </g>
        <g id="g196" transform="translate(83.495 46.065)">
          <path id="path198" d="M-3.215,0H-3.48c.124.149.128.036.265,0" transform="translate(3.48)" fill="#bf3491"/>
        </g>
        <g id="g200" transform="translate(81.631 47.772)">
          <path id="path202" d="M-1.633,0c-.046.092-.088.177-.135.259,0,.3.135-.154.135-.259" transform="translate(1.768)" fill="#bf3491"/>
        </g>
      </g>
    </g>
  </g>
</svg>
