<svg xmlns="http://www.w3.org/2000/svg" width="120" height="30.682" viewBox="0 0 120 30.682">
  <g id="g10" transform="translate(-373.368 564.884)">
    <g id="g12" transform="translate(373.368 -564.884)">
      <g id="g20" transform="translate(23.673)">
        <path id="path22" d="M-22.047,0A10.346,10.346,0,0,0-32.393,10.346h1.966a8.38,8.38,0,0,1,8.38-8.38,8.381,8.381,0,0,1,8.381,8.38,8.381,8.381,0,0,1-8.381,8.381v1.966A10.347,10.347,0,0,0-11.7,10.346,10.347,10.347,0,0,0-22.047,0" transform="translate(32.393)" fill="#00aec7"/>
      </g>
      <g id="g24" transform="translate(0 0.562)">
        <path id="path26" d="M-228.35-23.954l3.366-7.09,3.326,7.09Zm3.607-11.241h-.48l-9.245,19.568h2.183l3.059-6.437h8.434l3.073,6.437h2.1Zm-14.2,14.978-13.009-14.978h-.427v19.568h2.023V-30.419l12.9,14.792h.439V-35.195h-1.93Zm-28.813,4.59h11.133v-1.93H-265.8v-7.674h9.177v-1.916H-265.8v-6.118h9.257v-1.93h-11.213Zm-6.792-4.935a6.507,6.507,0,0,1-3.471,2.581,21.094,21.094,0,0,1-5.629.505h-2.261V-33.292h1.383a23.138,23.138,0,0,1,6.054.558,6.889,6.889,0,0,1,3.816,2.755,8.374,8.374,0,0,1,1.371,4.84,8.013,8.013,0,0,1-1.264,4.576m-2.807-13.926a20.685,20.685,0,0,0-6.372-.707h-4.057v19.568h6.225a12.389,12.389,0,0,0,5.679-1.063,8.089,8.089,0,0,0,3.3-3.3,10.248,10.248,0,0,0,1.278-5.176,10.476,10.476,0,0,0-1.61-5.866,8.479,8.479,0,0,0-4.443-3.458m-39.227-.707-7.875,16.057-7.955-16.057h-.32l-2.779,19.568h1.888l1.9-14.1,7.011,14.1h.491l6.918-13.994,1.916,13.994h1.928l-2.806-19.568Z" transform="translate(335.511 35.195)" fill="#5b6770"/>
      </g>
      <g id="g28" transform="translate(68.795 24.451)">
        <path id="path30" d="M-5.752-6.675a1.053,1.053,0,0,0-.634-.2c-.138-.008-.215-.008-.33-.008-.031,0-.046.016-.046.057V-4.9c0,.533.024.672.269.777a1.3,1.3,0,0,0,.558.1.916.916,0,0,0,.926-1.036,1.973,1.973,0,0,0-.743-1.61m-1.01-.648c0,.065.024.081.054.089a1.774,1.774,0,0,0,.359.025A.748.748,0,0,0-5.8-7.363a1.093,1.093,0,0,0,.314-.859c0-.542-.3-1.255-.956-1.255a1.093,1.093,0,0,0-.253.017c-.053.015-.069.049-.069.138Zm-.918-.138c0-1.23,0-1.456-.014-1.715-.016-.276-.076-.405-.329-.461a1.494,1.494,0,0,0-.3-.025c-.084,0-.13-.016-.13-.073s.053-.073.168-.073c.406,0,.887.025,1.04.025.373,0,.673-.025.933-.025,1.385,0,1.63.785,1.63,1.215A1.782,1.782,0,0,1-5.46-7.177,1.943,1.943,0,0,1-4.068-5.429,1.817,1.817,0,0,1-6.111-3.665c-.184,0-.879-.049-1.109-.049-.175,0-.657.025-.963.025-.1,0-.154-.025-.154-.08s.032-.064.123-.064a1.186,1.186,0,0,0,.275-.034c.152-.032.191-.21.222-.445.037-.339.037-.978.037-1.723Z" transform="translate(8.451 9.808)" fill="#5b6770"/>
      </g>
      <g id="g32" transform="translate(73.886 24.451)">
        <path id="path34" d="M-5.3-8.571a1.788,1.788,0,0,0-.176-.85c-.053-.13-1.077-1.909-1.345-2.331a1.953,1.953,0,0,0-.528-.59.765.765,0,0,0-.322-.106c-.062,0-.114-.016-.114-.072s.052-.073.146-.073c.137,0,.711.025.963.025.161,0,.474-.025.818-.025.076,0,.115.025.115.073s-.052.057-.168.09a.143.143,0,0,0-.107.146.783.783,0,0,0,.091.274c.108.244,1.179,2.194,1.3,2.42.077-.194,1.039-1.973,1.148-2.225a1.1,1.1,0,0,0,.106-.422.19.19,0,0,0-.159-.2c-.069-.016-.138-.033-.138-.081s.037-.073.13-.073c.252,0,.5.025.719.025.168,0,.672-.025.818-.025.083,0,.138.016.138.065s-.062.08-.146.08a.785.785,0,0,0-.335.1,1.162,1.162,0,0,0-.414.4A26.209,26.209,0,0,0-4.218-9.38a2.057,2.057,0,0,0-.114.809v.664c0,.129,0,.469.023.808.014.235.083.413.312.445a3,3,0,0,0,.383.034c.085,0,.122.023.122.064s-.062.08-.161.08c-.482,0-.963-.025-1.17-.025-.191,0-.673.025-.956.025-.107,0-.167-.016-.167-.08,0-.041.037-.064.122-.064a1.122,1.122,0,0,0,.267-.034c.153-.032.222-.21.236-.445.024-.339.024-.68.024-.808Z" transform="translate(7.781 12.593)" fill="#5b6770"/>
      </g>
      <g id="g36" transform="translate(83.773 23.359)">
        <path id="path38" d="M-4.318-9.538c0,.906,0,1.614.046,2.012.027.274.081.481.346.518a3.691,3.691,0,0,0,.448.039c.115,0,.15.028.15.075,0,.066-.061.095-.194.095-.563,0-1.126-.029-1.357-.029s-.8.029-1.134.029c-.125,0-.187-.02-.187-.095,0-.047.035-.075.132-.075a1.375,1.375,0,0,0,.321-.039c.18-.037.223-.244.261-.518.043-.4.043-1.106.043-2.012V-11.2c0-1.435,0-1.7-.018-2-.017-.321-.089-.472-.382-.538a1.7,1.7,0,0,0-.349-.029c-.088,0-.152-.018-.152-.075,0-.076.073-.095.207-.095.462,0,1.026.028,1.285.028.339,0,2.15,0,2.355-.009a1.585,1.585,0,0,0,.365-.037c.054-.018.1-.056.143-.056s.064.037.064.084c0,.066-.046.18-.072.425-.008.093-.026.651-.045.764-.009.076-.028.133-.09.133s-.08-.047-.088-.151a.964.964,0,0,0-.054-.359.635.635,0,0,0-.589-.284l-1.374-.028c-.053,0-.08.028-.08.133v2.36c0,.057.01.085.062.085l1.142-.009c.152,0,.277,0,.4-.011a.45.45,0,0,0,.383-.169c.046-.057.062-.095.116-.095.037,0,.054.028.054.085s-.044.292-.072.585c-.018.189-.037.624-.037.69,0,.086,0,.18-.089.18-.053,0-.072-.066-.072-.132a1.028,1.028,0,0,0-.054-.293.524.524,0,0,0-.453-.34c-.223-.028-1.169-.028-1.322-.028-.044,0-.062.019-.062.085Z" transform="translate(6.344 14.015)" fill="#5b6770"/>
      </g>
      <g id="g40" transform="translate(89.871 24.452)">
        <path id="path42" d="M-3.568-6.364c0,.089.016.121.069.146a1.934,1.934,0,0,0,.58.08.739.739,0,0,0,.543-.138,1.467,1.467,0,0,0,.451-1.214c0-1.149-.718-1.481-1.169-1.481a1.572,1.572,0,0,0-.4.032c-.053.017-.069.049-.069.114ZM-4.471-7c0-1.23,0-1.456-.016-1.715-.016-.276-.077-.4-.329-.461a1.467,1.467,0,0,0-.3-.025c-.085,0-.13-.016-.13-.073s.052-.073.168-.073c.4,0,.887.024,1.046.024.261,0,.841-.024,1.079-.024A2.343,2.343,0,0,1-1.541-9a1.428,1.428,0,0,1,.52,1.109A2.3,2.3,0,0,1-2.033-6.081c.684.906,1.212,1.626,1.663,2.128a1.505,1.505,0,0,0,.856.55A1.061,1.061,0,0,0,.7-3.377c.062,0,.092.023.092.064,0,.064-.054.08-.145.08H-.082A1.5,1.5,0,0,1-.9-3.385,3.855,3.855,0,0,1-1.948-4.576C-2.254-5.02-2.6-5.571-2.7-5.692a.151.151,0,0,0-.137-.057l-.665-.016c-.039,0-.061.016-.061.066v.112c0,.753,0,1.393.038,1.732.023.235.068.413.3.445a3.321,3.321,0,0,0,.373.034c.062,0,.092.023.092.064s-.053.08-.152.08c-.444,0-1.01-.025-1.123-.025-.146,0-.627.025-.934.025-.1,0-.154-.025-.154-.08s.032-.064.125-.064a1.176,1.176,0,0,0,.275-.034c.152-.032.19-.21.222-.445.038-.339.038-.979.038-1.723Z" transform="translate(5.243 9.351)" fill="#5b6770"/>
      </g>
      <g id="g44" transform="translate(96.206 24.273)">
        <path id="path46" d="M-7.691-8.055c.038,0,.046-.025.038-.049l-.686-2c-.009-.032-.016-.073-.041-.073s-.037.041-.045.073l-.7,1.991c-.008.032,0,.057.031.057Zm-1.56.4c-.038,0-.052.016-.069.064l-.413,1.158a1.631,1.631,0,0,0-.114.493c0,.146.069.252.305.252h.113c.094,0,.116.015.116.064s-.046.08-.129.08c-.246,0-.574-.025-.811-.025-.085,0-.5.025-.9.025-.1,0-.145-.016-.145-.08s.031-.064.092-.064a1.9,1.9,0,0,0,.237-.017c.353-.049.5-.323.65-.728l1.92-5.083c.093-.234.138-.324.215-.324s.114.073.191.26c.183.445,1.407,3.747,1.9,4.976.29.729.514.842.673.882a1.522,1.522,0,0,0,.322.033c.063,0,.1.007.1.064s-.069.08-.352.08-.834,0-1.446-.016c-.137-.009-.229-.009-.229-.064s.032-.064.108-.072a.138.138,0,0,0,.068-.187l-.612-1.715a.074.074,0,0,0-.077-.057Z" transform="translate(11.3 11.835)" fill="#5b6770"/>
      </g>
      <g id="g48" transform="translate(103.431 24.339)">
        <path id="path50" d="M-.309-13.072c-.122-.056-.145-.1-.145-.276,0-.445.029-.931.038-1.06s.031-.211.092-.211.076.073.076.138a1.836,1.836,0,0,0,.069.412,1.058,1.058,0,0,0,1.094.817.95.95,0,0,0,1.025-.922,1.561,1.561,0,0,0-.749-1.3L.838-15.76A2.43,2.43,0,0,1-.293-17.677a1.581,1.581,0,0,1,1.766-1.529,3.51,3.51,0,0,1,1.017.137c.069.017.107.041.107.1,0,.105-.03.341-.03.971,0,.179-.024.244-.085.244s-.076-.049-.076-.146a1.034,1.034,0,0,0-.2-.534.955.955,0,0,0-.835-.4A.821.821,0,0,0,.465-18c0,.373.175.656.811,1.166l.213.169c.918.752,1.255,1.3,1.255,2.064a1.661,1.661,0,0,1-.719,1.408,2.114,2.114,0,0,1-1.218.331,2.527,2.527,0,0,1-1.115-.209" transform="translate(0.453 19.207)" fill="#5b6770"/>
      </g>
      <g id="g52" transform="translate(108.365 24.387)">
        <path id="path54" d="M-1.646-5.139c0-1.23,0-1.457-.015-1.715-.016-.276-.077-.405-.33-.461a1.473,1.473,0,0,0-.3-.025c-.084,0-.13-.016-.13-.073s.053-.073.169-.073c.4,0,.886.025,1.1.025.245,0,1.767,0,1.912-.009a2.916,2.916,0,0,0,.33-.048.738.738,0,0,1,.122-.032c.037,0,.046.032.046.073,0,.057-.039.154-.062.526-.007.081-.023.437-.037.534-.008.04-.023.089-.077.089s-.069-.04-.069-.114a.911.911,0,0,0-.045-.29C.915-6.879.839-6.975.457-7.024c-.129-.017-.933-.032-1.086-.032-.037,0-.054.023-.054.081v2.046c0,.057.009.089.054.089.169,0,1.048,0,1.223-.015a.532.532,0,0,0,.368-.121c.053-.066.084-.106.122-.106s.054.016.054.064a5.726,5.726,0,0,0-.062.592c-.017.162-.03.485-.03.542s0,.154-.069.154c-.053,0-.069-.032-.069-.073A2,2,0,0,0,.878-4.1C.839-4.256.732-4.379.45-4.41c-.146-.016-.9-.025-1.086-.025-.037,0-.046.032-.046.082v.639c0,.274-.007,1.019,0,1.254.017.558.139.68.918.68a1.832,1.832,0,0,0,.718-.1c.2-.1.293-.267.346-.6.014-.089.029-.121.083-.121s.063.065.063.146a6.605,6.605,0,0,1-.1.9c-.051.211-.122.211-.411.211-1.157,0-1.669-.049-2.12-.049-.176,0-.657.024-.963.024-.1,0-.152-.024-.152-.08,0-.041.03-.064.121-.064a1.18,1.18,0,0,0,.276-.033c.152-.033.19-.211.221-.445.038-.339.038-.979.038-1.723Z" transform="translate(2.419 7.551)" fill="#5b6770"/>
      </g>
      <g id="g56" transform="translate(113.965 24.452)">
        <path id="path58" d="M-3.572-6.364c0,.089.015.121.068.146a1.946,1.946,0,0,0,.582.08.73.73,0,0,0,.542-.138,1.462,1.462,0,0,0,.452-1.214c0-1.149-.718-1.481-1.17-1.481a1.579,1.579,0,0,0-.406.032c-.053.017-.068.049-.068.114ZM-4.474-7c0-1.23,0-1.456-.015-1.715-.016-.276-.077-.4-.33-.461a1.476,1.476,0,0,0-.3-.025c-.083,0-.131-.016-.131-.073s.054-.073.168-.073c.407,0,.888.024,1.048.024.26,0,.842-.024,1.08-.024A2.338,2.338,0,0,1-1.546-9a1.423,1.423,0,0,1,.52,1.109,2.3,2.3,0,0,1-1.01,1.812c.681.906,1.209,1.626,1.66,2.128a1.511,1.511,0,0,0,.857.55A1.055,1.055,0,0,0,.7-3.377c.062,0,.092.023.092.064,0,.064-.054.08-.145.08H-.085A1.5,1.5,0,0,1-.9-3.385,3.85,3.85,0,0,1-1.951-4.576c-.306-.444-.658-.995-.757-1.116a.154.154,0,0,0-.139-.057l-.664-.016c-.037,0-.061.016-.061.066v.112c0,.753,0,1.393.038,1.732.023.235.069.413.3.445a3.367,3.367,0,0,0,.375.034c.06,0,.092.023.092.064s-.053.08-.152.08c-.444,0-1.01-.025-1.125-.025-.145,0-.626.025-.933.025-.1,0-.153-.025-.153-.08s.03-.064.122-.064a1.17,1.17,0,0,0,.275-.034c.154-.032.192-.21.223-.445.038-.339.038-.979.038-1.723Z" transform="translate(5.248 9.351)" fill="#5b6770"/>
      </g>
    </g>
  </g>
</svg>
