<?xml version="1.0" encoding="UTF-8" standalone="no"?>
<svg
   xmlns:dc="http://purl.org/dc/elements/1.1/"
   xmlns:cc="http://creativecommons.org/ns#"
   xmlns:rdf="http://www.w3.org/1999/02/22-rdf-syntax-ns#"
   xmlns:svg="http://www.w3.org/2000/svg"
   xmlns="http://www.w3.org/2000/svg"
   viewBox="0 0 1122.52 793.70667"
   height="793.70667"
   width="1122.52"
   xml:space="preserve"
   id="svg2"
   version="1.1"><metadata
     id="metadata8"><rdf:RDF><cc:Work
         rdf:about=""><dc:format>image/svg+xml</dc:format><dc:type
           rdf:resource="http://purl.org/dc/dcmitype/StillImage" /></cc:Work></rdf:RDF></metadata><defs
     id="defs6"><clipPath
       id="clipPath18"
       clipPathUnits="userSpaceOnUse"><path
         id="path16"
         d="M 0,0 H 841.89 V 595.281 H 0 Z" /></clipPath></defs><g
     transform="matrix(1.3333333,0,0,-1.3333333,0,793.70667)"
     id="g10"><g
       id="g12"><g
         clip-path="url(#clipPath18)"
         id="g14"><g
           transform="translate(359.9102,333.6641)"
           id="g20"><path
             id="path22"
             style="fill:#00aec7;fill-opacity:1;fill-rule:nonzero;stroke:none"
             d="m 0,0 c -13.418,0 -24.295,-10.878 -24.295,-24.295 h 4.617 c 0,10.868 8.809,19.678 19.678,19.678 10.867,0 19.679,-8.81 19.679,-19.678 0,-10.869 -8.812,-19.681 -19.679,-19.681 v -4.616 c 13.417,0 24.295,10.878 24.295,24.297 C 24.295,-10.878 13.417,0 0,0" /></g><g
           transform="translate(531.6611,305.9473)"
           id="g24"><path
             id="path26"
             style="fill:#5b6770;fill-opacity:1;fill-rule:nonzero;stroke:none"
             d="M 0,0 7.904,16.649 15.713,0 Z M 8.469,26.396 H 7.342 l -21.709,-45.949 h 5.125 l 7.183,15.116 h 19.805 l 7.215,-15.116 h 4.934 z M -24.877,-8.776 -55.424,26.396 h -1.002 v -45.949 h 4.75 v 34.734 l 30.299,-34.734 h 1.031 v 45.949 h -4.531 z m -67.658,-10.777 h 26.142 v 4.531 h -21.55 V 2.999 h 21.55 v 4.498 h -21.55 v 14.367 h 21.738 v 4.532 h -26.33 z m -15.949,11.589 c -1.979,-2.916 -4.699,-4.935 -8.151,-6.06 -2.461,-0.791 -6.865,-1.186 -13.217,-1.186 h -5.309 v 37.138 h 3.248 c 6.6,0 11.341,-0.439 14.216,-1.311 3.829,-1.166 6.818,-3.321 8.961,-6.47 2.146,-3.14 3.22,-6.932 3.22,-11.365 -0.002,-4.23 -0.992,-7.81 -2.968,-10.746 m -6.591,32.701 c -3.106,1.106 -8.092,1.659 -14.962,1.659 h -9.526 v -45.949 h 14.618 c 5.724,0 10.17,0.832 13.336,2.497 3.187,1.668 5.769,4.248 7.746,7.746 2,3.5 3,7.551 3,12.154 0,5.33 -1.26,9.921 -3.78,13.774 -2.498,3.852 -5.977,6.559 -10.432,8.119 m -92.112,1.659 -18.491,-37.704 -18.679,37.704 h -0.751 l -6.526,-45.949 h 4.433 l 4.466,33.109 16.463,-33.109 h 1.153 l 16.244,32.861 4.5,-32.861 h 4.528 l -6.59,45.949 z" /></g><g
           transform="translate(447.9092,268.8916)"
           id="g28"><path
             id="path30"
             style="fill:#5b6770;fill-opacity:1;fill-rule:nonzero;stroke:none"
             d="m 0,0 c -0.377,0.288 -0.791,0.418 -1.488,0.458 -0.324,0.019 -0.504,0.019 -0.774,0.019 -0.072,0 -0.109,-0.038 -0.109,-0.134 v -4.504 c 0,-1.252 0.057,-1.577 0.631,-1.824 0.482,-0.209 0.896,-0.227 1.31,-0.227 0.809,0 2.174,0.456 2.174,2.432 C 1.744,-2.603 1.365,-1.008 0,0 m -2.371,1.521 c 0,-0.152 0.057,-0.19 0.127,-0.208 0.166,-0.038 0.432,-0.058 0.844,-0.058 0.593,0 0.988,0.076 1.293,0.36 0.464,0.399 0.738,1.084 0.738,2.016 0,1.273 -0.699,2.947 -2.246,2.947 -0.252,0 -0.414,0 -0.594,-0.041 C -2.334,6.502 -2.371,6.423 -2.371,6.214 Z m -2.156,0.323 c 0,2.888 0,3.42 -0.032,4.028 -0.037,0.649 -0.179,0.952 -0.773,1.083 -0.148,0.038 -0.449,0.059 -0.701,0.059 -0.197,0 -0.305,0.037 -0.305,0.171 0,0.133 0.125,0.171 0.395,0.171 0.953,0 2.084,-0.058 2.443,-0.058 0.877,0 1.58,0.058 2.191,0.058 3.252,0 3.827,-1.844 3.827,-2.853 0,-1.557 -0.844,-2.489 -1.834,-3.326 1.47,-0.531 3.269,-1.878 3.269,-4.103 0,-2.033 -1.49,-4.143 -4.797,-4.143 -0.431,0 -2.064,0.116 -2.603,0.116 -0.412,0 -1.543,-0.058 -2.262,-0.058 -0.234,0 -0.361,0.058 -0.361,0.189 0,0.096 0.074,0.151 0.289,0.151 0.267,0 0.482,0.041 0.646,0.079 0.358,0.075 0.448,0.493 0.522,1.046 0.086,0.796 0.086,2.297 0.086,4.046 z" /></g><g
           transform="translate(459.3604,266.8028)"
           id="g32"><path
             id="path34"
             style="fill:#5b6770;fill-opacity:1;fill-rule:nonzero;stroke:none"
             d="m 0,0 c 0,1.025 -0.178,1.444 -0.414,1.996 -0.125,0.305 -2.529,4.483 -3.158,5.473 -0.451,0.703 -0.899,1.175 -1.24,1.386 -0.235,0.131 -0.54,0.248 -0.756,0.248 -0.145,0 -0.268,0.037 -0.268,0.17 0,0.114 0.123,0.172 0.342,0.172 0.322,0 1.67,-0.058 2.262,-0.058 0.377,0 1.113,0.058 1.92,0.058 0.179,0 0.269,-0.058 0.269,-0.172 C -1.043,9.16 -1.166,9.14 -1.437,9.062 -1.6,9.027 -1.689,8.875 -1.689,8.719 -1.689,8.571 -1.6,8.341 -1.475,8.076 -1.221,7.504 1.293,2.923 1.58,2.394 1.76,2.85 4.02,7.028 4.275,7.618 4.455,8.039 4.523,8.359 4.523,8.608 4.523,8.797 4.455,9.006 4.15,9.082 3.988,9.12 3.826,9.16 3.826,9.273 c 0,0.134 0.088,0.172 0.305,0.172 0.592,0 1.166,-0.058 1.689,-0.058 0.395,0 1.578,0.058 1.92,0.058 0.196,0 0.324,-0.038 0.324,-0.153 C 8.064,9.16 7.918,9.103 7.721,9.103 7.543,9.103 7.201,9.027 6.934,8.875 6.555,8.684 6.355,8.455 5.961,7.943 5.369,7.185 2.855,2.716 2.531,1.9 2.264,1.214 2.264,0.627 2.264,0 v -1.56 c 0,-0.302 0,-1.101 0.054,-1.898 0.034,-0.552 0.196,-0.97 0.733,-1.045 0.254,-0.039 0.648,-0.079 0.9,-0.079 0.199,0 0.287,-0.055 0.287,-0.151 0,-0.131 -0.146,-0.189 -0.377,-0.189 -1.131,0 -2.261,0.058 -2.748,0.058 -0.449,0 -1.58,-0.058 -2.246,-0.058 -0.252,0 -0.392,0.038 -0.392,0.189 0,0.096 0.088,0.151 0.287,0.151 0.252,0 0.467,0.04 0.627,0.079 0.359,0.075 0.521,0.493 0.554,1.045 C 0,-2.661 0,-1.862 0,-1.56 Z" /></g><g
           transform="translate(481.499,268.3018)"
           id="g36"><path
             id="path38"
             style="fill:#5b6770;fill-opacity:1;fill-rule:nonzero;stroke:none"
             d="m 0,0 c 0,-2.127 0,-3.79 0.107,-4.725 0.063,-0.643 0.19,-1.129 0.813,-1.217 0.295,-0.043 0.756,-0.091 1.051,-0.091 0.271,0 0.353,-0.065 0.353,-0.176 0,-0.154 -0.144,-0.222 -0.455,-0.222 -1.322,0 -2.644,0.068 -3.187,0.068 -0.545,0 -1.87,-0.068 -2.662,-0.068 -0.293,0 -0.438,0.046 -0.438,0.222 0,0.111 0.082,0.176 0.311,0.176 0.318,0 0.568,0.048 0.753,0.091 0.422,0.088 0.524,0.574 0.612,1.217 0.101,0.935 0.101,2.598 0.101,4.725 v 3.904 c 0,3.369 0,3.992 -0.043,4.702 -0.039,0.754 -0.209,1.109 -0.896,1.263 -0.17,0.046 -0.527,0.068 -0.82,0.068 -0.207,0 -0.358,0.042 -0.358,0.176 0,0.179 0.172,0.222 0.485,0.222 1.085,0 2.41,-0.065 3.017,-0.065 0.795,0 5.049,0 5.531,0.022 0.397,0.021 0.651,0.021 0.858,0.088 0.127,0.043 0.232,0.131 0.336,0.131 0.086,0 0.15,-0.088 0.15,-0.198 0,-0.154 -0.107,-0.422 -0.17,-0.999 C 5.43,9.095 5.387,7.785 5.344,7.52 5.322,7.341 5.279,7.208 5.133,7.208 c -0.145,0 -0.188,0.11 -0.207,0.354 0,0.18 0,0.533 -0.127,0.843 C 4.652,8.717 4.213,9.047 3.416,9.072 L 0.189,9.138 C 0.064,9.138 0,9.072 0,8.826 V 3.284 c 0,-0.134 0.023,-0.2 0.146,-0.2 l 2.682,0.02 c 0.356,0 0.651,0 0.945,0.026 0.397,0.02 0.692,0.108 0.899,0.396 0.107,0.133 0.146,0.222 0.273,0.222 0.086,0 0.127,-0.066 0.127,-0.199 C 5.072,3.417 4.969,2.863 4.904,2.175 4.861,1.731 4.818,0.71 4.818,0.555 c 0,-0.201 0,-0.422 -0.209,-0.422 -0.125,0 -0.168,0.155 -0.168,0.311 C 4.441,0.6 4.402,0.867 4.314,1.132 4.213,1.444 3.898,1.84 3.25,1.93 2.727,1.996 0.504,1.996 0.146,1.996 0.043,1.996 0,1.951 0,1.797 Z" /></g><g
           transform="translate(494.9932,269.2344)"
           id="g40"><path
             id="path42"
             style="fill:#5b6770;fill-opacity:1;fill-rule:nonzero;stroke:none"
             d="m 0,0 c 0,-0.209 0.037,-0.285 0.162,-0.343 0.377,-0.131 0.914,-0.189 1.363,-0.189 0.719,0 0.952,0.078 1.276,0.323 0.537,0.418 1.058,1.292 1.058,2.85 0,2.699 -1.685,3.478 -2.746,3.478 C 0.666,6.119 0.342,6.101 0.162,6.043 0.037,6.002 0,5.927 0,5.776 Z m -2.119,1.501 c 0,2.889 0,3.42 -0.037,4.028 -0.037,0.648 -0.18,0.951 -0.772,1.083 -0.142,0.038 -0.447,0.059 -0.699,0.059 -0.199,0 -0.305,0.037 -0.305,0.171 0,0.133 0.123,0.171 0.395,0.171 0.951,0 2.082,-0.057 2.457,-0.057 0.613,0 1.975,0.057 2.533,0.057 1.135,0 2.336,-0.117 3.307,-0.819 0.502,-0.36 1.222,-1.33 1.222,-2.603 0,-1.406 -0.56,-2.699 -2.378,-4.256 1.605,-2.127 2.845,-3.818 3.904,-4.998 1.004,-1.101 1.74,-1.234 2.01,-1.292 0.201,-0.041 0.359,-0.059 0.5,-0.059 0.146,0 0.216,-0.055 0.216,-0.151 0,-0.15 -0.127,-0.189 -0.341,-0.189 H 8.186 c -1.002,0 -1.454,0.096 -1.92,0.358 -0.77,0.441 -1.455,1.333 -2.461,2.798 -0.719,1.043 -1.543,2.336 -1.778,2.62 -0.091,0.117 -0.195,0.134 -0.322,0.134 L 0.143,-1.406 C 0.051,-1.406 0,-1.444 0,-1.56 v -0.262 c 0,-1.769 0,-3.271 0.09,-4.067 0.053,-0.552 0.16,-0.97 0.701,-1.046 0.268,-0.038 0.662,-0.079 0.877,-0.079 0.146,0 0.215,-0.055 0.215,-0.151 0,-0.13 -0.125,-0.189 -0.358,-0.189 -1.043,0 -2.371,0.059 -2.638,0.059 -0.342,0 -1.473,-0.059 -2.194,-0.059 -0.23,0 -0.361,0.059 -0.361,0.189 0,0.096 0.074,0.151 0.293,0.151 0.268,0 0.482,0.041 0.645,0.079 0.357,0.076 0.447,0.494 0.521,1.046 0.09,0.796 0.09,2.298 0.09,4.047 z" /></g><g
           transform="translate(514.4111,267.7901)"
           id="g44"><path
             id="path46"
             style="fill:#5b6770;fill-opacity:1;fill-rule:nonzero;stroke:none"
             d="M 0,0 C 0.09,0 0.109,0.059 0.09,0.116 L -1.521,4.809 C -1.543,4.884 -1.559,4.98 -1.617,4.98 -1.668,4.98 -1.705,4.884 -1.723,4.809 L -3.373,0.134 C -3.391,0.059 -3.373,0 -3.301,0 Z m -3.662,-0.95 c -0.09,0 -0.123,-0.037 -0.162,-0.151 L -4.793,-3.82 c -0.18,-0.474 -0.268,-0.93 -0.268,-1.157 0,-0.343 0.161,-0.592 0.717,-0.592 h 0.266 c 0.221,0 0.273,-0.035 0.273,-0.151 0,-0.151 -0.109,-0.189 -0.304,-0.189 -0.578,0 -1.348,0.058 -1.905,0.058 -0.199,0 -1.185,-0.058 -2.121,-0.058 -0.23,0 -0.34,0.038 -0.34,0.189 0,0.116 0.073,0.151 0.215,0.151 0.162,0 0.414,0.018 0.557,0.04 0.828,0.114 1.17,0.759 1.527,1.709 l 4.508,11.935 c 0.219,0.55 0.324,0.761 0.504,0.761 0.162,0 0.268,-0.171 0.449,-0.61 0.43,-1.046 3.303,-8.798 4.451,-11.685 0.682,-1.711 1.207,-1.977 1.58,-2.072 0.272,-0.06 0.541,-0.078 0.756,-0.078 0.147,0 0.235,-0.017 0.235,-0.151 0,-0.151 -0.162,-0.189 -0.827,-0.189 -0.648,0 -1.959,0 -3.396,0.038 -0.322,0.02 -0.537,0.02 -0.537,0.151 0,0.116 0.074,0.151 0.254,0.169 0.119,0.04 0.25,0.212 0.16,0.44 L 0.523,-1.083 C 0.486,-0.987 0.432,-0.95 0.342,-0.95 Z" /></g><g
           transform="translate(523.2412,262.1075)"
           id="g48"><path
             id="path50"
             style="fill:#5b6770;fill-opacity:1;fill-rule:nonzero;stroke:none"
             d="m 0,0 c -0.287,0.131 -0.34,0.229 -0.34,0.647 0,1.044 0.069,2.186 0.09,2.488 0.018,0.287 0.072,0.496 0.215,0.496 0.162,0 0.178,-0.171 0.178,-0.325 0,-0.246 0.074,-0.645 0.162,-0.967 0.394,-1.406 1.455,-1.918 2.568,-1.918 1.619,0 2.406,1.159 2.406,2.164 0,0.931 -0.271,1.826 -1.759,3.042 L 2.693,6.311 c -1.974,1.633 -2.656,2.966 -2.656,4.503 0,2.089 1.65,3.591 4.147,3.591 1.17,0 1.92,-0.189 2.388,-0.322 0.162,-0.039 0.252,-0.096 0.252,-0.228 0,-0.247 -0.07,-0.801 -0.07,-2.28 0,-0.421 -0.057,-0.573 -0.199,-0.573 -0.125,0 -0.178,0.114 -0.178,0.344 0,0.171 -0.094,0.76 -0.467,1.255 -0.269,0.36 -0.793,0.929 -1.961,0.929 -1.33,0 -2.133,-0.816 -2.133,-1.955 0,-0.875 0.411,-1.54 1.905,-2.737 L 4.221,8.44 C 6.377,6.673 7.168,5.396 7.168,3.594 7.168,2.49 6.771,1.18 5.48,0.287 4.582,-0.323 3.574,-0.491 2.619,-0.491 1.582,-0.491 0.771,-0.36 0,0" /></g><g
           transform="translate(536.3018,270.7354)"
           id="g52"><path
             id="path54"
             style="fill:#5b6770;fill-opacity:1;fill-rule:nonzero;stroke:none"
             d="m 0,0 c 0,2.889 0,3.421 -0.035,4.028 -0.037,0.648 -0.18,0.952 -0.774,1.083 -0.142,0.038 -0.449,0.059 -0.699,0.059 -0.197,0 -0.306,0.037 -0.306,0.171 0,0.134 0.125,0.172 0.396,0.172 0.951,0 2.08,-0.059 2.584,-0.059 0.576,0 4.15,0 4.49,0.021 C 5.998,5.513 6.287,5.55 6.43,5.588 6.518,5.605 6.627,5.663 6.717,5.663 6.805,5.663 6.826,5.588 6.826,5.492 6.826,5.358 6.734,5.13 6.68,4.258 6.664,4.067 6.627,3.231 6.592,3.003 6.574,2.909 6.539,2.794 6.412,2.794 6.287,2.794 6.25,2.889 6.25,3.061 6.25,3.193 6.234,3.517 6.145,3.743 6.014,4.086 5.836,4.312 4.939,4.427 4.635,4.467 2.748,4.502 2.389,4.502 2.303,4.502 2.262,4.448 2.262,4.312 v -4.805 c 0,-0.134 0.021,-0.209 0.127,-0.209 0.398,0 2.461,0 2.871,0.035 0.433,0.04 0.703,0.099 0.865,0.284 0.125,0.154 0.197,0.25 0.287,0.25 0.074,0 0.127,-0.038 0.127,-0.151 0,-0.112 -0.094,-0.418 -0.146,-1.389 -0.039,-0.38 -0.071,-1.139 -0.071,-1.272 0,-0.152 0,-0.361 -0.162,-0.361 -0.125,0 -0.162,0.074 -0.162,0.172 -0.016,0.189 -0.016,0.434 -0.072,0.684 -0.09,0.377 -0.342,0.665 -1.004,0.739 -0.342,0.038 -2.119,0.059 -2.551,0.059 -0.088,0 -0.109,-0.076 -0.109,-0.192 v -1.5 c 0,-0.644 -0.016,-2.393 0,-2.945 0.041,-1.311 0.326,-1.596 2.156,-1.596 0.467,0 1.223,0 1.686,0.228 0.47,0.228 0.687,0.628 0.812,1.405 0.033,0.209 0.068,0.285 0.195,0.285 0.147,0 0.147,-0.153 0.147,-0.343 0,-0.435 -0.147,-1.728 -0.238,-2.107 -0.12,-0.495 -0.286,-0.495 -0.965,-0.495 -2.717,0 -3.918,0.115 -4.979,0.115 -0.414,0 -1.543,-0.057 -2.262,-0.057 -0.232,0 -0.357,0.057 -0.357,0.189 0,0.096 0.07,0.15 0.285,0.15 0.272,0 0.487,0.04 0.649,0.078 0.357,0.077 0.447,0.495 0.519,1.046 C 0,-6.594 0,-5.093 0,-3.344 Z" /></g><g
           transform="translate(551.5732,269.2344)"
           id="g56"><path
             id="path58"
             style="fill:#5b6770;fill-opacity:1;fill-rule:nonzero;stroke:none"
             d="m 0,0 c 0,-0.209 0.035,-0.285 0.16,-0.343 0.377,-0.131 0.918,-0.189 1.367,-0.189 0.721,0 0.952,0.078 1.272,0.323 0.541,0.418 1.062,1.292 1.062,2.85 0,2.699 -1.687,3.478 -2.748,3.478 C 0.664,6.119 0.342,6.101 0.16,6.043 0.035,6.002 0,5.927 0,5.776 Z m -2.119,1.501 c 0,2.889 0,3.42 -0.035,4.028 -0.037,0.648 -0.18,0.951 -0.774,1.083 -0.142,0.038 -0.449,0.059 -0.701,0.059 -0.195,0 -0.307,0.037 -0.307,0.171 0,0.133 0.127,0.171 0.395,0.171 0.955,0 2.086,-0.057 2.461,-0.057 0.611,0 1.978,0.057 2.535,0.057 1.133,0 2.334,-0.117 3.303,-0.819 0.506,-0.36 1.221,-1.33 1.221,-2.603 0,-1.406 -0.557,-2.699 -2.372,-4.256 1.6,-2.127 2.838,-3.818 3.899,-4.998 1.008,-1.101 1.742,-1.234 2.012,-1.292 0.197,-0.041 0.361,-0.059 0.502,-0.059 0.146,0 0.216,-0.055 0.216,-0.151 0,-0.15 -0.127,-0.189 -0.341,-0.189 H 8.188 c -1.002,0 -1.454,0.096 -1.92,0.358 -0.772,0.441 -1.454,1.333 -2.461,2.798 -0.719,1.043 -1.545,2.336 -1.778,2.62 -0.093,0.117 -0.195,0.134 -0.326,0.134 l -1.56,0.038 C 0.055,-1.406 0,-1.444 0,-1.56 v -0.262 c 0,-1.769 0,-3.271 0.09,-4.067 0.053,-0.552 0.162,-0.97 0.699,-1.046 0.27,-0.038 0.666,-0.079 0.881,-0.079 0.141,0 0.215,-0.055 0.215,-0.151 0,-0.13 -0.125,-0.189 -0.358,-0.189 -1.043,0 -2.371,0.059 -2.642,0.059 -0.34,0 -1.471,-0.059 -2.19,-0.059 -0.236,0 -0.359,0.059 -0.359,0.189 0,0.096 0.07,0.151 0.287,0.151 0.268,0 0.484,0.041 0.645,0.079 0.361,0.076 0.451,0.494 0.523,1.046 0.09,0.796 0.09,2.298 0.09,4.047 z" /></g></g></g></g></svg>